<svg width="261" height="273" viewBox="0 0 261 273" fill="none" xmlns="http://www.w3.org/2000/svg">
<g clip-path="url(#clip0_19_2007)">
<path d="M1.174 11.636H2.266V19.112H5.194V20H1.174V11.636ZM5.85369 20V13.424H6.94569V20H5.85369ZM6.41769 12.356C5.99769 12.356 5.67369 12.032 5.67369 11.612C5.67369 11.192 5.99769 10.868 6.41769 10.868C6.81369 10.868 7.13769 11.192 7.13769 11.612C7.13769 12.032 6.81369 12.356 6.41769 12.356ZM8.51081 20V14.324H7.65881V13.424H8.51081V12.956C8.51081 11.492 9.23081 10.832 10.9108 10.832V11.744C9.92681 11.744 9.60281 12.104 9.60281 12.956V13.424H10.9828V14.324H9.60281V20H8.51081ZM14.552 14.24C13.484 14.24 12.596 14.948 12.476 16.232H16.628C16.64 14.948 15.68 14.24 14.552 14.24ZM17.624 17.972C17.288 19.172 16.232 20.108 14.6 20.108C12.728 20.108 11.348 18.788 11.348 16.7C11.348 14.624 12.68 13.316 14.6 13.316C16.508 13.316 17.756 14.66 17.756 16.46C17.756 16.7 17.744 16.892 17.72 17.12H12.464C12.548 18.452 13.484 19.184 14.6 19.184C15.584 19.184 16.208 18.68 16.448 17.972H17.624ZM26.1247 18.212C26.1247 19.292 25.1767 20.108 23.7247 20.108C22.1887 20.108 21.1087 19.268 21.0367 18.068H22.1647C22.2247 18.704 22.7887 19.184 23.7127 19.184C24.5767 19.184 25.0567 18.752 25.0567 18.212C25.0567 16.748 21.1687 17.6 21.1687 15.152C21.1687 14.144 22.1167 13.316 23.5807 13.316C25.0327 13.316 25.9927 14.096 26.0647 15.38H24.9727C24.9247 14.72 24.4207 14.24 23.5447 14.24C22.7407 14.24 22.2607 14.624 22.2607 15.152C22.2607 16.712 26.0767 15.86 26.1247 18.212ZM29.9622 14.24C28.8942 14.24 28.0062 14.948 27.8862 16.232H32.0382C32.0502 14.948 31.0902 14.24 29.9622 14.24ZM33.0342 17.972C32.6982 19.172 31.6422 20.108 30.0102 20.108C28.1382 20.108 26.7582 18.788 26.7582 16.7C26.7582 14.624 28.0902 13.316 30.0102 13.316C31.9182 13.316 33.1662 14.66 33.1662 16.46C33.1662 16.7 33.1542 16.892 33.1302 17.12H27.8742C27.9582 18.452 28.8942 19.184 30.0102 19.184C30.9942 19.184 31.6182 18.68 31.8582 17.972H33.0342ZM35.1996 16.424V20H34.1076V13.424H35.1996V14.492C35.5716 13.76 36.2796 13.304 37.3236 13.304V14.432H37.0356C35.9916 14.432 35.1996 14.9 35.1996 16.424ZM37.3042 13.424H38.4802L40.5322 18.992L42.5722 13.424H43.7362L41.1562 20H39.8842L37.3042 13.424ZM44.3107 20V13.424H45.4027V20H44.3107ZM44.8747 12.356C44.4547 12.356 44.1307 12.032 44.1307 11.612C44.1307 11.192 44.4547 10.868 44.8747 10.868C45.2707 10.868 45.5947 11.192 45.5947 11.612C45.5947 12.032 45.2707 12.356 44.8747 12.356ZM46.3558 16.7C46.3558 14.636 47.6878 13.316 49.5598 13.316C51.1918 13.316 52.2598 14.156 52.5958 15.536H51.4198C51.1918 14.744 50.5318 14.24 49.5598 14.24C48.3598 14.24 47.4718 15.092 47.4718 16.7C47.4718 18.332 48.3598 19.184 49.5598 19.184C50.5318 19.184 51.1798 18.716 51.4198 17.888H52.5958C52.2598 19.196 51.1918 20.108 49.5598 20.108C47.6878 20.108 46.3558 18.788 46.3558 16.7ZM56.3489 14.24C55.2809 14.24 54.3929 14.948 54.2729 16.232H58.4249C58.4369 14.948 57.4769 14.24 56.3489 14.24ZM59.4209 17.972C59.0849 19.172 58.0289 20.108 56.3969 20.108C54.5249 20.108 53.1449 18.788 53.1449 16.7C53.1449 14.624 54.4769 13.316 56.3969 13.316C58.3049 13.316 59.5529 14.66 59.5529 16.46C59.5529 16.7 59.5409 16.892 59.5169 17.12H54.2609C54.3449 18.452 55.2809 19.184 56.3969 19.184C57.3809 19.184 58.0049 18.68 58.2449 17.972H59.4209ZM65.2223 18.212C65.2223 19.292 64.2743 20.108 62.8223 20.108C61.2863 20.108 60.2063 19.268 60.1343 18.068H61.2623C61.3223 18.704 61.8863 19.184 62.8103 19.184C63.6743 19.184 64.1543 18.752 64.1543 18.212C64.1543 16.748 60.2663 17.6 60.2663 15.152C60.2663 14.144 61.2143 13.316 62.6783 13.316C64.1303 13.316 65.0903 14.096 65.1623 15.38H64.0703C64.0223 14.72 63.5183 14.24 62.6423 14.24C61.8383 14.24 61.3583 14.624 61.3583 15.152C61.3583 16.712 65.1743 15.86 65.2223 18.212Z" fill="#999999"/>
<rect x="0.25" y="40" width="259.75" height="165" rx="10" fill="#FDFFA5" stroke="#E7E9ED"/>
<rect x="139" y="53" width="108.026" height="29.6336" rx="8" fill="#442D87"/>
<path d="M160.625 72.2208V71.4408C162.905 69.6048 165.065 67.8768 165.065 66.1008C165.065 65.1408 164.645 64.4208 163.469 64.4208C162.341 64.4208 161.765 65.2008 161.717 66.2928H160.661C160.733 64.4448 161.897 63.4848 163.457 63.4848C165.089 63.4848 166.145 64.4448 166.145 66.0528C166.145 68.2128 163.817 70.0488 162.269 71.3088H166.397V72.2208H160.625ZM167.635 65.8248C167.743 64.3368 168.871 63.4728 170.479 63.4728C172.171 63.4728 173.095 64.4568 173.095 65.7048C173.095 66.7008 172.471 67.4808 171.559 67.6848V67.7448C172.567 67.9848 173.251 68.7288 173.251 69.9768C173.251 71.3208 172.315 72.3768 170.503 72.3768C168.859 72.3768 167.635 71.5008 167.503 69.8208H168.559C168.667 70.7448 169.339 71.4528 170.491 71.4528C171.655 71.4528 172.207 70.7688 172.207 69.8808C172.207 68.6568 171.355 68.1888 169.795 68.1888H169.519V67.2768H169.807C171.259 67.2648 172.039 66.8208 172.039 65.8128C172.039 64.9848 171.487 64.4088 170.443 64.4088C169.423 64.4088 168.811 64.9848 168.703 65.8248H167.635ZM174.594 72.2208V71.4408C176.874 69.6048 179.034 67.8768 179.034 66.1008C179.034 65.1408 178.614 64.4208 177.438 64.4208C176.31 64.4208 175.734 65.2008 175.686 66.2928H174.63C174.702 64.4448 175.866 63.4848 177.426 63.4848C179.058 63.4848 180.114 64.4448 180.114 66.0528C180.114 68.2128 177.786 70.0488 176.238 71.3088H180.366V72.2208H174.594ZM185.007 72.3168V63.4368H186.099V72.3168H185.007ZM187.96 72.3168V65.7408H189.052V72.3168H187.96ZM188.524 64.6728C188.104 64.6728 187.78 64.3488 187.78 63.9288C187.78 63.5088 188.104 63.1848 188.524 63.1848C188.92 63.1848 189.244 63.5088 189.244 63.9288C189.244 64.3488 188.92 64.6728 188.524 64.6728ZM195.641 70.5288C195.641 71.6088 194.693 72.4248 193.241 72.4248C191.705 72.4248 190.625 71.5848 190.553 70.3848H191.681C191.741 71.0208 192.305 71.5008 193.229 71.5008C194.093 71.5008 194.573 71.0688 194.573 70.5288C194.573 69.0648 190.685 69.9168 190.685 67.4688C190.685 66.4608 191.633 65.6328 193.097 65.6328C194.549 65.6328 195.509 66.4128 195.581 67.6968H194.489C194.441 67.0368 193.937 66.5568 193.061 66.5568C192.257 66.5568 191.777 66.9408 191.777 67.4688C191.777 69.0288 195.593 68.1768 195.641 70.5288ZM197.423 70.5168V66.6408H196.571V65.7408H197.423V64.0848H198.515V65.7408H200.231V66.6408H198.515V70.5168C198.515 71.1648 198.755 71.3928 199.427 71.3928H200.231V72.3168H199.247C198.083 72.3168 197.423 71.8368 197.423 70.5168ZM201.554 72.3168V65.7408H202.646V72.3168H201.554ZM202.118 64.6728C201.698 64.6728 201.374 64.3488 201.374 63.9288C201.374 63.5088 201.698 63.1848 202.118 63.1848C202.514 63.1848 202.838 63.5088 202.838 63.9288C202.838 64.3488 202.514 64.6728 202.118 64.6728ZM209.319 72.3168V68.5968C209.319 67.2528 208.587 66.5688 207.483 66.5688C206.367 66.5688 205.599 67.2648 205.599 68.6808V72.3168H204.507V65.7408H205.599V66.6768C206.031 65.9928 206.823 65.6208 207.711 65.6208C209.235 65.6208 210.399 66.5568 210.399 68.4408V72.3168H209.319ZM211.775 69.0048C211.775 66.9528 213.131 65.6328 214.895 65.6328C216.095 65.6328 216.959 66.2328 217.343 66.9408V65.7408H218.447V72.4608C218.447 74.2728 217.235 75.5568 215.303 75.5568C213.575 75.5568 212.339 74.6808 212.123 73.2768H213.203C213.443 74.0688 214.223 74.6088 215.303 74.6088C216.467 74.6088 217.343 73.8648 217.343 72.4608V71.0808C216.947 71.7888 216.095 72.4248 214.895 72.4248C213.131 72.4248 211.775 71.0448 211.775 69.0048ZM217.343 69.0168C217.343 67.4928 216.311 66.5808 215.111 66.5808C213.911 66.5808 212.891 67.4568 212.891 69.0048C212.891 70.5528 213.911 71.4648 215.111 71.4648C216.311 71.4648 217.343 70.5648 217.343 69.0168ZM225.02 70.5288C225.02 71.6088 224.072 72.4248 222.62 72.4248C221.084 72.4248 220.004 71.5848 219.932 70.3848H221.06C221.12 71.0208 221.684 71.5008 222.608 71.5008C223.472 71.5008 223.952 71.0688 223.952 70.5288C223.952 69.0648 220.064 69.9168 220.064 67.4688C220.064 66.4608 221.012 65.6328 222.476 65.6328C223.928 65.6328 224.888 66.4128 224.96 67.6968H223.868C223.82 67.0368 223.316 66.5568 222.44 66.5568C221.636 66.5568 221.156 66.9408 221.156 67.4688C221.156 69.0288 224.972 68.1768 225.02 70.5288Z" fill="white"/>
<path d="M9.59 229.02C9.59 227.64 8.55 226.8 7.03 226.8H4.03V231.14H7.11C8.65 231.14 9.59 230.36 9.59 229.02ZM9.23 222.96C9.23 221.7 8.33 220.96 6.85 220.96H4.03V224.94H6.85C8.33 224.94 9.23 224.24 9.23 222.96ZM11.87 229.26C11.87 231.38 10.15 233 7.31 233H1.75V219.1H7.05C9.99 219.1 11.55 220.72 11.55 222.68C11.55 224.36 10.53 225.38 9.19 225.86C10.67 226.12 11.87 227.6 11.87 229.26ZM13.9677 233V221.98H16.2477V233H13.9677ZM15.1277 220.52C14.3077 220.52 13.6677 219.88 13.6677 219.06C13.6677 218.24 14.3077 217.6 15.1277 217.6C15.9277 217.6 16.5677 218.24 16.5677 219.06C16.5677 219.88 15.9277 220.52 15.1277 220.52ZM21.1413 227.2V233H18.8613V221.98H21.1413V223.58C21.7813 222.48 22.8813 221.8 24.4413 221.8V224.16H23.8613C22.1813 224.16 21.1413 224.86 21.1413 227.2ZM26.5172 229.94V223.84H25.2172V221.98H26.5172V219.24H28.8172V221.98H31.4972V223.84H28.8172V229.94C28.8172 230.76 29.1372 231.1 30.0972 231.1H31.4972V233H29.6972C27.7372 233 26.5172 232.18 26.5172 229.94ZM33.2187 233V218.2H35.4987V223.26C36.2587 222.34 37.4987 221.8 38.9187 221.8C41.3787 221.8 43.2987 223.42 43.2987 226.5V233H41.0387V226.84C41.0387 224.82 39.9387 223.78 38.2787 223.78C36.5987 223.78 35.4987 224.82 35.4987 226.84V233H33.2187ZM59.4824 222.2H57.2024C57.2424 221.18 56.6624 220.64 55.8024 220.64C54.9024 220.64 54.3224 221.24 54.3224 221.98C54.3224 222.74 54.7424 223.36 55.7224 224.42L59.4024 228.08L60.8224 225.74H63.2824L61.4824 228.82C61.3224 229.1 61.1424 229.38 60.9824 229.64L64.3624 233H61.3824L59.6624 231.28C58.3224 232.62 56.7824 233.26 54.8424 233.26C51.8424 233.26 49.8424 231.6 49.8424 229C49.8424 227.12 50.9024 225.54 53.1024 224.64C52.3224 223.7 52.0424 222.96 52.0424 221.98C52.0424 220.16 53.5224 218.78 55.9024 218.78C58.3224 218.78 59.6224 220.3 59.4824 222.2ZM54.8424 231.32C56.1424 231.32 57.2024 230.8 58.1624 229.78L54.4824 226.08C52.8624 226.72 52.1224 227.68 52.1224 228.92C52.1224 230.26 53.2024 231.32 54.8424 231.32ZM74.8328 219.1C79.2928 219.1 82.2128 221.8 82.2128 226.1C82.2128 230.38 79.2928 233 74.8328 233H70.2928V219.1H74.8328ZM72.5728 231.14H74.8328C78.1128 231.14 79.8728 229.26 79.8728 226.1C79.8728 222.92 78.1128 220.96 74.8328 220.96H72.5728V231.14ZM88.7326 223.72C87.1926 223.72 85.9526 224.76 85.7126 226.5H91.8126C91.7726 224.8 90.4326 223.72 88.7326 223.72ZM93.8926 229.72C93.2726 231.64 91.5326 233.18 88.8326 233.18C85.6726 233.18 83.3326 230.94 83.3326 227.48C83.3326 224.02 85.5726 221.8 88.8326 221.8C91.9726 221.8 94.1926 223.98 94.1926 227.22C94.1926 227.6 94.1726 227.96 94.1126 228.34H85.6926C85.8526 230.16 87.1526 231.26 88.8326 231.26C90.2326 231.26 91.0126 230.58 91.4326 229.72H93.8926ZM95.2964 227.44C95.2964 224.04 97.5964 221.8 100.496 221.8C102.356 221.8 103.636 222.68 104.316 223.58V221.98H106.616V233H104.316V231.36C103.616 232.3 102.296 233.18 100.456 233.18C97.5964 233.18 95.2964 230.84 95.2964 227.44ZM104.316 227.48C104.316 225.12 102.696 223.78 100.976 223.78C99.2764 223.78 97.6364 225.06 97.6364 227.44C97.6364 229.82 99.2764 231.2 100.976 231.2C102.696 231.2 104.316 229.86 104.316 227.48ZM109.591 229.94V223.84H108.291V221.98H109.591V219.24H111.891V221.98H114.571V223.84H111.891V229.94C111.891 230.76 112.211 231.1 113.171 231.1H114.571V233H112.771C110.811 233 109.591 232.18 109.591 229.94ZM116.293 233V218.2H118.573V223.26C119.333 222.34 120.573 221.8 121.993 221.8C124.453 221.8 126.373 223.42 126.373 226.5V233H124.113V226.84C124.113 224.82 123.013 223.78 121.353 223.78C119.673 223.78 118.573 224.82 118.573 226.84V233H116.293Z" fill="#161C2D"/>
<path d="M169.732 186.212H6V186.294H169.732V186.212Z" fill="#EBEBEB"/>
<path d="M83.609 171.607H20.3789C19.8836 171.606 19.4088 171.409 19.0589 171.058C18.7089 170.707 18.5124 170.232 18.5124 169.737V80.8534C18.5167 80.3609 18.7152 79.89 19.0646 79.543C19.4141 79.196 19.8864 79.0008 20.3789 79H83.609C84.1049 79 84.5805 79.197 84.9311 79.5477C85.2818 79.8983 85.4788 80.3739 85.4788 80.8698V169.737C85.4788 170.233 85.2818 170.709 84.9311 171.059C84.5805 171.41 84.1049 171.607 83.609 171.607ZM20.3789 79.0655C19.9053 79.0664 19.4514 79.2551 19.1168 79.5903C18.7822 79.9255 18.5943 80.3798 18.5943 80.8534V169.737C18.5943 170.211 18.7822 170.665 19.1168 171C19.4514 171.335 19.9053 171.524 20.3789 171.525H83.609C84.0829 171.524 84.5372 171.335 84.8723 171C85.2074 170.665 85.3961 170.211 85.3969 169.737V80.8534C85.3961 80.3795 85.2074 79.9252 84.8723 79.5901C84.5372 79.255 84.0829 79.0664 83.609 79.0655H20.3789Z" fill="#EBEBEB"/>
<path d="M154.443 171.607H91.2094C90.7138 171.606 90.2387 171.409 89.8882 171.058C89.5377 170.708 89.3405 170.233 89.3396 169.737V80.8534C89.3448 80.3607 89.5439 79.8897 89.894 79.5428C90.244 79.1959 90.7166 79.0008 91.2094 79H154.443C154.935 79.0017 155.406 79.1972 155.755 79.5442C156.104 79.8911 156.302 80.3615 156.306 80.8534V169.737C156.306 170.232 156.11 170.706 155.761 171.057C155.411 171.407 154.937 171.605 154.443 171.607ZM91.2094 79.0655C90.7355 79.0664 90.2812 79.255 89.9461 79.5901C89.611 79.9252 89.4223 80.3795 89.4215 80.8534V169.737C89.4223 170.211 89.611 170.665 89.9461 171C90.2812 171.335 90.7355 171.524 91.2094 171.525H154.443C154.917 171.524 155.371 171.335 155.706 171C156.041 170.665 156.23 170.211 156.231 169.737V80.8534C156.23 80.3795 156.041 79.9252 155.706 79.5901C155.371 79.255 154.917 79.0664 154.443 79.0655H91.2094Z" fill="#EBEBEB"/>
<path d="M153.326 189.329H142.988V189.411H153.326V189.329Z" fill="#EBEBEB"/>
<path d="M115.812 188.442H104.871V188.524H115.812V188.442Z" fill="#EBEBEB"/>
<path d="M156.313 192.371H135.869V192.453H156.313V192.371Z" fill="#EBEBEB"/>
<path d="M29.4759 191.821H23.1787V191.903H29.4759V191.821Z" fill="#EBEBEB"/>
<path d="M42.3125 191.821H32.3936V191.903H42.3125V191.821Z" fill="#EBEBEB"/>
<path d="M85.9471 190.439H68.0806V190.521H85.9471V190.439Z" fill="#EBEBEB"/>
<path d="M105.212 125.84H146.81V91.5255H105.212V125.84Z" fill="#F0F0F0"/>
<path d="M99.1831 125.84H145.654V91.5255H99.1831V125.84Z" fill="#F5F5F5"/>
<path d="M101.888 94.2337V123.139H142.952V94.2337H101.888Z" fill="white"/>
<path d="M101.885 94.2335V103.452H142.949V94.2335H101.885Z" fill="#FAFAFA"/>
<path d="M126.505 120.809C131.952 118.552 134.539 112.308 132.283 106.861C130.026 101.414 123.782 98.827 118.335 101.083C112.888 103.339 110.301 109.584 112.557 115.031C114.813 120.478 121.058 123.065 126.505 120.809Z" fill="#E6E6E6"/>
<path d="M101.885 110.947V123.139H142.949V110.947H101.885Z" fill="#F0F0F0"/>
<path d="M31.4636 147.823H80.259L80.259 86.2893H31.4636L31.4636 147.823Z" fill="#E6E6E6"/>
<path d="M29.0305 147.823H79.1227L79.1227 86.2893H29.0305L29.0305 147.823Z" fill="#F0F0F0"/>
<path d="M75.7171 145.056V126.928H32.4361V145.056H75.7171Z" fill="#F5F5F5"/>
<path d="M74.584 125.939V90.0553H33.5659V125.939H74.584Z" fill="#FAFAFA"/>
<path d="M33.9982 125.939V90.0553H33.5692V125.939H33.9982Z" fill="#E6E6E6"/>
<path d="M68.0381 125.935L53.705 90.0519H44.7652L59.0983 125.935H68.0381Z" fill="white"/>
<path d="M57.1761 125.935L42.843 90.0519H39.3587L53.6918 125.935H57.1761Z" fill="white"/>
<path d="M33.2515 145.053V127.465H32.4361V145.053H33.2515Z" fill="#E6E6E6"/>
<path d="M30.1112 128.555H78.0421V125.294H30.1112V128.555Z" fill="#F0F0F0"/>
<path d="M93.1054 84.2394H15.6569C15.4256 84.2385 15.204 84.146 15.0408 83.9822C14.8775 83.8183 14.7859 83.5964 14.7859 83.3651C14.7867 83.1343 14.8788 82.9133 15.0419 82.7501C15.2051 82.5869 15.4262 82.4949 15.6569 82.494H93.1054C93.3367 82.494 93.5586 82.5857 93.7225 82.7489C93.8864 82.9122 93.9789 83.1338 93.9798 83.3651C93.9789 83.5967 93.8865 83.8186 93.7227 83.9824C93.5589 84.1461 93.337 84.2385 93.1054 84.2394Z" fill="#EBEBEB"/>
<path d="M84.4833 80.1658H78.0421V159.776H84.4833V80.1658Z" fill="#FAFAFA"/>
<path d="M82.4596 80.1658H80.819V159.776H82.4596V80.1658Z" fill="#F0F0F0"/>
<path d="M88.5144 80.1658H82.0732V159.776H88.5144V80.1658Z" fill="#FAFAFA"/>
<path d="M86.4907 80.1658H84.8501V159.776H86.4907V80.1658Z" fill="#F0F0F0"/>
<path d="M92.4898 80.1658H86.0486V159.776H92.4898V80.1658Z" fill="#FAFAFA"/>
<path d="M89.6441 80.1658H88.8222V159.776H89.6441V80.1658Z" fill="#F0F0F0"/>
<path d="M23.4604 80.1658H17.0192V159.776H23.4604V80.1658Z" fill="#FAFAFA"/>
<path d="M21.4366 80.1658H19.7961V159.776H21.4366V80.1658Z" fill="#F0F0F0"/>
<path d="M27.4914 80.1658H21.0502V159.776H27.4914V80.1658Z" fill="#FAFAFA"/>
<path d="M25.4677 80.1658H23.8271V159.776H25.4677V80.1658Z" fill="#F0F0F0"/>
<path d="M31.4669 80.1658H25.0257V159.776H31.4669V80.1658Z" fill="#FAFAFA"/>
<path d="M28.6212 80.1658H27.7993V159.776H28.6212V80.1658Z" fill="#F0F0F0"/>
<path d="M65.0319 151.288H50.4827C48.4879 151.288 46.8708 152.905 46.8708 154.9V182.6C46.8708 184.595 48.4879 186.212 50.4827 186.212H65.0319C67.0268 186.212 68.6439 184.595 68.6439 182.6V154.9C68.6439 152.905 67.0268 151.288 65.0319 151.288Z" fill="#F5F5F5"/>
<path d="M71.5485 151.288H56.9993C55.0044 151.288 53.3873 152.905 53.3873 154.9V182.6C53.3873 184.595 55.0044 186.212 56.9993 186.212H71.5485C73.5433 186.212 75.1604 184.595 75.1604 182.6V154.9C75.1604 152.905 73.5433 151.288 71.5485 151.288Z" fill="#E6E6E6"/>
<path d="M137.496 169.927H58.319C57.3279 169.927 56.5244 170.73 56.5244 171.721V184.414C56.5244 185.405 57.3279 186.209 58.319 186.209H137.496C138.488 186.209 139.291 185.405 139.291 184.414V171.721C139.291 170.73 138.488 169.927 137.496 169.927Z" fill="#F0F0F0"/>
<path d="M144.93 139.843H77.636C76.5941 139.863 75.5956 140.264 74.8297 140.971C74.0638 141.677 73.5837 142.64 73.4805 143.677L71.6958 164.914C71.6448 165.402 71.6981 165.897 71.8522 166.363C72.0063 166.83 72.2577 167.259 72.5898 167.621C72.9219 167.984 73.3272 168.272 73.7788 168.466C74.2304 168.66 74.718 168.756 75.2095 168.748H142.503C143.545 168.728 144.544 168.327 145.31 167.62C146.076 166.914 146.556 165.951 146.659 164.914L148.447 143.677C148.498 143.188 148.445 142.693 148.291 142.226C148.137 141.759 147.886 141.33 147.553 140.967C147.22 140.605 146.815 140.317 146.362 140.123C145.91 139.929 145.422 139.834 144.93 139.843Z" fill="#EBEBEB"/>
<path d="M139.726 139.843H72.4326C71.3907 139.863 70.3921 140.264 69.6262 140.971C68.8604 141.677 68.3803 142.64 68.2771 143.677L66.4957 164.913C66.4442 165.402 66.497 165.896 66.6507 166.363C66.8044 166.83 67.0555 167.259 67.3874 167.621C67.7192 167.984 68.1243 168.272 68.5757 168.466C69.0272 168.66 69.5147 168.756 70.0061 168.748H137.313C138.356 168.729 139.355 168.328 140.121 167.621C140.888 166.915 141.369 165.951 141.472 164.913L143.253 143.677C143.305 143.187 143.252 142.692 143.097 142.224C142.942 141.756 142.69 141.326 142.356 140.963C142.023 140.601 141.615 140.313 141.162 140.12C140.709 139.927 140.219 139.832 139.726 139.843Z" fill="#FAFAFA"/>
<path d="M102.104 164.93L101.688 164.897L103.473 143.661C103.58 142.571 104.085 141.558 104.89 140.815C105.696 140.073 106.746 139.652 107.841 139.633V140.049C106.851 140.068 105.902 140.45 105.175 141.121C104.447 141.793 103.99 142.708 103.892 143.694L102.104 164.93Z" fill="#F0F0F0"/>
<path d="M143.194 151.288H128.645C126.65 151.288 125.033 152.905 125.033 154.9V182.6C125.033 184.595 126.65 186.212 128.645 186.212H143.194C145.189 186.212 146.806 184.595 146.806 182.6V154.9C146.806 152.905 145.189 151.288 143.194 151.288Z" fill="#F5F5F5"/>
<path d="M127.204 162.392H56.5244C55.3416 162.392 54.3828 163.351 54.3828 164.534V169.269C54.3828 170.452 55.3416 171.41 56.5244 171.41H127.204C128.387 171.41 129.346 170.452 129.346 169.269V164.534C129.346 163.351 128.387 162.392 127.204 162.392Z" fill="#F5F5F5"/>
<path d="M94.006 171.62C93.3827 171.619 92.7851 171.371 92.3444 170.93C91.9036 170.49 91.6557 169.892 91.6548 169.269V164.534C91.6557 163.91 91.9036 163.313 92.3444 162.872C92.7851 162.431 93.3827 162.183 94.006 162.182V162.602C93.4933 162.602 93.0015 162.805 92.6387 163.167C92.2758 163.53 92.0715 164.021 92.0707 164.534V169.269C92.0715 169.782 92.2757 170.274 92.6385 170.636C93.0012 170.999 93.493 171.203 94.006 171.204V171.62Z" fill="#EBEBEB"/>
<path d="M149.714 151.288H135.165C133.17 151.288 131.553 152.905 131.553 154.9V182.6C131.553 184.595 133.17 186.212 135.165 186.212H149.714C151.709 186.212 153.326 184.595 153.326 182.6V154.9C153.326 152.905 151.709 151.288 149.714 151.288Z" fill="#E6E6E6"/>
<path d="M87.866 201C122.932 201 151.358 199.34 151.358 197.293C151.358 195.246 122.932 193.586 87.866 193.586C52.8004 193.586 24.374 195.246 24.374 197.293C24.374 199.34 52.8004 201 87.866 201Z" fill="#F5F5F5"/>
<path d="M66.7413 89.5804C65.8473 91.5648 63.9644 90.7003 63.5846 92.4424C63.2047 94.1845 61.7475 93.2218 60.9845 95.6057C60.2215 97.9897 61.9669 97.0073 61.8097 99.0375C61.6525 101.068 63.7516 101.749 65.4413 101.281C67.131 100.812 69.7605 102.04 71.519 103.245C73.2775 104.451 77.4134 102.839 76.7224 100.57C76.0315 98.3007 74.9345 97.6229 76.0675 96.3982C77.2005 95.1735 78.399 91.8137 75.9594 90.9066C73.3757 89.9537 73.9946 88.539 72.0298 87.7564C70.0651 86.9738 67.6353 87.5959 66.7413 89.5804Z" fill="#263238"/>
<path d="M77.4363 108.799L77.4887 109.078L77.5542 109.405C77.6 109.628 77.6524 109.857 77.7048 110.083C77.8129 110.538 77.934 110.996 78.0617 111.458C78.3204 112.378 78.6119 113.299 78.9262 114.215C79.0801 114.674 79.2537 115.129 79.4142 115.587L79.6728 116.275L79.8038 116.603C79.8464 116.734 79.8922 116.878 79.9348 117.019C80.0199 117.328 80.0823 117.643 80.1215 117.962C80.1215 118.047 80.1411 118.135 80.1444 118.233C80.1477 118.332 80.1444 118.423 80.1444 118.531C80.1394 118.78 80.0986 119.027 80.0232 119.265C79.915 119.609 79.7035 119.912 79.4174 120.133C79.1525 120.338 78.8289 120.452 78.494 120.46C78.2707 120.46 78.049 120.422 77.8391 120.346C77.6604 120.278 77.4892 120.193 77.3282 120.09C77.1621 119.99 77.0427 119.827 76.996 119.639C76.9494 119.45 76.9793 119.251 77.0793 119.085C77.1701 118.931 77.313 118.815 77.4821 118.757L77.9144 118.62C78.0355 118.577 78.2615 118.541 78.2418 118.466C78.2222 118.391 78.137 118.423 78.0028 118.495C77.9101 118.556 77.8301 118.634 77.767 118.725C77.7343 118.767 77.7146 118.751 77.6917 118.725L77.6 118.554C77.5247 118.414 77.4395 118.227 77.3315 118.063C77.2824 117.971 77.2267 117.886 77.1743 117.785L77.0073 117.434L76.6798 116.737C76.4615 116.265 76.2563 115.789 76.0642 115.309C75.668 114.35 75.311 113.371 75.0032 112.362C74.846 111.858 74.7118 111.347 74.5873 110.826C74.5251 110.567 74.4694 110.302 74.417 110.034C74.3909 109.899 74.3679 109.765 74.345 109.624C74.3221 109.484 74.3057 109.359 74.2828 109.159C74.2445 108.754 74.3632 108.349 74.6143 108.029C74.8655 107.708 75.2299 107.496 75.6328 107.436C76.0356 107.376 76.4461 107.473 76.7797 107.706C77.1134 107.94 77.3449 108.292 77.4264 108.691L77.4363 108.799Z" fill="#B65B52"/>
<path d="M75.9365 105.233C77.2464 105.384 78.8444 110.499 78.8444 110.499L75.6614 113.354C75.6614 113.354 71.5911 108.527 72.3868 106.998C73.2022 105.403 74.0143 105.01 75.9365 105.233Z" fill="#263238"/>
<path opacity="0.2" d="M75.9791 106.418L77.6655 111.563L75.8743 113.161L75.9791 106.418Z" fill="black"/>
<path d="M69.9111 194.113H73.0253L73.2316 186.899H70.1174L69.9111 194.113Z" fill="#B55B52"/>
<path d="M73.1301 193.753H69.6328C69.5726 193.753 69.5142 193.774 69.4684 193.813C69.4227 193.852 69.3927 193.907 69.3839 193.966L68.9844 196.733C68.9771 196.803 68.9846 196.874 69.0064 196.941C69.0283 197.008 69.064 197.07 69.1113 197.122C69.1586 197.174 69.2163 197.216 69.2808 197.244C69.3453 197.273 69.415 197.287 69.4855 197.287C70.7036 197.267 71.2931 197.195 72.8321 197.195C73.7785 197.195 76.4965 197.293 77.803 197.293C79.1096 197.293 79.1817 196 78.6348 195.882C76.1952 195.358 74.476 194.634 73.6508 193.943C73.505 193.821 73.3206 193.753 73.1301 193.753Z" fill="#263238"/>
<g opacity="0.2">
<path d="M73.2316 186.903L73.1268 190.619H70.0094L70.1174 186.903H73.2316Z" fill="black"/>
</g>
<path d="M77.2201 107.26C77.2725 109.507 76.9615 114.199 75.3667 124.01H62.72C62.9132 119.291 62.9362 116.233 61.0434 107.637C60.9706 107.307 60.9668 106.967 61.0321 106.636C61.0975 106.305 61.2307 105.991 61.4232 105.714C61.6158 105.438 61.8636 105.204 62.151 105.027C62.4385 104.851 62.7593 104.736 63.0934 104.69C63.9251 104.578 64.8813 104.477 65.8473 104.428C67.7595 104.292 69.6789 104.292 71.591 104.428C72.842 104.542 74.1813 104.755 75.1931 104.919C75.7495 105.015 76.2555 105.3 76.6251 105.727C76.9946 106.154 77.2049 106.696 77.2201 107.26Z" fill="#263238"/>
<path d="M66.4171 97.9504C66.7806 99.7973 67.1408 103.19 65.8473 104.415C65.8473 104.415 66.3516 106.291 69.7769 106.291C73.5525 106.291 71.5812 104.415 71.5812 104.415C69.5215 103.923 69.5739 102.394 69.9439 100.96L66.4171 97.9504Z" fill="#B55B52"/>
<path d="M77.0073 107.116C77.0171 106.592 76.8398 106.082 76.5074 105.677C76.1749 105.272 75.7089 104.998 75.1931 104.906C74.178 104.732 72.8452 104.529 71.591 104.418C69.679 104.278 67.7593 104.278 65.8473 104.418C65.6017 104.418 65.3627 104.447 65.1236 104.464H65.0876C66.5579 105.322 66.0994 107.961 65.903 109.418C70.4875 111.743 73.9946 113.348 73.9946 113.348C76.5783 112.657 76.9713 109.66 77.0073 107.116Z" fill="#B55B52"/>
<path opacity="0.2" d="M67.8547 99.1783L69.9406 100.956C69.8518 101.291 69.7926 101.633 69.7638 101.978C68.9779 101.864 67.894 100.996 67.799 100.174C67.7555 99.8414 67.7743 99.5038 67.8547 99.1783Z" fill="black"/>
<path d="M66.8297 92.4653C65.9292 95.4125 65.4838 96.6536 66.3942 98.6872C67.7564 101.739 71.5845 102.198 73.3495 99.568C74.9377 97.2037 76.1428 92.7633 73.7425 90.5595C73.216 90.0706 72.5732 89.7245 71.8753 89.5539C71.1773 89.3834 70.4474 89.3941 69.7547 89.5851C69.0621 89.776 68.4298 90.1409 67.9178 90.645C67.4059 91.1491 67.0313 91.7757 66.8297 92.4653Z" fill="#B55B52"/>
<path d="M75.3667 124.01C75.3667 124.01 77.8227 147.997 77.6197 157.493C77.4068 167.373 73.7883 189.912 73.7883 189.912H69.5771C69.5771 189.912 70.2321 167.972 69.8719 158.263C69.4658 147.686 66.106 124.023 66.106 124.023L75.3667 124.01Z" fill="#442D87"/>
<path opacity="0.3" d="M75.3667 124.01C75.3667 124.01 77.8227 147.997 77.6197 157.493C77.4068 167.373 73.7883 189.912 73.7883 189.912H69.5771C69.5771 189.912 70.2321 167.972 69.8719 158.263C69.4658 147.686 66.106 124.023 66.106 124.023L75.3667 124.01Z" fill="black"/>
<path d="M69.2104 190.053H74.1518L74.5153 188.475L68.9811 188.281L69.2104 190.053Z" fill="#263238"/>
<path opacity="0.2" d="M69.9112 129.976C73.0188 136.228 70.5333 147.627 69.4363 151.867C68.8731 145.498 67.9234 137.711 67.1834 131.994C67.6549 128.775 68.4801 127.095 69.9112 129.976Z" fill="black"/>
<path d="M55.3554 194.113H58.4696L59.6124 186.899H56.4982L55.3554 194.113Z" fill="#B55B52"/>
<path d="M58.6235 193.753H55.1196C55.0565 193.754 54.9955 193.776 54.9454 193.814C54.8953 193.852 54.8588 193.906 54.8413 193.966L54.0848 196.733C54.0657 196.799 54.0623 196.867 54.0749 196.934C54.0874 197.001 54.1156 197.064 54.1571 197.118C54.1986 197.172 54.2522 197.215 54.3136 197.245C54.375 197.274 54.4425 197.288 54.5105 197.287C55.7352 197.267 56.3312 197.195 57.8703 197.195C58.8167 197.195 61.5215 197.293 62.8281 197.293C64.1347 197.293 64.3737 196 63.8432 195.882C61.4724 195.358 59.8449 194.634 59.1114 193.943C58.9787 193.82 58.8043 193.753 58.6235 193.753Z" fill="#263238"/>
<g opacity="0.2">
<path d="M59.6124 186.903L59.023 190.619H55.9088L56.4982 186.903H59.6124Z" fill="black"/>
</g>
<path d="M71.8694 124.01C71.8694 124.01 69.2497 147.997 67.8154 157.493C66.3222 167.373 59.7794 189.912 59.7794 189.912H55.5682C55.5682 189.912 59.0819 167.972 59.9694 158.263C60.9354 147.686 62.6054 124.023 62.6054 124.023L71.8694 124.01Z" fill="#442D87"/>
<path opacity="0.3" d="M71.8694 124.01C71.8694 124.01 69.2497 147.997 67.8154 157.493C66.3222 167.373 59.7794 189.912 59.7794 189.912H55.5682C55.5682 189.912 59.0819 167.972 59.9694 158.263C60.9354 147.686 62.6054 124.023 62.6054 124.023L71.8694 124.01Z" fill="black"/>
<path d="M55.1818 190.053H60.1233L60.6898 188.475L55.1818 188.281V190.053Z" fill="#263238"/>
<path d="M59.7205 194.297C59.9953 194.318 60.2696 194.25 60.5031 194.104C60.5574 194.061 60.6017 194.007 60.6329 193.945C60.664 193.883 60.6812 193.816 60.6832 193.747C60.6871 193.708 60.6796 193.668 60.6616 193.633C60.6435 193.598 60.6158 193.57 60.5817 193.55C60.228 193.341 58.9051 193.976 58.7544 194.048C58.74 194.055 58.7278 194.065 58.7191 194.079C58.7105 194.092 58.7057 194.107 58.7053 194.123C58.7051 194.138 58.7103 194.153 58.72 194.164C58.7296 194.175 58.743 194.183 58.7577 194.185C59.0743 194.253 59.3967 194.291 59.7205 194.297ZM60.359 193.642C60.4052 193.64 60.4513 193.649 60.4933 193.668C60.5078 193.676 60.5196 193.688 60.5267 193.702C60.5337 193.717 60.5358 193.734 60.5326 193.75C60.5322 193.795 60.5218 193.84 60.5019 193.881C60.4821 193.922 60.4534 193.957 60.418 193.986C60.2051 194.156 59.691 194.185 59.0164 194.071C59.4387 193.86 59.892 193.719 60.359 193.652V193.642Z" fill="#442D87"/>
<path d="M58.7708 194.185C58.7804 194.188 58.7907 194.188 58.8003 194.185C59.1933 194.018 60.0152 193.347 60.0054 192.993C60.0054 192.912 59.9562 192.807 59.7532 192.787C59.6 192.772 59.4471 192.818 59.3275 192.915C58.8953 193.242 58.7152 194.077 58.7086 194.113C58.7047 194.125 58.7044 194.138 58.708 194.149C58.7115 194.161 58.7186 194.171 58.7283 194.179C58.7413 194.186 58.7563 194.188 58.7708 194.185ZM59.6746 192.925H59.7205C59.8515 192.925 59.8547 192.99 59.8547 193.01C59.8547 193.219 59.2948 193.75 58.8723 193.992C58.9512 193.629 59.1318 193.295 59.393 193.03C59.471 192.962 59.5711 192.924 59.6746 192.925Z" fill="#442D87"/>
<path d="M71.1653 94.9508C71.0769 95.1866 71.1326 95.4224 71.2865 95.4813C71.4404 95.5402 71.6369 95.3929 71.722 95.1538C71.8072 94.9148 71.758 94.6823 71.6041 94.6233C71.4502 94.5644 71.2406 94.7183 71.1653 94.9508Z" fill="#263238"/>
<path d="M73.8145 95.9431C73.7261 96.1756 73.7785 96.4146 73.9324 96.4703C74.0863 96.526 74.2828 96.3852 74.3712 96.1428C74.4596 95.9005 74.404 95.6713 74.25 95.6123C74.0961 95.5534 73.8997 95.7008 73.8145 95.9431Z" fill="#263238"/>
<path d="M74.178 95.6057L74.8034 95.6548C74.8034 95.6548 74.3483 95.9888 74.178 95.6057Z" fill="#263238"/>
<path d="M72.8354 96.0608C72.8454 96.6753 72.9391 97.2857 73.1137 97.8749C72.962 97.9159 72.8031 97.9233 72.6482 97.8968C72.4932 97.8702 72.3459 97.8102 72.2165 97.721L72.8354 96.0608Z" fill="#A02724"/>
<path d="M70.589 98.1632C70.6946 98.2218 70.804 98.2732 70.9165 98.3171C70.9254 98.3213 70.9352 98.3235 70.945 98.3236C70.9549 98.3236 70.9647 98.3216 70.9737 98.3176C70.9827 98.3135 70.9907 98.3076 70.9973 98.3002C71.0038 98.2927 71.0086 98.284 71.0114 98.2745C71.0151 98.2655 71.0169 98.2559 71.0167 98.2462C71.0165 98.2364 71.0144 98.2268 71.0104 98.218C71.0065 98.2091 71.0007 98.2011 70.9936 98.1945C70.9864 98.1879 70.978 98.1828 70.9689 98.1796C70.673 98.0788 70.4055 97.9088 70.1885 97.6838C69.9715 97.4589 69.8113 97.1854 69.7212 96.8861C69.7166 96.8672 69.7047 96.8508 69.6882 96.8404C69.6718 96.8301 69.6519 96.8265 69.6328 96.8304C69.6232 96.8323 69.6141 96.8362 69.6061 96.8417C69.598 96.8473 69.5912 96.8544 69.586 96.8627C69.5808 96.871 69.5773 96.8802 69.5758 96.8899C69.5743 96.8995 69.5747 96.9094 69.5771 96.9188C69.6542 97.1833 69.7834 97.4297 69.9572 97.6434C70.131 97.8571 70.3458 98.0338 70.589 98.1632Z" fill="#263238"/>
<path d="M65.0581 94.8231C65.0606 95.4196 65.2956 95.9917 65.7131 96.4178C66.2796 96.9712 66.9411 96.5586 67.1048 95.8251C67.2489 95.1702 67.131 94.083 66.4106 93.8047C66.2525 93.7486 66.0831 93.7326 65.9173 93.7581C65.7516 93.7836 65.5947 93.8497 65.4608 93.9505C65.3268 94.0514 65.2199 94.1839 65.1497 94.3362C65.0794 94.4884 65.048 94.6557 65.0581 94.8231Z" fill="#B55B52"/>
<path d="M69.1056 88.9876C70.4908 89.1874 70.5923 91.46 70.0454 92.2229C69.4986 92.9859 68.1167 93.2414 68.4802 94.3613C69.0303 96.0543 67.9693 96.0641 68.1265 97.7702C68.2411 99.0211 68.4212 100.334 66.3516 100.125C63.2604 99.7972 62.2059 100.383 63.3521 96.0445C63.9742 93.6867 64.3639 91.8824 65.4413 91.735C66.5186 91.5877 67.5633 88.7649 69.1056 88.9876Z" fill="#263238"/>
<path d="M68.9779 90.5727C69.6328 91.9972 71.2701 92.7143 72.7961 92.7078C75.203 92.7078 76.7682 95.5502 75.7433 92.8289C74.7183 90.1077 72.3442 88.9878 71.2079 88.8404C70.0716 88.6931 68.2182 88.9256 68.9779 90.5727Z" fill="#263238"/>
<path d="M70.2877 94.011C70.3146 94.0259 70.3455 94.032 70.376 94.0285C70.4065 94.0249 70.4352 94.012 70.458 93.9913C70.959 93.5263 71.8203 93.7032 71.8301 93.7064C71.8683 93.7142 71.908 93.7065 71.9405 93.685C71.9731 93.6635 71.9957 93.63 72.0036 93.5918C72.0115 93.5541 72.0042 93.5148 71.9834 93.4823C71.9626 93.4499 71.9299 93.4269 71.8923 93.4183C71.8497 93.4183 70.8706 93.2087 70.255 93.7719C70.2278 93.8 70.2126 93.8376 70.2126 93.8767C70.2126 93.9158 70.2278 93.9534 70.255 93.9815C70.2636 93.9936 70.2748 94.0037 70.2877 94.011Z" fill="#263238"/>
<path d="M75.072 95.0097C75.0938 95.0227 75.1186 95.0295 75.144 95.0295C75.1694 95.0295 75.1943 95.0227 75.216 95.0097C75.25 94.9898 75.2748 94.9575 75.2852 94.9195C75.2956 94.8816 75.2908 94.8411 75.2717 94.8067C75.1588 94.6011 74.9981 94.4257 74.8032 94.2952C74.6083 94.1647 74.3849 94.0829 74.1518 94.0568C74.1132 94.055 74.0755 94.0684 74.0467 94.0941C74.018 94.1198 74.0004 94.1558 73.9979 94.1943C73.996 94.2332 74.0093 94.2713 74.035 94.3006C74.0606 94.3299 74.0966 94.3482 74.1354 94.3515C74.3197 94.3743 74.4958 94.4409 74.6491 94.5457C74.8023 94.6506 74.9283 94.7906 75.0163 94.9541C75.0287 94.9779 75.0481 94.9973 75.072 95.0097Z" fill="#263238"/>
<path d="M74.3025 194.297C74.5682 194.32 74.8341 194.252 75.0556 194.104C75.1055 194.06 75.1439 194.004 75.1673 193.942C75.1907 193.88 75.1984 193.813 75.1899 193.747C75.1873 193.706 75.1745 193.667 75.1528 193.632C75.131 193.598 75.101 193.57 75.0655 193.55C74.6823 193.341 73.4281 193.976 73.3004 194.048C73.2873 194.055 73.2767 194.066 73.2697 194.08C73.2627 194.093 73.2598 194.108 73.2611 194.123C73.2642 194.138 73.2714 194.152 73.2818 194.163C73.2922 194.174 73.3055 194.182 73.3201 194.185C73.6434 194.253 73.9723 194.29 74.3025 194.297ZM74.8559 193.642C74.9031 193.641 74.95 193.649 74.9934 193.668C75.0081 193.676 75.0204 193.688 75.029 193.702C75.0376 193.717 75.0423 193.733 75.0425 193.75C75.0489 193.793 75.0444 193.837 75.0296 193.878C75.0147 193.92 74.9899 193.956 74.9574 193.986C74.7675 194.156 74.2566 194.185 73.5657 194.071C73.9687 193.859 74.4051 193.717 74.8559 193.652V193.642Z" fill="#442D87"/>
<path d="M73.3364 194.186C73.346 194.189 73.3563 194.189 73.3659 194.186C73.7359 194.019 74.4694 193.347 74.4138 192.994C74.4138 192.912 74.3417 192.807 74.1354 192.787C74.0626 192.779 73.9887 192.785 73.9187 192.807C73.8487 192.829 73.7841 192.866 73.7294 192.915C73.3364 193.242 73.2644 194.077 73.2611 194.113C73.2602 194.126 73.2628 194.139 73.2685 194.151C73.2743 194.162 73.283 194.172 73.2938 194.179C73.3067 194.186 73.3219 194.189 73.3364 194.186ZM74.0765 192.925H74.1125C74.2468 192.925 74.2566 192.99 74.2566 193.01C74.2926 193.219 73.7949 193.75 73.415 193.992C73.4442 193.638 73.5826 193.302 73.8112 193.03C73.8831 192.962 73.9779 192.925 74.0765 192.925Z" fill="#442D87"/>
<path d="M71.519 94.6168L72.1444 94.6627C72.1444 94.6627 71.6893 94.9967 71.519 94.6168Z" fill="#263238"/>
<path d="M62.5301 123.267L62.2026 124.4C62.1601 124.488 62.2616 124.576 62.4089 124.576H75.4224C75.537 124.576 75.6319 124.521 75.6385 124.449L75.7531 123.316C75.7531 123.237 75.6614 123.172 75.537 123.172H62.7364C62.6968 123.168 62.657 123.176 62.6209 123.192C62.5848 123.209 62.5535 123.234 62.5301 123.267Z" fill="white"/>
<path d="M64.2493 124.698H63.9218C63.8563 124.698 63.8039 124.665 63.8072 124.619L63.9677 123.149C63.9677 123.106 64.0332 123.07 64.1019 123.07H64.4458C64.5113 123.07 64.5637 123.106 64.5604 123.149L64.3999 124.619C64.377 124.665 64.3181 124.698 64.2493 124.698Z" fill="#442D87"/>
<g opacity="0.3">
<path d="M64.2493 124.698H63.9218C63.8563 124.698 63.8039 124.665 63.8072 124.619L63.9677 123.149C63.9677 123.106 64.0332 123.07 64.1019 123.07H64.4458C64.5113 123.07 64.5637 123.106 64.5604 123.149L64.3999 124.619C64.377 124.665 64.3181 124.698 64.2493 124.698Z" fill="black"/>
</g>
<path d="M74.4662 124.698H74.1125C74.0437 124.698 73.9913 124.665 73.9979 124.619L74.1584 123.149C74.1584 123.106 74.2206 123.07 74.2893 123.07H74.6332C74.7019 123.07 74.7543 123.106 74.7478 123.149L74.5873 124.619C74.5939 124.665 74.5349 124.698 74.4662 124.698Z" fill="#442D87"/>
<path opacity="0.3" d="M74.4662 124.698H74.1125C74.0437 124.698 73.9913 124.665 73.9979 124.619L74.1584 123.149C74.1584 123.106 74.2206 123.07 74.2893 123.07H74.6332C74.7019 123.07 74.7543 123.106 74.7478 123.149L74.5873 124.619C74.5939 124.665 74.5349 124.698 74.4662 124.698Z" fill="black"/>
<path d="M69.3577 124.698H69.0303C68.9615 124.698 68.9091 124.665 68.9157 124.619L69.0761 123.149C69.0761 123.106 69.1416 123.07 69.2104 123.07H69.5378C69.6066 123.07 69.659 123.106 69.6557 123.149L69.4953 124.619C69.4854 124.665 69.4265 124.698 69.3577 124.698Z" fill="#442D87"/>
<path opacity="0.3" d="M69.3577 124.698H69.0303C68.9615 124.698 68.9091 124.665 68.9157 124.619L69.0761 123.149C69.0761 123.106 69.1416 123.07 69.2104 123.07H69.5378C69.6066 123.07 69.659 123.106 69.6557 123.149L69.4953 124.619C69.4854 124.665 69.4265 124.698 69.3577 124.698Z" fill="black"/>
<path d="M73.6508 110.148C73.5034 110.27 73.3233 110.289 73.2382 110.194C73.153 110.099 73.212 109.919 73.3593 109.798C73.5067 109.677 73.6868 109.654 73.7719 109.752C73.8571 109.85 73.785 110.024 73.6508 110.148Z" fill="#263238"/>
<path d="M72.9893 110.224C72.7142 110.315 72.4275 110.366 72.1379 110.378C72.1396 110.536 72.1777 110.692 72.2492 110.833L72.9893 110.224Z" fill="#FF8B7B"/>
<path d="M76.932 114.071C75.5337 115.073 74.7707 115.738 73.4739 115.548C71.5092 115.26 70.6086 112.929 71.6369 111.478C72.5603 110.168 74.6921 108.76 76.4211 109.782C78.1501 110.803 78.3302 113.073 76.932 114.071Z" fill="#FF8B7B"/>
<path d="M69.528 109.972L70.5104 109.068L71.4928 110.338C71.4928 110.338 70.7429 111.249 70.0552 110.931L69.528 109.972Z" fill="#FF8B7B"/>
<path d="M71.4175 108.757L71.9316 109.791L71.4862 110.338L70.4842 109.064L71.4175 108.757Z" fill="#FF8B7B"/>
<path d="M72.4457 116.203L72.2328 116.252L72.0626 116.285L71.7351 116.324C71.517 116.339 71.2982 116.339 71.0802 116.324C70.6091 116.3 70.1454 116.197 69.7081 116.02C69.2262 115.827 68.7916 115.532 68.4343 115.155C68.0965 114.79 67.8339 114.361 67.6615 113.895C67.4788 113.416 67.406 112.902 67.4486 112.392C67.4989 111.881 67.6818 111.392 67.9791 110.974C68.2316 110.622 68.5482 110.321 68.9124 110.086C69.077 109.981 69.2488 109.888 69.4265 109.808C69.6103 109.726 69.7996 109.657 69.993 109.602C70.1416 109.556 70.3005 109.557 70.4486 109.604C70.5966 109.652 70.7267 109.743 70.8214 109.866C70.9161 109.989 70.9709 110.138 70.9786 110.294C70.9862 110.449 70.9462 110.603 70.864 110.735L70.6905 111.016C70.6446 111.088 70.5399 111.2 70.4711 111.291C70.3948 111.385 70.3248 111.483 70.2615 111.586C70.1544 111.749 70.0768 111.93 70.0323 112.12C70.0085 112.23 70.0212 112.345 70.0683 112.447C70.114 112.548 70.1723 112.643 70.2419 112.729C70.3079 112.833 70.4006 112.918 70.5104 112.974C70.6001 113.017 70.6947 113.047 70.792 113.066C70.9342 113.096 71.079 113.111 71.2243 113.112C71.3094 113.112 71.3978 113.112 71.4895 113.112H71.6205H71.6794C71.8838 113.058 72.0968 113.046 72.3061 113.075C72.5154 113.104 72.7167 113.175 72.8983 113.283C73.0799 113.391 73.2382 113.535 73.3639 113.704C73.4896 113.874 73.5802 114.067 73.6305 114.273C73.6807 114.478 73.6895 114.691 73.6565 114.9C73.6234 115.109 73.5491 115.309 73.4379 115.488C73.3267 115.668 73.1808 115.824 73.0088 115.947C72.8368 116.069 72.642 116.157 72.4359 116.203H72.4457Z" fill="#FF8B7B"/>
<path d="M60.0643 114.795C61.3349 113.05 63.9939 112.542 66.9705 113.19C68.6766 113.564 75.1178 111.177 78.0421 111.141C80.9663 111.105 81.6966 114.229 80.9369 115.902C78.5693 121.115 71.9775 120.588 70.3008 121.849C68.6242 123.109 64.1019 124.848 61.5314 122.782C58.9608 120.716 57.8441 117.837 60.0643 114.795Z" fill="#442D87"/>
<path d="M79.7252 114.923L78.3892 117.107L78.8542 118.328C78.8839 118.409 78.9349 118.479 79.0017 118.533C79.0685 118.586 79.1486 118.621 79.2333 118.632C79.3181 118.643 79.4045 118.632 79.483 118.598C79.5616 118.564 79.6295 118.509 79.6794 118.44L80.9696 116.668C81.0241 116.595 81.0557 116.507 81.0603 116.415C81.065 116.324 81.0426 116.233 80.9958 116.154L79.7252 114.923Z" fill="#B55B52"/>
<path d="M63.5289 109.782L63.3422 110.299C63.2767 110.482 63.2112 110.666 63.149 110.852C63.0246 111.226 62.9165 111.606 62.8019 111.986C62.5747 112.74 62.3857 113.505 62.2354 114.278C62.0815 115.047 61.9603 115.82 61.885 116.59L61.8457 117.169V117.313V117.343C61.8489 117.319 61.8489 117.295 61.8457 117.271C61.8359 117.191 61.8079 117.115 61.7639 117.048C61.7016 116.966 61.718 117.015 61.79 117.071C61.8919 117.151 62.0017 117.22 62.1175 117.277C62.7829 117.595 63.4799 117.842 64.1969 118.014C64.9665 118.217 65.7655 118.381 66.571 118.538C68.1854 118.839 69.8457 119.091 71.483 119.314L71.4273 120.889C69.7094 120.968 67.9883 120.945 66.273 120.82C65.4118 120.758 64.5473 120.663 63.6533 120.516C63.2145 120.444 62.7692 120.359 62.3205 120.241C61.8401 120.124 61.3702 119.967 60.9157 119.773C60.6452 119.657 60.3864 119.515 60.1429 119.35C59.7998 119.123 59.5104 118.823 59.2948 118.473C59.1458 118.223 59.0468 117.948 59.0033 117.66C59.0033 117.585 59.0033 117.507 58.9804 117.428V117.133V116.446C58.9952 115.541 59.0696 114.639 59.2031 113.744C59.3419 112.862 59.5255 111.988 59.7532 111.124C59.8678 110.692 60.0021 110.266 60.1429 109.841C60.2837 109.415 60.4311 109.012 60.6341 108.531L63.5289 109.782Z" fill="#B65B52"/>
<path d="M61.957 105.24C60.6898 105.623 59.1671 109.988 59.1671 109.988L62.255 112.195C62.4811 112.357 62.7421 112.463 63.017 112.506C63.2918 112.548 63.5728 112.525 63.8371 112.439C64.1014 112.352 64.3416 112.205 64.5384 112.008C64.7352 111.812 64.8829 111.572 64.9697 111.308C65.3234 110.23 65.5952 109.015 65.343 108.223C64.7896 106.507 63.4012 104.798 61.957 105.24Z" fill="#263238"/>
<path d="M71.1653 119.258L74.5153 118.96L72.7077 121.57C72.7077 121.57 70.72 121.354 70.2353 120.152L71.1653 119.258Z" fill="#B55B52"/>
<path d="M76.7224 120.385L74.5317 121.976L72.7077 121.554L74.5251 118.96L76.7224 120.385Z" fill="#B55B52"/>
<path d="M110.906 90.6578C111.663 89.6426 109.845 87.2161 107.848 88.6406C105.788 90.1076 102.468 89.5968 100.496 92.0004C98.525 94.4039 101.62 96.4015 101.384 100.613C101.2 104.094 96.0592 105.092 96.7534 109.782C97.6114 115.581 104.256 123.794 110.288 121.066C116.319 118.338 123.668 110.365 120.717 105.174C117.767 99.9839 113.464 100.717 115.15 96.6209C116.192 94.0634 115.134 89.0008 110.906 90.6578Z" fill="#263238"/>
<path d="M113.608 182.642L111.188 184.725L107.036 178.778L109.456 176.696L113.608 182.642Z" fill="#FF8B7B"/>
<path d="M110.363 184.155L113.408 181.987C113.463 181.949 113.53 181.93 113.597 181.934C113.664 181.937 113.728 181.963 113.778 182.007L116.087 183.998C116.142 184.046 116.186 184.106 116.215 184.173C116.243 184.241 116.256 184.314 116.252 184.387C116.248 184.46 116.227 184.531 116.191 184.595C116.155 184.658 116.105 184.713 116.044 184.754C114.973 185.527 114.407 185.806 113.061 186.755C112.236 187.341 110.157 188.939 109.017 189.748C107.877 190.557 106.902 189.555 107.294 189.126C109.05 187.187 109.813 185.697 110.039 184.63C110.085 184.437 110.2 184.268 110.363 184.155Z" fill="#263238"/>
<path opacity="0.2" d="M107.036 178.778L109.177 181.843L111.768 180.006L109.459 176.696L107.036 178.778Z" fill="black"/>
<path d="M99.8938 125.434C99.8938 125.434 95.4206 142.685 93.1709 154.818C91.383 164.468 107.841 180.992 107.841 180.992L111.319 177.963C111.319 177.963 103.018 165.411 99.4975 156.753C104.799 143.697 112.704 131.578 110.196 125.791L99.8938 125.434Z" fill="#263238"/>
<path d="M111.073 176.787L106.243 180.439L107.71 181.935L112.275 178.588L111.073 176.787Z" fill="#442D87"/>
<path d="M109.354 185.629C109.157 185.791 108.915 185.888 108.66 185.907C108.591 185.904 108.523 185.886 108.461 185.853C108.4 185.82 108.347 185.773 108.306 185.717C108.281 185.687 108.265 185.65 108.259 185.611C108.252 185.572 108.256 185.532 108.27 185.495C108.421 185.105 109.78 184.84 110.052 184.804C110.066 184.8 110.082 184.802 110.095 184.809C110.109 184.815 110.12 184.826 110.127 184.84C110.136 184.853 110.141 184.868 110.141 184.884C110.141 184.9 110.136 184.915 110.127 184.928C109.893 185.187 109.635 185.422 109.354 185.629ZM108.496 185.426C108.453 185.453 108.418 185.491 108.395 185.537C108.388 185.548 108.384 185.561 108.384 185.575C108.384 185.588 108.388 185.601 108.395 185.612C108.423 185.652 108.46 185.684 108.502 185.707C108.545 185.73 108.592 185.744 108.64 185.747C108.909 185.747 109.344 185.475 109.822 184.984C109.36 185.062 108.913 185.211 108.496 185.426Z" fill="#442D87"/>
<path d="M110.104 184.938H110.078C109.639 185.039 108.565 184.964 108.408 184.643C108.372 184.571 108.362 184.46 108.506 184.316C109.063 183.811 110.071 184.755 110.114 184.794C110.123 184.804 110.13 184.816 110.134 184.829C110.137 184.842 110.137 184.856 110.134 184.869C110.136 184.882 110.134 184.896 110.129 184.908C110.124 184.92 110.115 184.931 110.104 184.938ZM108.64 184.424L108.601 184.457C108.542 184.509 108.522 184.555 108.539 184.588C108.631 184.774 109.41 184.882 109.891 184.83C109.629 184.614 109.007 184.165 108.64 184.424Z" fill="#442D87"/>
<path d="M101.099 108.567C100.694 108.557 100.3 108.701 99.9965 108.969C99.6929 109.238 99.5018 109.611 99.4615 110.014C99.4058 110.604 99.3371 111.196 99.2585 111.776C99.1111 112.863 98.931 113.947 98.7149 115.011C98.4988 116.075 98.2204 117.127 97.8995 118.145C97.7391 118.656 97.5524 119.15 97.3559 119.638C97.2577 119.881 97.1485 120.12 97.0285 120.355C96.9793 120.473 96.9171 120.585 96.8615 120.703V120.725L96.7174 120.706C96.4783 120.66 95.9282 120.509 95.4501 120.378C95.2896 120.337 95.1197 120.354 94.9701 120.425C94.8205 120.496 94.7006 120.617 94.6314 120.768L94.209 121.695C94.1392 121.84 94.1216 122.004 94.1592 122.161C94.1968 122.317 94.2873 122.455 94.4153 122.553C94.8915 122.942 95.4309 123.246 96.01 123.453C96.4441 123.582 96.8993 123.623 97.3494 123.574C98.0073 123.497 98.6091 123.166 99.026 122.651C99.1228 122.53 99.2104 122.402 99.288 122.268L99.4026 122.065C99.4779 121.924 99.5598 121.79 99.6285 121.649C99.7726 121.374 99.9134 121.095 100.041 120.814C100.303 120.254 100.542 119.687 100.752 119.118C101.173 117.988 101.518 116.832 101.787 115.656C102.058 114.494 102.284 113.328 102.441 112.159C102.523 111.54 102.595 110.934 102.654 110.319C102.674 110.1 102.649 109.88 102.58 109.671C102.512 109.463 102.401 109.271 102.255 109.106C102.11 108.942 101.932 108.81 101.733 108.717C101.534 108.624 101.318 108.573 101.099 108.567Z" fill="#FF8B7B"/>
<path d="M108.824 193.331L105.667 193.229L105.638 185.933L108.798 186.032L108.824 193.331Z" fill="#FF8B7B"/>
<path d="M105.644 191.992L109.21 191.926C109.271 191.924 109.33 191.945 109.376 191.984C109.422 192.023 109.452 192.079 109.459 192.139L109.845 194.919C109.851 194.991 109.842 195.062 109.819 195.13C109.796 195.198 109.759 195.261 109.711 195.314C109.663 195.367 109.604 195.41 109.539 195.439C109.474 195.469 109.403 195.484 109.331 195.486C108.09 195.486 107.491 195.427 105.926 195.456C104.96 195.472 102.828 195.649 101.495 195.676C100.162 195.702 100.103 194.398 100.66 194.271C103.149 193.698 104.262 192.905 105.114 192.195C105.262 192.069 105.449 191.998 105.644 191.992Z" fill="#263238"/>
<path opacity="0.2" d="M108.798 186.035L105.638 185.937L105.654 189.696L108.814 189.798L108.798 186.035Z" fill="black"/>
<path d="M102.687 125.588C102.687 125.588 103.751 146.186 103.404 158.472C104.616 168.666 104.92 187.944 104.92 187.944L109.276 187.718C109.276 187.718 111.44 165.333 110.363 158.014C112.747 144.414 116.414 131.84 112.704 125.972L102.687 125.588Z" fill="#263238"/>
<path d="M104.383 188.851L109.865 188.776L110.196 186.615L104.043 186.88L104.383 188.851Z" fill="#442D87"/>
<path d="M103.994 192.437L103.951 192.407C103.899 192.358 103.86 192.295 103.839 192.227C103.818 192.158 103.815 192.085 103.83 192.014C103.836 191.969 103.853 191.926 103.88 191.888C103.907 191.851 103.942 191.821 103.984 191.801C104.354 191.631 105.294 192.227 105.418 192.296C105.431 192.303 105.441 192.315 105.447 192.328C105.453 192.342 105.454 192.357 105.451 192.371C105.448 192.386 105.441 192.399 105.432 192.41C105.422 192.421 105.409 192.429 105.395 192.433C104.999 192.532 104.311 192.659 103.994 192.437ZM105.182 192.329C104.793 192.103 104.239 191.847 104.043 191.936C104.025 191.945 104.01 191.958 103.999 191.975C103.988 191.992 103.982 192.011 103.98 192.031C103.968 192.078 103.969 192.127 103.982 192.174C103.995 192.22 104.021 192.262 104.056 192.296C104.213 192.437 104.629 192.45 105.182 192.329Z" fill="#442D87"/>
<path d="M105.271 192.381C104.96 192.165 104.472 191.569 104.54 191.238C104.555 191.18 104.587 191.129 104.633 191.091C104.679 191.053 104.736 191.031 104.796 191.029C104.854 191.018 104.914 191.021 104.97 191.037C105.027 191.053 105.079 191.081 105.123 191.12C105.451 191.418 105.451 192.319 105.451 192.358C105.451 192.371 105.448 192.384 105.442 192.396C105.435 192.407 105.426 192.417 105.415 192.424C105.403 192.43 105.39 192.433 105.377 192.433C105.364 192.433 105.351 192.43 105.339 192.424C105.315 192.412 105.292 192.398 105.271 192.381ZM104.989 191.215C104.938 191.18 104.874 191.166 104.812 191.176C104.717 191.176 104.698 191.232 104.688 191.265C104.642 191.481 104.999 191.985 105.3 192.217C105.284 191.916 105.218 191.412 105.012 191.235L104.989 191.215Z" fill="#442D87"/>
<path d="M113.683 125.965C114.135 120.044 114.82 113.492 115.586 109.637C115.657 109.273 115.654 108.898 115.578 108.534C115.502 108.171 115.354 107.826 115.142 107.521C114.931 107.216 114.66 106.956 114.347 106.757C114.033 106.558 113.683 106.424 113.317 106.363C112.825 106.281 112.298 106.202 111.758 106.137C111.473 106.104 111.191 106.071 110.903 106.045C108.973 105.829 107.029 105.75 105.087 105.809C104.76 105.826 104.413 105.849 104.075 105.878C103.679 105.908 103.283 105.947 102.9 105.99C101.731 106.113 100.641 106.637 99.8153 107.473C98.9892 108.308 98.4777 109.404 98.3678 110.574C98.1254 113.315 98.1254 117.87 98.8328 125.425C98.8557 127.304 96.4357 134.112 95.2601 142.125C96.9269 142.58 102.022 142.679 104.963 142.485C107.904 142.292 112.802 145.226 113.683 144.28C114.564 143.334 114.892 130.133 113.683 125.965Z" fill="#442D87"/>
<path opacity="0.3" d="M114.862 108.937C114.629 108.894 114.391 108.894 114.158 108.937L114.017 108.963C113.526 109.062 113.092 109.344 112.802 109.752C112.512 110.161 112.39 110.664 112.459 111.16C112.521 111.7 112.563 112.195 112.599 112.673C112.691 113.796 112.737 114.788 112.727 115.689C112.727 116.671 112.701 117.69 112.593 118.705C112.593 118.852 112.563 119.003 112.544 119.157C112.524 119.311 112.511 119.386 112.501 119.504C112.475 119.727 112.432 119.956 112.4 120.159C112.383 120.251 112.367 120.342 112.347 120.434C112.324 120.588 112.295 120.739 112.269 120.86L112.206 121.115L112.108 121.397C111.957 121.789 111.77 122.167 111.551 122.526C111.346 122.85 111.264 123.238 111.321 123.617C111.378 123.996 111.569 124.343 111.859 124.593L112.147 124.832C112.367 125.017 112.634 125.139 112.918 125.183C113.202 125.228 113.493 125.193 113.759 125.084C114.207 119.406 114.862 113.295 115.592 109.624C115.619 109.495 115.634 109.363 115.638 109.231C115.403 109.081 115.138 108.98 114.862 108.937Z" fill="black"/>
<path opacity="0.2" d="M97.6899 133.51L96.8091 134.24C96.6617 134.842 96.5176 135.471 96.3735 136.116C97.6081 137.135 101.878 138.366 102.677 137.668C101.014 135.687 97.6899 133.51 97.6899 133.51Z" fill="black"/>
<path d="M105.087 105.803C105.087 105.803 103.07 106.386 103.935 109.526C104.042 109.901 104.237 110.246 104.504 110.53C104.77 110.815 105.101 111.033 105.468 111.165C105.836 111.296 106.229 111.339 106.616 111.289C107.003 111.238 107.373 111.097 107.694 110.875C111.037 108.609 110.906 106.042 110.906 106.042L105.087 105.803Z" fill="white"/>
<path d="M110.281 102.027C110.091 103.593 110.14 105.23 110.906 106.042C110.906 106.042 110.481 107.823 107.917 109.536C106.263 110.64 103.967 109.399 104.111 107.417C104.122 107.086 104.218 106.764 104.391 106.481C104.563 106.198 104.805 105.965 105.094 105.803C107.216 105.39 107.353 104.012 106.947 101.687L108.653 101.117C108.81 100.993 109 100.918 109.199 100.902C109.398 100.886 109.597 100.93 109.772 101.028C109.946 101.125 110.088 101.272 110.178 101.45C110.269 101.628 110.305 101.829 110.281 102.027Z" fill="#FF8B7B"/>
<path opacity="0.2" d="M108.647 101.117C108.794 101 108.971 100.926 109.157 100.904C109.344 100.882 109.533 100.912 109.703 100.992C109.874 101.072 110.018 101.197 110.121 101.355C110.224 101.512 110.28 101.695 110.284 101.883C109.465 102.962 108.333 103.763 107.042 104.176C107.164 103.344 107.129 102.496 106.941 101.677L108.647 101.117Z" fill="black"/>
<path d="M112.046 95.2193C112.154 98.3761 112.265 99.7088 110.864 101.503C108.752 104.198 104.924 103.72 103.892 100.675C102.965 97.9373 102.946 93.2316 105.857 91.627C108.768 90.0225 111.941 92.0593 112.046 95.2193Z" fill="#FF8B7B"/>
<path d="M109.243 91.5157C107.245 92.7764 110.327 96.6307 112.089 97.6753C113.85 98.7199 114.178 93.952 113.398 92.9369C112.619 91.9218 111.162 90.3074 109.243 91.5157Z" fill="#263238"/>
<path d="M110.373 91.2929C110.906 93.0448 105.34 94.5315 102.978 94.3023C103.08 91.4239 107.137 88.6208 110.373 91.2929Z" fill="#263238"/>
<path d="M113.035 98.3596C112.786 98.9195 112.331 99.3617 111.764 99.5942C111.014 99.8955 110.576 99.2471 110.73 98.4972C110.867 97.8193 111.424 96.8599 112.203 96.8599C112.983 96.8599 113.333 97.6654 113.035 98.3596Z" fill="#FF8B7B"/>
<path d="M106.885 96.683C106.911 96.9384 106.797 97.1611 106.633 97.1807C106.469 97.2004 106.306 97.0105 106.306 96.755C106.306 96.4996 106.394 96.2769 106.558 96.2573C106.721 96.2377 106.859 96.4407 106.885 96.683Z" fill="#263238"/>
<path d="M104.053 97.0302C104.075 97.2856 103.964 97.5083 103.797 97.528C103.63 97.5476 103.47 97.3577 103.47 97.1023C103.47 96.8468 103.558 96.6242 103.722 96.6045C103.886 96.5849 104.026 96.7781 104.053 97.0302Z" fill="#263238"/>
<path d="M103.784 96.611L103.165 96.5029C103.165 96.5029 103.519 96.9483 103.784 96.611Z" fill="#263238"/>
<path d="M105.284 97.4624C105.041 98.0483 104.72 98.5989 104.331 99.0997C104.457 99.1947 104.603 99.2602 104.757 99.2914C104.912 99.3226 105.072 99.3186 105.225 99.2798L105.284 97.4624Z" fill="#FF5652"/>
<path d="M106.531 100.03C106.517 100.026 106.504 100.018 106.495 100.007C106.486 99.996 106.48 99.9821 106.479 99.9675C106.477 99.9476 106.483 99.9278 106.495 99.912C106.507 99.8962 106.525 99.8856 106.545 99.8824C106.861 99.8499 107.165 99.7442 107.433 99.5737C107.702 99.4032 107.927 99.1725 108.09 98.9C108.095 98.8911 108.101 98.8833 108.108 98.8769C108.116 98.8704 108.125 98.8656 108.134 98.8625C108.144 98.8595 108.154 98.8583 108.163 98.8591C108.173 98.8599 108.183 98.8627 108.192 98.8672C108.209 98.8769 108.222 98.8929 108.227 98.9119C108.233 98.9309 108.231 98.9513 108.221 98.9687C108.048 99.2644 107.807 99.515 107.519 99.6999C107.23 99.8849 106.902 99.999 106.561 100.033L106.531 100.03Z" fill="#263238"/>
<path d="M108.365 95.3536C108.341 95.3457 108.319 95.3309 108.303 95.311C108.182 95.1729 108.03 95.0655 107.859 94.9977C107.688 94.93 107.504 94.9038 107.321 94.9214C107.302 94.9251 107.282 94.925 107.263 94.9211C107.244 94.9172 107.226 94.9095 107.211 94.8985C107.195 94.8875 107.181 94.8734 107.171 94.8571C107.16 94.8408 107.154 94.8225 107.15 94.8035C107.144 94.7641 107.154 94.724 107.176 94.6912C107.199 94.6584 107.233 94.6353 107.272 94.6266C107.504 94.596 107.741 94.6236 107.961 94.7071C108.18 94.7905 108.375 94.9272 108.529 95.1047C108.556 95.1334 108.572 95.1715 108.572 95.2112C108.572 95.2508 108.556 95.2889 108.529 95.3176C108.508 95.3384 108.481 95.3529 108.452 95.3592C108.423 95.3656 108.393 95.3637 108.365 95.3536Z" fill="#263238"/>
<path d="M102.677 95.4551L102.658 95.4322C102.637 95.398 102.631 95.3573 102.639 95.3184C102.648 95.2795 102.671 95.2453 102.703 95.2226C102.894 95.084 103.116 94.994 103.349 94.9603C103.583 94.9266 103.821 94.9504 104.043 95.0294C104.061 95.0376 104.077 95.0492 104.091 95.0636C104.104 95.0781 104.115 95.0951 104.122 95.1137C104.129 95.1322 104.132 95.152 104.131 95.1718C104.131 95.1916 104.126 95.2111 104.118 95.2292C104.111 95.247 104.1 95.2632 104.086 95.2769C104.072 95.2905 104.056 95.3012 104.038 95.3085C104.02 95.3158 104.001 95.3195 103.981 95.3194C103.962 95.3193 103.943 95.3153 103.925 95.3078C103.748 95.248 103.559 95.2319 103.374 95.261C103.189 95.2901 103.014 95.3634 102.864 95.4748C102.835 95.4937 102.801 95.5021 102.767 95.4985C102.733 95.4949 102.701 95.4796 102.677 95.4551Z" fill="#263238"/>
<path d="M106.62 96.277L106.001 96.1689C106.001 96.1689 106.355 96.611 106.62 96.277Z" fill="#263238"/>
<path d="M98.263 116.845C98.2433 118.718 94.2712 119.678 93.4329 126.738C92.5946 133.798 101.619 140.196 107.514 137.888C113.408 135.579 108.496 123.152 108.496 123.152C108.496 123.152 98.2892 114.012 98.263 116.845Z" fill="#442D87"/>
<path d="M98.3023 111.458C98.2433 113.803 97.3494 114.147 97.1136 116.134C96.8778 118.122 99.4058 119.92 101.073 119.272C102.739 118.623 101.351 115.129 101.351 115.129C101.351 115.129 98.3219 110.663 98.3023 111.458Z" fill="#442D87"/>
<path d="M97.8504 120.093L96.3801 119.363L95.6433 122.134C96.3238 122.038 96.9734 121.788 97.5426 121.403L97.8504 120.093Z" fill="#FF8B7B"/>
<path d="M94.9884 120.424L94.4153 122.163L95.6531 122.134L96.3899 119.363L94.9884 120.424Z" fill="#FF8B7B"/>
<path d="M113.097 107.368C113.295 107.282 113.509 107.238 113.725 107.239C113.941 107.24 114.155 107.285 114.352 107.372C114.55 107.459 114.727 107.586 114.874 107.745C115.02 107.904 115.132 108.091 115.203 108.295C115.38 108.822 115.55 109.353 115.704 109.886C116.005 110.954 116.26 112.038 116.46 113.138C116.666 114.246 116.8 115.366 116.863 116.491C116.886 116.773 116.883 117.061 116.896 117.346C116.909 117.631 116.896 117.916 116.896 118.204C116.896 118.492 116.896 118.764 116.87 119.082L116.824 119.589L116.739 120.077C116.469 121.3 115.996 122.469 115.34 123.535C114.729 124.524 114.035 125.459 113.267 126.332C112.511 127.193 111.715 127.995 110.893 128.765C110.058 129.527 109.183 130.245 108.274 130.916L107.262 129.708C107.992 128.968 108.742 128.179 109.426 127.37C110.111 126.561 110.789 125.749 111.391 124.901C111.991 124.075 112.529 123.206 112.999 122.301C113.218 121.876 113.412 121.439 113.578 120.991C113.725 120.57 113.834 120.137 113.906 119.697L113.945 119.389V119.091C113.945 118.872 113.945 118.6 113.926 118.358C113.906 118.116 113.926 117.903 113.89 117.677C113.854 117.451 113.854 117.133 113.814 116.861C113.706 115.859 113.513 114.864 113.313 113.865C113.113 112.866 112.845 111.881 112.547 110.918C112.406 110.427 112.252 109.936 112.092 109.454V109.428C111.959 109.052 111.974 108.64 112.134 108.275C112.294 107.91 112.587 107.62 112.953 107.463L113.097 107.368Z" fill="#FF8B7B"/>
<path d="M116.853 113.086C116.657 112.012 116.401 110.905 116.087 109.791C115.936 109.277 115.651 108.629 115.432 108.049C115.312 107.673 115.067 107.349 114.737 107.131C114.408 106.912 114.015 106.812 113.621 106.847C113.385 106.86 113.153 106.914 112.937 107.008L112.806 107.067C112.347 107.265 111.98 107.631 111.781 108.089C111.582 108.548 111.566 109.065 111.735 109.536C111.908 110.053 112.062 110.518 112.19 110.987C112.518 112.071 112.763 113.027 112.946 113.914C113.136 114.877 113.333 115.879 113.441 116.888C113.464 117.038 113.474 117.189 113.484 117.339C113.493 117.49 113.503 117.572 113.516 117.69C113.539 117.912 113.546 118.142 113.549 118.345V118.62C113.549 118.774 113.549 118.931 113.549 119.055V119.317L113.513 119.612C113.444 120.027 113.34 120.436 113.202 120.833C113.044 121.272 112.857 121.7 112.642 122.114L115.661 123.725C116.343 122.629 116.836 121.425 117.118 120.165L117.207 119.645L117.253 119.127C117.253 118.911 117.253 118.721 117.272 118.528V118.243C117.272 117.916 117.272 117.615 117.272 117.353C117.272 117.258 117.272 117.163 117.272 117.064C117.272 116.871 117.272 116.675 117.246 116.495C117.187 115.351 117.056 114.213 116.853 113.086Z" fill="#442D87"/>
<path d="M103.352 131.378L105.035 133.166L107.088 132.144L105.349 129.397L103.352 131.378Z" fill="#FF8B7B"/>
<path d="M108.169 129.046L105.353 129.397L107.091 132.144C107.091 132.144 108.624 131.23 109.04 129.98L108.169 129.046Z" fill="#FF8B7B"/>
</g>
<defs>
<clipPath id="clip0_19_2007">
<rect width="259.75" height="273" fill="white" transform="translate(0.75)"/>
</clipPath>
</defs>
</svg>
