<svg width="130" height="129" viewBox="0 0 130 129" fill="none" xmlns="http://www.w3.org/2000/svg">
<path d="M112.736 16.1886H89.719V47.5505H112.736V16.1886Z" fill="white"/>
<path d="M113.935 48.7491V14.9929H88.5233V48.7491H113.935ZM89.719 16.1886H112.736V47.5504H89.719V16.1886Z" fill="#EBEBEB"/>
<path d="M91.3734 20.6501V36.9518H109.314V20.6501H91.3734Z" fill="#EBEBEB"/>
<path d="M96.6299 23.1024V40.6395H105.822V23.1024H96.6299Z" fill="#C7C7C7"/>
<path d="M87.5387 48.7491H88.5203V14.9929H87.5387V48.7491Z" fill="#DBDBDB"/>
<path d="M76.8727 10.0758H53.8559V41.4377H76.8727V10.0758Z" fill="white"/>
<path d="M72.9159 12.0482H66.9071V37.756H72.9159V12.0482Z" fill="#C7C7C7"/>
<path d="M78.0714 42.6333V8.87708H52.6602V42.6333H78.0714ZM53.8559 10.0727H76.8727V41.4346H53.8559V10.0758V10.0727Z" fill="#EBEBEB"/>
<path d="M69.9619 16.9866H60.7698V34.5206H69.9619V16.9866Z" fill="#EBEBEB"/>
<path d="M51.6757 42.6333H52.6573L52.6573 8.87708H51.6757L51.6757 42.6333Z" fill="#DBDBDB"/>
<path d="M41.0096 7.01782H17.9927V38.3797H41.0096V7.01782Z" fill="white"/>
<path d="M38.4563 27.6893H25.8271V35.2393H38.4563V27.6893Z" fill="#EBEBEB"/>
<path d="M42.2083 39.5754V5.81921H16.7971V39.5754H42.2083ZM17.9927 7.01791H41.0096V38.3798H17.9927V7.01791Z" fill="#EBEBEB"/>
<path d="M34.0987 13.9287H24.9066V31.4627H34.0987V13.9287Z" fill="#C7C7C7"/>
<path d="M15.8155 39.5753H16.7971L16.7971 5.81909H15.8155L15.8155 39.5753Z" fill="#DBDBDB"/>
<path d="M109.846 105.241H120.598V101.819H109.846V105.241Z" fill="#EBEBEB"/>
<path d="M31.1203 49.2629H41.8719V45.8411H31.1203V49.2629Z" fill="#EBEBEB"/>
<path d="M115.843 109.559C117.628 109.528 122.206 109.452 123.931 109.433L126.594 109.421L126.454 109.562L126.441 106.14L126.594 106.293C124.808 106.287 120.255 106.271 118.531 106.247L115.843 106.213L115.916 106.14L115.843 109.562V109.559ZM115.843 109.559L115.769 106.137V106.066H115.843C117.185 106.048 119.876 106.018 121.218 106.005L126.594 105.984H126.747V106.137L126.732 109.559V109.699H126.591L123.879 109.687C122.166 109.669 117.607 109.592 115.84 109.562L115.843 109.559Z" fill="#EBEBEB"/>
<path d="M86.8904 64.797C88.6762 64.7664 93.2539 64.69 94.9785 64.6716L97.642 64.6594L97.5013 64.8L97.4891 61.3782L97.642 61.5311C95.8561 61.525 91.3029 61.5097 89.5783 61.4853L86.8904 61.4516L86.9638 61.3782L86.8904 64.8V64.797ZM86.8904 64.797L86.817 61.3752V61.3049H86.8904C88.2328 61.2865 90.9237 61.2559 92.2662 61.2437L97.642 61.2223H97.7949V61.3752L97.7796 64.797V64.9376H97.6389L94.9265 64.9254C93.2141 64.9071 88.6548 64.8306 86.8873 64.8L86.8904 64.797Z" fill="#EBEBEB"/>
<path d="M92.89 69.1117C94.6758 69.0811 99.2535 69.0047 100.978 68.9863L103.642 68.9741L103.501 69.1147L103.489 65.6929L103.642 65.8458C101.856 65.8397 97.3026 65.8244 95.5779 65.8L92.89 65.7663L92.9634 65.6929L92.89 69.1147V69.1117ZM92.89 69.1117L92.8166 65.6899V65.6196H92.89C94.2324 65.6012 96.9234 65.5706 98.2658 65.5584L103.642 65.537H103.795V65.6899L103.779 69.1117V69.2523H103.639L100.926 69.2401C99.2138 69.2218 94.6544 69.1453 92.887 69.1147L92.89 69.1117Z" fill="#EBEBEB"/>
<path d="M98.8621 64.797H109.614V61.3752H98.8621V64.797Z" fill="#EBEBEB"/>
<path d="M3.15265 109.556H13.9043V106.134H3.15265V109.556Z" fill="#EBEBEB"/>
<path d="M9.14923 3.57153L19.9008 3.57153V0.149737L9.14923 0.149737V3.57153Z" fill="#EBEBEB"/>
<path d="M3.15267 7.88927C4.93849 7.85869 9.51618 7.78224 11.2408 7.76389L13.9043 7.75166L13.7636 7.89232L13.7514 4.47053L13.9043 4.62342C12.1185 4.61731 7.56523 4.60202 5.84057 4.57755L3.15267 4.54392L3.22607 4.47053L3.15267 7.89232V7.88927ZM3.15267 7.88927L3.07928 4.46747V4.39714H3.15267C4.4951 4.37879 7.18605 4.34821 8.52847 4.33598L13.9043 4.31458H14.0572V4.46747L14.0419 7.88927V8.02993H13.9012L11.1889 8.0177C9.47643 7.99935 4.91709 7.9229 3.14962 7.89232L3.15267 7.88927Z" fill="#EBEBEB"/>
<path d="M115.843 3.57469C117.628 3.54411 122.206 3.46766 123.931 3.44932L126.594 3.43709L126.454 3.57775L126.441 0.155953L126.594 0.308848C124.808 0.302732 120.255 0.287443 118.531 0.26298L115.843 0.229343L115.916 0.155953L115.843 3.57775V3.57469ZM115.843 3.57469L115.769 0.152895V0.0825636H115.843C117.185 0.0642162 119.876 0.0336369 121.218 0.0214052L126.594 0H126.747V0.152895L126.732 3.57469V3.71535H126.591L123.879 3.70312C122.166 3.68478 117.607 3.60833 115.84 3.57775L115.843 3.57469Z" fill="#EBEBEB"/>
<path d="M0 114.873C41.5631 114.687 88.1869 114.684 129.75 114.873C88.1869 115.063 41.5631 115.06 0 114.873Z" fill="#263238"/>
<path d="M110.678 63.1885C111.026 64.6747 111.396 66.1363 111.47 67.6622C111.43 67.7356 111.436 68.0139 111.482 67.9374C111.491 68.1821 111.864 68.1393 111.864 67.8946C111.861 67.7356 111.855 67.5797 111.849 67.4237C112.724 66.3382 113.993 65.6501 115.02 64.7083C115.849 63.9438 116.442 63.0356 116.757 61.944C117.607 59.0114 116.809 55.9015 117.833 52.9782C118.714 50.4554 120.298 48.2629 121.637 45.9786C123.05 43.5629 124.093 41.0218 124.2 38.1901C124.282 36.0221 124.026 33.1354 122.374 31.5086C120.625 29.784 118.454 31.0775 117.115 32.6125C113.231 37.0709 111.433 42.7067 110.705 48.4678C110.305 51.6572 109.889 54.8649 109.984 58.0849C110.039 59.8157 110.286 61.5067 110.678 63.1855V63.1885Z" fill="#442D87"/>
<path d="M111.452 68.8335C111.25 65.8214 111.262 62.8002 111.559 59.8004C111.552 59.7882 111.543 59.782 111.543 59.7668C111.494 57.3235 111.302 54.8925 111.396 52.4492C111.5 49.7919 111.889 47.1896 112.473 44.5995C112.479 44.569 112.525 44.5781 112.519 44.6087C112.039 47.1345 111.76 49.7154 111.669 52.2871C111.62 53.6662 111.629 55.0484 111.702 56.4245C111.727 56.874 111.767 57.3235 111.797 57.7761C112.782 50.8988 115.317 44.3794 119.063 38.5449C119.115 38.4654 119.255 38.551 119.203 38.6305C116.506 43.0339 114.519 47.8684 113.289 52.8865C115.158 49.4249 117.98 46.578 120.072 43.2541C120.084 43.2357 120.115 43.2541 120.102 43.2724C118.222 46.9755 115.115 49.8958 113.133 53.5439C112.791 55.0301 112.51 56.5315 112.299 58.0421C112.011 60.1154 111.877 62.2009 111.849 64.2894C112.987 62.1611 114.167 60.1276 115.1 57.877C115.124 57.8158 115.21 57.8586 115.191 57.9167C114.399 60.253 113.335 62.7696 111.846 64.7634C111.837 66.2434 111.883 67.7234 111.968 69.2004C112.201 73.1451 112.873 77.0348 113.185 80.9672C113.195 81.0865 113.029 81.0987 113.005 80.9856C112.185 77.0164 111.718 72.8729 111.448 68.8304L111.452 68.8335Z" fill="#263238"/>
<path d="M115.638 38.4194C115.65 38.3919 115.693 38.4102 115.681 38.4377C114.959 40.4284 114.552 42.4466 114.032 44.4893C114.008 44.5811 113.873 44.5627 113.883 44.4649C114.094 42.3947 114.834 40.3275 115.635 38.4163L115.638 38.4194Z" fill="#263238"/>
<path d="M97.3454 46.7676C97.8133 47.9388 98.3912 49.0702 99.0028 50.171C100.299 52.5256 101.654 54.6845 101.899 57.4274C102.009 58.6506 102.045 59.8829 102.422 61.0633C102.743 62.0846 103.269 63.0265 103.871 63.9102C105.278 65.959 107.033 67.7234 108.336 69.8487C109.69 72.0565 110.69 74.4875 111.302 77.0042C111.335 77.1418 111.552 77.1051 111.519 76.9675C111.513 76.9552 111.513 76.9461 111.51 76.9369C111.516 76.9308 111.522 76.9216 111.522 76.9094C111.727 71.029 111.259 65.0997 109.464 59.4671C108.678 57.0024 107.712 54.553 106.614 52.2107C105.654 50.168 104.455 48.2048 102.767 46.6759C101.672 45.6912 99.2994 43.8198 97.7399 44.8105C96.9907 45.2876 97.0488 46.0368 97.3423 46.7707L97.3454 46.7676Z" fill="#442D87"/>
<path d="M103.256 60.1C104.265 61.8247 105.461 63.4301 106.675 65.014C107.244 65.7571 107.822 66.4941 108.391 67.2402C108.66 67.5919 108.959 67.9435 109.207 68.3196C109.051 67.7019 108.901 67.0812 108.742 66.4635C107.984 63.4912 107.253 60.4945 106.125 57.6384C105.021 54.8465 103.55 52.2228 102.042 49.6328C102.003 49.5655 102.113 49.5166 102.152 49.5808C103.394 51.6235 104.657 53.6662 105.703 55.8189C106.287 57.0237 106.776 58.2622 107.21 59.5221C106.703 56.8219 106.094 54.2258 105.204 51.6113C105.195 51.5868 105.229 51.5715 105.241 51.596C106.323 54.1615 107.106 57.0451 107.323 59.8248C107.323 59.8309 107.323 59.834 107.32 59.837C107.574 60.6015 107.81 61.3721 108.027 62.1488C108.953 65.4391 109.767 68.763 110.522 72.0992C110.51 69.8975 110.372 67.7325 109.953 65.5584C109.944 65.5094 110.017 65.4972 110.03 65.5461C110.577 67.7845 110.825 70.1391 110.598 72.4417C110.883 73.7107 111.161 74.9798 111.433 76.2519C112.011 78.9642 112.721 81.7225 113.06 84.4746C113.069 84.5449 112.968 84.5602 112.95 84.4929C112.546 83.0098 112.302 81.4717 111.974 79.9672C111.644 78.4597 111.302 76.9552 110.953 75.4537C110.442 73.2643 109.907 71.084 109.363 68.9037C108.999 68.1056 108.296 67.3962 107.767 66.7234C107.189 65.9865 106.608 65.2526 106.045 64.5034C104.996 63.112 104.033 61.6656 103.217 60.1245C103.198 60.0908 103.25 60.0694 103.269 60.1H103.256Z" fill="#263238"/>
<path d="M103.006 57.5864C104.281 59.2224 105.44 61.0357 106.351 62.9011C106.363 62.9255 106.327 62.95 106.311 62.9255C105.186 61.1611 104.079 59.3845 102.957 57.617C102.938 57.5864 102.987 57.5558 103.009 57.5834L103.006 57.5864Z" fill="#263238"/>
<path d="M128.044 52.3451C127.282 53.657 126.411 55.2349 126.738 56.8097C126.946 57.8065 127.677 58.6169 127.808 59.6352C128.105 61.8827 125.863 63.3658 124.246 64.4269C120.206 67.0751 114.668 69.4388 113.935 74.8513C113.907 75.044 113.577 74.995 113.598 74.8085C113.598 74.7963 113.601 74.784 113.607 74.7718C113.598 74.7596 113.586 74.7565 113.586 74.7412C113.063 71.9983 113.075 69.2064 113.662 66.4757C114.265 63.6869 115.482 61.1794 116.919 58.73C119.35 54.5835 121.922 50.3391 125.597 47.162C126.616 46.2844 128.698 44.7034 129.508 46.688C130.294 48.6145 128.976 50.7458 128.044 52.3451Z" fill="#442D87"/>
<path d="M124.347 61.1337C121.668 64.0326 117.411 65.6563 115.109 68.9038C116.476 63.9286 118.735 59.4519 122.209 55.5653C122.298 55.4643 122.16 55.3237 122.062 55.4185C119.518 57.8648 117.635 60.7209 116.259 63.8216C116.876 61.6077 117.742 59.513 118.757 57.4306C118.797 57.3511 118.683 57.2838 118.638 57.3602C117.344 59.5681 116.482 62.045 115.944 64.5433C112.907 71.8945 112.626 80.5178 113.262 88.2665C113.271 88.3766 113.439 88.3797 113.436 88.2665C113.262 82.1599 113.36 75.9462 114.824 69.9833C114.855 69.8579 114.889 69.7356 114.919 69.6133C117.427 66.1181 121.665 64.4974 124.389 61.1796C124.417 61.149 124.371 61.1031 124.344 61.1337H124.347Z" fill="#263238"/>
<path d="M124.967 58.6445C123.561 59.935 122.179 61.2529 120.769 62.5403C120.754 62.5525 120.772 62.577 120.79 62.5678C122.322 61.5312 123.879 60.1612 125.05 58.7271C125.099 58.669 125.022 58.5895 124.967 58.6445Z" fill="#263238"/>
<path d="M125.191 53.0577C123.916 55.1035 122.576 57.0238 120.986 58.8433C120.965 58.8678 120.998 58.9014 121.023 58.88C122.729 57.2348 124.246 55.2472 125.267 53.1036C125.292 53.0547 125.221 53.0119 125.191 53.0608V53.0577Z" fill="#263238"/>
<path d="M104.636 92.3547H120.362V75.7778H104.636V92.3547Z" fill="#455A64"/>
<path d="M121.448 81.6399H120.644V114.87H121.448V81.6399Z" fill="#263238"/>
<path d="M104.443 81.6399H103.639V114.87H104.443V81.6399Z" fill="#263238"/>
<path d="M112.516 81.6399H111.712V114.87H112.516V81.6399Z" fill="#263238"/>
<path d="M104.042 93.5841H121.044V91.2876H104.042V93.5841Z" fill="#263238"/>
<path d="M127.879 126.937H1.86839L17.1977 114.873H112.549L127.879 126.937Z" fill="#442D87"/>
<g opacity="0.5">
<path d="M127.879 126.937H1.86839L17.1977 114.873H112.549L127.879 126.937Z" fill="white"/>
</g>
<path d="M127.882 126.937H1.86835V128.985H127.882V126.937Z" fill="#442D87"/>
<path d="M60.2376 84.6062H82.2973L86.0463 88.8995C93.5994 88.554 102.29 88.4194 110.39 90.1746C125.249 93.3946 130.6 113.005 112.106 120.589C97.0395 126.766 39.2726 114.473 39.2726 114.473L52.3207 93.2111C52.3207 93.2111 68.0353 92.6149 86.8292 92.8228L60.415 95.5076L60.2376 84.6093V84.6062Z" fill="#37474F"/>
<path d="M44.8288 113.8C45.1254 113.188 48.59 107.913 49.3637 106.706C50.9263 104.259 52.4277 101.776 53.8863 99.2688C54.715 97.8408 55.5498 96.4188 56.3265 94.9602C56.3449 94.9266 56.299 94.896 56.2776 94.9296C54.6386 97.3576 53.0821 99.8437 51.4889 102.305C49.9141 104.742 44.942 113.017 44.6759 113.727C44.6209 113.876 44.7585 113.953 44.8288 113.803V113.8Z" fill="#263238"/>
<path d="M109.406 92.7706C107.543 92.6361 105.678 92.5902 103.813 92.5137C103.048 92.4832 102.287 92.4556 101.522 92.4281C102.736 92.2324 103.953 92.0765 105.189 92.0061C105.278 92 105.274 91.8685 105.189 91.8685C103.718 91.9022 102.238 92.0642 100.801 92.4037C99.9415 92.3761 99.0822 92.3517 98.2229 92.3303C94.4953 92.2385 90.7647 92.2294 87.0341 92.2477C79.6125 92.2875 72.191 92.4373 64.7725 92.6452C62.6809 92.7033 60.5862 92.7676 58.4946 92.8471C56.4061 92.9266 54.2992 93.0183 52.2198 93.2538C52.1831 93.2568 52.1831 93.3088 52.2198 93.3119C54.0821 93.4158 55.9504 93.3822 57.8158 93.3791C59.6811 93.3791 61.5464 93.318 63.4087 93.2752C67.1393 93.1926 70.8669 93.11 74.5975 93.0458C82.0191 92.9205 89.4376 92.8899 96.8591 92.896C98.9507 92.896 101.042 92.8929 103.137 92.9021C105.229 92.9143 107.32 92.9724 109.412 92.9633C109.537 92.9633 109.531 92.7798 109.412 92.7706H109.406Z" fill="#263238"/>
<path d="M125.426 93.7644C125.041 93.6054 87.615 91.8716 87.615 91.8716C86.3582 92.5137 85.8353 96.8529 85.8353 96.8529C85.9821 97.5134 73.0685 100.336 73.0685 100.336L87.9911 116.916L108.718 104.678C108.718 104.678 123.304 99.1372 123.86 98.7519C125.304 97.7458 126.64 94.2537 125.429 93.7644H125.426Z" fill="#AD6359"/>
<path d="M61.2069 96.0946V97.0425L11.785 95.3026C22.4235 94.9448 44.263 95.5228 61.2069 96.0976V96.0946Z" fill="#37474F"/>
<path d="M14.3384 95.3026C15.6502 95.2567 17.1211 95.2108 18.7234 95.1527C18.9619 95.2659 19.2004 95.3759 19.4359 95.4921L14.3384 95.3026Z" fill="#37474F"/>
<path d="M96.5196 117.714C96.5196 117.714 34.6857 126.013 15.4117 119.283C0.0549212 113.916 1.20164 97.9722 11.785 91.8166C11.9624 91.7126 12.1459 91.6087 12.3324 91.5108C12.4975 91.4221 12.6627 91.3365 12.8309 91.254C12.8645 91.2356 12.9012 91.2173 12.9348 91.202C13.0663 91.1378 13.2009 91.0766 13.3323 91.0154C13.4149 90.9757 13.5005 90.9359 13.5862 90.9023C13.7268 90.8381 13.8705 90.78 14.0143 90.7188C14.051 90.7035 14.0846 90.6882 14.1213 90.6791C14.3017 90.6057 14.4821 90.5384 14.6687 90.4711C14.687 90.465 14.7053 90.4558 14.7237 90.4528C14.8949 90.3886 15.0692 90.3305 15.2466 90.2785C15.3383 90.2448 15.4331 90.2143 15.531 90.1898C15.6686 90.1439 15.8062 90.1042 15.9469 90.0675C16.164 90.0033 16.3841 89.9482 16.6012 89.8962C29.4934 86.7955 45.899 89.1838 45.899 89.1838L51.1005 84.6091H61.2039V96.0977C44.26 95.5228 22.4204 94.9449 11.782 95.3026L61.2039 97.0426V96.0946C74.1786 96.5258 84.2819 96.96 84.2819 96.96L96.5166 117.717L96.5196 117.714Z" fill="#37474F"/>
<path d="M54.0239 95.8621C39.7496 95.4187 23.7781 95.0549 14.158 95.2353C14.0418 94.5228 14.1427 93.9418 14.5861 93.7644C14.9714 93.6054 52.3971 91.8716 52.3971 91.8716C53.2686 92.318 53.7884 94.5442 54.0208 95.8621H54.0239Z" fill="#37474F"/>
<path d="M86.4193 92.2507C86.6762 92.2507 86.933 92.2477 87.1899 92.2477C87.0492 92.4312 86.9208 92.6605 86.8015 92.9174C82.5266 92.9357 78.2578 92.9785 73.9828 93.0489C70.2522 93.1131 66.5215 93.1956 62.7939 93.2751C60.9317 93.321 59.0633 93.3791 57.201 93.3791C55.3388 93.3822 53.4673 93.4158 51.6051 93.3118C51.5684 93.3118 51.5684 93.2599 51.6051 93.2568C53.6844 93.0213 55.7883 92.9296 57.8799 92.8501C59.9715 92.7675 62.0661 92.7033 64.1578 92.6483C71.5732 92.4403 78.9947 92.2905 86.4193 92.2507Z" fill="#263238"/>
<path d="M108.889 92.8807C104.95 92.6911 100.871 92.4923 97.3513 92.3303C97.4369 92.3303 97.5195 92.3303 97.6051 92.3333C98.4644 92.3517 99.3236 92.3792 100.183 92.4067C101.617 92.0673 103.1 91.9022 104.568 91.8716C104.657 91.8716 104.657 92.0061 104.571 92.0092C103.339 92.0795 102.119 92.2355 100.905 92.4312C101.669 92.4618 102.434 92.4862 103.195 92.5168C105.063 92.5963 106.929 92.6391 108.788 92.7737C108.855 92.7767 108.889 92.8318 108.886 92.8807H108.889Z" fill="#263238"/>
<path d="M54.0239 95.8621C39.7496 95.4187 23.7781 95.0549 14.158 95.2353C14.0418 94.5228 14.1427 93.9418 14.5861 93.7644C14.9714 93.6054 52.3971 91.8716 52.3971 91.8716C53.2686 92.318 53.7884 94.5442 54.0208 95.8621H54.0239Z" fill="#AD6359"/>
<path d="M84.8139 97.6144C84.7834 97.544 84.3919 96.6634 84.3277 96.6572C72.8759 95.9937 64.3657 95.7674 54.6416 95.5044C44.9174 95.2414 35.1933 95.0794 25.4661 95.0457C20.1362 95.0274 14.7237 95.0243 9.47324 96.0365C9.40291 96.0487 9.42126 96.171 9.49465 96.1619C14.2711 95.6237 19.0751 95.5595 23.879 95.642C28.7105 95.7246 33.542 95.7827 38.3705 95.8744C48.0457 96.0548 57.7209 96.2995 67.393 96.6358C72.8269 96.8254 78.8082 96.96 84.2421 97.1526C84.2452 97.171 84.5724 97.7887 84.6488 97.8131C84.8017 97.859 84.8812 97.7673 84.8139 97.6113V97.6144Z" fill="#263238"/>
<path d="M96.966 117.827C96.5318 117.148 96.1037 116.466 95.6786 115.781C95.2658 115.118 94.8499 114.433 94.3546 113.831C94.2506 113.705 94.0946 113.873 94.1497 113.996C94.4769 114.708 94.9172 115.384 95.3361 116.048C95.6939 116.616 96.0517 117.188 96.4034 117.763C95.0028 117.925 93.5962 118.063 92.1926 118.219C90.6942 118.384 89.1989 118.552 87.7006 118.717C84.6732 119.047 81.6398 119.329 78.6094 119.638C76.8939 119.812 75.1723 119.946 73.4629 120.17C73.414 120.176 73.414 120.249 73.4629 120.249C74.998 120.258 76.5331 120.176 78.0682 120.096C79.5726 120.02 81.0741 119.919 82.5725 119.8C85.6059 119.558 88.6363 119.274 91.6544 118.894C93.3669 118.68 95.0701 118.42 96.7764 118.17C96.9324 118.145 97.0577 117.989 96.9599 117.833L96.966 117.827Z" fill="#263238"/>
<path d="M89.6271 116.913C89.2051 116.381 85.9668 110.962 85.2145 109.742C83.6947 107.271 82.1138 104.837 80.4901 102.434C79.5666 101.064 78.6492 99.6938 77.6737 98.3606C77.6523 98.33 77.6065 98.3606 77.6248 98.3911C79.0957 100.926 80.6552 103.409 82.178 105.914C83.6856 108.39 88.9696 116.473 89.4925 117.02C89.6026 117.136 89.731 117.044 89.6301 116.916L89.6271 116.913Z" fill="#263238"/>
<path d="M73.1052 45.0582C74.151 45.3151 75.3099 44.994 76.0163 44.153C76.7074 43.3274 76.8358 42.1471 76.42 41.1716C77.5575 41.3734 78.7501 41.0279 79.3189 39.9026C79.909 38.7406 79.4473 37.4593 78.429 36.7315C78.4229 36.7254 78.4107 36.7376 78.4168 36.7437C79.273 37.5052 79.695 38.7344 79.1354 39.7986C78.6584 40.7098 77.8052 41.0187 76.9001 40.9942C77.7104 40.719 78.4412 40.1931 78.8021 39.398C79.1965 38.5234 79.0498 37.4471 78.3862 36.7621C79.1874 36.0251 79.7867 34.9579 79.6583 33.8387C79.5482 32.8969 78.906 32.0499 77.9978 31.7869C78.6369 30.9123 78.7348 29.6739 78.1538 28.7381C77.6095 27.8575 76.582 27.3835 75.5699 27.4661C76.4322 26.0778 75.5515 24.2277 73.9064 24.0381C74.1296 23.4938 73.9675 22.8608 73.5608 22.4297C73.0899 21.9282 72.3896 21.7814 71.72 21.7631C71.5946 21.1698 71.194 20.6347 70.6099 20.4176C69.8271 20.1271 69.0015 20.4818 68.604 21.1698C67.7386 20.5093 66.7081 19.913 65.5858 20.0017C64.6623 20.0751 63.7511 20.6347 63.4697 21.5398C61.7634 20.5644 59.6045 21.2891 58.8278 23.0994C58.0358 22.9067 57.198 23.1911 56.6323 23.7843C56.0635 24.3806 55.8555 24.9249 55.7822 25.191C55.0574 25.0717 54.3327 25.4631 53.9933 26.1175C53.66 26.7627 53.7486 27.4355 54.0025 28.0654C53.9688 28.2458 53.9046 28.414 53.7731 28.5975C53.186 29.4323 53.0331 30.4414 53.3848 31.4016C52.4123 32.111 52.3145 33.6308 53.1829 34.4595C52.4552 35.4472 52.7181 36.9456 53.7272 37.6366C53.2441 38.4715 53.1218 39.4867 53.4429 40.4041C53.6875 41.1074 54.2654 41.7893 55.0299 41.8199C54.7792 42.3519 55.1614 42.9758 55.6629 43.2479C55.8525 43.3519 56.0604 43.4191 56.2684 43.4772C56.5161 43.5445 56.8494 43.5659 57.0604 43.7188C57.2805 43.8748 57.3478 44.1806 57.4732 44.4069C57.5649 44.5659 57.6719 44.7188 57.7943 44.8564C58.7239 45.8991 60.366 46.156 61.5524 45.4343C62.0417 46.2966 63.1028 46.5229 64.0416 46.4251C64.3504 46.3914 64.6409 46.3119 64.9375 46.2263C65.2127 46.1468 65.4543 46.0948 65.7418 46.1835C65.913 46.2355 66.072 46.3272 66.2463 46.3823C66.8304 46.5657 67.3777 46.3486 67.8915 46.0734C69.292 48.3301 72.3958 47.3822 73.1052 45.0582ZM54.0667 26.512C54.3235 25.7536 54.9749 25.3041 55.7608 25.2674C55.7485 25.3225 55.7424 25.3592 55.7424 25.3592C55.7424 25.3592 55.5039 25.4356 55.3907 25.4845C55.1889 25.5793 54.9993 25.7016 54.8312 25.8515C54.4825 26.1603 54.2226 26.5731 54.1064 27.0227C54.0544 27.2245 54.0392 27.4324 54.0361 27.6404C54.0361 27.6679 54.0361 27.6923 54.0361 27.7168C53.9505 27.3223 53.926 26.9217 54.0667 26.5089V26.512ZM70.7231 21.02C70.0809 20.6806 69.2614 20.7692 68.7324 21.2646C68.7171 21.2524 68.7018 21.2402 68.6865 21.2279C69.1574 20.6439 69.7507 20.2433 70.558 20.5582C71.1237 20.7784 71.3928 21.2371 71.4998 21.7569C71.4967 21.7569 71.4937 21.7569 71.4876 21.7569C71.3071 21.4512 71.0533 21.1912 70.7231 21.02ZM67.9924 46.0184C67.9924 46.0184 68.0077 46.0092 68.0168 46.0061C69.3195 47.211 71.2613 47.0856 72.4172 45.9144C71.2307 47.2966 69.4051 47.8011 67.9924 46.0184Z" fill="#263238"/>
<path d="M61.5494 54.3848C59.0327 60.9287 48.3056 82.6032 42.3029 83.4869C36.2238 84.3798 36.4746 79.1263 38.3246 73.7108C40.6853 66.7938 50.4431 57.2226 54.8984 53.2565C59.1398 49.4799 64.0232 47.954 61.5494 54.3848Z" fill="#AD6359"/>
<path d="M55.562 70.8669L48.486 58.0818C48.486 58.0818 53.8741 53.0913 57.2469 50.752C61.7084 47.6544 64.5003 48.6298 62.8826 55.0881C61.8001 59.409 55.5651 70.8669 55.5651 70.8669H55.562Z" fill="#442D87"/>
<path d="M56.5803 66.3168C55.7607 64.7175 51.498 57.8892 51.021 57.1339C50.9935 57.0911 50.9262 57.14 50.9476 57.1859C51.4277 58.1858 54.4611 63.5433 56.5069 66.3688C56.5375 66.4085 56.6047 66.3596 56.5803 66.3168Z" fill="#263238"/>
<path opacity="0.1" d="M62.8796 55.0882C61.7971 59.409 55.562 70.867 55.562 70.867L51.7457 63.9775L61.4179 49.0641C63.1792 49.1619 63.8887 51.0548 62.8796 55.0882Z" fill="black"/>
<path d="M69.5519 54.3848C72.0685 60.9287 82.7957 82.6032 88.7983 83.4869C94.8774 84.3798 94.6267 79.1263 92.7767 73.7108C90.416 66.7938 80.6582 57.2226 76.2028 53.2565C71.9615 49.4799 67.078 47.954 69.5519 54.3848Z" fill="#AD6359"/>
<path d="M75.5393 70.8669L82.6153 58.0818C82.6153 58.0818 77.2272 53.0913 73.8544 50.752C69.3929 47.6544 66.601 48.6298 68.2187 55.0881C69.3012 59.409 75.5362 70.8669 75.5362 70.8669H75.5393Z" fill="#442D87"/>
<path d="M74.5179 66.3168C75.3375 64.7175 79.6002 57.8892 80.0772 57.1339C80.1047 57.0911 80.172 57.14 80.1506 57.1859C79.6705 58.1858 76.6371 63.5433 74.5913 66.3688C74.5608 66.4085 74.4935 66.3596 74.5179 66.3168Z" fill="#263238"/>
<path opacity="0.1" d="M68.2187 55.0883C69.3012 59.4091 75.5363 70.8671 75.5363 70.8671L79.3526 63.9776L69.6804 49.0642C67.9191 49.1621 67.2096 51.0549 68.2187 55.0883Z" fill="black"/>
<path d="M47.1741 87.7344H85.6976C85.6976 87.7344 78.4504 61.2101 70.8056 50.3362C68.4174 46.9388 62.3689 46.6422 60.0357 50.3362C54.0116 59.8738 47.1741 87.7344 47.1741 87.7344Z" fill="#442D87"/>
<path opacity="0.1" d="M70.4785 49.9203H60.3324C60.4486 49.7644 60.574 49.6206 60.7116 49.483H70.0626C70.2094 49.6206 70.3501 49.7674 70.4785 49.9203ZM72.7536 53.443H58.3386C58.2683 53.5867 58.201 53.7335 58.1276 53.8803H72.9982C72.9187 53.7335 72.8362 53.5867 72.7536 53.443ZM74.8146 57.403H56.5834C56.5253 57.5467 56.4672 57.6935 56.406 57.8403H75.0256C74.9553 57.6935 74.888 57.5467 74.8146 57.403ZM76.6188 61.3661H55.0544C55.0025 61.5098 54.9505 61.6566 54.8954 61.8033H76.8053C76.7411 61.6566 76.68 61.5098 76.6188 61.3661ZM78.2456 65.326H53.6662C53.6172 65.4728 53.5683 65.6165 53.5224 65.7633H78.4168C78.3618 65.6165 78.3068 65.4728 78.2456 65.326ZM79.7562 69.2891H52.3757C52.3299 69.4359 52.2809 69.5796 52.2381 69.7264H79.9183C79.8632 69.5796 79.8113 69.4328 79.7562 69.2891ZM81.1659 73.2491H51.1556C51.1128 73.3958 51.07 73.5426 51.0241 73.6864H81.3188C81.2699 73.5426 81.2179 73.3958 81.1659 73.2491ZM82.4961 77.2091H49.9997C49.9569 77.3558 49.9141 77.5026 49.8744 77.6463H82.6398C82.5939 77.5026 82.545 77.3558 82.4961 77.2091ZM83.759 81.1721H48.8928C48.853 81.3189 48.8133 81.4657 48.7735 81.6094H83.8966C83.8507 81.4657 83.8049 81.3219 83.759 81.1721ZM84.9547 85.1321H47.8347C47.798 85.285 47.7583 85.4287 47.7216 85.5694H85.08C85.0433 85.4318 85.0005 85.285 84.9547 85.1321Z" fill="#030402"/>
<path d="M64.3688 54.492C66.3748 54.492 68.5062 52.7765 69.3838 50.2445C69.4449 50.0672 69.4144 48.3242 69.4235 46.1744C69.4327 44.8687 69.4755 43.4193 69.6101 42.0952C69.6376 41.823 61.1121 43.2664 61.1121 43.2664C61.1121 43.2664 61.6442 46.1194 61.3965 48.4251C61.3721 48.6177 61.3354 48.7951 61.2834 48.9633C61.2773 48.9877 61.2681 49.0183 61.262 49.0519C60.9898 50.0641 61.7421 54.492 64.3657 54.492H64.3688Z" fill="#AD6359"/>
<path d="M69.0994 42.0798C68.4878 44.2754 66.5491 49.535 62.1121 49.1834C61.8032 49.1589 61.5219 49.1161 61.2681 49.0519C61.2681 49.0152 61.2803 48.9876 61.2865 48.9632C61.3354 48.795 61.3751 48.6207 61.3996 48.428C61.6473 46.1193 61.1122 43.2663 61.1122 43.2663C61.1122 43.2663 67.2616 42.2266 69.0963 42.0798H69.0994Z" fill="#263238"/>
<path d="M70.5549 31.4781C71.5641 34.3984 70.3134 42.9881 68.2829 44.9665C65.3382 47.8348 60.3629 48.2782 57.886 44.7035C55.4856 41.2389 57.3142 30.0745 59.5985 28.2612C62.9622 25.5886 69.0688 27.1665 70.558 31.4812L70.5549 31.4781Z" fill="#AD6359"/>
<path d="M65.7815 35.0711C65.5308 34.9855 65.3137 34.8663 65.0751 34.7562C64.8061 34.6308 64.5767 34.5605 64.4146 34.2975C64.329 34.1568 64.3871 33.9183 64.5186 33.8205C64.8213 33.5942 65.1883 33.6645 65.5216 33.7991C65.8824 33.9458 66.1209 34.1538 66.3044 34.4932C66.4848 34.8234 66.1148 35.1843 65.7846 35.0711H65.7815Z" fill="#263238"/>
<path d="M59.5281 34.4565C59.7942 34.4412 60.0327 34.3831 60.2926 34.3403C60.5862 34.2914 60.8247 34.2822 61.051 34.0712C61.1733 33.958 61.1764 33.7134 61.0785 33.585C60.8461 33.2853 60.473 33.2578 60.1183 33.3006C59.733 33.3495 59.4486 33.4841 59.1795 33.7623C58.9196 34.0345 59.1795 34.4779 59.5312 34.4565H59.5281Z" fill="#263238"/>
<path d="M63.3475 42.7128C63.1884 42.826 63.0233 42.9941 62.8093 42.9789C62.6044 42.9666 62.3842 42.8382 62.2099 42.7403C62.1916 42.7312 62.1702 42.7465 62.1793 42.7648C62.2955 43.0094 62.5921 43.196 62.8643 43.1899C63.1334 43.1837 63.2955 42.9758 63.3964 42.7465C63.4117 42.7128 63.3689 42.6945 63.3444 42.7128H63.3475Z" fill="#263238"/>
<path d="M60.5433 36.5756C60.5433 36.5511 60.4944 36.597 60.4913 36.6214C60.4271 37.2177 60.2528 37.8905 59.6901 38.0159C59.6718 38.0189 59.6687 38.0495 59.6901 38.0495C60.3598 38.0495 60.58 37.1535 60.5463 36.5756H60.5433Z" fill="#263238"/>
<path d="M60.4699 37.224C60.4241 37.3707 60.3384 37.5145 60.207 37.6337C60.0755 37.753 59.8736 37.7958 59.6993 37.7744C59.5189 37.7499 59.3446 37.6154 59.2682 37.4594C59.1917 37.3035 59.1611 37.1445 59.1611 36.9916C59.1611 36.8937 59.1703 36.7989 59.1856 36.7041C59.2192 36.5023 59.2835 36.3127 59.3997 36.1476C59.3691 36.2913 59.3538 36.4381 59.3569 36.5787C59.3569 36.7133 59.366 36.8417 59.3844 36.9702C59.4272 37.2331 59.5434 37.4655 59.7452 37.4839C59.9562 37.5206 60.1397 37.3738 60.262 37.1322C60.3843 36.8968 60.4669 36.6246 60.5433 36.3463C60.5831 36.6338 60.5678 36.9304 60.4699 37.2209V37.224Z" fill="#263238"/>
<path d="M64.1578 36.9242C64.167 36.9028 64.1975 36.9609 64.1945 36.9854C64.0599 37.5725 64.0079 38.2636 64.5033 38.5632C64.5186 38.5724 64.5125 38.603 64.4911 38.5938C63.8581 38.3767 63.9376 37.4563 64.1578 36.9242Z" fill="#263238"/>
<path d="M64.0172 37.5602C64.0142 37.7131 64.0478 37.8782 64.1335 38.0311C64.2221 38.1871 64.3964 38.2941 64.5677 38.3277C64.7481 38.3644 64.956 38.291 65.0783 38.1687C65.2007 38.0464 65.2802 37.9057 65.3321 37.762C65.3627 37.6703 65.3841 37.5755 65.4025 37.4807C65.4361 37.2789 65.4361 37.0771 65.378 36.8844C65.3597 37.0312 65.326 37.1749 65.2802 37.3064C65.2374 37.4348 65.1854 37.5541 65.1273 37.6672C65.0019 37.9027 64.8184 38.0862 64.6197 38.0372C64.4087 38.0036 64.2833 37.8048 64.2466 37.5357C64.2099 37.2728 64.2191 36.9884 64.2344 36.7009C64.1029 36.9608 64.0203 37.2483 64.0203 37.5541L64.0172 37.5602Z" fill="#263238"/>
<path d="M63.0997 41.2084C62.6563 41.0493 61.8307 41.0371 61.2191 41.0616C61.1519 41.0463 61.0051 40.9851 60.999 40.9209C60.999 40.8964 61.1427 39.6794 61.1427 39.6794C60.9714 39.7467 60.1091 40.0494 60.1427 39.817C60.4241 37.8966 60.736 35.7592 61.424 33.9091C61.4424 33.848 61.5402 33.8694 61.528 33.9336C61.3292 35.7897 60.8063 37.6 60.58 39.4623C60.8552 39.3828 61.3017 39.236 61.5371 39.2605C61.5983 39.2849 61.3751 40.4775 61.3781 40.6824C61.3781 40.6824 62.4912 40.4959 63.2587 41.1533C63.485 41.346 63.4055 41.3215 63.0997 41.2145V41.2084Z" fill="#263238"/>
<path d="M62.0815 40.7038C62.5555 40.6977 63.5921 41.1441 63.8887 41.8903C64.1486 42.5447 62.846 41.9086 62.6136 41.9698C62.4179 42.0218 61.6106 40.7069 62.0845 40.7038H62.0815Z" fill="#263238"/>
<path d="M63.7786 42.1808C63.7481 42.1869 63.7144 42.19 63.6747 42.1839C63.3597 42.1716 62.8307 41.9606 62.6472 41.9637C62.635 41.9637 62.6228 41.9637 62.6136 41.9637C62.5891 41.9698 62.5524 41.9545 62.5096 41.9209C62.5769 41.5937 62.8949 41.2695 63.4943 41.3338C63.5462 41.3827 63.5982 41.4347 63.6441 41.4897C63.6624 41.5111 63.6808 41.5325 63.7022 41.56C63.7328 41.5937 63.7572 41.6334 63.7786 41.6732C63.8 41.7007 63.8153 41.7282 63.8306 41.7588C63.8551 41.8016 63.8734 41.8444 63.8918 41.8842C63.9682 42.0768 63.9101 42.1563 63.7817 42.1777L63.7786 42.1808Z" fill="#FF9ABB"/>
<path d="M57.5344 42.5569C57.6781 42.8872 57.5282 43.2725 57.198 43.4193C56.8677 43.5661 56.4824 43.4132 56.3357 43.0829C56.1889 42.7527 56.3418 42.3674 56.672 42.2206C57.0023 42.0769 57.3876 42.2267 57.5344 42.5569Z" fill="white"/>
<path d="M59.0817 40.5265C59.2254 40.8568 59.0755 41.2421 58.7453 41.3888C58.415 41.5356 58.0297 41.3827 57.883 41.0525C57.7392 40.7222 57.8891 40.3369 58.2193 40.1901C58.5496 40.0434 58.9349 40.1963 59.0817 40.5265Z" fill="white"/>
<path d="M58.2957 41.0921C58.5251 41.615 58.2866 42.2266 57.7637 42.4559C57.2408 42.6853 56.6292 42.4467 56.3998 41.9238C56.1705 41.4009 56.409 40.7894 56.9319 40.56C57.4548 40.3307 58.0664 40.5692 58.2957 41.0921Z" fill="white"/>
<path d="M59.4792 41.3643C59.7086 41.8872 59.47 42.4988 58.9471 42.7281C58.4242 42.9575 57.8127 42.719 57.5833 42.1961C57.354 41.6732 57.5925 41.0616 58.1154 40.8322C58.6383 40.6029 59.2499 40.8414 59.4792 41.3643Z" fill="white"/>
<path d="M59.0969 42.3643C59.3263 42.8872 59.0878 43.4988 58.5649 43.7281C58.042 43.9575 57.4304 43.719 57.201 43.1961C56.9717 42.6732 57.2102 42.0616 57.7331 41.8322C58.256 41.6029 58.8676 41.8414 59.0969 42.3643Z" fill="white"/>
<path d="M59.1642 41.9667C59.1642 41.9667 59.9256 42.774 60.9684 42.1654C60.9684 42.1654 60.3354 43.1348 58.8951 42.8229L59.1642 41.9667Z" fill="white"/>
<path d="M57.5068 33.0988C57.834 33.111 59.0633 32.423 59.3416 30.5546C59.9532 30.7503 61.2864 29.9033 61.7482 29.3987C62.0234 31.4842 64.2648 32.5056 65.8916 31.4965C65.8916 32.3374 66.0476 33.2028 66.5338 33.8358C67.3288 34.8693 68.2951 35.1048 68.2951 35.1048C68.2951 35.1079 68.2951 35.114 68.2951 35.117C67.815 36.649 69.081 38.0801 70.3745 37.8753C70.4938 37.8691 70.613 37.8539 70.7323 37.8202C71.3653 37.652 71.9921 37.3432 72.2949 36.6399C72.6863 35.7347 72.4264 34.5788 71.7078 34.0559C72.2643 33.4902 72.457 32.5698 72.1114 31.7992C71.8974 31.3222 71.3225 31.0592 71.3041 30.5088C71.2888 30.0531 71.2063 29.6281 71.0197 29.2306C70.6956 28.5425 70.1543 28.0655 69.5 27.8667C69.1942 27.775 68.9801 27.6833 68.7569 27.4264C68.6223 27.2674 68.4908 27.1145 68.341 26.9799C68.0811 26.7475 67.7875 26.5641 67.4787 26.4356C67.1056 26.2766 66.702 26.1941 66.2983 26.2002C65.8641 26.2063 65.4177 26.4234 64.9987 26.2522C64.6348 26.1023 63.4606 26.1146 63.0722 26.1849C61.3812 26.4876 60.632 27.3194 60.632 27.3194C60.632 27.3194 59.7483 27.4661 58.9257 28.6159C58.1398 29.7168 58.1398 30.5791 58.1398 30.5791C58.1398 30.5791 57.7943 30.732 57.5374 31.4598C57.2408 32.2976 57.461 33.0988 57.5068 33.0988ZM68.3104 35.1996C68.4358 36.3708 68.7171 36.9273 69.0871 37.3187C68.497 36.86 68.1239 36.0894 68.3104 35.1996ZM61.9011 29.4538C62.2802 30.5485 63.0753 31.3099 64.0049 31.576C63.0111 31.3925 62.1885 30.732 61.9011 29.4538Z" fill="#263238"/>
<path d="M68.9831 38.4959C68.9831 38.4959 70.8699 35.7041 72.1328 36.3738C73.3957 37.0404 72.0105 41.0676 70.5488 41.6364C69.0871 42.2082 68.5306 40.8658 68.5306 40.8658L68.9831 38.4959Z" fill="#AD6359"/>
<path d="M71.7047 37.5176C71.7291 37.5176 71.7322 37.5482 71.7138 37.5573C70.6894 37.9916 70.1635 38.9579 69.7996 39.9547C70.0993 39.5694 70.5151 39.3523 71.0319 39.7101C71.0594 39.7284 71.0319 39.7713 71.0044 39.7651C70.5794 39.6826 70.2766 39.759 69.9984 40.1015C69.7996 40.3431 69.6681 40.6489 69.5274 40.9272C69.4816 41.0189 69.3134 40.973 69.347 40.866C69.347 40.8568 69.3531 40.8507 69.3562 40.8415C69.3103 39.5266 70.3011 37.6705 71.7108 37.5145L71.7047 37.5176Z" fill="#263238"/>
<path d="M93.6972 79.585C94.0367 83.3217 90.3916 85.4164 87.3949 84.2208C80.8449 81.6093 79.4535 79.799 74.6832 75.1755C73.1083 73.6496 78.5851 61.5709 80.5177 62.9102C82.1292 64.0264 90.1317 69.3563 92.6881 74.6771C93.6452 76.6647 93.5015 77.4322 93.6972 79.585Z" fill="#AD6359"/>
<path d="M93.2477 76.417C92.6147 75.044 92.0459 73.616 91.1316 72.405C88.1899 68.9007 84.2911 66.3657 80.9855 63.2313C83.4532 65.0416 85.9362 66.8274 88.2419 68.8487C89.3856 69.87 90.5139 70.925 91.4313 72.1879C92.3211 73.4692 92.7921 74.9523 93.2538 76.4201L93.2477 76.417Z" fill="#263238"/>
<path d="M70.8088 61.9592C71.6375 61.9287 71.6283 61.4944 70.4357 60.6229C69.2309 59.7392 66.2617 57.1522 67.4206 54.6386C68.1973 52.9568 71.5488 57.2776 75.3284 58.7943C77.6157 59.7117 80.8418 63.1304 80.8418 63.1304C79.215 62.739 74.0135 62.6809 70.8088 61.9562V61.9592Z" fill="#AD6359"/>
<path d="M75.5118 75.2427C72.4784 74.8696 68.6529 73.6251 64.9834 72.4784C62.4454 71.6864 60.4975 71.2369 59.0909 69.7782C58.73 69.4021 58.4548 68.552 58.9104 68.234C59.7881 67.6224 64.6104 69.3746 64.6104 69.3746C64.43 69.1942 58.9961 66.9802 57.4182 65.7846C55.6324 64.433 56.565 63.167 56.565 63.167C55.0544 61.9806 55.6171 60.4547 56.565 60.2712C57.7607 60.0388 63.0845 61.8827 63.0845 61.8827C63.0845 61.8827 57.3081 60.522 57.9808 58.1123C58.4028 56.6048 61.2314 58.1215 63.7664 58.6383C69.8547 59.8828 79.1752 62.7267 80.8448 63.1365L75.5149 75.2458L75.5118 75.2427Z" fill="#AD6359"/>
<path d="M66.3258 63.2007C63.9437 62.213 62.8674 61.8644 60.8705 61.1214C60.8583 61.1183 60.843 61.1428 60.8553 61.1489C63.1456 62.3323 64.0966 62.6075 66.3167 63.2986C66.3931 63.323 66.4053 63.2344 66.3258 63.2007Z" fill="#263238"/>
<path d="M65.7541 66.5767C61.687 65.1181 60.8278 64.9743 56.5956 63.1824C56.5742 63.1732 56.5589 63.1916 56.5834 63.2038C60.2529 64.9743 61.7574 65.5737 65.7693 66.6592C65.8978 66.6929 65.8917 66.6256 65.7571 66.5767H65.7541Z" fill="#263238"/>
<path d="M40.3673 75.1082C36.9333 76.6249 36.2942 81.4166 38.9271 83.282C45.1101 87.6609 47.0917 87.6701 53.446 89.5965C55.5437 90.2326 63.4515 79.588 61.3415 78.5453C59.5832 77.6768 51.0394 73.2643 45.1468 73.6098C42.9452 73.7382 42.3427 74.2336 40.3643 75.1082H40.3673Z" fill="#AD6359"/>
<path d="M64.7297 79.8755C64.0049 79.4719 64.2129 79.0866 65.6685 78.8542C67.1424 78.6157 71.3164 78.9031 71.4265 76.1388C71.4999 74.2887 66.1975 75.3682 62.1396 75.0012C59.6841 74.778 55.2593 76.3589 55.2593 76.3589C56.8861 76.7503 61.5464 79.0621 64.7297 79.8725V79.8755Z" fill="#AD6359"/>
<path d="M52.5898 89.3428C55.3602 90.6333 59.2652 91.6057 62.9836 92.5781C65.5553 93.2509 67.39 93.6667 69.3563 93.1744C69.8639 93.049 70.5458 92.4711 70.3287 91.9604C69.9097 90.9758 64.9498 90.144 64.9498 90.144C65.1975 90.0859 70.98 91.0889 72.9524 90.9116C75.1846 90.7128 75.0654 89.1441 75.0654 89.1441C76.9765 88.9361 77.3068 87.346 76.6004 86.6886C75.7106 85.8568 70.2186 84.6 70.2186 84.6C70.2186 84.6 76.0041 85.8293 76.7105 83.4289C77.1508 81.9274 73.1358 81.9305 70.6192 81.1018C64.7144 79.1631 56.1247 76.7871 54.4918 76.252L52.5959 89.3459L52.5898 89.3428Z" fill="#AD6359"/>
<path d="M66.7662 83.6979C68.5887 84.071 69.3654 84.3278 70.8516 84.7131C70.8608 84.7131 70.8577 84.7468 70.8455 84.7437C68.9832 84.5786 68.3135 84.3309 66.7234 83.7866C66.6684 83.7682 66.702 83.6857 66.7632 83.6979H66.7662Z" fill="#263238"/>
<path d="M65.4544 87.1655C69.6773 88.0829 70.4815 88.4162 75.0195 89.1409C75.0409 89.144 75.0439 89.1684 75.0195 89.1654C70.9708 88.722 69.3776 88.4345 65.3993 87.2267C65.2709 87.1869 65.3167 87.1319 65.4544 87.1624V87.1655Z" fill="#263238"/>
<path d="M43.358 73.9646C44.9205 73.6924 46.529 73.3285 48.1252 73.509C50.7581 73.9065 53.3023 74.7902 55.6997 75.9339C53.2992 75.2825 50.4859 74.3744 48.0671 73.9034C46.5137 73.6343 44.9267 73.8943 43.358 73.9646Z" fill="#263238"/>
<path d="M51.8652 47.7218C51.5594 48.6728 51.2169 49.6208 50.8316 50.5534C50.4371 51.483 49.9846 52.3943 49.4647 53.278C48.951 54.1679 48.3364 55.0088 47.6269 55.7886C46.9206 56.5714 46.1041 57.2808 45.1684 57.8465C44.2296 58.4031 43.1838 58.8067 42.1013 59.0116C41.0219 59.2104 39.9241 59.244 38.866 59.14C38.6 59.1186 38.3401 59.0819 38.0771 59.0483C37.8141 59.0055 37.5695 58.9718 37.2729 58.9107C36.7041 58.7884 36.1414 58.5896 35.6124 58.3083C34.5544 57.7456 33.6431 56.8466 33.1202 55.7121C32.8634 55.1433 32.6921 54.5165 32.6952 53.8285C32.6982 53.4829 32.7441 53.1251 32.8695 52.7582C32.9918 52.3943 33.2058 52.0182 33.5239 51.7154C33.8358 51.4096 34.2486 51.1956 34.6461 51.1008C34.8449 51.0519 35.0406 51.0244 35.2271 51.0213C35.3219 51.0182 35.4137 51.0213 35.5023 51.0213C35.591 51.0274 35.6766 51.0305 35.7837 51.0488C36.1904 51.1069 36.594 51.269 36.9151 51.4983C37.2392 51.7277 37.493 52.009 37.6887 52.2995C38.0771 52.8897 38.2544 53.5196 38.3278 54.1281C38.3951 54.7397 38.3645 55.3482 38.23 55.9262C37.9731 57.0851 37.3524 58.1432 36.4992 58.9199C35.6522 59.7027 34.6247 60.2195 33.582 60.4977C32.5331 60.7699 31.4751 60.8433 30.4446 60.8005C28.3805 60.6751 26.4173 60.1369 24.5826 59.3541C26.5488 59.6629 28.5211 59.9015 30.4262 59.7241C31.3742 59.6538 32.3038 59.4672 33.1416 59.1339C33.9826 58.8128 34.7379 58.3419 35.2975 57.7181C35.854 57.1004 36.2271 56.3451 36.3524 55.5562C36.4166 55.1648 36.4166 54.7672 36.3585 54.3972C36.3004 54.0303 36.1659 53.6878 35.9947 53.4584C35.8204 53.223 35.6522 53.1312 35.4993 53.119C35.484 53.116 35.4473 53.1129 35.4137 53.1129C35.38 53.1129 35.3464 53.1129 35.3189 53.1129C35.2577 53.1129 35.2088 53.1282 35.166 53.1374C35.0803 53.1618 35.0436 53.1924 35.0008 53.2291C34.9213 53.2964 34.8235 53.5196 34.8265 53.8285C34.8265 54.1342 34.9152 54.4859 35.0681 54.8162C35.3739 55.4858 35.9304 56.0668 36.6185 56.4368C36.964 56.6234 37.3371 56.7671 37.7377 56.8619C37.9242 56.9078 38.1719 56.9475 38.3951 56.9903C38.6245 57.024 38.8507 57.0607 39.0801 57.0851C40.8995 57.3114 42.6976 57.1035 44.2755 56.2595C45.8717 55.4491 47.1958 54.0609 48.3302 52.5258C48.899 51.7552 49.4127 50.9296 49.8898 50.0825C50.376 49.2385 50.8224 48.364 51.2475 47.4741L51.8652 47.7157V47.7218Z" fill="#442D87"/>
<path d="M52.8254 43.9392C51.5808 45.4345 49.74 47.1867 48.1223 48.101L51.3698 48.0735L53.8834 50.1284C53.1954 48.4007 52.859 45.881 52.8254 43.9362V43.9392Z" fill="#442D87"/>
<path d="M76.9216 43.9391C77.7014 45.7708 78.4995 47.5811 79.4261 49.3088C79.8939 50.168 80.3832 51.009 80.9183 51.8132C81.4534 52.6144 82.0436 53.3697 82.6736 54.0638C83.9395 55.4521 85.4807 56.4979 87.1901 56.923C87.6151 57.0331 88.0555 57.0973 88.4958 57.1431C88.9392 57.1798 89.3887 57.1829 89.8382 57.1615C90.2908 57.1309 90.7464 57.0942 91.2021 57.0178C91.4253 56.9841 91.6669 56.9383 91.8778 56.8954C92.0797 56.8526 92.2754 56.8007 92.465 56.7334C93.2233 56.4735 93.8838 56.0148 94.3333 55.4032C94.5566 55.1005 94.7278 54.7641 94.8287 54.4247C94.9296 54.0883 94.9449 53.7458 94.8868 53.5103C94.8562 53.3941 94.8134 53.3116 94.7737 53.2596C94.7309 53.2107 94.6972 53.1831 94.63 53.1526C94.5627 53.125 94.4587 53.1036 94.3181 53.1098C94.1927 53.1128 94.1468 53.1281 94.0581 53.1679C93.8961 53.2443 93.7034 53.4614 93.5689 53.7703C93.4313 54.0761 93.3548 54.4522 93.3456 54.8375C93.3212 55.6142 93.5505 56.4245 93.9909 57.1126C94.422 57.8098 95.0795 58.3846 95.8592 58.7913C96.639 59.198 97.5258 59.4794 98.4585 59.62C99.3881 59.7607 100.354 59.8066 101.327 59.7699L101.415 60.5252C100.422 60.7117 99.3972 60.8463 98.3514 60.8004C97.3118 60.7606 96.2354 60.6047 95.2171 60.1705C94.2019 59.7485 93.2386 59.0666 92.5353 58.1339C91.8381 57.2012 91.41 56.0453 91.3855 54.8375C91.3764 54.2351 91.4589 53.6143 91.6944 52.9997C91.9298 52.3942 92.3427 51.7612 93.0551 51.3515C93.2294 51.2475 93.4252 51.1741 93.6209 51.1129C93.7218 51.0885 93.8227 51.061 93.9236 51.0457L94.0765 51.0243L94.211 51.0151C94.5658 50.9937 94.9633 51.0273 95.3639 51.171C95.7614 51.3117 96.1467 51.5808 96.4158 51.9141C96.6879 52.2474 96.8531 52.6266 96.9479 52.9905C97.1252 53.7213 97.0518 54.3971 96.8806 55.0118C96.7032 55.6264 96.4127 56.183 96.0458 56.6753C95.3088 57.6599 94.2569 58.3663 93.1347 58.7271C92.8533 58.8189 92.5689 58.8892 92.2846 58.9442C92.0093 58.9932 91.7616 59.0329 91.4956 59.0666C90.9727 59.1399 90.4376 59.1797 89.9024 59.195C88.8261 59.2103 87.7252 59.091 86.6672 58.7699C86.1412 58.6048 85.6244 58.4061 85.1413 58.1522C84.8936 58.036 84.6612 57.8893 84.4257 57.7517C84.1994 57.6018 83.9701 57.452 83.7561 57.2899C82.8937 56.6386 82.1476 55.8741 81.4993 55.0546C80.8449 54.2412 80.3098 53.3544 79.8297 52.4554C79.3557 51.5533 78.9246 50.6359 78.576 49.691C78.2243 48.7492 77.891 47.8043 77.628 46.838C77.3497 45.8778 77.1235 44.9085 76.9216 43.933V43.9391Z" fill="#455A64"/>
<path d="M105.161 59.3571C103.507 60.3815 101.519 61.9594 100.385 63.4364L100.865 60.2255L99.177 57.452C100.795 58.3725 103.241 59.0574 105.161 59.3602V59.3571Z" fill="#455A64"/>
</svg>
