<svg width="307" height="40" viewBox="0 0 307 40" fill="none" xmlns="http://www.w3.org/2000/svg">
<rect x="0.576355" y="0.659424" width="147.09" height="39.0129" rx="8" fill="#F8F8F8"/>
<path d="M21.0829 24.8327C21.0829 23.3599 19.292 22.166 17.0829 22.166C14.8737 22.166 13.0829 23.3599 13.0829 24.8327M22.3016 15.6139C22.5493 15.8616 22.7457 16.1555 22.8797 16.4791C23.0137 16.8026 23.0828 17.1496 23.0828 17.4998C23.0828 17.85 23.0138 18.196 22.8798 18.5195C22.7457 18.8431 22.5493 19.1374 22.3016 19.385M23.7496 14.166C24.1873 14.6038 24.5345 15.1234 24.7714 15.6954C25.0083 16.2673 25.1308 16.8802 25.1308 17.4993C25.1308 18.1183 25.0086 18.7315 24.7717 19.3034C24.5348 19.8753 24.1873 20.395 23.7496 20.8328M17.0829 20.166C15.6101 20.166 14.4162 18.9721 14.4162 17.4993C14.4162 16.0266 15.6101 14.8327 17.0829 14.8327C18.5556 14.8327 19.7496 16.0266 19.7496 17.4993C19.7496 18.9721 18.5556 20.166 17.0829 20.166Z" stroke="#6D8493" stroke-linecap="round" stroke-linejoin="round"/>
<path d="M38.8761 24.166L38.2041 22.306H34.5561L33.8841 24.166H32.7321L35.7561 15.85H37.0161L40.0281 24.166H38.8761ZM37.8921 21.418L36.3801 17.194L34.8681 21.418H37.8921ZM42.4381 20.59V24.166H41.3461V17.59H42.4381V18.658C42.8101 17.926 43.5181 17.47 44.5621 17.47V18.598H44.2741C43.2301 18.598 42.4381 19.066 42.4381 20.59ZM45.4146 20.854C45.4146 18.802 46.7706 17.482 48.5346 17.482C49.7586 17.482 50.5986 18.106 50.9826 18.79V17.59H52.0866V24.166H50.9826V22.942C50.5866 23.65 49.7346 24.274 48.5226 24.274C46.7706 24.274 45.4146 22.894 45.4146 20.854ZM50.9826 20.866C50.9826 19.342 49.9506 18.43 48.7506 18.43C47.5506 18.43 46.5306 19.306 46.5306 20.854C46.5306 22.402 47.5506 23.314 48.7506 23.314C49.9506 23.314 50.9826 22.414 50.9826 20.866ZM55.024 18.814C55.444 18.082 56.32 17.482 57.484 17.482C59.26 17.482 60.604 18.802 60.604 20.854C60.604 22.894 59.248 24.274 57.484 24.274C56.284 24.274 55.432 23.674 55.024 22.954V24.166H53.932V15.286H55.024V18.814ZM59.488 20.854C59.488 19.306 58.468 18.43 57.256 18.43C56.068 18.43 55.024 19.342 55.024 20.866C55.024 22.414 56.068 23.314 57.256 23.314C58.468 23.314 59.488 22.402 59.488 20.854ZM62.0414 24.166V17.59H63.1334V24.166H62.0414ZM62.6054 16.522C62.1854 16.522 61.8614 16.198 61.8614 15.778C61.8614 15.358 62.1854 15.034 62.6054 15.034C63.0014 15.034 63.3254 15.358 63.3254 15.778C63.3254 16.198 63.0014 16.522 62.6054 16.522ZM64.5865 20.866C64.5865 18.802 65.9185 17.482 67.7905 17.482C69.4225 17.482 70.4905 18.322 70.8265 19.702H69.6505C69.4225 18.91 68.7625 18.406 67.7905 18.406C66.5905 18.406 65.7025 19.258 65.7025 20.866C65.7025 22.498 66.5905 23.35 67.7905 23.35C68.7625 23.35 69.4105 22.882 69.6505 22.054H70.8265C70.4905 23.362 69.4225 24.274 67.7905 24.274C65.9185 24.274 64.5865 22.954 64.5865 20.866Z" fill="#6D8493"/>
<rect x="159.667" y="0.659424" width="147.09" height="39.0129" rx="8" fill="#F8F8F8"/>
<path d="M182.84 26.166C182.84 23.5887 180.75 21.4993 178.173 21.4993C175.596 21.4993 173.506 23.5887 173.506 26.166M178.173 19.4993C176.7 19.4993 175.506 18.3054 175.506 16.8327C175.506 15.3599 176.7 14.166 178.173 14.166C179.646 14.166 180.84 15.3599 180.84 16.8327C180.84 18.3054 179.646 19.4993 178.173 19.4993Z" stroke="#6D8493" stroke-linecap="round" stroke-linejoin="round"/>
<path d="M193.442 19.774H195.05C196.298 19.774 196.826 19.186 196.826 18.25C196.826 17.278 196.298 16.702 195.05 16.702H193.442V19.774ZM197.942 18.25C197.942 19.522 197.126 20.674 195.05 20.674H193.442V24.166H192.35V15.802H195.05C197.018 15.802 197.942 16.882 197.942 18.25ZM204.028 22.378C204.028 23.458 203.08 24.274 201.628 24.274C200.092 24.274 199.012 23.434 198.94 22.234H200.068C200.128 22.87 200.692 23.35 201.616 23.35C202.48 23.35 202.96 22.918 202.96 22.378C202.96 20.914 199.072 21.766 199.072 19.318C199.072 18.31 200.02 17.482 201.484 17.482C202.936 17.482 203.896 18.262 203.968 19.546H202.876C202.828 18.886 202.324 18.406 201.448 18.406C200.644 18.406 200.164 18.79 200.164 19.318C200.164 20.878 203.98 20.026 204.028 22.378ZM208.065 22.918L210.105 17.59H211.233L207.273 27.262H206.145L207.441 24.094L204.789 17.59H206.001L208.065 22.918ZM211.923 20.866C211.923 18.802 213.255 17.482 215.127 17.482C216.759 17.482 217.827 18.322 218.163 19.702H216.987C216.759 18.91 216.099 18.406 215.127 18.406C213.927 18.406 213.039 19.258 213.039 20.866C213.039 22.498 213.927 23.35 215.127 23.35C216.099 23.35 216.747 22.882 216.987 22.054H218.163C217.827 23.362 216.759 24.274 215.127 24.274C213.255 24.274 211.923 22.954 211.923 20.866ZM219.62 24.166V15.286H220.712V18.538C221.144 17.842 221.96 17.47 222.884 17.47C224.348 17.47 225.512 18.406 225.512 20.29V24.166H224.432V20.446C224.432 19.102 223.7 18.418 222.596 18.418C221.48 18.418 220.712 19.114 220.712 20.53V24.166H219.62ZM233.536 20.866C233.536 22.954 232.036 24.274 230.164 24.274C228.304 24.274 226.888 22.954 226.888 20.866C226.888 18.79 228.352 17.482 230.212 17.482C232.084 17.482 233.536 18.79 233.536 20.866ZM228.004 20.866C228.004 22.534 229.024 23.314 230.164 23.314C231.304 23.314 232.42 22.534 232.42 20.866C232.42 19.21 231.328 18.43 230.2 18.43C229.048 18.43 228.004 19.21 228.004 20.866ZM235.211 22.366V18.49H234.359V17.59H235.211V15.934H236.303V17.59H238.019V18.49H236.303V22.366C236.303 23.014 236.543 23.242 237.215 23.242H238.019V24.166H237.035C235.871 24.166 235.211 23.686 235.211 22.366ZM239.343 24.166V15.286H240.435V18.538C240.867 17.842 241.683 17.47 242.607 17.47C244.071 17.47 245.235 18.406 245.235 20.29V24.166H244.155V20.446C244.155 19.102 243.423 18.418 242.319 18.418C241.203 18.418 240.435 19.114 240.435 20.53V24.166H239.343ZM249.814 18.406C248.746 18.406 247.858 19.114 247.738 20.398H251.89C251.902 19.114 250.942 18.406 249.814 18.406ZM252.886 22.138C252.55 23.338 251.494 24.274 249.862 24.274C247.99 24.274 246.61 22.954 246.61 20.866C246.61 18.79 247.942 17.482 249.862 17.482C251.77 17.482 253.018 18.826 253.018 20.626C253.018 20.866 253.006 21.058 252.982 21.286H247.726C247.81 22.618 248.746 23.35 249.862 23.35C250.846 23.35 251.47 22.846 251.71 22.138H252.886ZM255.552 20.59V24.166H254.46V17.59H255.552V18.658C255.924 17.926 256.632 17.47 257.676 17.47V18.598H257.388C256.344 18.598 255.552 19.066 255.552 20.59ZM258.528 20.854C258.528 18.802 259.884 17.482 261.648 17.482C262.872 17.482 263.712 18.106 264.096 18.79V17.59H265.2V24.166H264.096V22.942C263.7 23.65 262.848 24.274 261.636 24.274C259.884 24.274 258.528 22.894 258.528 20.854ZM264.096 20.866C264.096 19.342 263.064 18.43 261.864 18.43C260.664 18.43 259.644 19.306 259.644 20.854C259.644 22.402 260.664 23.314 261.864 23.314C263.064 23.314 264.096 22.414 264.096 20.866ZM268.138 18.802C268.534 18.106 269.398 17.482 270.598 17.482C272.362 17.482 273.718 18.802 273.718 20.854C273.718 22.894 272.362 24.274 270.598 24.274C269.398 24.274 268.546 23.626 268.138 22.954V27.286H267.046V17.59H268.138V18.802ZM272.602 20.854C272.602 19.306 271.582 18.43 270.37 18.43C269.182 18.43 268.138 19.342 268.138 20.866C268.138 22.414 269.182 23.314 270.37 23.314C271.582 23.314 272.602 22.402 272.602 20.854ZM275.155 24.166V17.59H276.247V24.166H275.155ZM275.719 16.522C275.299 16.522 274.975 16.198 274.975 15.778C274.975 15.358 275.299 15.034 275.719 15.034C276.115 15.034 276.439 15.358 276.439 15.778C276.439 16.198 276.115 16.522 275.719 16.522ZM282.836 22.378C282.836 23.458 281.888 24.274 280.436 24.274C278.9 24.274 277.82 23.434 277.748 22.234H278.876C278.936 22.87 279.5 23.35 280.424 23.35C281.288 23.35 281.768 22.918 281.768 22.378C281.768 20.914 277.88 21.766 277.88 19.318C277.88 18.31 278.828 17.482 280.292 17.482C281.744 17.482 282.704 18.262 282.776 19.546H281.684C281.636 18.886 281.132 18.406 280.256 18.406C279.452 18.406 278.972 18.79 278.972 19.318C278.972 20.878 282.788 20.026 282.836 22.378ZM284.618 22.366V18.49H283.766V17.59H284.618V15.934H285.71V17.59H287.426V18.49H285.71V22.366C285.71 23.014 285.95 23.242 286.622 23.242H287.426V24.166H286.442C285.278 24.166 284.618 23.686 284.618 22.366Z" fill="#6D8493"/>
</svg>
