<svg width="261" height="273" viewBox="0 0 261 273" fill="none" xmlns="http://www.w3.org/2000/svg">
<g clip-path="url(#clip0_19_2028)">
<path d="M3.778 11.636C6.526 11.636 8.218 13.244 8.218 15.836C8.218 18.428 6.526 20 3.778 20H1.174V11.636H3.778ZM2.266 19.1H3.778C5.962 19.1 7.102 17.876 7.102 15.836C7.102 13.796 5.962 12.524 3.778 12.524H2.266V19.1ZM11.9544 14.24C10.8864 14.24 9.99837 14.948 9.87838 16.232H14.0304C14.0424 14.948 13.0824 14.24 11.9544 14.24ZM15.0264 17.972C14.6904 19.172 13.6344 20.108 12.0024 20.108C10.1304 20.108 8.75038 18.788 8.75038 16.7C8.75038 14.624 10.0824 13.316 12.0024 13.316C13.9104 13.316 15.1584 14.66 15.1584 16.46C15.1584 16.7 15.1464 16.892 15.1224 17.12H9.86638C9.95038 18.452 10.8864 19.184 12.0024 19.184C12.9864 19.184 13.6104 18.68 13.8504 17.972H15.0264ZM15.3198 13.424H16.4958L18.5478 18.992L20.5878 13.424H21.7518L19.1718 20H17.8998L15.3198 13.424ZM25.1223 14.24C24.0543 14.24 23.1663 14.948 23.0463 16.232H27.1983C27.2103 14.948 26.2503 14.24 25.1223 14.24ZM28.1943 17.972C27.8583 19.172 26.8023 20.108 25.1703 20.108C23.2983 20.108 21.9183 18.788 21.9183 16.7C21.9183 14.624 23.2503 13.316 25.1703 13.316C27.0783 13.316 28.3263 14.66 28.3263 16.46C28.3263 16.7 28.3143 16.892 28.2903 17.12H23.0343C23.1183 18.452 24.0543 19.184 25.1703 19.184C26.1543 19.184 26.7783 18.68 27.0183 17.972H28.1943ZM29.2678 20V11.12H30.3598V20H29.2678ZM37.9609 16.7C37.9609 18.788 36.4609 20.108 34.5889 20.108C32.7289 20.108 31.3129 18.788 31.3129 16.7C31.3129 14.624 32.7769 13.316 34.6369 13.316C36.5089 13.316 37.9609 14.624 37.9609 16.7ZM32.4289 16.7C32.4289 18.368 33.4489 19.148 34.5889 19.148C35.7289 19.148 36.8449 18.368 36.8449 16.7C36.8449 15.044 35.7529 14.264 34.6249 14.264C33.4729 14.264 32.4289 15.044 32.4289 16.7ZM39.9887 14.636C40.3847 13.94 41.2487 13.316 42.4487 13.316C44.2127 13.316 45.5687 14.636 45.5687 16.688C45.5687 18.728 44.2127 20.108 42.4487 20.108C41.2487 20.108 40.3967 19.46 39.9887 18.788V23.12H38.8967V13.424H39.9887V14.636ZM44.4527 16.688C44.4527 15.14 43.4327 14.264 42.2207 14.264C41.0327 14.264 39.9887 15.176 39.9887 16.7C39.9887 18.248 41.0327 19.148 42.2207 19.148C43.4327 19.148 44.4527 18.236 44.4527 16.688ZM55.998 20V16.28C55.998 14.936 55.278 14.252 54.198 14.252C53.094 14.252 52.338 14.96 52.338 16.376V20H51.258V16.28C51.258 14.936 50.538 14.252 49.458 14.252C48.354 14.252 47.598 14.96 47.598 16.376V20H46.506V13.424H47.598V14.372C48.03 13.676 48.81 13.304 49.674 13.304C50.754 13.304 51.654 13.784 52.086 14.768C52.47 13.82 53.406 13.304 54.414 13.304C55.914 13.304 57.078 14.24 57.078 16.124V20H55.998ZM61.1653 14.24C60.0973 14.24 59.2093 14.948 59.0893 16.232H63.2413C63.2533 14.948 62.2933 14.24 61.1653 14.24ZM64.2373 17.972C63.9013 19.172 62.8453 20.108 61.2133 20.108C59.3413 20.108 57.9613 18.788 57.9613 16.7C57.9613 14.624 59.2933 13.316 61.2133 13.316C63.1213 13.316 64.3693 14.66 64.3693 16.46C64.3693 16.7 64.3573 16.892 64.3333 17.12H59.0773C59.1613 18.452 60.0973 19.184 61.2133 19.184C62.1973 19.184 62.8213 18.68 63.0613 17.972H64.2373ZM70.1227 20V16.28C70.1227 14.936 69.3907 14.252 68.2867 14.252C67.1707 14.252 66.4027 14.948 66.4027 16.364V20H65.3107V13.424H66.4027V14.36C66.8347 13.676 67.6267 13.304 68.5147 13.304C70.0387 13.304 71.2027 14.24 71.2027 16.124V20H70.1227ZM72.7265 18.2V14.324H71.8745V13.424H72.7265V11.768H73.8185V13.424H75.5345V14.324H73.8185V18.2C73.8185 18.848 74.0585 19.076 74.7305 19.076H75.5345V20H74.5505C73.3865 20 72.7265 19.52 72.7265 18.2ZM83.7848 18.212C83.7848 19.292 82.8368 20.108 81.3848 20.108C79.8488 20.108 78.7688 19.268 78.6968 18.068H79.8248C79.8848 18.704 80.4488 19.184 81.3728 19.184C82.2368 19.184 82.7168 18.752 82.7168 18.212C82.7168 16.748 78.8288 17.6 78.8288 15.152C78.8288 14.144 79.7768 13.316 81.2408 13.316C82.6928 13.316 83.6528 14.096 83.7248 15.38H82.6328C82.5848 14.72 82.0808 14.24 81.2048 14.24C80.4008 14.24 79.9208 14.624 79.9208 15.152C79.9208 16.712 83.7368 15.86 83.7848 18.212ZM87.6223 14.24C86.5543 14.24 85.6663 14.948 85.5463 16.232H89.6983C89.7103 14.948 88.7503 14.24 87.6223 14.24ZM90.6943 17.972C90.3583 19.172 89.3023 20.108 87.6703 20.108C85.7983 20.108 84.4183 18.788 84.4183 16.7C84.4183 14.624 85.7503 13.316 87.6703 13.316C89.5783 13.316 90.8263 14.66 90.8263 16.46C90.8263 16.7 90.8143 16.892 90.7903 17.12H85.5343C85.6183 18.452 86.5543 19.184 87.6703 19.184C88.6543 19.184 89.2783 18.68 89.5183 17.972H90.6943ZM92.8598 16.424V20H91.7678V13.424H92.8598V14.492C93.2318 13.76 93.9398 13.304 94.9838 13.304V14.432H94.6958C93.6518 14.432 92.8598 14.9 92.8598 16.424ZM94.9643 13.424H96.1403L98.1923 18.992L100.232 13.424H101.396L98.8163 20H97.5443L94.9643 13.424ZM101.971 20V13.424H103.063V20H101.971ZM102.535 12.356C102.115 12.356 101.791 12.032 101.791 11.612C101.791 11.192 102.115 10.868 102.535 10.868C102.931 10.868 103.255 11.192 103.255 11.612C103.255 12.032 102.931 12.356 102.535 12.356ZM104.016 16.7C104.016 14.636 105.348 13.316 107.22 13.316C108.852 13.316 109.92 14.156 110.256 15.536H109.08C108.852 14.744 108.192 14.24 107.22 14.24C106.02 14.24 105.132 15.092 105.132 16.7C105.132 18.332 106.02 19.184 107.22 19.184C108.192 19.184 108.84 18.716 109.08 17.888H110.256C109.92 19.196 108.852 20.108 107.22 20.108C105.348 20.108 104.016 18.788 104.016 16.7ZM114.009 14.24C112.941 14.24 112.053 14.948 111.933 16.232H116.085C116.097 14.948 115.137 14.24 114.009 14.24ZM117.081 17.972C116.745 19.172 115.689 20.108 114.057 20.108C112.185 20.108 110.805 18.788 110.805 16.7C110.805 14.624 112.137 13.316 114.057 13.316C115.965 13.316 117.213 14.66 117.213 16.46C117.213 16.7 117.201 16.892 117.177 17.12H111.921C112.005 18.452 112.941 19.184 114.057 19.184C115.041 19.184 115.665 18.68 115.905 17.972H117.081ZM122.882 18.212C122.882 19.292 121.934 20.108 120.482 20.108C118.946 20.108 117.866 19.268 117.794 18.068H118.922C118.982 18.704 119.546 19.184 120.47 19.184C121.334 19.184 121.814 18.752 121.814 18.212C121.814 16.748 117.926 17.6 117.926 15.152C117.926 14.144 118.874 13.316 120.338 13.316C121.79 13.316 122.75 14.096 122.822 15.38H121.73C121.682 14.72 121.178 14.24 120.302 14.24C119.498 14.24 119.018 14.624 119.018 15.152C119.018 16.712 122.834 15.86 122.882 18.212Z" fill="#999999"/>
<rect x="0.25" y="40" width="259.75" height="165" rx="10" fill="#919CFF" stroke="#E7E9ED"/>
<rect x="139" y="53" width="108.026" height="29.6336" rx="8" fill="#442D87"/>
<path d="M160.625 72.2208V71.4408C162.905 69.6048 165.065 67.8768 165.065 66.1008C165.065 65.1408 164.645 64.4208 163.469 64.4208C162.341 64.4208 161.765 65.2008 161.717 66.2928H160.661C160.733 64.4448 161.897 63.4848 163.457 63.4848C165.089 63.4848 166.145 64.4448 166.145 66.0528C166.145 68.2128 163.817 70.0488 162.269 71.3088H166.397V72.2208H160.625ZM167.635 65.8248C167.743 64.3368 168.871 63.4728 170.479 63.4728C172.171 63.4728 173.095 64.4568 173.095 65.7048C173.095 66.7008 172.471 67.4808 171.559 67.6848V67.7448C172.567 67.9848 173.251 68.7288 173.251 69.9768C173.251 71.3208 172.315 72.3768 170.503 72.3768C168.859 72.3768 167.635 71.5008 167.503 69.8208H168.559C168.667 70.7448 169.339 71.4528 170.491 71.4528C171.655 71.4528 172.207 70.7688 172.207 69.8808C172.207 68.6568 171.355 68.1888 169.795 68.1888H169.519V67.2768H169.807C171.259 67.2648 172.039 66.8208 172.039 65.8128C172.039 64.9848 171.487 64.4088 170.443 64.4088C169.423 64.4088 168.811 64.9848 168.703 65.8248H167.635ZM174.594 72.2208V71.4408C176.874 69.6048 179.034 67.8768 179.034 66.1008C179.034 65.1408 178.614 64.4208 177.438 64.4208C176.31 64.4208 175.734 65.2008 175.686 66.2928H174.63C174.702 64.4448 175.866 63.4848 177.426 63.4848C179.058 63.4848 180.114 64.4448 180.114 66.0528C180.114 68.2128 177.786 70.0488 176.238 71.3088H180.366V72.2208H174.594ZM185.007 72.3168V63.4368H186.099V72.3168H185.007ZM187.96 72.3168V65.7408H189.052V72.3168H187.96ZM188.524 64.6728C188.104 64.6728 187.78 64.3488 187.78 63.9288C187.78 63.5088 188.104 63.1848 188.524 63.1848C188.92 63.1848 189.244 63.5088 189.244 63.9288C189.244 64.3488 188.92 64.6728 188.524 64.6728ZM195.641 70.5288C195.641 71.6088 194.693 72.4248 193.241 72.4248C191.705 72.4248 190.625 71.5848 190.553 70.3848H191.681C191.741 71.0208 192.305 71.5008 193.229 71.5008C194.093 71.5008 194.573 71.0688 194.573 70.5288C194.573 69.0648 190.685 69.9168 190.685 67.4688C190.685 66.4608 191.633 65.6328 193.097 65.6328C194.549 65.6328 195.509 66.4128 195.581 67.6968H194.489C194.441 67.0368 193.937 66.5568 193.061 66.5568C192.257 66.5568 191.777 66.9408 191.777 67.4688C191.777 69.0288 195.593 68.1768 195.641 70.5288ZM197.423 70.5168V66.6408H196.571V65.7408H197.423V64.0848H198.515V65.7408H200.231V66.6408H198.515V70.5168C198.515 71.1648 198.755 71.3928 199.427 71.3928H200.231V72.3168H199.247C198.083 72.3168 197.423 71.8368 197.423 70.5168ZM201.554 72.3168V65.7408H202.646V72.3168H201.554ZM202.118 64.6728C201.698 64.6728 201.374 64.3488 201.374 63.9288C201.374 63.5088 201.698 63.1848 202.118 63.1848C202.514 63.1848 202.838 63.5088 202.838 63.9288C202.838 64.3488 202.514 64.6728 202.118 64.6728ZM209.319 72.3168V68.5968C209.319 67.2528 208.587 66.5688 207.483 66.5688C206.367 66.5688 205.599 67.2648 205.599 68.6808V72.3168H204.507V65.7408H205.599V66.6768C206.031 65.9928 206.823 65.6208 207.711 65.6208C209.235 65.6208 210.399 66.5568 210.399 68.4408V72.3168H209.319ZM211.775 69.0048C211.775 66.9528 213.131 65.6328 214.895 65.6328C216.095 65.6328 216.959 66.2328 217.343 66.9408V65.7408H218.447V72.4608C218.447 74.2728 217.235 75.5568 215.303 75.5568C213.575 75.5568 212.339 74.6808 212.123 73.2768H213.203C213.443 74.0688 214.223 74.6088 215.303 74.6088C216.467 74.6088 217.343 73.8648 217.343 72.4608V71.0808C216.947 71.7888 216.095 72.4248 214.895 72.4248C213.131 72.4248 211.775 71.0448 211.775 69.0048ZM217.343 69.0168C217.343 67.4928 216.311 66.5808 215.111 66.5808C213.911 66.5808 212.891 67.4568 212.891 69.0048C212.891 70.5528 213.911 71.4648 215.111 71.4648C216.311 71.4648 217.343 70.5648 217.343 69.0168ZM225.02 70.5288C225.02 71.6088 224.072 72.4248 222.62 72.4248C221.084 72.4248 220.004 71.5848 219.932 70.3848H221.06C221.12 71.0208 221.684 71.5008 222.608 71.5008C223.472 71.5008 223.952 71.0688 223.952 70.5288C223.952 69.0648 220.064 69.9168 220.064 67.4688C220.064 66.4608 221.012 65.6328 222.476 65.6328C223.928 65.6328 224.888 66.4128 224.96 67.6968H223.868C223.82 67.0368 223.316 66.5568 222.44 66.5568C221.636 66.5568 221.156 66.9408 221.156 67.4688C221.156 69.0288 224.972 68.1768 225.02 70.5288Z" fill="white"/>
<path d="M0.99 226.02C0.99 221.86 4.17 218.92 8.09 218.92C10.99 218.92 13.49 220.38 14.55 223.1H11.81C11.07 221.62 9.75 220.92 8.09 220.92C5.33 220.92 3.33 222.88 3.33 226.02C3.33 229.16 5.33 231.14 8.09 231.14C9.75 231.14 11.07 230.44 11.81 228.96H14.55C13.49 231.68 10.99 233.12 8.09 233.12C4.17 233.12 0.99 230.2 0.99 226.02ZM16.8388 233V218.2H19.1188V233H16.8388ZM20.9724 227.44C20.9724 224.04 23.2724 221.8 26.1724 221.8C28.0324 221.8 29.3124 222.68 29.9924 223.58V221.98H32.2924V233H29.9924V231.36C29.2924 232.3 27.9724 233.18 26.1324 233.18C23.2724 233.18 20.9724 230.84 20.9724 227.44ZM29.9924 227.48C29.9924 225.12 28.3724 223.78 26.6524 223.78C24.9524 223.78 23.3124 225.06 23.3124 227.44C23.3124 229.82 24.9524 231.2 26.6524 231.2C28.3724 231.2 29.9924 229.86 29.9924 227.48ZM43.1272 229.92C43.1272 231.78 41.5072 233.18 38.9072 233.18C36.2672 233.18 34.4072 231.62 34.3072 229.62H36.6672C36.7472 230.52 37.6072 231.26 38.8672 231.26C40.1872 231.26 40.8872 230.7 40.8872 229.94C40.8872 227.78 34.4872 229.02 34.4872 224.98C34.4872 223.22 36.1272 221.8 38.7272 221.8C41.2272 221.8 42.8672 223.14 42.9872 225.34H40.7072C40.6272 224.38 39.8872 223.72 38.6472 223.72C37.4272 223.72 36.7872 224.22 36.7872 224.96C36.7872 227.18 43.0072 225.94 43.1272 229.92ZM53.4308 229.92C53.4308 231.78 51.8108 233.18 49.2108 233.18C46.5708 233.18 44.7108 231.62 44.6108 229.62H46.9708C47.0508 230.52 47.9108 231.26 49.1708 231.26C50.4908 231.26 51.1908 230.7 51.1908 229.94C51.1908 227.78 44.7908 229.02 44.7908 224.98C44.7908 223.22 46.4308 221.8 49.0308 221.8C51.5308 221.8 53.1708 223.14 53.2908 225.34H51.0108C50.9308 224.38 50.1908 223.72 48.9508 223.72C47.7308 223.72 47.0908 224.22 47.0908 224.96C47.0908 227.18 53.3108 225.94 53.4308 229.92ZM60.1545 223.72C58.6145 223.72 57.3745 224.76 57.1345 226.5H63.2345C63.1945 224.8 61.8545 223.72 60.1545 223.72ZM65.3145 229.72C64.6945 231.64 62.9545 233.18 60.2545 233.18C57.0945 233.18 54.7545 230.94 54.7545 227.48C54.7545 224.02 56.9945 221.8 60.2545 221.8C63.3945 221.8 65.6145 223.98 65.6145 227.22C65.6145 227.6 65.5945 227.96 65.5345 228.34H57.1145C57.2745 230.16 58.5745 231.26 60.2545 231.26C61.6545 231.26 62.4345 230.58 62.8545 229.72H65.3145ZM75.6984 229.92C75.6984 231.78 74.0784 233.18 71.4784 233.18C68.8384 233.18 66.9784 231.62 66.8784 229.62H69.2384C69.3184 230.52 70.1784 231.26 71.4384 231.26C72.7584 231.26 73.4584 230.7 73.4584 229.94C73.4584 227.78 67.0584 229.02 67.0584 224.98C67.0584 223.22 68.6984 221.8 71.2984 221.8C73.7984 221.8 75.4384 223.14 75.5584 225.34H73.2784C73.1984 224.38 72.4584 223.72 71.2184 223.72C69.9984 223.72 69.3584 224.22 69.3584 224.96C69.3584 227.18 75.5784 225.94 75.6984 229.92ZM76.3821 235.78L77.8021 230.26H80.2821L77.8621 235.78H76.3821ZM85.9897 220.96V219.1H95.6897V220.96H91.9897V233H89.7097V220.96H85.9897ZM99.8989 227.2V233H97.6189V221.98H99.8989V223.58C100.539 222.48 101.639 221.8 103.199 221.8V224.16H102.619C100.939 224.16 99.8989 224.86 99.8989 227.2ZM104.155 227.44C104.155 224.04 106.455 221.8 109.355 221.8C111.215 221.8 112.495 222.68 113.175 223.58V221.98H115.475V233H113.175V231.36C112.475 232.3 111.155 233.18 109.315 233.18C106.455 233.18 104.155 230.84 104.155 227.44ZM113.175 227.48C113.175 225.12 111.555 223.78 109.835 223.78C108.135 223.78 106.495 225.06 106.495 227.44C106.495 229.82 108.135 231.2 109.835 231.2C111.555 231.2 113.175 229.86 113.175 227.48ZM118.09 233V221.98H120.37V233H118.09ZM119.25 220.52C118.43 220.52 117.79 219.88 117.79 219.06C117.79 218.24 118.43 217.6 119.25 217.6C120.05 217.6 120.69 218.24 120.69 219.06C120.69 219.88 120.05 220.52 119.25 220.52ZM130.803 233V226.84C130.803 224.82 129.703 223.78 128.043 223.78C126.363 223.78 125.263 224.82 125.263 226.84V233H122.983V221.98H125.263V223.24C126.003 222.34 127.223 221.8 128.543 221.8C131.123 221.8 133.063 223.42 133.063 226.5V233H130.803ZM135.591 233V221.98H137.871V233H135.591ZM136.751 220.52C135.931 220.52 135.291 219.88 135.291 219.06C135.291 218.24 135.931 217.6 136.751 217.6C137.551 217.6 138.191 218.24 138.191 219.06C138.191 219.88 137.551 220.52 136.751 220.52ZM148.305 233V226.84C148.305 224.82 147.205 223.78 145.545 223.78C143.865 223.78 142.765 224.82 142.765 226.84V233H140.485V221.98H142.765V223.24C143.505 222.34 144.725 221.8 146.045 221.8C148.625 221.8 150.565 223.42 150.565 226.5V233H148.305ZM152.333 227.44C152.333 224.04 154.633 221.8 157.533 221.8C159.333 221.8 160.673 222.64 161.353 223.58V221.98H163.653V233.18C163.653 236.18 161.713 238.44 158.273 238.44C155.333 238.44 153.153 236.98 152.873 234.54H155.133C155.473 235.68 156.693 236.46 158.273 236.46C160.033 236.46 161.353 235.38 161.353 233.18V231.34C160.653 232.28 159.333 233.18 157.533 233.18C154.633 233.18 152.333 230.84 152.333 227.44ZM161.353 227.48C161.353 225.12 159.733 223.78 158.013 223.78C156.313 223.78 154.673 225.06 154.673 227.44C154.673 229.82 156.313 231.2 158.013 231.2C159.733 231.2 161.353 229.86 161.353 227.48ZM179.924 222.2H177.644C177.684 221.18 177.104 220.64 176.244 220.64C175.344 220.64 174.764 221.24 174.764 221.98C174.764 222.74 175.184 223.36 176.164 224.42L179.844 228.08L181.264 225.74H183.724L181.924 228.82C181.764 229.1 181.584 229.38 181.424 229.64L184.804 233H181.824L180.104 231.28C178.764 232.62 177.224 233.26 175.284 233.26C172.284 233.26 170.284 231.6 170.284 229C170.284 227.12 171.344 225.54 173.544 224.64C172.764 223.7 172.484 222.96 172.484 221.98C172.484 220.16 173.964 218.78 176.344 218.78C178.764 218.78 180.064 220.3 179.924 222.2ZM175.284 231.32C176.584 231.32 177.644 230.8 178.604 229.78L174.924 226.08C173.304 226.72 172.564 227.68 172.564 228.92C172.564 230.26 173.644 231.32 175.284 231.32ZM11.13 255.06C11.13 257.14 9.43 259.14 6.33 259.14C3.55 259.14 1.41 257.62 1.41 255.16H3.85C3.95 256.3 4.75 257.22 6.33 257.22C7.93 257.22 8.83 256.36 8.83 255.18C8.83 251.82 1.45 254 1.45 248.88C1.45 246.44 3.39 244.92 6.23 244.92C8.89 244.92 10.77 246.32 10.97 248.7H8.45C8.37 247.76 7.55 246.9 6.11 246.86C4.79 246.82 3.77 247.46 3.77 248.8C3.77 251.94 11.13 249.98 11.13 255.06ZM18.0804 249.72C16.5404 249.72 15.3004 250.76 15.0604 252.5H21.1604C21.1204 250.8 19.7804 249.72 18.0804 249.72ZM23.2404 255.72C22.6204 257.64 20.8804 259.18 18.1804 259.18C15.0204 259.18 12.6804 256.94 12.6804 253.48C12.6804 250.02 14.9204 247.8 18.1804 247.8C21.3204 247.8 23.5404 249.98 23.5404 253.22C23.5404 253.6 23.5204 253.96 23.4604 254.34H15.0404C15.2004 256.16 16.5004 257.26 18.1804 257.26C19.5804 257.26 20.3604 256.58 20.7804 255.72H23.2404ZM27.6842 253.2V259H25.4042V247.98H27.6842V249.58C28.3242 248.48 29.4242 247.8 30.9842 247.8V250.16H30.4042C28.7242 250.16 27.6842 250.86 27.6842 253.2ZM31.4001 247.98H33.8401L36.9601 256.96L40.0801 247.98H42.5001L38.3001 259H35.5801L31.4001 247.98ZM43.8437 259V247.98H46.1237V259H43.8437ZM45.0037 246.52C44.1837 246.52 43.5437 245.88 43.5437 245.06C43.5437 244.24 44.1837 243.6 45.0037 243.6C45.8037 243.6 46.4437 244.24 46.4437 245.06C46.4437 245.88 45.8037 246.52 45.0037 246.52ZM47.9772 253.48C47.9772 250.04 50.2172 247.8 53.3772 247.8C56.0772 247.8 57.8372 249.14 58.4572 251.46H55.9972C55.6172 250.4 54.7372 249.72 53.3772 249.72C51.5372 249.72 50.3172 251.08 50.3172 253.48C50.3172 255.9 51.5372 257.26 53.3772 257.26C54.7372 257.26 55.5772 256.66 55.9972 255.52H58.4572C57.8372 257.68 56.0772 259.18 53.3772 259.18C50.2172 259.18 47.9772 256.94 47.9772 253.48ZM64.9895 249.72C63.4495 249.72 62.2095 250.76 61.9695 252.5H68.0695C68.0295 250.8 66.6895 249.72 64.9895 249.72ZM70.1495 255.72C69.5295 257.64 67.7895 259.18 65.0895 259.18C61.9295 259.18 59.5895 256.94 59.5895 253.48C59.5895 250.02 61.8295 247.8 65.0895 247.8C68.2295 247.8 70.4495 249.98 70.4495 253.22C70.4495 253.6 70.4295 253.96 70.3695 254.34H61.9495C62.1095 256.16 63.4095 257.26 65.0895 257.26C66.4895 257.26 67.2695 256.58 67.6895 255.72H70.1495ZM80.5333 255.92C80.5333 257.78 78.9133 259.18 76.3133 259.18C73.6733 259.18 71.8133 257.62 71.7133 255.62H74.0733C74.1533 256.52 75.0133 257.26 76.2733 257.26C77.5933 257.26 78.2933 256.7 78.2933 255.94C78.2933 253.78 71.8933 255.02 71.8933 250.98C71.8933 249.22 73.5333 247.8 76.1333 247.8C78.6333 247.8 80.2733 249.14 80.3933 251.34H78.1133C78.0333 250.38 77.2933 249.72 76.0533 249.72C74.8333 249.72 74.1933 250.22 74.1933 250.96C74.1933 253.18 80.4133 251.94 80.5333 255.92Z" fill="#161C2D"/>
<path d="M121.736 88.1886H98.719V119.55H121.736V88.1886Z" fill="white"/>
<path d="M122.935 120.749V86.9929H97.5233V120.749H122.935ZM98.719 88.1886H121.736V119.55H98.719V88.1886Z" fill="#EBEBEB"/>
<path d="M100.373 92.6501V108.952H118.314V92.6501H100.373Z" fill="#EBEBEB"/>
<path d="M105.63 95.1024V112.64H114.822V95.1024H105.63Z" fill="#C7C7C7"/>
<path d="M96.5387 120.749H97.5203V86.9929H96.5387V120.749Z" fill="#DBDBDB"/>
<path d="M85.8727 82.0758H62.8559V113.438H85.8727V82.0758Z" fill="white"/>
<path d="M81.9159 84.0482H75.9071V109.756H81.9159V84.0482Z" fill="#C7C7C7"/>
<path d="M87.0714 114.633V80.8771H61.6602V114.633H87.0714ZM62.8559 82.0727H85.8727V113.435H62.8559V82.0758V82.0727Z" fill="#EBEBEB"/>
<path d="M78.9619 88.9866H69.7698V106.521H78.9619V88.9866Z" fill="#EBEBEB"/>
<path d="M60.6757 114.633H61.6573L61.6573 80.8771H60.6757L60.6757 114.633Z" fill="#DBDBDB"/>
<path d="M50.0096 79.0178H26.9927V110.38H50.0096V79.0178Z" fill="white"/>
<path d="M47.4563 99.6893H34.8271V107.239H47.4563V99.6893Z" fill="#EBEBEB"/>
<path d="M51.2083 111.575V77.8192H25.7971V111.575H51.2083ZM26.9927 79.0179H50.0096V110.38H26.9927V79.0179Z" fill="#EBEBEB"/>
<path d="M43.0987 85.9287H33.9066V103.463H43.0987V85.9287Z" fill="#C7C7C7"/>
<path d="M24.8155 111.575H25.7971L25.7971 77.8191H24.8155L24.8155 111.575Z" fill="#DBDBDB"/>
<path d="M118.846 177.241H129.598V173.819H118.846V177.241Z" fill="#EBEBEB"/>
<path d="M40.1203 121.263H50.8719V117.841H40.1203V121.263Z" fill="#EBEBEB"/>
<path d="M124.843 181.559C126.628 181.528 131.206 181.452 132.931 181.433L135.594 181.421L135.454 181.562L135.441 178.14L135.594 178.293C133.808 178.287 129.255 178.271 127.531 178.247L124.843 178.213L124.916 178.14L124.843 181.562V181.559ZM124.843 181.559L124.769 178.137V178.066H124.843C126.185 178.048 128.876 178.018 130.218 178.005L135.594 177.984H135.747V178.137L135.732 181.559V181.699H135.591L132.879 181.687C131.166 181.669 126.607 181.592 124.84 181.562L124.843 181.559Z" fill="#EBEBEB"/>
<path d="M95.8904 136.797C97.6762 136.766 102.254 136.69 103.979 136.672L106.642 136.659L106.501 136.8L106.489 133.378L106.642 133.531C104.856 133.525 100.303 133.51 98.5783 133.485L95.8904 133.452L95.9638 133.378L95.8904 136.8V136.797ZM95.8904 136.797L95.817 133.375V133.305H95.8904C97.2328 133.287 99.9237 133.256 101.266 133.244L106.642 133.222H106.795V133.375L106.78 136.797V136.938H106.639L103.927 136.925C102.214 136.907 97.6548 136.831 95.8873 136.8L95.8904 136.797Z" fill="#EBEBEB"/>
<path d="M101.89 141.112C103.676 141.081 108.254 141.005 109.978 140.986L112.642 140.974L112.501 141.115L112.489 137.693L112.642 137.846C110.856 137.84 106.303 137.824 104.578 137.8L101.89 137.766L101.963 137.693L101.89 141.115V141.112ZM101.89 141.112L101.817 137.69V137.62H101.89C103.232 137.601 105.923 137.571 107.266 137.558L112.642 137.537H112.795V137.69L112.779 141.112V141.252H112.639L109.926 141.24C108.214 141.222 103.654 141.145 101.887 141.115L101.89 141.112Z" fill="#EBEBEB"/>
<path d="M107.862 136.797H118.614V133.375H107.862V136.797Z" fill="#EBEBEB"/>
<path d="M12.1527 181.556H22.9043V178.134H12.1527V181.556Z" fill="#EBEBEB"/>
<path d="M18.1492 75.5715H28.9008V72.1497H18.1492V75.5715Z" fill="#EBEBEB"/>
<path d="M12.1527 79.8893C13.9385 79.8587 18.5162 79.7822 20.2408 79.7639L22.9043 79.7517L22.7636 79.8923L22.7514 76.4705L22.9043 76.6234C21.1185 76.6173 16.5652 76.602 14.8406 76.5776L12.1527 76.5439L12.2261 76.4705L12.1527 79.8923V79.8893ZM12.1527 79.8893L12.0793 76.4675V76.3971H12.1527C13.4951 76.3788 16.1861 76.3482 17.5285 76.336L22.9043 76.3146H23.0572V76.4675L23.0419 79.8893V80.0299H22.9012L20.1889 80.0177C18.4764 79.9994 13.9171 79.9229 12.1496 79.8923L12.1527 79.8893Z" fill="#EBEBEB"/>
<path d="M124.843 75.5747C126.628 75.5441 131.206 75.4677 132.931 75.4493L135.594 75.4371L135.454 75.5777L135.441 72.156L135.594 72.3088C133.808 72.3027 129.255 72.2874 127.531 72.263L124.843 72.2293L124.916 72.156L124.843 75.5777V75.5747ZM124.843 75.5747L124.769 72.1529V72.0826H124.843C126.185 72.0642 128.876 72.0336 130.218 72.0214L135.594 72H135.747V72.1529L135.732 75.5747V75.7154H135.591L132.879 75.7031C131.166 75.6848 126.607 75.6083 124.84 75.5777L124.843 75.5747Z" fill="#EBEBEB"/>
<path d="M9 186.873C50.5631 186.687 97.1869 186.684 138.75 186.873C97.1869 187.063 50.5631 187.06 9 186.873Z" fill="#263238"/>
<path d="M119.678 135.189C120.026 136.675 120.396 138.136 120.47 139.662C120.43 139.736 120.436 140.014 120.482 139.937C120.491 140.182 120.864 140.139 120.864 139.895C120.861 139.736 120.855 139.58 120.849 139.424C121.724 138.338 122.993 137.65 124.02 136.708C124.849 135.944 125.442 135.036 125.757 133.944C126.607 131.011 125.809 127.902 126.833 124.978C127.714 122.455 129.298 120.263 130.637 117.979C132.05 115.563 133.093 113.022 133.2 110.19C133.282 108.022 133.026 105.135 131.374 103.509C129.625 101.784 127.454 103.077 126.115 104.613C122.231 109.071 120.433 114.707 119.705 120.468C119.305 123.657 118.889 126.865 118.984 130.085C119.039 131.816 119.286 133.507 119.678 135.185V135.189Z" fill="#442D87"/>
<path d="M120.452 140.833C120.25 137.821 120.262 134.8 120.559 131.8C120.552 131.788 120.543 131.782 120.543 131.767C120.494 129.323 120.302 126.892 120.396 124.449C120.5 121.792 120.889 119.19 121.473 116.6C121.479 116.569 121.525 116.578 121.519 116.609C121.039 119.135 120.76 121.715 120.669 124.287C120.62 125.666 120.629 127.048 120.702 128.424C120.727 128.874 120.767 129.323 120.797 129.776C121.782 122.899 124.317 116.379 128.063 110.545C128.115 110.465 128.255 110.551 128.203 110.631C125.506 115.034 123.519 119.868 122.289 124.886C124.158 121.425 126.98 118.578 129.072 115.254C129.084 115.236 129.115 115.254 129.102 115.272C127.222 118.976 124.115 121.896 122.133 125.544C121.791 127.03 121.51 128.531 121.299 130.042C121.011 132.115 120.877 134.201 120.849 136.289C121.987 134.161 123.167 132.128 124.1 129.877C124.124 129.816 124.21 129.859 124.191 129.917C123.399 132.253 122.335 134.77 120.846 136.763C120.837 138.243 120.883 139.723 120.968 141.2C121.201 145.145 121.873 149.035 122.185 152.967C122.195 153.086 122.029 153.099 122.005 152.986C121.185 149.016 120.718 144.873 120.448 140.83L120.452 140.833Z" fill="#263238"/>
<path d="M124.638 110.419C124.65 110.392 124.693 110.41 124.681 110.438C123.959 112.428 123.552 114.447 123.032 116.489C123.008 116.581 122.873 116.563 122.883 116.465C123.094 114.395 123.834 112.328 124.635 110.416L124.638 110.419Z" fill="#263238"/>
<path d="M106.345 118.768C106.813 119.939 107.391 121.07 108.003 122.171C109.299 124.526 110.654 126.685 110.899 129.427C111.009 130.651 111.045 131.883 111.422 133.063C111.743 134.085 112.269 135.026 112.871 135.91C114.278 137.959 116.033 139.723 117.336 141.849C118.69 144.056 119.69 146.488 120.302 149.004C120.335 149.142 120.552 149.105 120.519 148.967C120.513 148.955 120.513 148.946 120.51 148.937C120.516 148.931 120.522 148.922 120.522 148.909C120.727 143.029 120.259 137.1 118.464 131.467C117.678 129.002 116.712 126.553 115.614 124.211C114.654 122.168 113.455 120.205 111.767 118.676C110.672 117.691 108.299 115.82 106.74 116.811C105.991 117.288 106.049 118.037 106.342 118.771L106.345 118.768Z" fill="#442D87"/>
<path d="M112.256 132.1C113.265 133.825 114.461 135.43 115.675 137.014C116.244 137.757 116.822 138.494 117.391 139.24C117.66 139.592 117.959 139.944 118.207 140.32C118.051 139.702 117.901 139.081 117.742 138.464C116.984 135.491 116.253 132.494 115.125 129.638C114.021 126.847 112.55 124.223 111.042 121.633C111.003 121.566 111.113 121.517 111.152 121.581C112.394 123.623 113.657 125.666 114.703 127.819C115.287 129.024 115.776 130.262 116.21 131.522C115.703 128.822 115.094 126.226 114.204 123.611C114.195 123.587 114.229 123.571 114.241 123.596C115.323 126.162 116.106 129.045 116.323 131.825C116.323 131.831 116.323 131.834 116.32 131.837C116.574 132.601 116.81 133.372 117.027 134.149C117.953 137.439 118.767 140.763 119.522 144.099C119.51 141.898 119.372 139.733 118.953 137.558C118.944 137.509 119.017 137.497 119.03 137.546C119.577 139.785 119.825 142.139 119.598 144.442C119.883 145.711 120.161 146.98 120.433 148.252C121.011 150.964 121.721 153.722 122.06 156.475C122.069 156.545 121.968 156.56 121.95 156.493C121.546 155.01 121.302 153.472 120.974 151.967C120.644 150.46 120.302 148.955 119.953 147.454C119.442 145.264 118.907 143.084 118.363 140.904C117.999 140.106 117.296 139.396 116.767 138.723C116.189 137.986 115.608 137.253 115.045 136.503C113.996 135.112 113.033 133.666 112.217 132.124C112.198 132.091 112.25 132.069 112.269 132.1H112.256Z" fill="#263238"/>
<path d="M112.006 129.586C113.281 131.222 114.44 133.036 115.351 134.901C115.363 134.926 115.327 134.95 115.311 134.926C114.186 133.161 113.079 131.384 111.957 129.617C111.938 129.586 111.987 129.556 112.009 129.583L112.006 129.586Z" fill="#263238"/>
<path d="M137.044 124.345C136.282 125.657 135.411 127.235 135.738 128.81C135.946 129.807 136.677 130.617 136.808 131.635C137.105 133.883 134.863 135.366 133.246 136.427C129.206 139.075 123.668 141.439 122.935 146.851C122.907 147.044 122.577 146.995 122.598 146.809C122.598 146.796 122.601 146.784 122.607 146.772C122.598 146.76 122.586 146.757 122.586 146.741C122.063 143.998 122.075 141.206 122.662 138.476C123.265 135.687 124.482 133.179 125.919 130.73C128.35 126.584 130.922 122.339 134.597 119.162C135.616 118.284 137.698 116.703 138.508 118.688C139.294 120.614 137.976 122.746 137.044 124.345Z" fill="#442D87"/>
<path d="M133.347 133.134C130.668 136.033 126.411 137.656 124.109 140.904C125.476 135.929 127.735 131.452 131.209 127.565C131.298 127.464 131.16 127.324 131.062 127.418C128.518 129.865 126.635 132.721 125.259 135.822C125.876 133.608 126.742 131.513 127.757 129.431C127.797 129.351 127.683 129.284 127.638 129.36C126.344 131.568 125.482 134.045 124.944 136.543C121.907 143.894 121.626 152.518 122.262 160.267C122.271 160.377 122.439 160.38 122.436 160.267C122.262 154.16 122.36 147.946 123.824 141.983C123.855 141.858 123.889 141.736 123.919 141.613C126.427 138.118 130.665 136.497 133.389 133.18C133.417 133.149 133.371 133.103 133.344 133.134H133.347Z" fill="#263238"/>
<path d="M133.967 130.645C132.561 131.935 131.179 133.253 129.769 134.54C129.754 134.553 129.772 134.577 129.79 134.568C131.322 133.531 132.879 132.161 134.05 130.727C134.099 130.669 134.022 130.589 133.967 130.645Z" fill="#263238"/>
<path d="M134.191 125.058C132.916 127.103 131.576 129.024 129.986 130.843C129.965 130.868 129.998 130.901 130.023 130.88C131.729 129.235 133.246 127.247 134.267 125.104C134.292 125.055 134.221 125.012 134.191 125.061V125.058Z" fill="#263238"/>
<path d="M113.636 164.355H129.362V147.778H113.636V164.355Z" fill="#455A64"/>
<path d="M130.448 153.64H129.644V186.87H130.448V153.64Z" fill="#263238"/>
<path d="M113.443 153.64H112.639V186.87H113.443V153.64Z" fill="#263238"/>
<path d="M121.516 153.64H120.712V186.87H121.516V153.64Z" fill="#263238"/>
<path d="M113.042 165.584H130.044V163.288H113.042V165.584Z" fill="#263238"/>
<path d="M136.879 198.937H10.8684L26.1977 186.873H121.549L136.879 198.937Z" fill="#442D87"/>
<g opacity="0.5">
<path d="M136.879 198.937H10.8684L26.1977 186.873H121.549L136.879 198.937Z" fill="white"/>
</g>
<path d="M136.882 198.937H10.8683V200.985H136.882V198.937Z" fill="#442D87"/>
<path d="M69.2376 156.606H91.2973L95.0463 160.9C102.599 160.554 111.29 160.419 119.39 162.175C134.249 165.395 139.6 185.005 121.106 192.589C106.039 198.766 48.2726 186.473 48.2726 186.473L61.3207 165.211C61.3207 165.211 77.0353 164.615 95.8292 164.823L69.415 167.508L69.2376 156.609V156.606Z" fill="#37474F"/>
<path d="M53.8288 185.8C54.1254 185.188 57.59 179.913 58.3637 178.706C59.9263 176.259 61.4277 173.776 62.8863 171.269C63.715 169.841 64.5498 168.419 65.3265 166.96C65.3449 166.927 65.299 166.896 65.2776 166.93C63.6386 169.358 62.0821 171.844 60.4889 174.305C58.9141 176.742 53.942 185.017 53.6759 185.727C53.6209 185.876 53.7585 185.953 53.8288 185.803V185.8Z" fill="#263238"/>
<path d="M118.406 164.771C116.543 164.636 114.678 164.59 112.813 164.514C112.048 164.483 111.287 164.456 110.522 164.428C111.736 164.232 112.953 164.076 114.189 164.006C114.278 164 114.274 163.869 114.189 163.869C112.718 163.902 111.238 164.064 109.801 164.404C108.941 164.376 108.082 164.352 107.223 164.33C103.495 164.239 99.7647 164.229 96.0341 164.248C88.6125 164.287 81.191 164.437 73.7725 164.645C71.6809 164.703 69.5862 164.768 67.4946 164.847C65.4061 164.927 63.2992 165.018 61.2198 165.254C61.1831 165.257 61.1831 165.309 61.2198 165.312C63.0821 165.416 64.9504 165.382 66.8158 165.379C68.6811 165.379 70.5464 165.318 72.4087 165.275C76.1393 165.193 79.8669 165.11 83.5975 165.046C91.0191 164.92 98.4376 164.89 105.859 164.896C107.951 164.896 110.042 164.893 112.137 164.902C114.229 164.914 116.32 164.972 118.412 164.963C118.537 164.963 118.531 164.78 118.412 164.771H118.406Z" fill="#263238"/>
<path d="M134.426 165.764C134.041 165.605 96.615 163.872 96.615 163.872C95.3582 164.514 94.8353 168.853 94.8353 168.853C94.9821 169.513 82.0685 172.336 82.0685 172.336L96.9911 188.916L117.718 176.678C117.718 176.678 132.304 171.137 132.86 170.752C134.304 169.746 135.64 166.254 134.429 165.764H134.426Z" fill="#AD6359"/>
<path d="M70.2069 168.095V169.043L20.785 167.303C31.4235 166.945 53.263 167.523 70.2069 168.098V168.095Z" fill="#37474F"/>
<path d="M23.3384 167.303C24.6502 167.257 26.1211 167.211 27.7234 167.153C27.9619 167.266 28.2004 167.376 28.4359 167.492L23.3384 167.303Z" fill="#37474F"/>
<path d="M105.52 189.714C105.52 189.714 43.6857 198.013 24.4117 191.283C9.05492 185.916 10.2016 169.972 20.785 163.817C20.9624 163.713 21.1459 163.609 21.3324 163.511C21.4975 163.422 21.6627 163.337 21.8309 163.254C21.8645 163.236 21.9012 163.217 21.9348 163.202C22.0663 163.138 22.2009 163.077 22.3323 163.015C22.4149 162.976 22.5005 162.936 22.5862 162.902C22.7268 162.838 22.8705 162.78 23.0143 162.719C23.051 162.704 23.0846 162.688 23.1213 162.679C23.3017 162.606 23.4821 162.538 23.6687 162.471C23.687 162.465 23.7053 162.456 23.7237 162.453C23.8949 162.389 24.0692 162.33 24.2466 162.278C24.3383 162.245 24.4331 162.214 24.531 162.19C24.6686 162.144 24.8062 162.104 24.9469 162.067C25.164 162.003 25.3841 161.948 25.6012 161.896C38.4934 158.796 54.899 161.184 54.899 161.184L60.1005 156.609H70.2039V168.098C53.26 167.523 31.4204 166.945 20.782 167.303L70.2039 169.043V168.095C83.1786 168.526 93.2819 168.96 93.2819 168.96L105.517 189.717L105.52 189.714Z" fill="#37474F"/>
<path d="M63.0239 167.862C48.7496 167.419 32.7781 167.055 23.158 167.235C23.0418 166.523 23.1427 165.942 23.5861 165.764C23.9714 165.605 61.3971 163.872 61.3971 163.872C62.2686 164.318 62.7884 166.544 63.0208 167.862H63.0239Z" fill="#37474F"/>
<path d="M95.4193 164.251C95.6762 164.251 95.933 164.248 96.1899 164.248C96.0492 164.431 95.9208 164.66 95.8015 164.917C91.5266 164.936 87.2578 164.979 82.9828 165.049C79.2522 165.113 75.5215 165.196 71.7939 165.275C69.9317 165.321 68.0633 165.379 66.201 165.379C64.3388 165.382 62.4673 165.416 60.6051 165.312C60.5684 165.312 60.5684 165.26 60.6051 165.257C62.6844 165.021 64.7883 164.93 66.8799 164.85C68.9715 164.768 71.0661 164.703 73.1578 164.648C80.5732 164.44 87.9947 164.29 95.4193 164.251Z" fill="#263238"/>
<path d="M117.889 164.881C113.95 164.691 109.871 164.492 106.351 164.33C106.437 164.33 106.519 164.33 106.605 164.333C107.464 164.352 108.324 164.379 109.183 164.407C110.617 164.067 112.1 163.902 113.568 163.872C113.657 163.872 113.657 164.006 113.571 164.009C112.339 164.08 111.119 164.235 109.905 164.431C110.669 164.462 111.434 164.486 112.195 164.517C114.063 164.596 115.929 164.639 117.788 164.774C117.855 164.777 117.889 164.832 117.886 164.881H117.889Z" fill="#263238"/>
<path d="M63.0239 167.862C48.7496 167.419 32.7781 167.055 23.158 167.235C23.0418 166.523 23.1427 165.942 23.5861 165.764C23.9714 165.605 61.3971 163.872 61.3971 163.872C62.2686 164.318 62.7884 166.544 63.0208 167.862H63.0239Z" fill="#AD6359"/>
<path d="M93.8139 169.614C93.7834 169.544 93.3919 168.663 93.3277 168.657C81.8759 167.994 73.3657 167.767 63.6416 167.504C53.9174 167.241 44.1933 167.079 34.4661 167.046C29.1362 167.027 23.7237 167.024 18.4732 168.036C18.4029 168.049 18.4213 168.171 18.4946 168.162C23.2711 167.624 28.0751 167.559 32.879 167.642C37.7105 167.725 42.542 167.783 47.3705 167.874C57.0457 168.055 66.7209 168.299 76.393 168.636C81.8269 168.825 87.8082 168.96 93.2421 169.153C93.2452 169.171 93.5724 169.789 93.6488 169.813C93.8017 169.859 93.8812 169.767 93.8139 169.611V169.614Z" fill="#263238"/>
<path d="M105.966 189.827C105.532 189.148 105.104 188.466 104.679 187.781C104.266 187.118 103.85 186.433 103.355 185.831C103.251 185.705 103.095 185.873 103.15 185.996C103.477 186.708 103.917 187.384 104.336 188.048C104.694 188.616 105.052 189.188 105.403 189.763C104.003 189.925 102.596 190.063 101.193 190.219C99.6942 190.384 98.1989 190.552 96.7006 190.717C93.6732 191.047 90.6398 191.329 87.6094 191.638C85.8939 191.812 84.1723 191.946 82.4629 192.17C82.414 192.176 82.414 192.249 82.4629 192.249C83.998 192.258 85.5331 192.176 87.0682 192.096C88.5726 192.02 90.0741 191.919 91.5725 191.8C94.6059 191.558 97.6363 191.274 100.654 190.894C102.367 190.68 104.07 190.42 105.776 190.17C105.932 190.145 106.058 189.989 105.96 189.833L105.966 189.827Z" fill="#263238"/>
<path d="M98.6271 188.913C98.2051 188.381 94.9668 182.962 94.2145 181.742C92.6947 179.271 91.1138 176.837 89.4901 174.434C88.5666 173.064 87.6492 171.694 86.6737 170.361C86.6523 170.33 86.6065 170.361 86.6248 170.391C88.0957 172.926 89.6552 175.409 91.178 177.914C92.6856 180.39 97.9696 188.473 98.4925 189.02C98.6026 189.136 98.731 189.044 98.6301 188.916L98.6271 188.913Z" fill="#263238"/>
<path d="M82.1052 117.058C83.151 117.315 84.3099 116.994 85.0163 116.153C85.7074 115.327 85.8358 114.147 85.42 113.172C86.5575 113.373 87.7501 113.028 88.3189 111.903C88.909 110.741 88.4473 109.459 87.429 108.732C87.4229 108.725 87.4107 108.738 87.4168 108.744C88.273 109.505 88.695 110.734 88.1354 111.799C87.6584 112.71 86.8052 113.019 85.9001 112.994C86.7104 112.719 87.4412 112.193 87.8021 111.398C88.1965 110.523 88.0498 109.447 87.3862 108.762C88.1874 108.025 88.7867 106.958 88.6583 105.839C88.5482 104.897 87.906 104.05 86.9978 103.787C87.6369 102.912 87.7348 101.674 87.1538 100.738C86.6095 99.8575 85.582 99.3835 84.5699 99.4661C85.4322 98.0778 84.5515 96.2277 82.9064 96.0381C83.1296 95.4938 82.9675 94.8608 82.5608 94.4297C82.0899 93.9282 81.3896 93.7814 80.72 93.7631C80.5946 93.1698 80.194 92.6347 79.6099 92.4176C78.8271 92.1271 78.0015 92.4818 77.604 93.1698C76.7386 92.5093 75.7081 91.913 74.5858 92.0017C73.6623 92.0751 72.7511 92.6347 72.4697 93.5398C70.7634 92.5644 68.6045 93.2891 67.8278 95.0994C67.0358 94.9067 66.198 95.1911 65.6323 95.7843C65.0635 96.3806 64.8555 96.9249 64.7822 97.191C64.0574 97.0717 63.3327 97.4631 62.9933 98.1175C62.66 98.7627 62.7486 99.4355 63.0025 100.065C62.9688 100.246 62.9046 100.414 62.7731 100.597C62.186 101.432 62.0331 102.441 62.3848 103.402C61.4123 104.111 61.3145 105.631 62.1829 106.459C61.4552 107.447 61.7181 108.946 62.7272 109.637C62.2441 110.471 62.1218 111.487 62.4429 112.404C62.6875 113.107 63.2654 113.789 64.0299 113.82C63.7792 114.352 64.1614 114.976 64.6629 115.248C64.8525 115.352 65.0604 115.419 65.2684 115.477C65.5161 115.545 65.8494 115.566 66.0604 115.719C66.2805 115.875 66.3478 116.181 66.4732 116.407C66.5649 116.566 66.6719 116.719 66.7943 116.856C67.7239 117.899 69.366 118.156 70.5524 117.434C71.0417 118.297 72.1028 118.523 73.0416 118.425C73.3504 118.391 73.6409 118.312 73.9375 118.226C74.2127 118.147 74.4543 118.095 74.7418 118.183C74.913 118.235 75.072 118.327 75.2463 118.382C75.8304 118.566 76.3777 118.349 76.8915 118.073C78.292 120.33 81.3958 119.382 82.1052 117.058ZM63.0667 98.512C63.3235 97.7536 63.9749 97.3041 64.7608 97.2674C64.7485 97.3225 64.7424 97.3592 64.7424 97.3592C64.7424 97.3592 64.5039 97.4356 64.3907 97.4845C64.1889 97.5793 63.9993 97.7016 63.8312 97.8515C63.4825 98.1603 63.2226 98.5731 63.1064 99.0227C63.0544 99.2245 63.0392 99.4324 63.0361 99.6404C63.0361 99.6679 63.0361 99.6923 63.0361 99.7168C62.9505 99.3223 62.926 98.9217 63.0667 98.5089V98.512ZM79.7231 93.02C79.0809 92.6806 78.2614 92.7692 77.7324 93.2646C77.7171 93.2524 77.7018 93.2402 77.6865 93.2279C78.1574 92.6439 78.7507 92.2433 79.558 92.5582C80.1237 92.7784 80.3928 93.2371 80.4998 93.7569C80.4967 93.7569 80.4937 93.7569 80.4876 93.7569C80.3071 93.4512 80.0533 93.1912 79.7231 93.02ZM76.9924 118.018C76.9924 118.018 77.0077 118.009 77.0168 118.006C78.3195 119.211 80.2613 119.086 81.4172 117.914C80.2307 119.297 78.4051 119.801 76.9924 118.018Z" fill="#263238"/>
<path d="M70.5494 126.385C68.0327 132.929 57.3056 154.603 51.3029 155.487C45.2238 156.38 45.4746 151.126 47.3246 145.711C49.6853 138.794 59.4431 129.223 63.8984 125.256C68.1398 121.48 73.0232 119.954 70.5494 126.385Z" fill="#AD6359"/>
<path d="M64.562 142.867L57.486 130.082C57.486 130.082 62.8741 125.091 66.2469 122.752C70.7084 119.654 73.5003 120.63 71.8826 127.088C70.8001 131.409 64.5651 142.867 64.5651 142.867H64.562Z" fill="#442D87"/>
<path d="M65.5803 138.317C64.7607 136.718 60.498 129.889 60.021 129.134C59.9935 129.091 59.9262 129.14 59.9476 129.186C60.4277 130.186 63.4611 135.543 65.5069 138.369C65.5375 138.409 65.6047 138.36 65.5803 138.317Z" fill="#263238"/>
<path opacity="0.1" d="M71.8796 127.088C70.7971 131.409 64.562 142.867 64.562 142.867L60.7457 135.977L70.4179 121.064C72.1792 121.162 72.8887 123.055 71.8796 127.088Z" fill="black"/>
<path d="M78.5519 126.385C81.0685 132.929 91.7957 154.603 97.7983 155.487C103.877 156.38 103.627 151.126 101.777 145.711C99.416 138.794 89.6582 129.223 85.2028 125.256C80.9615 121.48 76.078 119.954 78.5519 126.385Z" fill="#AD6359"/>
<path d="M84.5393 142.867L91.6153 130.082C91.6153 130.082 86.2272 125.091 82.8544 122.752C78.3929 119.654 75.601 120.63 77.2187 127.088C78.3012 131.409 84.5362 142.867 84.5362 142.867H84.5393Z" fill="#442D87"/>
<path d="M83.5179 138.317C84.3375 136.718 88.6002 129.889 89.0772 129.134C89.1047 129.091 89.172 129.14 89.1506 129.186C88.6705 130.186 85.6371 135.543 83.5913 138.369C83.5608 138.409 83.4935 138.36 83.5179 138.317Z" fill="#263238"/>
<path opacity="0.1" d="M77.2187 127.088C78.3012 131.409 84.5363 142.867 84.5363 142.867L88.3526 135.978L78.6804 121.064C76.9191 121.162 76.2096 123.055 77.2187 127.088Z" fill="black"/>
<path d="M56.1741 159.734H94.6976C94.6976 159.734 87.4504 133.21 79.8056 122.336C77.4174 118.939 71.3689 118.642 69.0357 122.336C63.0116 131.874 56.1741 159.734 56.1741 159.734Z" fill="#442D87"/>
<path opacity="0.1" d="M79.4785 121.92H69.3324C69.4486 121.764 69.574 121.621 69.7116 121.483H79.0626C79.2094 121.621 79.3501 121.767 79.4785 121.92ZM81.7536 125.443H67.3386C67.2683 125.587 67.201 125.734 67.1276 125.88H81.9982C81.9187 125.734 81.8362 125.587 81.7536 125.443ZM83.8146 129.403H65.5834C65.5253 129.547 65.4672 129.694 65.406 129.84H84.0256C83.9553 129.694 83.888 129.547 83.8146 129.403ZM85.6188 133.366H64.0544C64.0025 133.51 63.9505 133.657 63.8954 133.803H85.8053C85.7411 133.657 85.68 133.51 85.6188 133.366ZM87.2456 137.326H62.6662C62.6172 137.473 62.5683 137.617 62.5224 137.763H87.4168C87.3618 137.617 87.3068 137.473 87.2456 137.326ZM88.7562 141.289H61.3757C61.3299 141.436 61.2809 141.58 61.2381 141.726H88.9183C88.8632 141.58 88.8113 141.433 88.7562 141.289ZM90.1659 145.249H60.1556C60.1128 145.396 60.07 145.543 60.0241 145.686H90.3188C90.2699 145.543 90.2179 145.396 90.1659 145.249ZM91.4961 149.209H58.9997C58.9569 149.356 58.9141 149.503 58.8744 149.646H91.6398C91.5939 149.503 91.545 149.356 91.4961 149.209ZM92.759 153.172H57.8928C57.853 153.319 57.8133 153.466 57.7735 153.609H92.8966C92.8507 153.466 92.8049 153.322 92.759 153.172ZM93.9547 157.132H56.8347C56.798 157.285 56.7583 157.429 56.7216 157.569H94.08C94.0433 157.432 94.0005 157.285 93.9547 157.132Z" fill="#030402"/>
<path d="M73.3688 126.492C75.3748 126.492 77.5062 124.776 78.3838 122.245C78.4449 122.067 78.4144 120.324 78.4235 118.174C78.4327 116.869 78.4755 115.419 78.6101 114.095C78.6376 113.823 70.1121 115.266 70.1121 115.266C70.1121 115.266 70.6442 118.119 70.3965 120.425C70.3721 120.618 70.3354 120.795 70.2834 120.963C70.2773 120.988 70.2681 121.018 70.262 121.052C69.9898 122.064 70.7421 126.492 73.3657 126.492H73.3688Z" fill="#AD6359"/>
<path d="M78.0994 114.08C77.4878 116.275 75.5491 121.535 71.1121 121.183C70.8032 121.159 70.5219 121.116 70.2681 121.052C70.2681 121.015 70.2803 120.988 70.2865 120.963C70.3354 120.795 70.3751 120.621 70.3996 120.428C70.6473 118.119 70.1122 115.266 70.1122 115.266C70.1122 115.266 76.2616 114.227 78.0963 114.08H78.0994Z" fill="#263238"/>
<path d="M79.5549 103.478C80.5641 106.398 79.3134 114.988 77.2829 116.967C74.3382 119.835 69.3629 120.278 66.886 116.704C64.4856 113.239 66.3142 102.075 68.5985 100.261C71.9622 97.5886 78.0688 99.1665 79.558 103.481L79.5549 103.478Z" fill="#AD6359"/>
<path d="M74.7815 107.071C74.5308 106.986 74.3137 106.866 74.0751 106.756C73.8061 106.631 73.5767 106.56 73.4146 106.297C73.329 106.157 73.3871 105.918 73.5186 105.82C73.8213 105.594 74.1883 105.665 74.5216 105.799C74.8824 105.946 75.1209 106.154 75.3044 106.493C75.4848 106.823 75.1148 107.184 74.7846 107.071H74.7815Z" fill="#263238"/>
<path d="M68.5281 106.456C68.7942 106.441 69.0327 106.383 69.2926 106.34C69.5862 106.291 69.8247 106.282 70.051 106.071C70.1733 105.958 70.1764 105.713 70.0785 105.585C69.8461 105.285 69.473 105.258 69.1183 105.301C68.733 105.35 68.4486 105.484 68.1795 105.762C67.9196 106.034 68.1795 106.478 68.5312 106.456H68.5281Z" fill="#263238"/>
<path d="M72.3475 114.713C72.1884 114.826 72.0233 114.994 71.8093 114.979C71.6044 114.967 71.3842 114.838 71.2099 114.74C71.1916 114.731 71.1702 114.746 71.1793 114.765C71.2955 115.009 71.5921 115.196 71.8643 115.19C72.1334 115.184 72.2955 114.976 72.3964 114.746C72.4117 114.713 72.3689 114.694 72.3444 114.713H72.3475Z" fill="#263238"/>
<path d="M69.5433 108.576C69.5433 108.551 69.4944 108.597 69.4913 108.621C69.4271 109.218 69.2528 109.89 68.6901 110.016C68.6718 110.019 68.6687 110.049 68.6901 110.049C69.3598 110.049 69.58 109.154 69.5463 108.576H69.5433Z" fill="#263238"/>
<path d="M69.4699 109.224C69.4241 109.371 69.3384 109.514 69.207 109.634C69.0755 109.753 68.8736 109.796 68.6993 109.774C68.5189 109.75 68.3446 109.615 68.2682 109.459C68.1917 109.303 68.1611 109.144 68.1611 108.992C68.1611 108.894 68.1703 108.799 68.1856 108.704C68.2192 108.502 68.2835 108.313 68.3997 108.148C68.3691 108.291 68.3538 108.438 68.3569 108.579C68.3569 108.713 68.366 108.842 68.3844 108.97C68.4272 109.233 68.5434 109.466 68.7452 109.484C68.9562 109.521 69.1397 109.374 69.262 109.132C69.3843 108.897 69.4669 108.625 69.5433 108.346C69.5831 108.634 69.5678 108.93 69.4699 109.221V109.224Z" fill="#263238"/>
<path d="M73.1578 108.924C73.167 108.903 73.1975 108.961 73.1945 108.985C73.0599 109.572 73.0079 110.264 73.5033 110.563C73.5186 110.572 73.5125 110.603 73.4911 110.594C72.8581 110.377 72.9376 109.456 73.1578 108.924Z" fill="#263238"/>
<path d="M73.0172 109.56C73.0142 109.713 73.0478 109.878 73.1335 110.031C73.2221 110.187 73.3964 110.294 73.5677 110.328C73.7481 110.364 73.956 110.291 74.0783 110.169C74.2007 110.046 74.2802 109.906 74.3321 109.762C74.3627 109.67 74.3841 109.575 74.4025 109.481C74.4361 109.279 74.4361 109.077 74.378 108.884C74.3597 109.031 74.326 109.175 74.2802 109.306C74.2374 109.435 74.1854 109.554 74.1273 109.667C74.0019 109.903 73.8184 110.086 73.6197 110.037C73.4087 110.004 73.2833 109.805 73.2466 109.536C73.2099 109.273 73.2191 108.988 73.2344 108.701C73.1029 108.961 73.0203 109.248 73.0203 109.554L73.0172 109.56Z" fill="#263238"/>
<path d="M72.0997 113.208C71.6563 113.049 70.8307 113.037 70.2191 113.062C70.1519 113.046 70.0051 112.985 69.999 112.921C69.999 112.896 70.1427 111.679 70.1427 111.679C69.9714 111.747 69.1091 112.049 69.1427 111.817C69.4241 109.897 69.736 107.759 70.424 105.909C70.4424 105.848 70.5402 105.869 70.528 105.934C70.3292 107.79 69.8063 109.6 69.58 111.462C69.8552 111.383 70.3017 111.236 70.5371 111.26C70.5983 111.285 70.3751 112.478 70.3781 112.682C70.3781 112.682 71.4912 112.496 72.2587 113.153C72.485 113.346 72.4055 113.321 72.0997 113.214V113.208Z" fill="#263238"/>
<path d="M71.0815 112.704C71.5555 112.698 72.5921 113.144 72.8887 113.89C73.1486 114.545 71.846 113.909 71.6136 113.97C71.4179 114.022 70.6106 112.707 71.0845 112.704H71.0815Z" fill="#263238"/>
<path d="M72.7786 114.181C72.7481 114.187 72.7144 114.19 72.6747 114.184C72.3597 114.172 71.8307 113.961 71.6472 113.964C71.635 113.964 71.6228 113.964 71.6136 113.964C71.5891 113.97 71.5524 113.955 71.5096 113.921C71.5769 113.594 71.8949 113.27 72.4943 113.334C72.5462 113.383 72.5982 113.435 72.6441 113.49C72.6624 113.511 72.6808 113.533 72.7022 113.56C72.7328 113.594 72.7572 113.633 72.7786 113.673C72.8 113.701 72.8153 113.728 72.8306 113.759C72.8551 113.802 72.8734 113.844 72.8918 113.884C72.9682 114.077 72.9101 114.156 72.7817 114.178L72.7786 114.181Z" fill="#FF9ABB"/>
<path d="M66.5344 114.557C66.6781 114.887 66.5282 115.272 66.198 115.419C65.8677 115.566 65.4824 115.413 65.3357 115.083C65.1889 114.753 65.3418 114.367 65.672 114.221C66.0023 114.077 66.3876 114.227 66.5344 114.557Z" fill="white"/>
<path d="M68.0817 112.527C68.2254 112.857 68.0755 113.242 67.7453 113.389C67.415 113.536 67.0297 113.383 66.883 113.052C66.7392 112.722 66.8891 112.337 67.2193 112.19C67.5496 112.043 67.9349 112.196 68.0817 112.527Z" fill="white"/>
<path d="M67.2957 113.092C67.5251 113.615 67.2866 114.227 66.7637 114.456C66.2408 114.685 65.6292 114.447 65.3998 113.924C65.1705 113.401 65.409 112.789 65.9319 112.56C66.4548 112.331 67.0664 112.569 67.2957 113.092Z" fill="white"/>
<path d="M68.4792 113.364C68.7086 113.887 68.47 114.499 67.9471 114.728C67.4242 114.957 66.8127 114.719 66.5833 114.196C66.354 113.673 66.5925 113.062 67.1154 112.832C67.6383 112.603 68.2499 112.841 68.4792 113.364Z" fill="white"/>
<path d="M68.0969 114.364C68.3263 114.887 68.0878 115.499 67.5649 115.728C67.042 115.957 66.4304 115.719 66.201 115.196C65.9717 114.673 66.2102 114.062 66.7331 113.832C67.256 113.603 67.8676 113.841 68.0969 114.364Z" fill="white"/>
<path d="M68.1642 113.967C68.1642 113.967 68.9256 114.774 69.9684 114.165C69.9684 114.165 69.3354 115.135 67.8951 114.823L68.1642 113.967Z" fill="white"/>
<path d="M66.5068 105.099C66.834 105.111 68.0633 104.423 68.3416 102.555C68.9532 102.75 70.2864 101.903 70.7482 101.399C71.0234 103.484 73.2648 104.506 74.8916 103.496C74.8916 104.337 75.0476 105.203 75.5338 105.836C76.3288 106.869 77.2951 107.105 77.2951 107.105C77.2951 107.108 77.2951 107.114 77.2951 107.117C76.815 108.649 78.081 110.08 79.3745 109.875C79.4938 109.869 79.613 109.854 79.7323 109.82C80.3653 109.652 80.9921 109.343 81.2949 108.64C81.6863 107.735 81.4264 106.579 80.7078 106.056C81.2643 105.49 81.457 104.57 81.1114 103.799C80.8974 103.322 80.3225 103.059 80.3041 102.509C80.2888 102.053 80.2063 101.628 80.0197 101.231C79.6956 100.543 79.1543 100.065 78.5 99.8667C78.1942 99.775 77.9801 99.6833 77.7569 99.4264C77.6223 99.2674 77.4908 99.1145 77.341 98.9799C77.0811 98.7475 76.7875 98.5641 76.4787 98.4356C76.1056 98.2766 75.702 98.1941 75.2983 98.2002C74.8641 98.2063 74.4177 98.4234 73.9987 98.2522C73.6348 98.1023 72.4606 98.1146 72.0722 98.1849C70.3812 98.4876 69.632 99.3194 69.632 99.3194C69.632 99.3194 68.7483 99.4661 67.9257 100.616C67.1398 101.717 67.1398 102.579 67.1398 102.579C67.1398 102.579 66.7943 102.732 66.5374 103.46C66.2408 104.298 66.461 105.099 66.5068 105.099ZM77.3104 107.2C77.4358 108.371 77.7171 108.927 78.0871 109.319C77.497 108.86 77.1239 108.089 77.3104 107.2ZM70.9011 101.454C71.2802 102.549 72.0753 103.31 73.0049 103.576C72.0111 103.393 71.1885 102.732 70.9011 101.454Z" fill="#263238"/>
<path d="M77.9831 110.496C77.9831 110.496 79.8699 107.704 81.1328 108.374C82.3957 109.04 81.0105 113.068 79.5488 113.636C78.0871 114.208 77.5306 112.866 77.5306 112.866L77.9831 110.496Z" fill="#AD6359"/>
<path d="M80.7047 109.518C80.7291 109.518 80.7322 109.548 80.7138 109.557C79.6894 109.992 79.1635 110.958 78.7996 111.955C79.0993 111.569 79.5151 111.352 80.0319 111.71C80.0594 111.728 80.0319 111.771 80.0044 111.765C79.5794 111.683 79.2766 111.759 78.9984 112.102C78.7996 112.343 78.6681 112.649 78.5274 112.927C78.4816 113.019 78.3134 112.973 78.347 112.866C78.347 112.857 78.3531 112.851 78.3562 112.842C78.3103 111.527 79.3011 109.67 80.7108 109.515L80.7047 109.518Z" fill="#263238"/>
<path d="M102.697 151.585C103.037 155.322 99.3916 157.416 96.3949 156.221C89.8449 153.609 88.4535 151.799 83.6832 147.175C82.1083 145.65 87.5851 133.571 89.5177 134.91C91.1292 136.026 99.1317 141.356 101.688 146.677C102.645 148.665 102.502 149.432 102.697 151.585Z" fill="#AD6359"/>
<path d="M102.248 148.417C101.615 147.044 101.046 145.616 100.132 144.405C97.1899 140.901 93.2911 138.366 89.9855 135.231C92.4532 137.042 94.9362 138.827 97.2419 140.849C98.3856 141.87 99.5139 142.925 100.431 144.188C101.321 145.469 101.792 146.952 102.254 148.42L102.248 148.417Z" fill="#263238"/>
<path d="M79.8088 133.959C80.6375 133.929 80.6283 133.494 79.4357 132.623C78.2309 131.739 75.2617 129.152 76.4206 126.639C77.1973 124.957 80.5488 129.278 84.3284 130.794C86.6157 131.712 89.8418 135.13 89.8418 135.13C88.215 134.739 83.0135 134.681 79.8088 133.956V133.959Z" fill="#AD6359"/>
<path d="M84.5118 147.243C81.4784 146.87 77.6529 145.625 73.9834 144.478C71.4454 143.686 69.4975 143.237 68.0909 141.778C67.73 141.402 67.4548 140.552 67.9104 140.234C68.7881 139.622 73.6104 141.375 73.6104 141.375C73.43 141.194 67.9961 138.98 66.4182 137.785C64.6324 136.433 65.565 135.167 65.565 135.167C64.0544 133.981 64.6171 132.455 65.565 132.271C66.7607 132.039 72.0845 133.883 72.0845 133.883C72.0845 133.883 66.3081 132.522 66.9808 130.112C67.4028 128.605 70.2314 130.121 72.7664 130.638C78.8547 131.883 88.1752 134.727 89.8448 135.136L84.5149 147.246L84.5118 147.243Z" fill="#AD6359"/>
<path d="M75.3258 135.201C72.9437 134.213 71.8674 133.864 69.8705 133.121C69.8583 133.118 69.843 133.143 69.8553 133.149C72.1456 134.332 73.0966 134.607 75.3167 135.299C75.3931 135.323 75.4053 135.234 75.3258 135.201Z" fill="#263238"/>
<path d="M74.7541 138.577C70.687 137.118 69.8278 136.974 65.5956 135.182C65.5742 135.173 65.5589 135.192 65.5834 135.204C69.2529 136.974 70.7574 137.574 74.7693 138.659C74.8978 138.693 74.8917 138.626 74.7571 138.577H74.7541Z" fill="#263238"/>
<path d="M49.3673 147.108C45.9333 148.625 45.2942 153.417 47.9271 155.282C54.1101 159.661 56.0917 159.67 62.446 161.597C64.5437 162.233 72.4515 151.588 70.3415 150.545C68.5832 149.677 60.0394 145.264 54.1468 145.61C51.9452 145.738 51.3427 146.234 49.3643 147.108H49.3673Z" fill="#AD6359"/>
<path d="M73.7297 151.876C73.0049 151.472 73.2129 151.087 74.6685 150.854C76.1424 150.616 80.3164 150.903 80.4265 148.139C80.4999 146.289 75.1975 147.368 71.1396 147.001C68.6841 146.778 64.2593 148.359 64.2593 148.359C65.8861 148.75 70.5464 151.062 73.7297 151.872V151.876Z" fill="#AD6359"/>
<path d="M61.5898 161.343C64.3602 162.633 68.2652 163.606 71.9836 164.578C74.5553 165.251 76.39 165.667 78.3563 165.174C78.8639 165.049 79.5458 164.471 79.3287 163.96C78.9097 162.976 73.9498 162.144 73.9498 162.144C74.1975 162.086 79.98 163.089 81.9524 162.912C84.1846 162.713 84.0654 161.144 84.0654 161.144C85.9765 160.936 86.3068 159.346 85.6004 158.689C84.7106 157.857 79.2186 156.6 79.2186 156.6C79.2186 156.6 85.0041 157.829 85.7105 155.429C86.1508 153.927 82.1358 153.93 79.6192 153.102C73.7144 151.163 65.1247 148.787 63.4918 148.252L61.5959 161.346L61.5898 161.343Z" fill="#AD6359"/>
<path d="M75.7662 155.698C77.5887 156.071 78.3654 156.328 79.8516 156.713C79.8608 156.713 79.8577 156.747 79.8455 156.744C77.9832 156.579 77.3135 156.331 75.7234 155.787C75.6684 155.768 75.702 155.686 75.7632 155.698H75.7662Z" fill="#263238"/>
<path d="M74.4544 159.166C78.6773 160.083 79.4815 160.416 84.0195 161.141C84.0409 161.144 84.0439 161.168 84.0195 161.165C79.9708 160.722 78.3776 160.435 74.3993 159.227C74.2709 159.187 74.3167 159.132 74.4544 159.162V159.166Z" fill="#263238"/>
<path d="M52.358 145.965C53.9205 145.692 55.529 145.329 57.1252 145.509C59.7581 145.906 62.3023 146.79 64.6997 147.934C62.2992 147.283 59.4859 146.374 57.0671 145.903C55.5137 145.634 53.9267 145.894 52.358 145.965Z" fill="#263238"/>
<path d="M60.8652 119.722C60.5594 120.673 60.2169 121.621 59.8316 122.553C59.4371 123.483 58.9846 124.394 58.4647 125.278C57.951 126.168 57.3364 127.009 56.6269 127.789C55.9206 128.571 55.1041 129.281 54.1684 129.847C53.2296 130.403 52.1838 130.807 51.1013 131.012C50.0219 131.21 48.9241 131.244 47.866 131.14C47.6 131.119 47.3401 131.082 47.0771 131.048C46.8141 131.005 46.5695 130.972 46.2729 130.911C45.7041 130.788 45.1414 130.59 44.6124 130.308C43.5544 129.746 42.6431 128.847 42.1202 127.712C41.8634 127.143 41.6921 126.516 41.6952 125.828C41.6982 125.483 41.7441 125.125 41.8695 124.758C41.9918 124.394 42.2058 124.018 42.5239 123.715C42.8358 123.41 43.2486 123.196 43.6461 123.101C43.8449 123.052 44.0406 123.024 44.2271 123.021C44.3219 123.018 44.4137 123.021 44.5023 123.021C44.591 123.027 44.6766 123.03 44.7837 123.049C45.1904 123.107 45.594 123.269 45.9151 123.498C46.2392 123.728 46.493 124.009 46.6887 124.3C47.0771 124.89 47.2544 125.52 47.3278 126.128C47.3951 126.74 47.3645 127.348 47.23 127.926C46.9731 129.085 46.3524 130.143 45.4992 130.92C44.6522 131.703 43.6247 132.219 42.582 132.498C41.5331 132.77 40.4751 132.843 39.4446 132.8C37.3805 132.675 35.4173 132.137 33.5826 131.354C35.5488 131.663 37.5211 131.901 39.4262 131.724C40.3742 131.654 41.3038 131.467 42.1416 131.134C42.9826 130.813 43.7379 130.342 44.2975 129.718C44.854 129.1 45.2271 128.345 45.3524 127.556C45.4166 127.165 45.4166 126.767 45.3585 126.397C45.3004 126.03 45.1659 125.688 44.9947 125.458C44.8204 125.223 44.6522 125.131 44.4993 125.119C44.484 125.116 44.4473 125.113 44.4137 125.113C44.38 125.113 44.3464 125.113 44.3189 125.113C44.2577 125.113 44.2088 125.128 44.166 125.137C44.0803 125.162 44.0436 125.192 44.0008 125.229C43.9213 125.296 43.8235 125.52 43.8265 125.828C43.8265 126.134 43.9152 126.486 44.0681 126.816C44.3739 127.486 44.9304 128.067 45.6185 128.437C45.964 128.623 46.3371 128.767 46.7377 128.862C46.9242 128.908 47.1719 128.948 47.3951 128.99C47.6245 129.024 47.8507 129.061 48.0801 129.085C49.8995 129.311 51.6976 129.103 53.2755 128.259C54.8717 127.449 56.1958 126.061 57.3302 124.526C57.899 123.755 58.4127 122.93 58.8898 122.083C59.376 121.239 59.8224 120.364 60.2475 119.474L60.8652 119.716V119.722Z" fill="#442D87"/>
<path d="M61.8254 115.939C60.5808 117.435 58.74 119.187 57.1223 120.101L60.3698 120.074L62.8834 122.128C62.1954 120.401 61.859 117.881 61.8254 115.936V115.939Z" fill="#442D87"/>
<path d="M85.9216 115.939C86.7014 117.771 87.4995 119.581 88.4261 121.309C88.8939 122.168 89.3832 123.009 89.9183 123.813C90.4534 124.614 91.0436 125.37 91.6736 126.064C92.9395 127.452 94.4807 128.498 96.1901 128.923C96.6151 129.033 97.0555 129.097 97.4958 129.143C97.9392 129.18 98.3887 129.183 98.8382 129.161C99.2908 129.131 99.7464 129.094 100.202 129.018C100.425 128.984 100.667 128.938 100.878 128.895C101.08 128.853 101.275 128.801 101.465 128.733C102.223 128.473 102.884 128.015 103.333 127.403C103.557 127.1 103.728 126.764 103.829 126.425C103.93 126.088 103.945 125.746 103.887 125.51C103.856 125.394 103.813 125.312 103.774 125.26C103.731 125.211 103.697 125.183 103.63 125.153C103.563 125.125 103.459 125.104 103.318 125.11C103.193 125.113 103.147 125.128 103.058 125.168C102.896 125.244 102.703 125.461 102.569 125.77C102.431 126.076 102.355 126.452 102.346 126.837C102.321 127.614 102.551 128.425 102.991 129.113C103.422 129.81 104.079 130.385 104.859 130.791C105.639 131.198 106.526 131.479 107.458 131.62C108.388 131.761 109.354 131.807 110.327 131.77L110.415 132.525C109.422 132.712 108.397 132.846 107.351 132.8C106.312 132.761 105.235 132.605 104.217 132.17C103.202 131.748 102.239 131.067 101.535 130.134C100.838 129.201 100.41 128.045 100.386 126.837C100.376 126.235 100.459 125.614 100.694 125C100.93 124.394 101.343 123.761 102.055 123.351C102.229 123.247 102.425 123.174 102.621 123.113C102.722 123.088 102.823 123.061 102.924 123.046L103.076 123.024L103.211 123.015C103.566 122.994 103.963 123.027 104.364 123.171C104.761 123.312 105.147 123.581 105.416 123.914C105.688 124.247 105.853 124.627 105.948 124.99C106.125 125.721 106.052 126.397 105.881 127.012C105.703 127.626 105.413 128.183 105.046 128.675C104.309 129.66 103.257 130.366 102.135 130.727C101.853 130.819 101.569 130.889 101.285 130.944C101.009 130.993 100.762 131.033 100.496 131.067C99.9727 131.14 99.4376 131.18 98.9024 131.195C97.8261 131.21 96.7252 131.091 95.6672 130.77C95.1412 130.605 94.6244 130.406 94.1413 130.152C93.8936 130.036 93.6612 129.889 93.4257 129.752C93.1994 129.602 92.9701 129.452 92.7561 129.29C91.8937 128.639 91.1476 127.874 90.4993 127.055C89.8449 126.241 89.3098 125.354 88.8297 124.455C88.3557 123.553 87.9246 122.636 87.576 121.691C87.2243 120.749 86.891 119.804 86.628 118.838C86.3497 117.878 86.1235 116.908 85.9216 115.933V115.939Z" fill="#455A64"/>
<path d="M114.161 131.357C112.507 132.381 110.519 133.959 109.385 135.436L109.865 132.226L108.177 129.452C109.795 130.372 112.241 131.057 114.161 131.36V131.357Z" fill="#455A64"/>
</g>
<defs>
<clipPath id="clip0_19_2028">
<rect width="259.75" height="273" fill="white" transform="translate(0.5)"/>
</clipPath>
</defs>
</svg>
