<svg width="17" height="17" viewBox="0 0 17 17" fill="none" xmlns="http://www.w3.org/2000/svg">
<g clip-path="url(#clip0_1181_14364)">
<path d="M15.0813 0.620117H1.92C1.4692 0.620117 1.10375 0.985565 1.10375 1.43637V14.5976C1.10375 15.0484 1.4692 15.4139 1.92 15.4139H15.0813C15.5321 15.4139 15.8975 15.0484 15.8975 14.5976V1.43637C15.8975 0.985565 15.5321 0.620117 15.0813 0.620117Z" fill="#3D5A98"/>
<path d="M11.31 15.4125V9.68372H13.2325L13.52 7.45122H11.31V6.02622C11.31 5.37997 11.49 4.93872 12.4162 4.93872H13.5987V2.93872C13.0261 2.87915 12.4507 2.85078 11.875 2.85372C10.1725 2.85372 9 3.89122 9 5.80497V7.45122H7.0775V9.68372H9V15.4125H11.31Z" fill="white"/>
</g>
<defs>
<clipPath id="clip0_1181_14364">
<rect width="16" height="16" fill="white" transform="translate(0.5 0.0166016)"/>
</clipPath>
</defs>
</svg>
