<svg width="1440" height="551" viewBox="0 0 1440 551" fill="none" xmlns="http://www.w3.org/2000/svg">
<rect y="0.0166016" width="1440" height="550" fill="#442D87"/>
<mask id="mask0_19_1883" style="mask-type:luminance" maskUnits="userSpaceOnUse" x="0" y="0" width="1440" height="551">
<rect y="0.0166016" width="1440" height="550" fill="white"/>
</mask>
<g mask="url(#mask0_19_1883)">
<g opacity="0.0636858">
<mask id="mask1_19_1883" style="mask-type:luminance" maskUnits="userSpaceOnUse" x="167" y="-118" width="1135" height="1090">
<path fill-rule="evenodd" clip-rule="evenodd" d="M167.596 -117.345H1301.62V971.17H167.596V-117.345Z" fill="white"/>
</mask>
<g mask="url(#mask1_19_1883)">
<path fill-rule="evenodd" clip-rule="evenodd" d="M1299.55 335.309C1299.91 327.546 1296.15 320.258 1289.52 315.819L651.422 -111.324C646.28 -114.768 640.045 -116.083 633.869 -115.029C627.697 -113.972 622.319 -110.672 618.736 -105.734L173.86 506.632C171.309 510.144 169.856 514.256 169.662 518.515C169.311 526.28 173.062 533.565 179.693 538.009L817.789 965.151C822.936 968.596 829.165 969.91 835.345 968.856C841.516 967.795 846.894 964.501 850.479 959.561L1295.35 347.197C1297.91 343.683 1299.36 339.57 1299.55 335.309ZM167.62 518.431C167.833 513.797 169.412 509.331 172.187 505.511L617.058 -106.855C620.957 -112.222 626.8 -115.81 633.513 -116.959C640.225 -118.106 646.999 -116.676 652.592 -112.933L1290.69 314.212C1297.9 319.039 1301.98 326.958 1301.59 335.397C1301.38 340.03 1299.8 344.496 1297.03 348.319L852.153 960.682C848.256 966.049 842.415 969.634 835.703 970.783C828.993 971.934 822.216 970.5 816.621 966.757L178.527 539.613C171.317 534.788 167.237 526.868 167.62 518.431Z" fill="#DADADA"/>
</g>
<path fill-rule="evenodd" clip-rule="evenodd" d="M1269.91 329.132C1270.25 321.684 1266.68 314.65 1260.38 310.315L643.936 -113.61C638.974 -117.026 632.922 -118.38 626.896 -117.427C620.87 -116.471 615.595 -113.321 612.037 -108.558L170.513 483.024C167.923 486.498 166.451 490.578 166.258 494.824C165.92 502.274 169.482 509.31 175.789 513.641L792.232 937.571C802.484 944.614 816.791 942.351 824.128 932.518L1265.65 340.934C1268.25 337.461 1269.72 333.378 1269.91 329.132ZM164.219 494.736C164.427 490.112 166.031 485.666 168.855 481.883L610.379 -109.697C614.252 -114.888 620 -118.318 626.562 -119.359C633.125 -120.398 639.718 -118.922 645.126 -115.204L1261.57 308.723C1268.44 313.445 1272.32 321.105 1271.95 329.217C1271.74 333.845 1270.14 338.294 1267.31 342.075L825.787 933.655C817.794 944.369 802.203 946.839 791.042 939.164L174.598 515.236C167.731 510.515 163.849 502.852 164.219 494.736Z" fill="#DADADA"/>
<path fill-rule="evenodd" clip-rule="evenodd" d="M1240.27 322.954C1240.59 315.823 1237.22 309.038 1231.24 304.809L636.451 -115.897C626.574 -122.882 612.62 -120.855 605.341 -111.377L167.169 459.421C164.536 462.847 163.042 466.901 162.849 471.139C162.525 478.27 165.902 485.051 171.882 489.279L766.667 909.989C771.455 913.373 777.323 914.764 783.2 913.912C789.079 913.061 794.257 910.059 797.781 905.469L1235.95 334.668C1238.59 331.243 1240.08 327.191 1240.27 322.954ZM160.81 471.049C161.02 466.423 162.649 462 165.523 458.26L603.698 -112.54C611.643 -122.888 626.878 -125.101 637.66 -117.475L1232.45 303.231C1238.98 307.851 1242.66 315.257 1242.31 323.041C1242.1 327.667 1240.47 332.09 1237.6 335.833L799.425 906.632C795.574 911.644 789.925 914.919 783.507 915.849C777.093 916.782 770.683 915.261 765.461 911.568L170.671 490.859C164.144 486.241 160.456 478.837 160.81 471.049Z" fill="#DADADA"/>
<path fill-rule="evenodd" clip-rule="evenodd" d="M1210.64 316.775C1210.95 309.956 1207.75 303.427 1202.1 299.305L628.964 -118.183C624.357 -121.538 618.669 -122.971 612.941 -122.218C607.218 -121.466 602.138 -118.617 598.646 -114.197L163.817 435.819C161.143 439.206 159.626 443.225 159.435 447.451C159.125 454.268 162.317 460.797 167.974 464.919L741.114 882.407C750.615 889.325 764.215 887.542 771.428 878.423L1206.26 328.407C1208.93 325.023 1210.45 321.002 1210.64 316.775ZM157.397 447.362C157.605 442.737 159.265 438.333 162.192 434.633L597.018 -115.382C600.843 -120.219 606.4 -123.335 612.665 -124.161C618.931 -124.984 625.156 -123.415 630.198 -119.745L1203.33 297.745C1209.52 302.254 1213.02 309.4 1212.68 316.861C1212.47 321.487 1210.81 325.89 1207.88 329.593L773.056 879.607C765.161 889.586 750.278 891.547 739.877 883.969L166.743 466.478C160.551 461.968 157.057 454.826 157.397 447.362Z" fill="#DADADA"/>
<path fill-rule="evenodd" clip-rule="evenodd" d="M1181.01 310.599C1181.3 304.089 1178.29 297.809 1172.95 293.799L621.476 -120.471C617.051 -123.794 611.543 -125.266 605.966 -124.613C600.386 -123.961 595.411 -121.264 591.949 -117.017L160.468 412.215C157.748 415.549 156.21 419.539 156.019 423.758C155.723 430.267 158.735 436.546 164.072 440.557L715.551 854.828C719.979 858.15 725.484 859.621 731.063 858.969C736.64 858.318 741.618 855.618 745.082 851.372L1176.56 322.142C1179.28 318.809 1180.82 314.815 1181.01 310.599ZM153.978 423.67C154.191 419.04 155.876 414.665 158.86 411.002L590.341 -118.226C594.139 -122.884 599.602 -125.843 605.717 -126.558C611.836 -127.274 617.878 -125.661 622.735 -122.013L1174.21 292.256C1180.07 296.655 1183.37 303.544 1183.05 310.683C1182.84 315.312 1181.15 319.692 1178.17 323.353L746.689 852.581C742.891 857.244 737.428 860.203 731.31 860.913C725.192 861.634 719.148 860.018 714.297 856.372L162.813 442.101C156.957 437.701 153.655 430.811 153.978 423.67Z" fill="#DADADA"/>
<path fill-rule="evenodd" clip-rule="evenodd" d="M1151.39 304.42C1151.67 298.219 1148.84 292.192 1143.81 288.296L613.987 -122.758C605.223 -129.557 592.331 -128.248 585.251 -119.837L157.116 388.615C154.354 391.894 152.787 395.857 152.595 400.068C152.312 406.271 155.146 412.296 160.168 416.193L689.994 827.244C694.241 830.543 699.568 832.05 704.992 831.5C710.423 830.945 715.302 828.399 718.73 824.326L1146.87 315.878C1149.63 312.593 1151.2 308.63 1151.39 304.42ZM150.556 399.983C150.765 395.35 152.487 390.994 155.53 387.38L583.662 -121.069C591.449 -130.32 605.629 -131.761 615.27 -124.283L1145.1 286.772C1150.62 291.054 1153.73 297.685 1153.43 304.505C1153.22 309.136 1151.5 313.494 1148.45 317.111L720.319 825.555C716.548 830.039 711.178 832.84 705.211 833.447C699.24 834.056 693.381 832.396 688.712 828.769L158.885 417.718C153.359 413.433 150.246 406.802 150.556 399.983Z" fill="#DADADA"/>
<path fill-rule="evenodd" clip-rule="evenodd" d="M1121.77 298.241C1122.04 292.26 1119.45 286.626 1114.67 282.788L606.5 -125.048C602.431 -128.309 597.288 -129.859 592.008 -129.406C586.729 -128.955 581.951 -126.557 578.553 -122.655L153.767 365.01C150.948 368.246 149.357 372.174 149.168 376.375C148.897 382.36 151.487 387.995 156.266 391.832L664.439 799.668C672.834 806.405 685.369 805.332 692.384 797.275L1117.17 309.611C1119.99 306.377 1121.58 302.446 1121.77 298.241ZM147.13 376.288C147.338 371.657 149.092 367.32 152.199 363.75L576.984 -123.912C580.735 -128.217 586.003 -130.862 591.826 -131.358C597.648 -131.857 603.325 -130.148 607.808 -126.55L1115.98 281.282C1121.25 285.516 1124.11 291.726 1123.81 298.329C1123.6 302.967 1121.84 307.301 1118.73 310.866L693.951 798.533C686.211 807.418 672.386 808.598 663.127 801.172L154.955 393.34C149.681 389.105 146.828 382.891 147.13 376.288Z" fill="#DADADA"/>
<path fill-rule="evenodd" clip-rule="evenodd" d="M1092.16 292.065C1092.41 286.384 1090 280.999 1085.53 277.278L599.011 -127.334C595.124 -130.569 590.159 -132.157 585.026 -131.804C579.896 -131.452 575.219 -129.205 571.849 -125.475L150.417 341.406C147.543 344.59 145.924 348.488 145.734 352.687C145.475 358.367 147.893 363.756 152.361 367.475L638.879 772.09C642.769 775.321 647.734 776.907 652.865 776.556C657.991 776.207 662.669 773.96 666.038 770.229L1087.47 303.346C1090.35 300.165 1091.97 296.263 1092.16 292.065ZM143.693 352.602C143.904 347.957 145.698 343.643 148.874 340.125L570.307 -126.758C574.032 -130.885 579.208 -133.371 584.881 -133.759C590.557 -134.148 596.05 -132.393 600.347 -128.816L1086.86 275.796C1091.81 279.911 1094.48 285.871 1094.2 292.151C1093.98 296.793 1092.2 301.109 1089.02 304.633L667.581 771.509C663.859 775.639 658.682 778.124 653.01 778.515C647.335 778.899 641.841 777.147 637.546 773.569L151.025 368.954C146.079 364.841 143.41 358.883 143.693 352.602Z" fill="#DADADA"/>
<path fill-rule="evenodd" clip-rule="evenodd" d="M1062.55 285.887C1062.8 280.511 1060.55 275.366 1056.38 271.769L591.518 -129.628C587.812 -132.83 583.027 -134.453 578.046 -134.2C573.067 -133.949 568.485 -131.851 565.151 -128.292L147.063 317.806C144.174 320.886 142.48 324.863 142.292 328.997C142.05 334.373 144.298 339.519 148.46 343.113L613.325 744.513C617.029 747.712 621.814 749.338 626.799 749.088C631.776 748.835 636.357 746.738 639.694 743.181L1057.78 297.08C1060.67 293.999 1062.37 290.021 1062.55 285.887ZM140.251 328.913C140.462 324.325 142.338 319.912 145.546 316.496L563.633 -129.603C567.331 -133.549 572.413 -135.879 577.94 -136.159C583.466 -136.439 588.773 -134.634 592.887 -131.083L1057.75 270.315C1062.37 274.302 1064.86 280.009 1064.59 285.973C1064.38 290.561 1062.5 294.969 1059.3 298.391L641.21 744.491C637.512 748.434 632.431 750.765 626.905 751.044C621.381 751.324 616.071 749.523 611.959 745.968L147.094 344.567C142.474 340.583 139.983 334.874 140.251 328.913Z" fill="#DADADA"/>
<path fill-rule="evenodd" clip-rule="evenodd" d="M1032.96 279.709C1033.19 274.632 1031.1 269.73 1027.24 266.259L584.03 -131.918C580.501 -135.089 575.894 -136.752 571.065 -136.598C566.234 -136.445 561.752 -134.496 558.447 -131.108L143.71 294.206C140.76 297.23 139.032 301.174 138.844 305.31C138.614 310.388 140.697 315.289 144.555 318.759L587.768 716.934C595.052 723.482 606.53 723.12 613.349 716.129L1028.09 290.813C1031.04 287.788 1032.77 283.845 1032.96 279.709ZM136.804 305.225C137.014 300.622 138.938 296.233 142.218 292.867L556.958 -132.447C560.633 -136.217 565.618 -138.387 570.994 -138.557C576.372 -138.726 581.496 -136.878 585.425 -133.348L1028.64 264.831C1032.93 268.691 1035.25 274.144 1035 279.795C1034.78 284.396 1032.86 288.784 1029.58 292.154L614.838 717.469C607.25 725.249 594.478 725.652 586.373 718.366L143.162 320.188C138.866 316.329 136.549 310.871 136.804 305.225Z" fill="#DADADA"/>
<path fill-rule="evenodd" clip-rule="evenodd" d="M1003.36 273.531C1003.58 268.752 1001.66 264.091 998.096 260.75L576.54 -134.212C569.62 -140.693 558.496 -140.564 551.744 -133.924L140.353 270.606C137.338 273.567 135.573 277.483 135.386 281.616C135.168 286.401 137.09 291.058 140.657 294.4L562.211 689.364C569.133 695.843 580.254 695.71 587.004 689.074L998.395 284.546C1001.41 281.581 1003.18 277.668 1003.36 273.531ZM133.348 281.528C133.556 276.914 135.528 272.546 138.893 269.235L550.285 -135.295C557.824 -142.707 570.239 -142.85 577.963 -135.612L999.52 259.347C1003.5 263.077 1005.65 268.279 1005.4 273.619C1005.2 278.236 1003.23 282.606 999.857 285.915L588.464 690.443C580.928 697.856 568.511 698.001 560.785 690.763L139.233 295.8C135.25 292.071 133.106 286.869 133.348 281.528Z" fill="#DADADA"/>
<path fill-rule="evenodd" clip-rule="evenodd" d="M973.784 267.354C973.99 262.862 972.225 258.448 968.951 255.241L569.047 -136.505C562.495 -142.922 551.727 -143.028 545.042 -136.743L136.999 247.002C133.915 249.905 132.109 253.783 131.919 257.928C131.717 262.419 133.483 266.832 136.757 270.043L536.654 661.79C543.209 668.208 553.975 668.311 560.663 662.02L968.706 278.278C971.791 275.377 973.596 271.496 973.784 267.354ZM129.88 257.841C130.091 253.202 132.115 248.856 135.571 245.603L543.612 -138.143C551.102 -145.185 563.164 -145.065 570.505 -137.877L970.409 253.867C974.08 257.462 976.052 262.408 975.825 267.439C975.613 272.081 973.59 276.426 970.134 279.678L562.093 663.426C554.608 670.467 542.54 670.348 535.2 663.161L135.297 271.418C131.629 267.821 129.652 262.871 129.88 257.841Z" fill="#DADADA"/>
<path fill-rule="evenodd" clip-rule="evenodd" d="M944.213 261.177C944.406 256.911 942.841 252.842 939.8 249.722L561.552 -138.799C558.56 -141.876 554.493 -143.651 550.11 -143.794C545.724 -143.937 541.542 -142.432 538.336 -139.558L133.644 223.404C130.481 226.241 128.637 230.086 128.448 234.237C128.254 238.503 129.818 242.571 132.855 245.692L511.105 634.213C517.29 640.566 527.703 640.902 534.322 634.97L939.017 272.008C942.181 269.174 944.022 265.326 944.213 261.177ZM126.407 234.148C126.62 229.48 128.692 225.162 132.245 221.975L536.942 -140.99C540.547 -144.223 545.246 -145.914 550.179 -145.752C555.109 -145.591 559.677 -143.597 563.049 -140.137L941.293 248.385C944.711 251.893 946.47 256.467 946.254 261.263C946.042 265.93 943.966 270.255 940.409 273.44L535.715 636.405C528.279 643.073 516.566 642.695 509.612 635.555L131.364 247.029C127.952 243.519 126.188 238.949 126.407 234.148Z" fill="#DADADA"/>
<path fill-rule="evenodd" clip-rule="evenodd" d="M914.65 255C914.832 251.018 913.412 247.19 910.655 244.21L554.061 -141.095C548.241 -147.382 538.178 -147.956 531.628 -142.374L130.281 199.808C127.038 202.571 125.149 206.383 124.961 210.545C124.781 214.524 126.199 218.359 128.957 221.337L485.551 606.643C491.371 612.932 501.43 613.506 507.986 607.919L909.329 265.74C912.573 262.976 914.463 259.161 914.65 255ZM122.92 210.459C123.134 205.767 125.268 201.462 128.928 198.343L530.272 -143.84C537.663 -150.139 549.019 -149.492 555.587 -142.398L912.184 242.91C915.293 246.27 916.897 250.594 916.692 255.086C916.478 259.782 914.344 264.085 910.688 267.205L509.34 609.391C501.946 615.685 490.59 615.041 484.021 607.944L127.429 222.642C124.318 219.278 122.716 214.953 122.92 210.459Z" fill="#DADADA"/>
<path fill-rule="evenodd" clip-rule="evenodd" d="M885.103 248.825C885.271 245.126 883.993 241.526 881.509 238.692L546.568 -143.394C543.928 -146.408 540.219 -148.255 536.133 -148.592C532.042 -148.931 528.06 -147.723 524.92 -145.187L126.921 176.212C123.641 178.86 121.654 182.739 121.466 186.854C121.298 190.553 122.572 194.15 125.058 196.988L459.998 579.075C465.451 585.295 475.165 586.099 481.647 580.864L879.645 259.47C882.926 256.821 884.916 252.94 885.103 248.825ZM119.424 186.769C119.637 182.104 121.89 177.711 125.605 174.712L523.604 -146.687C527.165 -149.558 531.673 -150.93 536.306 -150.545C540.939 -150.162 545.138 -148.069 548.13 -144.656L883.069 237.432C885.886 240.644 887.331 244.72 887.141 248.909C886.931 253.572 884.676 257.968 880.959 260.971L482.96 582.366C475.616 588.296 464.613 587.384 458.436 580.336L123.498 198.246C120.681 195.036 119.235 190.96 119.424 186.769Z" fill="#DADADA"/>
<path fill-rule="evenodd" clip-rule="evenodd" d="M855.565 242.649C855.719 239.224 854.582 235.861 852.362 233.174L539.073 -145.692C536.606 -148.674 533.078 -150.558 529.136 -150.994C525.196 -151.43 521.316 -150.367 518.212 -148.002L123.558 152.614C120.185 155.183 118.144 159.027 117.955 163.165C117.802 166.584 118.939 169.948 121.159 172.638L434.443 551.506C439.535 557.664 448.894 558.7 455.31 553.813L849.959 253.202C853.334 250.632 855.378 246.784 855.565 242.649ZM115.915 163.076C116.126 158.374 118.451 154.003 122.291 151.078L516.94 -149.537C520.474 -152.228 524.888 -153.437 529.37 -152.941C533.853 -152.444 537.867 -150.303 540.674 -146.91L853.959 231.957C856.485 235.012 857.781 238.841 857.604 242.735C857.39 247.438 855.071 251.812 851.23 254.734L456.575 555.35C449.288 560.906 438.638 559.728 432.846 552.725L119.559 173.86C117.035 170.798 115.739 166.97 115.915 163.076Z" fill="#DADADA"/>
<path fill-rule="evenodd" clip-rule="evenodd" d="M826.042 236.476C826.185 233.322 825.18 230.19 823.212 227.653L531.579 -147.995C526.849 -154.085 517.841 -155.35 511.494 -150.814L120.198 129.018C116.721 131.501 114.619 135.311 114.431 139.468C114.289 142.621 115.296 145.751 117.261 148.292L408.896 523.943C413.623 530.032 422.632 531.296 428.975 526.76L820.28 246.929C823.755 244.445 825.852 240.636 826.042 236.476ZM112.39 139.383C112.606 134.631 115.009 130.283 118.977 127.442L510.275 -152.385C517.523 -157.568 527.815 -156.123 533.217 -149.165L824.848 226.484C827.095 229.38 828.248 232.958 828.082 236.562C827.867 241.312 825.467 245.663 821.498 248.503L430.198 528.33C422.949 533.512 412.659 532.065 407.257 525.112L115.624 149.462C113.377 146.563 112.228 142.985 112.39 139.383Z" fill="#DADADA"/>
<path fill-rule="evenodd" clip-rule="evenodd" d="M796.534 230.304C796.665 227.373 795.813 224.547 794.064 222.132L524.085 -150.299C519.718 -156.324 511.059 -157.816 504.78 -153.627L116.827 105.421C113.246 107.813 111.082 111.585 110.892 115.774C110.761 118.705 111.616 121.528 113.365 123.941L383.341 496.377C387.708 502.406 396.366 503.896 402.646 499.704L790.601 240.658C794.182 238.268 796.343 234.491 796.534 230.304ZM108.854 115.687C109.071 110.884 111.554 106.554 115.664 103.81L503.614 -155.235C510.816 -160.041 520.75 -158.33 525.759 -151.419L795.738 221.013C797.745 223.783 798.727 227.023 798.572 230.388C798.355 235.193 795.875 239.523 791.77 242.268L403.811 501.316C396.611 506.122 386.676 504.41 381.667 497.499L111.69 125.065C109.681 122.296 108.701 119.055 108.854 115.687Z" fill="#DADADA"/>
<path fill-rule="evenodd" clip-rule="evenodd" d="M767.045 224.131C767.166 221.461 766.432 218.861 764.914 216.608L516.589 -152.607C512.582 -158.562 504.272 -160.283 498.064 -156.439L113.459 81.8218C109.815 84.0824 107.525 87.916 107.338 92.0804C107.217 94.7489 107.955 97.3474 109.472 99.6002L357.793 468.82C361.8 474.773 370.109 476.492 376.318 472.647L760.925 234.385C764.566 232.128 766.853 228.295 767.045 224.131ZM105.298 91.9938C105.516 87.1937 108.154 82.7772 112.352 80.1779L496.957 -158.086C504.108 -162.517 513.686 -160.533 518.305 -153.668L766.627 215.546C768.375 218.141 769.224 221.14 769.084 224.216C768.867 229.014 766.23 233.433 762.029 236.031L377.425 474.294C370.273 478.724 360.696 476.744 356.079 469.88L107.752 100.667C106.009 98.0681 105.158 95.0712 105.298 91.9938Z" fill="#DADADA"/>
<path fill-rule="evenodd" clip-rule="evenodd" d="M737.569 217.957C737.68 215.546 737.054 213.167 735.765 211.081L509.096 -154.915C505.445 -160.806 497.482 -162.752 491.345 -159.252L110.089 58.2273C106.32 60.3762 103.954 64.1742 103.763 68.3828C103.653 70.7968 104.28 73.1743 105.571 75.2626L332.241 441.259C335.891 447.15 343.853 449.096 349.988 445.593L731.248 228.114C735.017 225.964 737.379 222.168 737.569 217.957ZM101.725 68.297C101.946 63.4241 104.681 59.0293 109.044 56.5435L490.299 -160.937C497.407 -164.99 506.625 -162.736 510.847 -155.916L737.516 210.077C739.014 212.495 739.736 215.247 739.611 218.046C739.389 222.918 736.652 227.311 732.291 229.801L351.032 447.281C343.928 451.331 334.709 449.08 330.486 442.261L103.815 76.2638C102.321 73.849 101.598 71.0912 101.725 68.297Z" fill="#DADADA"/>
<path fill-rule="evenodd" clip-rule="evenodd" d="M708.118 211.791C708.216 209.625 707.698 207.466 706.612 205.551L501.597 -157.226C498.305 -163.052 490.691 -165.223 484.618 -162.064L106.711 34.6292C102.809 36.662 100.363 40.4193 100.17 44.6833C100.071 46.8496 100.59 49.008 101.674 50.9248L306.691 413.702C309.983 419.527 317.597 421.698 323.669 418.539L701.577 221.842C705.48 219.811 707.926 216.056 708.118 211.791ZM98.1305 44.5992C98.3519 39.715 101.266 35.2371 105.739 32.9097L483.647 -163.787C490.706 -167.459 499.565 -164.935 503.393 -158.159L708.409 204.616C709.669 206.848 710.27 209.354 710.159 211.876C709.935 216.759 707.019 221.238 702.553 223.567L324.641 420.263C317.582 423.936 308.725 421.412 304.895 414.634L99.8819 51.8592C98.621 49.6271 98.0153 47.1179 98.1305 44.5992Z" fill="#DADADA"/>
<mask id="mask2_19_1883" style="mask-type:luminance" maskUnits="userSpaceOnUse" x="94" y="-169" width="587" height="564">
<path fill-rule="evenodd" clip-rule="evenodd" d="M94.5 -168.018H680.745V394.626H94.5V-168.018Z" fill="white"/>
</mask>
<g mask="url(#mask2_19_1883)">
<path fill-rule="evenodd" clip-rule="evenodd" d="M678.691 205.622C678.778 203.698 678.353 201.761 677.461 200.018L494.101 -159.541C491.167 -165.3 483.896 -167.695 477.896 -164.877L103.333 11.0364C99.3434 12.9099 96.7478 16.7218 96.5543 20.9832C96.467 22.9095 96.8891 24.8479 97.7792 26.5914L281.14 386.15C284.078 391.908 291.345 394.302 297.346 391.483L671.909 215.574C675.896 213.699 678.496 209.886 678.691 205.622ZM94.5132 20.8973C94.7391 15.917 97.7766 11.4624 102.433 9.27626L476.996 -166.638C484.007 -169.928 492.505 -167.133 495.937 -160.403L679.301 199.156C680.338 201.193 680.833 203.457 680.732 205.709C680.505 210.69 677.47 215.145 672.806 217.332L298.244 393.243C291.232 396.539 282.737 393.742 279.306 387.011L95.9415 27.4505C94.9038 25.4177 94.4106 23.1493 94.5132 20.8973Z" fill="#DADADA"/>
</g>
</g>
</g>
</svg>
