<svg width="17" height="17" viewBox="0 0 17 17" fill="none" xmlns="http://www.w3.org/2000/svg">
<path d="M12.75 0.0166016H4.25C2.17893 0.0166016 0.5 1.69553 0.5 3.7666V12.2666C0.5 14.3377 2.17893 16.0166 4.25 16.0166H12.75C14.8211 16.0166 16.5 14.3377 16.5 12.2666V3.7666C16.5 1.69553 14.8211 0.0166016 12.75 0.0166016Z" fill="url(#paint0_radial_1181_14354)"/>
<path d="M12.75 0.0166016H4.25C2.17893 0.0166016 0.5 1.69553 0.5 3.7666V12.2666C0.5 14.3377 2.17893 16.0166 4.25 16.0166H12.75C14.8211 16.0166 16.5 14.3377 16.5 12.2666V3.7666C16.5 1.69553 14.8211 0.0166016 12.75 0.0166016Z" fill="url(#paint1_radial_1181_14354)"/>
<path d="M8.50056 1.7666C6.80319 1.7666 6.59013 1.77404 5.9235 1.80435C5.25813 1.83485 4.80394 1.94016 4.40656 2.09473C3.99544 2.25435 3.64675 2.46791 3.29938 2.81541C2.95169 3.16285 2.73813 3.51154 2.578 3.92248C2.423 4.31998 2.31756 4.77435 2.28762 5.43941C2.25781 6.1061 2.25 6.31923 2.25 8.01666C2.25 9.7141 2.2575 9.92648 2.28775 10.5931C2.31838 11.2585 2.42369 11.7127 2.57812 12.11C2.73787 12.5212 2.95144 12.8699 3.29894 13.2172C3.64625 13.5649 3.99494 13.779 4.40575 13.9386C4.80344 14.0932 5.25769 14.1985 5.92294 14.229C6.58962 14.2593 6.8025 14.2667 8.49981 14.2667C10.1974 14.2667 10.4097 14.2593 11.0764 14.229C11.7417 14.1985 12.1964 14.0932 12.5941 13.9386C13.0051 13.779 13.3532 13.5649 13.7005 13.2172C14.0482 12.8699 14.2617 12.5212 14.4219 12.1102C14.5755 11.7127 14.681 11.2584 14.7122 10.5932C14.7422 9.9266 14.75 9.7141 14.75 8.01666C14.75 6.31923 14.7422 6.10623 14.7122 5.43954C14.681 4.77416 14.5755 4.32004 14.4219 3.92266C14.2617 3.51154 14.0482 3.16285 13.7005 2.81541C13.3529 2.46779 13.0052 2.25423 12.5938 2.09479C12.1953 1.94016 11.7409 1.83479 11.0755 1.80435C10.4088 1.77404 10.1966 1.7666 8.49862 1.7666H8.50056ZM7.93988 2.89291C8.10631 2.89266 8.292 2.89291 8.50056 2.89291C10.1694 2.89291 10.3671 2.89891 11.0261 2.92885C11.6355 2.95673 11.9663 3.05854 12.1866 3.1441C12.4783 3.25735 12.6862 3.39279 12.9048 3.6116C13.1236 3.83035 13.2589 4.03866 13.3725 4.33035C13.4581 4.55035 13.56 4.8811 13.5878 5.49048C13.6177 6.14935 13.6242 6.34723 13.6242 8.01523C13.6242 9.68323 13.6177 9.88116 13.5878 10.54C13.5599 11.1494 13.4581 11.4801 13.3725 11.7002C13.2593 11.9919 13.1236 12.1995 12.9048 12.4182C12.6861 12.6369 12.4784 12.7723 12.1866 12.8856C11.9665 12.9715 11.6355 13.0731 11.0261 13.101C10.3673 13.1309 10.1694 13.1374 8.50056 13.1374C6.83169 13.1374 6.63387 13.1309 5.97506 13.101C5.36569 13.0729 5.03494 12.971 4.81444 12.8855C4.52281 12.7722 4.31444 12.6368 4.09569 12.418C3.87694 12.1993 3.74156 11.9915 3.628 11.6997C3.54244 11.4796 3.4405 11.1489 3.41275 10.5395C3.38281 9.8806 3.37681 9.68273 3.37681 8.01366C3.37681 6.34466 3.38281 6.14779 3.41275 5.48891C3.44062 4.87954 3.54244 4.54879 3.628 4.32848C3.74131 4.03679 3.87694 3.82848 4.09575 3.60973C4.3145 3.39098 4.52281 3.25554 4.8145 3.14204C5.03481 3.0561 5.36569 2.95454 5.97506 2.92654C6.55162 2.90048 6.77506 2.89266 7.93988 2.89135V2.89291ZM11.8368 3.93066C11.4228 3.93066 11.0868 4.26629 11.0868 4.68041C11.0868 5.09448 11.4228 5.43041 11.8368 5.43041C12.2509 5.43041 12.5868 5.09448 12.5868 4.68041C12.5868 4.26635 12.2509 3.93041 11.8368 3.93041V3.93066ZM8.50056 4.80698C6.72806 4.80698 5.29094 6.2441 5.29094 8.01666C5.29094 9.78923 6.72806 11.2257 8.50056 11.2257C10.2731 11.2257 11.7098 9.78923 11.7098 8.01666C11.7098 6.24416 10.273 4.80698 8.50044 4.80698H8.50056ZM8.50056 5.93329C9.65112 5.93329 10.5839 6.86598 10.5839 8.01666C10.5839 9.16723 9.65112 10.1 8.50056 10.1C7.34994 10.1 6.41725 9.16723 6.41725 8.01666C6.41725 6.86598 7.34994 5.93329 8.50056 5.93329Z" fill="white"/>
<defs>
<radialGradient id="paint0_radial_1181_14354" cx="0" cy="0" r="1" gradientUnits="userSpaceOnUse" gradientTransform="translate(4.75 17.2489) rotate(-90) scale(15.8572 14.7484)">
<stop stop-color="#FFDD55"/>
<stop offset="0.1" stop-color="#FFDD55"/>
<stop offset="0.5" stop-color="#FF543E"/>
<stop offset="1" stop-color="#C837AB"/>
</radialGradient>
<radialGradient id="paint1_radial_1181_14354" cx="0" cy="0" r="1" gradientUnits="userSpaceOnUse" gradientTransform="translate(-2.18006 1.16916) rotate(78.681) scale(7.08825 29.218)">
<stop stop-color="#3771C8"/>
<stop offset="0.128" stop-color="#3771C8"/>
<stop offset="1" stop-color="#6600FF" stop-opacity="0"/>
</radialGradient>
</defs>
</svg>
