<svg width="71" height="26" viewBox="0 0 71 26" fill="none" xmlns="http://www.w3.org/2000/svg">
<rect width="71" height="26" rx="13" fill="#E0D6FF"/>
<path d="M18.796 15.416H21.484V17H16.744V8.576H18.796V15.416ZM28.7747 13.544C28.7747 13.736 28.7628 13.936 28.7388 14.144H24.0948C24.1268 14.56 24.2588 14.88 24.4908 15.104C24.7308 15.32 25.0228 15.428 25.3668 15.428C25.8788 15.428 26.2348 15.212 26.4348 14.78H28.6188C28.5068 15.22 28.3028 15.616 28.0068 15.968C27.7188 16.32 27.3548 16.596 26.9148 16.796C26.4748 16.996 25.9828 17.096 25.4388 17.096C24.7828 17.096 24.1988 16.956 23.6868 16.676C23.1748 16.396 22.7748 15.996 22.4868 15.476C22.1988 14.956 22.0548 14.348 22.0548 13.652C22.0548 12.956 22.1948 12.348 22.4748 11.828C22.7628 11.308 23.1628 10.908 23.6748 10.628C24.1868 10.348 24.7748 10.208 25.4388 10.208C26.0868 10.208 26.6628 10.344 27.1668 10.616C27.6708 10.888 28.0628 11.276 28.3428 11.78C28.6308 12.284 28.7747 12.872 28.7747 13.544ZM26.6748 13.004C26.6748 12.652 26.5548 12.372 26.3148 12.164C26.0748 11.956 25.7748 11.852 25.4148 11.852C25.0708 11.852 24.7788 11.952 24.5388 12.152C24.3068 12.352 24.1628 12.636 24.1068 13.004H26.6748ZM32.8693 15.08L34.3213 10.304H36.5053L34.1293 17H31.5973L29.2213 10.304H31.4173L32.8693 15.08ZM43.681 13.544C43.681 13.736 43.669 13.936 43.645 14.144H39.001C39.033 14.56 39.165 14.88 39.397 15.104C39.637 15.32 39.929 15.428 40.273 15.428C40.785 15.428 41.141 15.212 41.341 14.78H43.525C43.413 15.22 43.209 15.616 42.913 15.968C42.625 16.32 42.261 16.596 41.821 16.796C41.381 16.996 40.889 17.096 40.345 17.096C39.689 17.096 39.105 16.956 38.593 16.676C38.081 16.396 37.681 15.996 37.393 15.476C37.105 14.956 36.961 14.348 36.961 13.652C36.961 12.956 37.101 12.348 37.381 11.828C37.669 11.308 38.069 10.908 38.581 10.628C39.093 10.348 39.681 10.208 40.345 10.208C40.993 10.208 41.569 10.344 42.073 10.616C42.577 10.888 42.969 11.276 43.249 11.78C43.537 12.284 43.681 12.872 43.681 13.544ZM41.581 13.004C41.581 12.652 41.461 12.372 41.221 12.164C40.981 11.956 40.681 11.852 40.321 11.852C39.977 11.852 39.685 11.952 39.445 12.152C39.213 12.352 39.069 12.636 39.013 13.004H41.581ZM46.8155 8.12V17H44.7635V8.12H46.8155ZM50.4256 10.148V8.24H53.7496V17H51.6136V10.148H50.4256Z" fill="#442D87"/>
</svg>
