<svg width="15" height="14" viewBox="0 0 15 14" fill="none" xmlns="http://www.w3.org/2000/svg">
<path d="M1.75671 14C2.02193 14 2.27628 13.8946 2.46382 13.7071C2.65136 13.5196 2.75671 13.2652 2.75671 13V7C2.75671 6.73479 2.65136 6.48043 2.46382 6.2929C2.27628 6.10536 2.02193 6 1.75671 6C1.4915 6 1.23714 6.10536 1.04961 6.2929C0.862071 6.48043 0.756714 6.73479 0.756714 7V13C0.756714 13.2652 0.862071 13.5196 1.04961 13.7071C1.23714 13.8946 1.4915 14 1.75671 14ZM5.43171 12H3.75671V7C4.41971 7 4.97471 6.534 5.31271 5.963C5.64593 5.39984 6.11223 4.92702 6.67071 4.586C7.14871 4.294 7.57771 3.88001 7.65971 3.32601V3.32001C7.78968 2.44413 7.78968 1.55388 7.65971 0.678005C7.63171 0.484005 7.70771 0.284005 7.88371 0.199005C8.18874 0.0510206 8.52637 -0.0169972 8.8649 0.00134162C9.20343 0.0196804 9.53174 0.123774 9.81899 0.303843C10.1062 0.483913 10.343 0.734047 10.507 1.03075C10.6711 1.32745 10.757 1.66098 10.7567 2.00001C10.756 2.81334 10.6777 3.60367 10.5217 4.371C10.5056 4.44629 10.5063 4.52423 10.524 4.59918C10.5416 4.67413 10.5757 4.74423 10.6237 4.80441C10.6718 4.8646 10.7326 4.91336 10.8017 4.94719C10.8709 4.98101 10.9467 4.99905 11.0237 5H12.7567C13.8607 5 14.7667 5.89801 14.6577 6.997C14.6377 7.20234 14.6144 7.40667 14.5877 7.61C14.4015 9.03359 14.0626 10.433 13.5767 11.784C13.3067 12.532 12.5787 13 11.7837 13H9.08071C8.86471 13 8.65405 12.9657 8.44871 12.897L6.06471 12.103C5.86063 12.0348 5.64688 12.0001 5.43171 12Z" fill="white"/>
</svg>
