<svg width="15" height="18" viewBox="0 0 15 18" fill="none" xmlns="http://www.w3.org/2000/svg">
<path d="M7.13461 9.0127C7.61616 9.0127 8.02853 8.84109 8.37175 8.49788C8.71437 8.15526 8.88569 7.74317 8.88569 7.26162C8.88569 6.78008 8.71437 6.3677 8.37175 6.02449C8.02853 5.68186 7.61616 5.51055 7.13461 5.51055C6.65307 5.51055 6.24098 5.68186 5.89835 6.02449C5.55514 6.3677 5.38354 6.78008 5.38354 7.26162C5.38354 7.74317 5.55514 8.15526 5.89835 8.49788C6.24098 8.84109 6.65307 9.0127 7.13461 9.0127ZM7.13461 15.4479C8.91487 13.8136 10.2355 12.3287 11.0964 10.9932C11.9574 9.65826 12.3878 8.47278 12.3878 7.43673C12.3878 5.84617 11.8806 4.54366 10.8662 3.52921C9.85228 2.51534 8.60843 2.0084 7.13461 2.0084C5.66079 2.0084 4.41665 2.51534 3.40219 3.52921C2.38832 4.54366 1.88139 5.84617 1.88139 7.43673C1.88139 8.47278 2.31186 9.65826 3.1728 10.9932C4.03375 12.3287 5.35435 13.8136 7.13461 15.4479ZM7.13461 17.7681C4.78525 15.7689 3.03067 13.9119 1.87088 12.197C0.7105 10.4827 0.13031 8.89596 0.13031 7.43673C0.13031 5.24789 0.834534 3.50411 2.24298 2.2054C3.65085 0.906681 5.28139 0.257324 7.13461 0.257324C8.98783 0.257324 10.6184 0.906681 12.0262 2.2054C13.4347 3.50411 14.1389 5.24789 14.1389 7.43673C14.1389 8.89596 13.559 10.4827 12.3992 12.197C11.2388 13.9119 9.48397 15.7689 7.13461 17.7681Z" fill="#6D8493"/>
</svg>
