<svg width="310" height="43" viewBox="0 0 310 43" fill="none" xmlns="http://www.w3.org/2000/svg">
<rect width="309.333" height="42.0258" rx="8" fill="#F8F8F8"/>
<path d="M102.135 21.0127C102.616 21.0127 103.029 20.8411 103.372 20.4979C103.714 20.1553 103.886 19.7432 103.886 19.2616C103.886 18.7801 103.714 18.3677 103.372 18.0245C103.029 17.6819 102.616 17.5105 102.135 17.5105C101.653 17.5105 101.241 17.6819 100.898 18.0245C100.555 18.3677 100.384 18.7801 100.384 19.2616C100.384 19.7432 100.555 20.1553 100.898 20.4979C101.241 20.8411 101.653 21.0127 102.135 21.0127ZM102.135 27.4479C103.915 25.8136 105.235 24.3287 106.096 22.9932C106.957 21.6583 107.388 20.4728 107.388 19.4367C107.388 17.8462 106.881 16.5437 105.866 15.5292C104.852 14.5153 103.608 14.0084 102.135 14.0084C100.661 14.0084 99.4167 14.5153 98.4022 15.5292C97.3883 16.5437 96.8814 17.8462 96.8814 19.4367C96.8814 20.4728 97.3119 21.6583 98.1728 22.9932C99.0337 24.3287 100.354 25.8136 102.135 27.4479ZM102.135 29.7681C99.7853 27.7689 98.0307 25.9119 96.8709 24.197C95.7105 22.4827 95.1303 20.896 95.1303 19.4367C95.1303 17.2479 95.8345 15.5041 97.243 14.2054C98.6508 12.9067 100.281 12.2573 102.135 12.2573C103.988 12.2573 105.618 12.9067 107.026 14.2054C108.435 15.5041 109.139 17.2479 109.139 19.4367C109.139 20.896 108.559 22.4827 107.399 24.197C106.239 25.9119 104.484 27.7689 102.135 29.7681Z" fill="#6D8493"/>
<path d="M118.905 16.8589H120.1V25.0408H123.305V26.0127H118.905V16.8589ZM131.403 22.4011C131.403 24.6863 129.762 26.1309 127.713 26.1309C125.677 26.1309 124.128 24.6863 124.128 22.4011C124.128 20.1291 125.73 18.6976 127.765 18.6976C129.814 18.6976 131.403 20.1291 131.403 22.4011ZM125.349 22.4011C125.349 24.2266 126.465 25.0802 127.713 25.0802C128.961 25.0802 130.182 24.2266 130.182 22.4011C130.182 20.5887 128.987 19.7351 127.752 19.7351C126.492 19.7351 125.349 20.5887 125.349 22.4011ZM138.241 26.0127V21.9414C138.241 20.4705 137.44 19.722 136.232 19.722C135.01 19.722 134.17 20.4837 134.17 22.0334V26.0127H132.975V18.8158H134.17V19.8402C134.643 19.0916 135.509 18.6844 136.481 18.6844C138.149 18.6844 139.423 19.7088 139.423 21.7707V26.0127H138.241ZM140.929 22.388C140.929 20.1422 142.413 18.6976 144.356 18.6976C145.486 18.6976 146.523 19.2754 147.022 20.1028V16.2942H148.231V26.0127H147.022V24.66C146.589 25.4611 145.657 26.1309 144.343 26.1309C142.413 26.1309 140.929 24.6206 140.929 22.388ZM147.022 22.4011C147.022 20.7332 145.893 19.7351 144.58 19.7351C143.266 19.7351 142.15 20.6938 142.15 22.388C142.15 24.0821 143.266 25.0802 144.58 25.0802C145.893 25.0802 147.022 24.0953 147.022 22.4011ZM157.079 22.4011C157.079 24.6863 155.438 26.1309 153.389 26.1309C151.353 26.1309 149.804 24.6863 149.804 22.4011C149.804 20.1291 151.406 18.6976 153.442 18.6976C155.49 18.6976 157.079 20.1291 157.079 22.4011ZM151.025 22.4011C151.025 24.2266 152.141 25.0802 153.389 25.0802C154.637 25.0802 155.858 24.2266 155.858 22.4011C155.858 20.5887 154.663 19.7351 153.428 19.7351C152.168 19.7351 151.025 20.5887 151.025 22.4011ZM163.917 26.0127V21.9414C163.917 20.4705 163.116 19.722 161.908 19.722C160.686 19.722 159.846 20.4837 159.846 22.0334V26.0127H158.651V18.8158H159.846V19.8402C160.319 19.0916 161.186 18.6844 162.157 18.6844C163.825 18.6844 165.099 19.7088 165.099 21.7707V26.0127H163.917ZM166.014 27.8907L166.973 24.3579H168.286L166.815 27.8907H166.014ZM173.13 22.6375V16.8589H174.325V22.6506C174.325 24.3317 175.231 25.054 176.584 25.054C177.937 25.054 178.83 24.3317 178.83 22.6506V16.8589H180.025V22.6375C180.025 25.0146 178.462 26.1046 176.571 26.1046C174.68 26.1046 173.13 25.0146 173.13 22.6375ZM186.983 26.0127L183.214 21.8364V26.0127H182.018V16.8589H183.214V21.1009L186.996 16.8589H188.506L184.356 21.4424L188.546 26.0127H186.983Z" fill="#6D8493"/>
</svg>
