<svg width="310" height="70" viewBox="0 0 310 70" fill="none" xmlns="http://www.w3.org/2000/svg">
<path d="M13.872 14.4579C13.872 15.3539 13.656 16.1939 13.224 16.9779C12.808 17.7619 12.144 18.3939 11.232 18.8739C10.336 19.3539 9.2 19.5939 7.824 19.5939H5.016V26.0259H1.656V9.27388H7.824C9.12 9.27388 10.224 9.49788 11.136 9.94588C12.048 10.3939 12.728 11.0099 13.176 11.7939C13.64 12.5779 13.872 13.4659 13.872 14.4579ZM7.68 16.8819C8.608 16.8819 9.296 16.6739 9.744 16.2579C10.192 15.8259 10.416 15.2259 10.416 14.4579C10.416 12.8259 9.504 12.0099 7.68 12.0099H5.016V16.8819H7.68ZM27.8496 12.7299V26.0259H24.4656V24.3459C24.0336 24.9219 23.4656 25.3779 22.7616 25.7139C22.0736 26.0339 21.3216 26.1939 20.5056 26.1939C19.4656 26.1939 18.5456 25.9779 17.7456 25.5459C16.9456 25.0979 16.3136 24.4499 15.8496 23.6019C15.4016 22.7379 15.1776 21.7139 15.1776 20.5299V12.7299H18.5376V20.0499C18.5376 21.1059 18.8016 21.9219 19.3296 22.4979C19.8576 23.0579 20.5776 23.3379 21.4896 23.3379C22.4176 23.3379 23.1456 23.0579 23.6736 22.4979C24.2016 21.9219 24.4656 21.1059 24.4656 20.0499V12.7299H27.8496ZM34.1167 15.4899V21.9219C34.1167 22.3699 34.2207 22.6979 34.4287 22.9059C34.6527 23.0979 35.0207 23.1939 35.5327 23.1939H37.0927V26.0259H34.9807C32.1487 26.0259 30.7327 24.6499 30.7327 21.8979V15.4899H29.1487V12.7299H30.7327V9.44188H34.1167V12.7299H37.0927V15.4899H34.1167ZM41.9094 14.7939C42.3414 14.0899 42.9014 13.5379 43.5894 13.1379C44.2934 12.7379 45.0934 12.5379 45.9894 12.5379V16.0659H45.1014C44.0454 16.0659 43.2454 16.3139 42.7014 16.8099C42.1734 17.3059 41.9094 18.1699 41.9094 19.4019V26.0259H38.5494V12.7299H41.9094V14.7939ZM48.9966 11.1459C48.4046 11.1459 47.9086 10.9619 47.5086 10.5939C47.1246 10.2099 46.9326 9.73788 46.9326 9.17788C46.9326 8.61788 47.1246 8.15388 47.5086 7.78588C47.9086 7.40188 48.4046 7.20988 48.9966 7.20988C49.5886 7.20988 50.0766 7.40188 50.4606 7.78588C50.8606 8.15388 51.0606 8.61788 51.0606 9.17788C51.0606 9.73788 50.8606 10.2099 50.4606 10.5939C50.0766 10.9619 49.5886 11.1459 48.9966 11.1459ZM50.6526 12.7299V26.0259H47.2926V12.7299H50.6526ZM68.043 22.8339H61.371L60.267 26.0259H56.739L62.763 9.24988H66.675L72.699 26.0259H69.147L68.043 22.8339ZM67.131 20.1459L64.707 13.1379L62.283 20.1459H67.131ZM77.0627 23.2659H82.9907V26.0259H73.2467V23.3139L79.0547 15.4899H73.2707V12.7299H82.9187V15.4419L77.0627 23.2659ZM87.7042 23.2659H93.6322V26.0259H83.8882V23.3139L89.6962 15.4899H83.9122V12.7299H93.5602V15.4419L87.7042 23.2659ZM94.4098 19.3299C94.4098 17.9859 94.6738 16.7939 95.2018 15.7539C95.7458 14.7139 96.4738 13.9139 97.3858 13.3539C98.3138 12.7939 99.3458 12.5139 100.482 12.5139C101.474 12.5139 102.338 12.7139 103.074 13.1139C103.826 13.5139 104.426 14.0179 104.874 14.6259V12.7299H108.258V26.0259H104.874V24.0819C104.442 24.7059 103.842 25.2259 103.074 25.6419C102.322 26.0419 101.45 26.2419 100.458 26.2419C99.3378 26.2419 98.3138 25.9539 97.3858 25.3779C96.4738 24.8019 95.7458 23.9939 95.2018 22.9539C94.6738 21.8979 94.4098 20.6899 94.4098 19.3299ZM104.874 19.3779C104.874 18.5619 104.714 17.8659 104.394 17.2899C104.074 16.6979 103.642 16.2499 103.098 15.9459C102.554 15.6259 101.97 15.4659 101.346 15.4659C100.722 15.4659 100.146 15.6179 99.6178 15.9219C99.0898 16.2259 98.6578 16.6739 98.3218 17.2659C98.0018 17.8419 97.8418 18.5299 97.8418 19.3299C97.8418 20.1299 98.0018 20.8339 98.3218 21.4419C98.6578 22.0339 99.0898 22.4899 99.6178 22.8099C100.162 23.1299 100.738 23.2899 101.346 23.2899C101.97 23.2899 102.554 23.1379 103.098 22.8339C103.642 22.5139 104.074 22.0659 104.394 21.4899C104.714 20.8979 104.874 20.1939 104.874 19.3779ZM118.067 12.5379C119.075 12.5379 119.971 12.7619 120.755 13.2099C121.539 13.6419 122.147 14.2899 122.579 15.1539C123.027 16.0019 123.251 17.0259 123.251 18.2259V26.0259H119.891V18.6819C119.891 17.6259 119.627 16.8179 119.099 16.2579C118.571 15.6819 117.851 15.3939 116.939 15.3939C116.011 15.3939 115.275 15.6819 114.731 16.2579C114.203 16.8179 113.939 17.6259 113.939 18.6819V26.0259H110.579V8.26588H113.939V14.3859C114.371 13.8099 114.947 13.3619 115.667 13.0419C116.387 12.7059 117.187 12.5379 118.067 12.5379ZM128.847 14.7939C129.279 14.0899 129.839 13.5379 130.527 13.1379C131.231 12.7379 132.031 12.5379 132.927 12.5379V16.0659H132.039C130.983 16.0659 130.183 16.3139 129.639 16.8099C129.111 17.3059 128.847 18.1699 128.847 19.4019V26.0259H125.487V12.7299H128.847V14.7939ZM133.366 19.3299C133.366 17.9859 133.63 16.7939 134.158 15.7539C134.702 14.7139 135.43 13.9139 136.342 13.3539C137.27 12.7939 138.302 12.5139 139.438 12.5139C140.43 12.5139 141.294 12.7139 142.03 13.1139C142.782 13.5139 143.382 14.0179 143.83 14.6259V12.7299H147.214V26.0259H143.83V24.0819C143.398 24.7059 142.798 25.2259 142.03 25.6419C141.278 26.0419 140.406 26.2419 139.414 26.2419C138.294 26.2419 137.27 25.9539 136.342 25.3779C135.43 24.8019 134.702 23.9939 134.158 22.9539C133.63 21.8979 133.366 20.6899 133.366 19.3299ZM143.83 19.3779C143.83 18.5619 143.67 17.8659 143.35 17.2899C143.03 16.6979 142.598 16.2499 142.054 15.9459C141.51 15.6259 140.926 15.4659 140.302 15.4659C139.678 15.4659 139.102 15.6179 138.574 15.9219C138.046 16.2259 137.614 16.6739 137.278 17.2659C136.958 17.8419 136.798 18.5299 136.798 19.3299C136.798 20.1299 136.958 20.8339 137.278 21.4419C137.614 22.0339 138.046 22.4899 138.574 22.8099C139.118 23.1299 139.694 23.2899 140.302 23.2899C140.926 23.2899 141.51 23.1379 142.054 22.8339C142.598 22.5139 143.03 22.0659 143.35 21.4899C143.67 20.8979 143.83 20.1939 143.83 19.3779Z" fill="#2A282F"/>
<rect y="40.0259" width="88.0258" height="29.6336" rx="8" fill="#22C55E"/>
<path d="M29.3149 56.9868C29.3149 57.5001 29.1795 57.9761 28.9089 58.4148C28.6475 58.8441 28.2555 59.1988 27.7329 59.4788C27.2195 59.7494 26.6082 59.8988 25.8989 59.9268V61.0608H25.0029V59.9128C24.0135 59.8288 23.2155 59.5348 22.6089 59.0308C22.0022 58.5174 21.6802 57.8221 21.6429 56.9448H24.1909C24.2469 57.5048 24.5175 57.8641 25.0029 58.0228V55.8108C24.2749 55.6241 23.6915 55.4421 23.2529 55.2648C22.8235 55.0874 22.4455 54.8028 22.1189 54.4108C21.7922 54.0188 21.6289 53.4821 21.6289 52.8008C21.6289 51.9514 21.9415 51.2701 22.5669 50.7568C23.2015 50.2434 24.0135 49.9541 25.0029 49.8888V48.7548H25.8989V49.8888C26.8789 49.9634 27.6535 50.2481 28.2229 50.7428C28.7922 51.2374 29.1095 51.9234 29.1749 52.8008H26.6129C26.5569 52.2968 26.3189 51.9701 25.8989 51.8208V53.9908C26.6735 54.2054 27.2709 54.3968 27.6909 54.5648C28.1109 54.7328 28.4842 55.0128 28.8109 55.4048C29.1469 55.7874 29.3149 56.3148 29.3149 56.9868ZM24.1629 52.6888C24.1629 52.9221 24.2329 53.1181 24.3729 53.2768C24.5222 53.4354 24.7322 53.5754 25.0029 53.6968V51.7508C24.7415 51.7974 24.5362 51.9001 24.3869 52.0588C24.2375 52.2081 24.1629 52.4181 24.1629 52.6888ZM25.8989 58.0648C26.1789 58.0181 26.3982 57.9061 26.5569 57.7288C26.7249 57.5514 26.8089 57.3321 26.8089 57.0708C26.8089 56.8281 26.7295 56.6321 26.5709 56.4828C26.4215 56.3241 26.1975 56.1888 25.8989 56.0768V58.0648ZM30.6057 51.8488V49.6228H34.4837V59.8428H31.9917V51.8488H30.6057ZM36.1214 54.5928C36.1214 52.9874 36.4294 51.7228 37.0454 50.7988C37.6707 49.8748 38.6741 49.4128 40.0554 49.4128C41.4367 49.4128 42.4354 49.8748 43.0514 50.7988C43.6767 51.7228 43.9894 52.9874 43.9894 54.5928C43.9894 56.2168 43.6767 57.4908 43.0514 58.4148C42.4354 59.3388 41.4367 59.8008 40.0554 59.8008C38.6741 59.8008 37.6707 59.3388 37.0454 58.4148C36.4294 57.4908 36.1214 56.2168 36.1214 54.5928ZM41.6374 54.5928C41.6374 53.6501 41.5347 52.9268 41.3294 52.4228C41.1241 51.9094 40.6994 51.6528 40.0554 51.6528C39.4114 51.6528 38.9867 51.9094 38.7814 52.4228C38.5761 52.9268 38.4734 53.6501 38.4734 54.5928C38.4734 55.2274 38.5107 55.7548 38.5854 56.1748C38.6601 56.5854 38.8094 56.9214 39.0334 57.1828C39.2667 57.4348 39.6074 57.5608 40.0554 57.5608C40.5034 57.5608 40.8394 57.4348 41.0634 57.1828C41.2967 56.9214 41.4507 56.5854 41.5254 56.1748C41.6001 55.7548 41.6374 55.2274 41.6374 54.5928ZM48.0682 57.6308L46.5142 61.6488H44.9882L45.8002 57.6308H48.0682ZM49.2737 54.5928C49.2737 52.9874 49.5817 51.7228 50.1977 50.7988C50.8231 49.8748 51.8264 49.4128 53.2077 49.4128C54.5891 49.4128 55.5877 49.8748 56.2037 50.7988C56.8291 51.7228 57.1417 52.9874 57.1417 54.5928C57.1417 56.2168 56.8291 57.4908 56.2037 58.4148C55.5877 59.3388 54.5891 59.8008 53.2077 59.8008C51.8264 59.8008 50.8231 59.3388 50.1977 58.4148C49.5817 57.4908 49.2737 56.2168 49.2737 54.5928ZM54.7897 54.5928C54.7897 53.6501 54.6871 52.9268 54.4817 52.4228C54.2764 51.9094 53.8517 51.6528 53.2077 51.6528C52.5637 51.6528 52.1391 51.9094 51.9337 52.4228C51.7284 52.9268 51.6257 53.6501 51.6257 54.5928C51.6257 55.2274 51.6631 55.7548 51.7377 56.1748C51.8124 56.5854 51.9617 56.9214 52.1857 57.1828C52.4191 57.4348 52.7597 57.5608 53.2077 57.5608C53.6557 57.5608 53.9917 57.4348 54.2157 57.1828C54.4491 56.9214 54.6031 56.5854 54.6777 56.1748C54.7524 55.7548 54.7897 55.2274 54.7897 54.5928ZM58.4066 54.5928C58.4066 52.9874 58.7146 51.7228 59.3306 50.7988C59.9559 49.8748 60.9592 49.4128 62.3406 49.4128C63.7219 49.4128 64.7206 49.8748 65.3366 50.7988C65.9619 51.7228 66.2746 52.9874 66.2746 54.5928C66.2746 56.2168 65.9619 57.4908 65.3366 58.4148C64.7206 59.3388 63.7219 59.8008 62.3406 59.8008C60.9592 59.8008 59.9559 59.3388 59.3306 58.4148C58.7146 57.4908 58.4066 56.2168 58.4066 54.5928ZM63.9226 54.5928C63.9226 53.6501 63.8199 52.9268 63.6146 52.4228C63.4092 51.9094 62.9846 51.6528 62.3406 51.6528C61.6966 51.6528 61.2719 51.9094 61.0666 52.4228C60.8612 52.9268 60.7586 53.6501 60.7586 54.5928C60.7586 55.2274 60.7959 55.7548 60.8706 56.1748C60.9452 56.5854 61.0946 56.9214 61.3186 57.1828C61.5519 57.4348 61.8926 57.5608 62.3406 57.5608C62.7886 57.5608 63.1246 57.4348 63.3486 57.1828C63.5819 56.9214 63.7359 56.5854 63.8106 56.1748C63.8852 55.7548 63.9226 55.2274 63.9226 54.5928Z" fill="white"/>
<path d="M117.066 44.8557C116.621 44.8557 116.177 45.0859 115.946 45.5501L113.399 50.7153L107.699 51.5424C106.677 51.6906 106.268 52.9507 107.009 53.6724L111.132 57.6906L110.157 63.3669C109.981 64.3851 111.054 65.1614 111.967 64.6816L117.066 62.0054V44.8557Z" fill="#FFC403"/>
<path d="M117.001 44.8557C117.446 44.8557 117.89 45.0859 118.121 45.5501L120.668 50.7153L126.368 51.5424C127.39 51.6906 127.799 52.9507 127.058 53.6724L122.935 57.6906L123.91 63.3669C124.086 64.3851 123.013 65.1614 122.1 64.6816L117.001 62.0054V44.8557Z" fill="#FFC403"/>
<path d="M139.986 44.8557C139.542 44.8557 139.097 45.0859 138.867 45.5501L136.319 50.7153L130.62 51.5424C129.597 51.6906 129.188 52.9507 129.929 53.6724L134.053 57.6906L133.077 63.3669C132.902 64.3851 133.975 65.1614 134.887 64.6816L139.986 62.0054V44.8557Z" fill="#FFC403"/>
<path d="M139.921 44.8557C140.366 44.8557 140.811 45.0859 141.041 45.5501L143.588 50.7153L149.288 51.5424C150.31 51.6906 150.72 52.9507 149.979 53.6724L145.855 57.6906L146.83 63.3669C147.006 64.3851 145.933 65.1614 145.02 64.6816L139.921 62.0054V44.8557Z" fill="#FFC403"/>
<path d="M162.907 44.8557C162.462 44.8557 162.017 45.0859 161.787 45.5501L159.239 50.7153L153.54 51.5424C152.518 51.6906 152.108 52.9507 152.849 53.6724L156.973 57.6906L155.998 63.3669C155.822 64.3851 156.895 65.1614 157.808 64.6816L162.907 62.0054V44.8557Z" fill="#FFC403"/>
<path d="M162.842 44.8557C163.286 44.8557 163.731 45.0859 163.961 45.5501L166.509 50.7153L172.208 51.5424C173.23 51.6906 173.64 52.9507 172.899 53.6724L168.775 57.6906L169.751 63.3669C169.926 64.3851 168.853 65.1614 167.94 64.6816L162.842 62.0054V44.8557Z" fill="#FFC403"/>
<path d="M185.827 44.8557C185.382 44.8557 184.937 45.0859 184.707 45.5501L182.16 50.7153L176.46 51.5424C175.438 51.6906 175.028 52.9507 175.77 53.6724L179.893 57.6906L178.918 63.3669C178.742 64.3851 179.815 65.1614 180.728 64.6816L185.827 62.0054V44.8557Z" fill="#FFC403"/>
<path d="M185.762 44.8557C186.207 44.8557 186.651 45.0859 186.881 45.5501L189.429 50.7153L195.129 51.5424C196.151 51.6906 196.56 52.9507 195.819 53.6724L191.696 57.6906L192.671 63.3669C192.846 64.3851 191.774 65.1614 190.861 64.6816L185.762 62.0054V44.8557Z" fill="#FFC403"/>
<g clip-path="url(#clip0_639_10413)">
<path d="M208.682 59.887L213.531 62.4384L212.607 57.0391L216.531 53.216L211.109 52.4279L208.682 47.5124V44.8557C209.127 44.8557 209.572 45.0859 209.802 45.5501L212.349 50.7153L218.049 51.5424C219.071 51.6906 219.481 52.9507 218.739 53.6724L214.616 57.6906L215.591 63.3669C215.767 64.3851 214.694 65.1614 213.781 64.6816L208.682 62.0054V59.887Z" fill="#FFC403"/>
</g>
<path d="M208.747 44.8557C208.303 44.8557 207.858 45.0859 207.628 45.5501L205.08 50.7153L199.38 51.5424C198.358 51.6906 197.949 52.9507 198.69 53.6724L202.814 57.6906L201.838 63.3669C201.663 64.3851 202.735 65.1614 203.648 64.6816L208.747 62.0054V44.8557Z" fill="#FFC403"/>
<path d="M230.065 61.0748C229.297 60.3228 228.697 59.3668 228.265 58.2068C227.841 57.0468 227.629 55.7948 227.629 54.4508C227.629 53.0748 227.853 51.7908 228.301 50.5988C228.757 49.3988 229.405 48.4108 230.245 47.6348H231.385V47.7428C230.489 48.5828 229.813 49.5948 229.357 50.7788C228.909 51.9548 228.685 53.1788 228.685 54.4508C228.685 55.6908 228.897 56.8748 229.321 58.0028C229.753 59.1308 230.381 60.1188 231.205 60.9668V61.0748H230.065ZM232.743 52.3508C232.799 51.6148 233.083 51.0388 233.595 50.6228C234.107 50.2068 234.771 49.9988 235.587 49.9988C236.131 49.9988 236.599 50.0988 236.991 50.2988C237.391 50.4908 237.691 50.7548 237.891 51.0908C238.099 51.4268 238.203 51.8068 238.203 52.2308C238.203 52.7268 238.059 53.1548 237.771 53.5148C237.491 53.8748 237.123 54.1068 236.667 54.2108V54.2708C237.187 54.3988 237.599 54.6508 237.903 55.0268C238.207 55.4028 238.359 55.8948 238.359 56.5028C238.359 56.9588 238.255 57.3708 238.047 57.7388C237.839 58.0988 237.527 58.3828 237.111 58.5908C236.695 58.7988 236.195 58.9028 235.611 58.9028C234.763 58.9028 234.067 58.6828 233.523 58.2428C232.979 57.7948 232.675 57.1628 232.611 56.3468H233.667C233.723 56.8268 233.919 57.2188 234.255 57.5228C234.591 57.8268 235.039 57.9788 235.599 57.9788C236.159 57.9788 236.583 57.8348 236.871 57.5468C237.167 57.2508 237.315 56.8708 237.315 56.4068C237.315 55.8068 237.115 55.3748 236.715 55.1108C236.315 54.8468 235.711 54.7148 234.903 54.7148H234.627V53.8028H234.915C235.651 53.7948 236.207 53.6748 236.583 53.4428C236.959 53.2028 237.147 52.8348 237.147 52.3388C237.147 51.9148 237.007 51.5748 236.727 51.3188C236.455 51.0628 236.063 50.9348 235.551 50.9348C235.055 50.9348 234.655 51.0628 234.351 51.3188C234.047 51.5748 233.867 51.9188 233.811 52.3508H232.743ZM245.413 51.0188L242.077 58.8428H240.973L244.357 51.1268H239.725V50.1908H245.413V51.0188ZM246.732 57.9668C247.748 57.1508 248.544 56.4828 249.12 55.9628C249.696 55.4348 250.18 54.8868 250.572 54.3188C250.972 53.7428 251.172 53.1788 251.172 52.6268C251.172 52.1068 251.044 51.6988 250.788 51.4028C250.54 51.0988 250.136 50.9468 249.576 50.9468C249.032 50.9468 248.608 51.1188 248.304 51.4628C248.008 51.7988 247.848 52.2508 247.824 52.8188H246.768C246.8 51.9228 247.072 51.2308 247.584 50.7428C248.096 50.2548 248.756 50.0108 249.564 50.0108C250.388 50.0108 251.04 50.2388 251.52 50.6948C252.008 51.1508 252.252 51.7788 252.252 52.5788C252.252 53.2428 252.052 53.8908 251.652 54.5228C251.26 55.1468 250.812 55.6988 250.308 56.1788C249.804 56.6508 249.16 57.2028 248.376 57.8348H252.504V58.7468H246.732V57.9668ZM258.717 53.3348C258.909 52.9588 259.181 52.6668 259.533 52.4588C259.893 52.2508 260.329 52.1468 260.841 52.1468V53.2748H260.553C259.329 53.2748 258.717 53.9388 258.717 55.2668V58.8428H257.625V52.2668H258.717V53.3348ZM268.342 55.3028C268.342 55.5108 268.33 55.7308 268.306 55.9628H263.05C263.09 56.6108 263.31 57.1188 263.71 57.4868C264.118 57.8468 264.61 58.0268 265.186 58.0268C265.658 58.0268 266.05 57.9188 266.362 57.7028C266.682 57.4788 266.906 57.1828 267.034 56.8148H268.21C268.034 57.4468 267.682 57.9628 267.154 58.3628C266.626 58.7548 265.97 58.9508 265.186 58.9508C264.562 58.9508 264.002 58.8108 263.506 58.5308C263.018 58.2508 262.634 57.8548 262.354 57.3428C262.074 56.8228 261.934 56.2228 261.934 55.5428C261.934 54.8628 262.07 54.2668 262.342 53.7548C262.614 53.2428 262.994 52.8508 263.482 52.5788C263.978 52.2988 264.546 52.1588 265.186 52.1588C265.81 52.1588 266.362 52.2948 266.842 52.5668C267.322 52.8388 267.69 53.2148 267.946 53.6948C268.21 54.1668 268.342 54.7028 268.342 55.3028ZM267.214 55.0748C267.214 54.6588 267.122 54.3028 266.938 54.0068C266.754 53.7028 266.502 53.4748 266.182 53.3228C265.87 53.1628 265.522 53.0828 265.138 53.0828C264.586 53.0828 264.114 53.2588 263.722 53.6108C263.338 53.9628 263.118 54.4508 263.062 55.0748H267.214ZM272.471 57.8348L274.511 52.2668H275.675L273.095 58.8428H271.823L269.243 52.2668H270.419L272.471 57.8348ZM277.554 51.1988C277.346 51.1988 277.17 51.1268 277.026 50.9828C276.882 50.8388 276.81 50.6628 276.81 50.4548C276.81 50.2468 276.882 50.0708 277.026 49.9268C277.17 49.7828 277.346 49.7108 277.554 49.7108C277.754 49.7108 277.922 49.7828 278.058 49.9268C278.202 50.0708 278.274 50.2468 278.274 50.4548C278.274 50.6628 278.202 50.8388 278.058 50.9828C277.922 51.1268 277.754 51.1988 277.554 51.1988ZM278.082 52.2668V58.8428H276.99V52.2668H278.082ZM286.183 55.3028C286.183 55.5108 286.171 55.7308 286.147 55.9628H280.891C280.931 56.6108 281.151 57.1188 281.551 57.4868C281.959 57.8468 282.451 58.0268 283.027 58.0268C283.499 58.0268 283.891 57.9188 284.203 57.7028C284.523 57.4788 284.747 57.1828 284.875 56.8148H286.051C285.875 57.4468 285.523 57.9628 284.995 58.3628C284.467 58.7548 283.811 58.9508 283.027 58.9508C282.403 58.9508 281.843 58.8108 281.347 58.5308C280.859 58.2508 280.475 57.8548 280.195 57.3428C279.915 56.8228 279.775 56.2228 279.775 55.5428C279.775 54.8628 279.911 54.2668 280.183 53.7548C280.455 53.2428 280.835 52.8508 281.323 52.5788C281.819 52.2988 282.387 52.1588 283.027 52.1588C283.651 52.1588 284.203 52.2948 284.683 52.5668C285.163 52.8388 285.531 53.2148 285.787 53.6948C286.051 54.1668 286.183 54.7028 286.183 55.3028ZM285.055 55.0748C285.055 54.6588 284.963 54.3028 284.779 54.0068C284.595 53.7028 284.343 53.4748 284.023 53.3228C283.711 53.1628 283.363 53.0828 282.979 53.0828C282.427 53.0828 281.955 53.2588 281.563 53.6108C281.179 53.9628 280.959 54.4508 280.903 55.0748H285.055ZM296.624 52.2668L294.572 58.8428H293.444L291.86 53.6228L290.276 58.8428H289.148L287.084 52.2668H288.2L289.712 57.7868L291.344 52.2668H292.46L294.056 57.7988L295.544 52.2668H296.624ZM300.276 58.9508C299.772 58.9508 299.32 58.8668 298.92 58.6988C298.52 58.5228 298.204 58.2828 297.972 57.9788C297.74 57.6668 297.612 57.3108 297.588 56.9108H298.716C298.748 57.2388 298.9 57.5068 299.172 57.7148C299.452 57.9228 299.816 58.0268 300.264 58.0268C300.68 58.0268 301.008 57.9348 301.248 57.7508C301.488 57.5668 301.608 57.3348 301.608 57.0548C301.608 56.7668 301.48 56.5548 301.224 56.4188C300.968 56.2748 300.572 56.1348 300.036 55.9988C299.548 55.8708 299.148 55.7428 298.836 55.6148C298.532 55.4788 298.268 55.2828 298.044 55.0268C297.828 54.7628 297.72 54.4188 297.72 53.9948C297.72 53.6588 297.82 53.3508 298.02 53.0708C298.22 52.7908 298.504 52.5708 298.872 52.4108C299.24 52.2428 299.66 52.1588 300.132 52.1588C300.86 52.1588 301.448 52.3428 301.896 52.7108C302.344 53.0788 302.584 53.5828 302.616 54.2228H301.524C301.5 53.8788 301.36 53.6028 301.104 53.3948C300.856 53.1868 300.52 53.0828 300.096 53.0828C299.704 53.0828 299.392 53.1668 299.16 53.3348C298.928 53.5028 298.812 53.7228 298.812 53.9948C298.812 54.2108 298.88 54.3908 299.016 54.5348C299.16 54.6708 299.336 54.7828 299.544 54.8708C299.76 54.9508 300.056 55.0428 300.432 55.1468C300.904 55.2748 301.288 55.4028 301.584 55.5308C301.88 55.6508 302.132 55.8348 302.34 56.0828C302.556 56.3308 302.668 56.6548 302.676 57.0548C302.676 57.4148 302.576 57.7388 302.376 58.0268C302.176 58.3148 301.892 58.5428 301.524 58.7108C301.164 58.8708 300.748 58.9508 300.276 58.9508ZM304.11 61.0748V60.9668C304.934 60.1188 305.558 59.1308 305.982 58.0028C306.414 56.8748 306.63 55.6908 306.63 54.4508C306.63 53.1788 306.402 51.9548 305.946 50.7788C305.498 49.5948 304.826 48.5828 303.93 47.7428V47.6348H305.07C305.91 48.4108 306.554 49.3988 307.002 50.5988C307.458 51.7908 307.686 53.0748 307.686 54.4508C307.686 55.7948 307.47 57.0468 307.038 58.2068C306.614 59.3668 306.018 60.3228 305.25 61.0748H304.11Z" fill="black"/>
<defs>
<clipPath id="clip0_639_10413">
<rect width="10.4365" height="19.9741" fill="white" transform="translate(208.715 44.8557)"/>
</clipPath>
</defs>
</svg>
