<svg width="164" height="122" viewBox="0 0 164 122" fill="none" xmlns="http://www.w3.org/2000/svg">
<path d="M163.732 107.212H0V107.294H163.732V107.212Z" fill="#EBEBEB"/>
<path d="M77.609 92.6068H14.3789C13.8836 92.6059 13.4088 92.4086 13.0589 92.058C12.7089 91.7074 12.5124 91.2323 12.5124 90.737V1.85345C12.5167 1.36095 12.7152 0.89004 13.0646 0.543007C13.4141 0.195974 13.8864 0.000843674 14.3789 0H77.609C78.1049 0 78.5805 0.196998 78.9311 0.547658C79.2818 0.898317 79.4788 1.37391 79.4788 1.86982V90.737C79.4788 91.2329 79.2818 91.7085 78.9311 92.0592C78.5805 92.4098 78.1049 92.6068 77.609 92.6068ZM14.3789 0.0654931C13.9053 0.0663605 13.4514 0.255116 13.1168 0.590328C12.7822 0.925541 12.5943 1.37982 12.5943 1.85345V90.737C12.5943 91.2106 12.7822 91.6649 13.1168 92.0001C13.4514 92.3353 13.9053 92.5241 14.3789 92.525H77.609C78.0829 92.5241 78.5372 92.3354 78.8723 92.0003C79.2074 91.6652 79.3961 91.2109 79.3969 90.737V1.85345C79.3961 1.37952 79.2074 0.925247 78.8723 0.590128C78.5372 0.255009 78.0829 0.0663587 77.609 0.0654931H14.3789Z" fill="#EBEBEB"/>
<path d="M148.443 92.6068H85.2094C84.7138 92.606 84.2387 92.4087 83.8882 92.0582C83.5377 91.7077 83.3405 91.2326 83.3396 90.737V1.85345C83.3448 1.36065 83.5439 0.889745 83.894 0.542802C84.244 0.195859 84.7166 0.000834473 85.2094 0H148.443C148.935 0.00170429 149.406 0.197215 149.755 0.544156C150.104 0.891097 150.302 1.36151 150.306 1.85345V90.737C150.306 91.2318 150.11 91.7064 149.761 92.0569C149.411 92.4073 148.937 92.6051 148.443 92.6068ZM85.2094 0.0654931C84.7355 0.0663587 84.2812 0.255009 83.9461 0.590128C83.611 0.925247 83.4223 1.37952 83.4215 1.85345V90.737C83.4223 91.2109 83.611 91.6652 83.9461 92.0003C84.2812 92.3354 84.7355 92.5241 85.2094 92.525H148.443C148.917 92.5241 149.371 92.3354 149.706 92.0003C150.041 91.6652 150.23 91.2109 150.231 90.737V1.85345C150.23 1.37952 150.041 0.925247 149.706 0.590128C149.371 0.255009 148.917 0.0663587 148.443 0.0654931H85.2094Z" fill="#EBEBEB"/>
<path d="M147.326 110.329H136.988V110.411H147.326V110.329Z" fill="#EBEBEB"/>
<path d="M109.812 109.442H98.8712V109.524H109.812V109.442Z" fill="#EBEBEB"/>
<path d="M150.313 113.371H129.869V113.453H150.313V113.371Z" fill="#EBEBEB"/>
<path d="M23.4759 112.821H17.1787V112.903H23.4759V112.821Z" fill="#EBEBEB"/>
<path d="M36.3125 112.821H26.3936V112.903H36.3125V112.821Z" fill="#EBEBEB"/>
<path d="M79.9471 111.439H62.0806V111.521H79.9471V111.439Z" fill="#EBEBEB"/>
<path d="M99.2118 46.8405L140.81 46.8405V12.5255L99.2118 12.5255V46.8405Z" fill="#F0F0F0"/>
<path d="M93.1831 46.8405L139.654 46.8405V12.5255L93.1831 12.5255V46.8405Z" fill="#F5F5F5"/>
<path d="M95.888 15.2337V44.1389H136.952V15.2337L95.888 15.2337Z" fill="white"/>
<path d="M95.8847 15.2335V24.4517L136.949 24.4517V15.2335L95.8847 15.2335Z" fill="#FAFAFA"/>
<path d="M120.505 41.8086C125.952 39.5524 128.539 33.3077 126.283 27.8606C124.026 22.4136 117.782 19.827 112.335 22.0832C106.888 24.3394 104.301 30.5841 106.557 36.0312C108.813 41.4782 115.058 44.0649 120.505 41.8086Z" fill="#E6E6E6"/>
<path d="M95.8847 31.9474V44.1389H136.949V31.9474H95.8847Z" fill="#F0F0F0"/>
<path d="M25.4636 68.8231H74.259L74.259 7.28935L25.4636 7.28935L25.4636 68.8231Z" fill="#E6E6E6"/>
<path d="M23.0305 68.8231H73.1227L73.1227 7.28935L23.0305 7.28935L23.0305 68.8231Z" fill="#F0F0F0"/>
<path d="M69.7171 66.056V47.9276H26.4361V66.056H69.7171Z" fill="#F5F5F5"/>
<path d="M68.584 46.9388V11.0553L27.5659 11.0553V46.9388H68.584Z" fill="#FAFAFA"/>
<path d="M27.9982 46.9388L27.9982 11.0553H27.5692L27.5692 46.9388H27.9982Z" fill="#E6E6E6"/>
<path d="M62.0381 46.9354L47.705 11.0519H38.7652L53.0983 46.9354H62.0381Z" fill="white"/>
<path d="M51.1761 46.9354L36.843 11.0519H33.3587L47.6918 46.9354H51.1761Z" fill="white"/>
<path d="M27.2515 66.0528V48.4647H26.4361V66.0528H27.2515Z" fill="#E6E6E6"/>
<path d="M24.1112 49.5551L72.0421 49.5551V46.2935L24.1112 46.2935V49.5551Z" fill="#F0F0F0"/>
<path d="M87.1054 5.2394H9.65691C9.42559 5.23854 9.20405 5.14604 9.04078 4.98216C8.87752 4.81829 8.78586 4.59639 8.78586 4.36507C8.78672 4.13432 8.87877 3.91326 9.04194 3.7501C9.20511 3.58693 9.42616 3.49488 9.65691 3.49402H87.1054C87.3367 3.49402 87.5586 3.58568 87.7225 3.74895C87.8864 3.91221 87.9789 4.13376 87.9798 4.36507C87.9789 4.5967 87.8865 4.81858 87.7227 4.98236C87.5589 5.14615 87.337 5.23854 87.1054 5.2394Z" fill="#EBEBEB"/>
<path d="M78.4833 1.16577H72.0421V80.7756H78.4833V1.16577Z" fill="#FAFAFA"/>
<path d="M76.4596 1.16577H74.819V80.7756H76.4596V1.16577Z" fill="#F0F0F0"/>
<path d="M82.5144 1.16577H76.0732V80.7756H82.5144V1.16577Z" fill="#FAFAFA"/>
<path d="M80.4907 1.16577H78.8501V80.7756H80.4907V1.16577Z" fill="#F0F0F0"/>
<path d="M86.4898 1.16577H80.0486V80.7756H86.4898V1.16577Z" fill="#FAFAFA"/>
<path d="M83.6441 1.16577H82.8222V80.7756H83.6441V1.16577Z" fill="#F0F0F0"/>
<path d="M17.4604 1.16577H11.0192V80.7756H17.4604V1.16577Z" fill="#FAFAFA"/>
<path d="M15.4366 1.16577H13.7961V80.7756H15.4366V1.16577Z" fill="#F0F0F0"/>
<path d="M21.4914 1.16577H15.0502V80.7756H21.4914V1.16577Z" fill="#FAFAFA"/>
<path d="M19.4677 1.16577H17.8271V80.7756H19.4677V1.16577Z" fill="#F0F0F0"/>
<path d="M25.4669 1.16577H19.0257V80.7756H25.4669V1.16577Z" fill="#FAFAFA"/>
<path d="M22.6212 1.16577H21.7993V80.7756H22.6212V1.16577Z" fill="#F0F0F0"/>
<path d="M59.0319 72.2876H44.4827C42.4879 72.2876 40.8708 73.9047 40.8708 75.8995V103.6C40.8708 105.595 42.4879 107.212 44.4827 107.212H59.0319C61.0268 107.212 62.6439 105.595 62.6439 103.6V75.8995C62.6439 73.9047 61.0268 72.2876 59.0319 72.2876Z" fill="#F5F5F5"/>
<path d="M65.5485 72.2876H50.9993C49.0044 72.2876 47.3873 73.9047 47.3873 75.8995V103.6C47.3873 105.595 49.0044 107.212 50.9993 107.212H65.5485C67.5433 107.212 69.1604 105.595 69.1604 103.6V75.8995C69.1604 73.9047 67.5433 72.2876 65.5485 72.2876Z" fill="#E6E6E6"/>
<path d="M131.496 90.927H52.319C51.3279 90.927 50.5244 91.7304 50.5244 92.7215V105.414C50.5244 106.405 51.3279 107.209 52.319 107.209H131.496C132.488 107.209 133.291 106.405 133.291 105.414V92.7215C133.291 91.7304 132.488 90.927 131.496 90.927Z" fill="#F0F0F0"/>
<path d="M138.93 60.8429H71.636C70.5941 60.8626 69.5956 61.2639 68.8297 61.9706C68.0638 62.6773 67.5837 63.6405 67.4805 64.6775L65.6958 85.9135C65.6448 86.4025 65.6981 86.8967 65.8522 87.3635C66.0063 87.8303 66.2577 88.259 66.5898 88.6215C66.9219 88.9839 67.3272 89.2717 67.7788 89.466C68.2304 89.6602 68.718 89.7564 69.2095 89.7481H136.503C137.545 89.7284 138.544 89.3272 139.31 88.6204C140.076 87.9137 140.556 86.9506 140.659 85.9135L142.447 64.6775C142.498 64.1882 142.445 63.6935 142.291 63.2262C142.137 62.759 141.886 62.3298 141.553 61.9672C141.22 61.6046 140.815 61.3168 140.362 61.123C139.91 60.9292 139.422 60.8337 138.93 60.8429Z" fill="#EBEBEB"/>
<path d="M133.726 60.8428H66.4326C65.3907 60.8626 64.3921 61.2638 63.6262 61.9706C62.8604 62.6773 62.3803 63.6404 62.2771 64.6774L60.4957 85.9135C60.4442 86.4022 60.497 86.8964 60.6507 87.3632C60.8044 87.83 61.0555 88.2588 61.3874 88.6213C61.7192 88.9838 62.1243 89.2717 62.5757 89.466C63.0272 89.6602 63.5147 89.7564 64.0061 89.7481H131.313C132.356 89.7292 133.355 89.3283 134.121 88.6215C134.888 87.9146 135.369 86.9511 135.472 85.9135L137.253 64.6774C137.305 64.1873 137.252 63.6918 137.097 63.2238C136.942 62.7558 136.69 62.3262 136.356 61.9634C136.023 61.6006 135.615 61.3131 135.162 61.1199C134.709 60.9267 134.219 60.8322 133.726 60.8428Z" fill="#FAFAFA"/>
<path d="M96.1041 85.9298L95.6883 85.897L97.4729 64.661C97.5804 63.5707 98.0848 62.558 98.8902 61.8153C99.6957 61.0727 100.746 60.652 101.841 60.6332V61.0491C100.851 61.0682 99.9023 61.4497 99.1745 62.1214C98.4467 62.7931 97.9905 63.7083 97.8921 64.6937L96.1041 85.9298Z" fill="#F0F0F0"/>
<path d="M137.194 72.2876H122.645C120.65 72.2876 119.033 73.9047 119.033 75.8995V103.6C119.033 105.595 120.65 107.212 122.645 107.212H137.194C139.189 107.212 140.806 105.595 140.806 103.6V75.8995C140.806 73.9047 139.189 72.2876 137.194 72.2876Z" fill="#F5F5F5"/>
<path d="M121.204 83.3921H50.5244C49.3416 83.3921 48.3828 84.3509 48.3828 85.5337V90.2688C48.3828 91.4516 49.3416 92.4105 50.5244 92.4105H121.204C122.387 92.4105 123.346 91.4516 123.346 90.2688V85.5337C123.346 84.3509 122.387 83.3921 121.204 83.3921Z" fill="#F5F5F5"/>
<path d="M88.006 92.62C87.3827 92.6191 86.7851 92.3712 86.3444 91.9304C85.9036 91.4897 85.6557 90.8921 85.6548 90.2688V85.5337C85.6557 84.9104 85.9036 84.3128 86.3444 83.8721C86.7851 83.4314 87.3827 83.1834 88.006 83.1825V83.6016C87.4933 83.6016 87.0015 83.8051 86.6387 84.1673C86.2758 84.5296 86.0715 85.021 86.0707 85.5337V90.2688C86.0715 90.7818 86.2757 91.2736 86.6385 91.6363C87.0012 91.9991 87.493 92.2033 88.006 92.2041V92.62Z" fill="#EBEBEB"/>
<path d="M143.714 72.2876H129.165C127.17 72.2876 125.553 73.9047 125.553 75.8995V103.6C125.553 105.595 127.17 107.212 129.165 107.212H143.714C145.709 107.212 147.326 105.595 147.326 103.6V75.8995C147.326 73.9047 145.709 72.2876 143.714 72.2876Z" fill="#E6E6E6"/>
<path d="M81.866 122C116.932 122 145.358 120.34 145.358 118.293C145.358 116.246 116.932 114.586 81.866 114.586C46.8004 114.586 18.374 116.246 18.374 118.293C18.374 120.34 46.8004 122 81.866 122Z" fill="#F5F5F5"/>
<path d="M60.7413 10.5804C59.8473 12.5648 57.9644 11.7003 57.5846 13.4424C57.2047 15.1845 55.7475 14.2218 54.9845 16.6057C54.2215 18.9897 55.9669 18.0073 55.8097 20.0375C55.6525 22.0678 57.7516 22.7489 59.4413 22.2807C61.131 21.8124 63.7605 23.0404 65.519 24.2455C67.2775 25.4505 71.4134 23.8394 70.7224 21.5701C70.0315 19.3007 68.9345 18.6229 70.0675 17.3982C71.2005 16.1735 72.399 12.8137 69.9594 11.9066C67.3757 10.9537 67.9946 9.53904 66.0298 8.7564C64.0651 7.97377 61.6353 8.59595 60.7413 10.5804Z" fill="#263238"/>
<path d="M71.4363 29.7992L71.4887 30.0775L71.5542 30.405C71.6 30.6277 71.6524 30.8569 71.7048 31.0828C71.8129 31.538 71.934 31.9965 72.0617 32.4582C72.3204 33.3784 72.6119 34.2985 72.9262 35.2154C73.0801 35.6739 73.2537 36.129 73.4142 36.5875L73.6728 37.2752L73.8038 37.6026C73.8464 37.7336 73.8922 37.8777 73.9348 38.0185C74.0199 38.3279 74.0823 38.6431 74.1215 38.9616C74.1215 39.0468 74.1411 39.1352 74.1444 39.2334C74.1477 39.3316 74.1444 39.4233 74.1444 39.5314C74.1394 39.7805 74.0986 40.0275 74.0232 40.2649C73.915 40.6094 73.7035 40.9124 73.4174 41.1327C73.1525 41.3377 72.8289 41.4524 72.494 41.4602C72.2707 41.4604 72.049 41.4216 71.8391 41.3456C71.6604 41.2783 71.4892 41.1927 71.3282 41.0901C71.1621 40.9896 71.0427 40.8273 70.996 40.6389C70.9494 40.4505 70.9793 40.2512 71.0793 40.0848C71.1701 39.931 71.313 39.8148 71.4821 39.7574L71.9144 39.6198C72.0355 39.5772 72.2615 39.5412 72.2418 39.4659C72.2222 39.3906 72.137 39.4233 72.0028 39.4954C71.9101 39.5559 71.8301 39.6337 71.767 39.7246C71.7343 39.7672 71.7146 39.7508 71.6917 39.7246L71.6 39.5543C71.5247 39.4135 71.4395 39.2269 71.3315 39.0631C71.2824 38.9714 71.2267 38.8863 71.1743 38.7848L71.0073 38.4344L70.6798 37.7369C70.4615 37.2654 70.2563 36.7894 70.0642 36.3092C69.668 35.3497 69.311 34.3706 69.0032 33.362C68.846 32.8577 68.7118 32.3468 68.5873 31.8262C68.5251 31.5675 68.4694 31.3022 68.417 31.0337C68.3909 30.8995 68.3679 30.7652 68.345 30.6244C68.3221 30.4836 68.3057 30.3591 68.2828 30.1594C68.2445 29.7539 68.3632 29.3492 68.6143 29.0286C68.8655 28.708 69.2299 28.4958 69.6328 28.4358C70.0356 28.3758 70.4461 28.4725 70.7797 28.706C71.1134 28.9396 71.3449 29.2921 71.4264 29.6911L71.4363 29.7992Z" fill="#B65B52"/>
<path d="M69.9365 26.2331C71.2464 26.3837 72.8444 31.4987 72.8444 31.4987L69.6614 34.3542C69.6614 34.3542 65.5911 29.5274 66.3868 27.9981C67.2022 26.4034 68.0143 26.0104 69.9365 26.2331Z" fill="#263238"/>
<path opacity="0.2" d="M69.9791 27.4185L71.6655 32.5629L69.8743 34.1609L69.9791 27.4185Z" fill="black"/>
<path d="M63.9111 115.113H67.0253L67.2316 107.899H64.1174L63.9111 115.113Z" fill="#B55B52"/>
<path d="M67.1301 114.753H63.6328C63.5726 114.753 63.5142 114.774 63.4684 114.813C63.4227 114.852 63.3927 114.907 63.3839 114.966L62.9844 117.733C62.9771 117.803 62.9846 117.874 63.0064 117.941C63.0283 118.008 63.064 118.07 63.1113 118.122C63.1586 118.174 63.2163 118.216 63.2808 118.244C63.3453 118.273 63.415 118.287 63.4855 118.287C64.7036 118.267 65.2931 118.195 66.8321 118.195C67.7785 118.195 70.4965 118.293 71.803 118.293C73.1096 118.293 73.1817 117 72.6348 116.882C70.1952 116.358 68.476 115.634 67.6508 114.943C67.505 114.821 67.3206 114.753 67.1301 114.753Z" fill="#263238"/>
<g opacity="0.2">
<path d="M67.2316 107.903L67.1268 111.619H64.0094L64.1174 107.903H67.2316Z" fill="black"/>
</g>
<path d="M71.2201 28.2602C71.2725 30.5066 70.9615 35.1991 69.3667 45.01H56.72C56.9132 40.2912 56.9362 37.2327 55.0434 28.6367C54.9706 28.3075 54.9668 27.9667 55.0321 27.6358C55.0975 27.305 55.2307 26.9913 55.4232 26.7144C55.6158 26.4376 55.8636 26.2036 56.151 26.0272C56.4385 25.8508 56.7593 25.7359 57.0934 25.6896C57.9251 25.5782 58.8813 25.4767 59.8473 25.4276C61.7595 25.2915 63.6789 25.2915 65.591 25.4276C66.842 25.5422 68.1813 25.7551 69.1931 25.9188C69.7495 26.0147 70.2555 26.3004 70.6251 26.7272C70.9946 27.1541 71.2049 27.6958 71.2201 28.2602Z" fill="#263238"/>
<path d="M60.4171 18.9504C60.7806 20.7973 61.1408 24.1899 59.8473 25.4146C59.8473 25.4146 60.3516 27.2909 63.7769 27.2909C67.5525 27.2909 65.5812 25.4146 65.5812 25.4146C63.5215 24.9234 63.5739 23.3941 63.9439 21.9598L60.4171 18.9504Z" fill="#B55B52"/>
<path d="M71.0073 28.116C71.0171 27.5921 70.8398 27.0818 70.5074 26.6767C70.1749 26.2716 69.7089 25.9982 69.1931 25.9057C68.178 25.7321 66.8452 25.5291 65.591 25.4177C63.679 25.2784 61.7593 25.2784 59.8473 25.4177C59.6017 25.4177 59.3627 25.4472 59.1236 25.4636H59.0876C60.5579 26.3215 60.0994 28.9609 59.903 30.4181C64.4875 32.7431 67.9946 34.3477 67.9946 34.3477C70.5783 33.6567 70.9713 30.6604 71.0073 28.116Z" fill="#B55B52"/>
<path opacity="0.2" d="M61.8547 20.1783L63.9406 21.9565C63.8518 22.2912 63.7926 22.6331 63.7638 22.9782C62.9779 22.8635 61.894 21.9958 61.799 21.1738C61.7555 20.8414 61.7743 20.5038 61.8547 20.1783Z" fill="black"/>
<path d="M60.8297 13.4653C59.9292 16.4125 59.4838 17.6536 60.3942 19.6872C61.7564 22.7391 65.5845 23.1976 67.3495 20.568C68.9377 18.2037 70.1428 13.7633 67.7425 11.5595C67.216 11.0706 66.5732 10.7245 65.8753 10.5539C65.1773 10.3834 64.4474 10.3941 63.7547 10.5851C63.0621 10.776 62.4298 11.1409 61.9178 11.645C61.4059 12.1491 61.0313 12.7757 60.8297 13.4653Z" fill="#B55B52"/>
<path d="M69.3667 45.01C69.3667 45.01 71.8227 68.9968 71.6197 78.4932C71.4068 88.3728 67.7883 110.912 67.7883 110.912H63.5771C63.5771 110.912 64.2321 88.9721 63.8719 79.2627C63.4658 68.6857 60.106 45.0231 60.106 45.0231L69.3667 45.01Z" fill="#442D87"/>
<path opacity="0.3" d="M69.3667 45.01C69.3667 45.01 71.8227 68.9968 71.6197 78.4932C71.4068 88.3728 67.7883 110.912 67.7883 110.912H63.5771C63.5771 110.912 64.2321 88.9721 63.8719 79.2627C63.4658 68.6857 60.106 45.0231 60.106 45.0231L69.3667 45.01Z" fill="black"/>
<path d="M63.2104 111.053H68.1518L68.5153 109.475L62.9811 109.281L63.2104 111.053Z" fill="#263238"/>
<path opacity="0.2" d="M63.9112 50.9764C67.0188 57.2277 64.5333 68.6267 63.4363 72.8674C62.8731 66.4982 61.9234 58.7111 61.1834 52.9936C61.6549 49.7746 62.4801 48.0947 63.9112 50.9764Z" fill="black"/>
<path d="M49.3554 115.113H52.4696L53.6124 107.899H50.4982L49.3554 115.113Z" fill="#B55B52"/>
<path d="M52.6235 114.753H49.1196C49.0565 114.754 48.9955 114.776 48.9454 114.814C48.8953 114.852 48.8588 114.906 48.8413 114.966L48.0848 117.733C48.0657 117.799 48.0623 117.867 48.0749 117.934C48.0874 118.001 48.1156 118.064 48.1571 118.118C48.1986 118.172 48.2522 118.215 48.3136 118.245C48.375 118.274 48.4425 118.288 48.5105 118.287C49.7352 118.267 50.3312 118.195 51.8703 118.195C52.8167 118.195 55.5215 118.293 56.8281 118.293C58.1347 118.293 58.3737 117 57.8432 116.882C55.4724 116.358 53.8449 115.634 53.1114 114.943C52.9787 114.82 52.8043 114.753 52.6235 114.753Z" fill="#263238"/>
<g opacity="0.2">
<path d="M53.6124 107.903L53.023 111.619H49.9088L50.4982 107.903H53.6124Z" fill="black"/>
</g>
<path d="M65.8694 45.01C65.8694 45.01 63.2497 68.9968 61.8154 78.4932C60.3222 88.3728 53.7794 110.912 53.7794 110.912H49.5682C49.5682 110.912 53.0819 88.9721 53.9694 79.2627C54.9354 68.6857 56.6054 45.0231 56.6054 45.0231L65.8694 45.01Z" fill="#442D87"/>
<path opacity="0.3" d="M65.8694 45.01C65.8694 45.01 63.2497 68.9968 61.8154 78.4932C60.3222 88.3728 53.7794 110.912 53.7794 110.912H49.5682C49.5682 110.912 53.0819 88.9721 53.9694 79.2627C54.9354 68.6857 56.6054 45.0231 56.6054 45.0231L65.8694 45.01Z" fill="black"/>
<path d="M49.1818 111.053H54.1233L54.6898 109.475L49.1818 109.281V111.053Z" fill="#263238"/>
<path d="M53.7205 115.297C53.9953 115.318 54.2696 115.25 54.5031 115.104C54.5574 115.061 54.6017 115.007 54.6329 114.945C54.664 114.883 54.6812 114.816 54.6832 114.747C54.6871 114.708 54.6796 114.668 54.6616 114.633C54.6435 114.598 54.6158 114.57 54.5817 114.55C54.228 114.341 52.9051 114.976 52.7544 115.048C52.74 115.055 52.7278 115.065 52.7191 115.079C52.7105 115.092 52.7057 115.107 52.7053 115.123C52.7051 115.138 52.7103 115.153 52.72 115.164C52.7296 115.175 52.743 115.183 52.7577 115.185C53.0743 115.253 53.3967 115.291 53.7205 115.297ZM54.359 114.642C54.4052 114.64 54.4513 114.649 54.4933 114.668C54.5078 114.676 54.5196 114.688 54.5267 114.702C54.5337 114.717 54.5358 114.734 54.5326 114.75C54.5322 114.795 54.5218 114.84 54.5019 114.881C54.4821 114.922 54.4534 114.957 54.418 114.986C54.2051 115.156 53.691 115.185 53.0164 115.071C53.4387 114.86 53.892 114.719 54.359 114.652V114.642Z" fill="#442D87"/>
<path d="M52.7708 115.185C52.7804 115.188 52.7907 115.188 52.8003 115.185C53.1933 115.018 54.0152 114.347 54.0054 113.993C54.0054 113.912 53.9562 113.807 53.7532 113.787C53.6 113.772 53.4471 113.818 53.3275 113.915C52.8953 114.242 52.7152 115.077 52.7086 115.113C52.7047 115.125 52.7044 115.138 52.708 115.149C52.7115 115.161 52.7186 115.171 52.7283 115.179C52.7413 115.186 52.7563 115.188 52.7708 115.185ZM53.6746 113.925H53.7205C53.8515 113.925 53.8547 113.99 53.8547 114.01C53.8547 114.219 53.2948 114.75 52.8723 114.992C52.9512 114.629 53.1318 114.295 53.393 114.03C53.471 113.962 53.5711 113.924 53.6746 113.925Z" fill="#442D87"/>
<path d="M65.1653 15.9508C65.0769 16.1866 65.1326 16.4224 65.2865 16.4813C65.4404 16.5402 65.6369 16.3929 65.722 16.1538C65.8072 15.9148 65.758 15.6823 65.6041 15.6233C65.4502 15.5644 65.2406 15.7183 65.1653 15.9508Z" fill="#263238"/>
<path d="M67.8145 16.9431C67.7261 17.1756 67.7785 17.4146 67.9324 17.4703C68.0863 17.526 68.2828 17.3852 68.3712 17.1428C68.4596 16.9005 68.404 16.6713 68.25 16.6123C68.0961 16.5534 67.8997 16.7008 67.8145 16.9431Z" fill="#263238"/>
<path d="M68.178 16.6057L68.8034 16.6548C68.8034 16.6548 68.3483 16.9888 68.178 16.6057Z" fill="#263238"/>
<path d="M66.8354 17.0608C66.8454 17.6753 66.9391 18.2857 67.1137 18.8749C66.962 18.9159 66.8031 18.9233 66.6482 18.8968C66.4932 18.8702 66.3459 18.8102 66.2165 18.721L66.8354 17.0608Z" fill="#A02724"/>
<path d="M64.589 19.1632C64.6946 19.2218 64.804 19.2732 64.9165 19.3171C64.9254 19.3213 64.9352 19.3235 64.945 19.3236C64.9549 19.3236 64.9647 19.3216 64.9737 19.3176C64.9827 19.3135 64.9907 19.3076 64.9973 19.3002C65.0038 19.2927 65.0086 19.284 65.0114 19.2745C65.0151 19.2655 65.0169 19.2559 65.0167 19.2462C65.0165 19.2364 65.0144 19.2268 65.0104 19.218C65.0065 19.2091 65.0007 19.2011 64.9936 19.1945C64.9864 19.1879 64.978 19.1828 64.9689 19.1796C64.673 19.0788 64.4055 18.9088 64.1885 18.6838C63.9715 18.4589 63.8113 18.1854 63.7212 17.8861C63.7166 17.8672 63.7047 17.8508 63.6882 17.8404C63.6718 17.8301 63.6519 17.8265 63.6328 17.8304C63.6232 17.8323 63.6141 17.8362 63.6061 17.8417C63.598 17.8473 63.5912 17.8544 63.586 17.8627C63.5808 17.871 63.5773 17.8802 63.5758 17.8899C63.5743 17.8995 63.5747 17.9094 63.5771 17.9188C63.6542 18.1833 63.7834 18.4297 63.9572 18.6434C64.131 18.8571 64.3458 19.0338 64.589 19.1632Z" fill="#263238"/>
<path d="M59.0581 15.8231C59.0606 16.4196 59.2956 16.9917 59.7131 17.4178C60.2796 17.9712 60.9411 17.5586 61.1048 16.8251C61.2489 16.1702 61.131 15.083 60.4106 14.8047C60.2525 14.7486 60.0831 14.7326 59.9173 14.7581C59.7516 14.7836 59.5947 14.8497 59.4608 14.9505C59.3268 15.0514 59.2199 15.1839 59.1497 15.3362C59.0794 15.4884 59.048 15.6557 59.0581 15.8231Z" fill="#B55B52"/>
<path d="M63.1056 9.9876C64.4908 10.1874 64.5923 12.46 64.0454 13.2229C63.4986 13.9859 62.1167 14.2414 62.4802 15.3613C63.0303 17.0543 61.9693 17.0641 62.1265 18.7702C62.2411 20.0211 62.4212 21.3342 60.3516 21.1247C57.2604 20.7972 56.2059 21.3834 57.3521 17.0445C57.9742 14.6867 58.3639 12.8824 59.4413 12.735C60.5186 12.5877 61.5633 9.76493 63.1056 9.9876Z" fill="#263238"/>
<path d="M62.9779 11.5727C63.6328 12.9972 65.2701 13.7143 66.7961 13.7078C69.203 13.7078 70.7682 16.5502 69.7433 13.8289C68.7183 11.1077 66.3442 9.98778 65.2079 9.84042C64.0716 9.69306 62.2182 9.92556 62.9779 11.5727Z" fill="#263238"/>
<path d="M64.2877 15.011C64.3146 15.0259 64.3455 15.032 64.376 15.0285C64.4065 15.0249 64.4352 15.012 64.458 14.9913C64.959 14.5263 65.8203 14.7032 65.8301 14.7064C65.8683 14.7142 65.908 14.7065 65.9405 14.685C65.9731 14.6635 65.9957 14.63 66.0036 14.5918C66.0115 14.5541 66.0042 14.5148 65.9834 14.4823C65.9626 14.4499 65.9299 14.4269 65.8923 14.4183C65.8497 14.4183 64.8706 14.2087 64.255 14.7719C64.2278 14.8 64.2126 14.8376 64.2126 14.8767C64.2126 14.9158 64.2278 14.9534 64.255 14.9815C64.2636 14.9936 64.2748 15.0037 64.2877 15.011Z" fill="#263238"/>
<path d="M69.072 16.0097C69.0938 16.0227 69.1186 16.0295 69.144 16.0295C69.1694 16.0295 69.1943 16.0227 69.216 16.0097C69.25 15.9898 69.2748 15.9575 69.2852 15.9195C69.2956 15.8816 69.2908 15.8411 69.2717 15.8067C69.1588 15.6011 68.9981 15.4257 68.8032 15.2952C68.6083 15.1647 68.3849 15.0829 68.1518 15.0568C68.1132 15.055 68.0755 15.0684 68.0467 15.0941C68.018 15.1198 68.0004 15.1558 67.9979 15.1943C67.996 15.2332 68.0093 15.2713 68.035 15.3006C68.0606 15.3299 68.0966 15.3482 68.1354 15.3515C68.3197 15.3743 68.4958 15.4409 68.6491 15.5457C68.8023 15.6506 68.9283 15.7906 69.0163 15.9541C69.0287 15.9779 69.0481 15.9973 69.072 16.0097Z" fill="#263238"/>
<path d="M68.3025 115.297C68.5682 115.32 68.8341 115.252 69.0556 115.104C69.1055 115.06 69.1439 115.004 69.1673 114.942C69.1907 114.88 69.1984 114.813 69.1899 114.747C69.1873 114.706 69.1745 114.667 69.1528 114.632C69.131 114.598 69.101 114.57 69.0655 114.55C68.6823 114.341 67.4281 114.976 67.3004 115.048C67.2873 115.055 67.2767 115.066 67.2697 115.08C67.2627 115.093 67.2598 115.108 67.2611 115.123C67.2642 115.138 67.2714 115.152 67.2818 115.163C67.2922 115.174 67.3055 115.182 67.3201 115.185C67.6434 115.253 67.9723 115.29 68.3025 115.297ZM68.8559 114.642C68.9031 114.641 68.95 114.649 68.9934 114.668C69.0081 114.676 69.0204 114.688 69.029 114.702C69.0376 114.717 69.0423 114.733 69.0425 114.75C69.0489 114.793 69.0444 114.837 69.0296 114.878C69.0147 114.92 68.9899 114.956 68.9574 114.986C68.7675 115.156 68.2566 115.185 67.5657 115.071C67.9687 114.859 68.4051 114.717 68.8559 114.652V114.642Z" fill="#442D87"/>
<path d="M67.3364 115.186C67.346 115.189 67.3563 115.189 67.3659 115.186C67.7359 115.019 68.4694 114.347 68.4138 113.994C68.4138 113.912 68.3417 113.807 68.1354 113.787C68.0626 113.779 67.9887 113.785 67.9187 113.807C67.8487 113.829 67.7841 113.866 67.7294 113.915C67.3364 114.242 67.2644 115.077 67.2611 115.113C67.2602 115.126 67.2628 115.139 67.2685 115.151C67.2743 115.162 67.283 115.172 67.2938 115.179C67.3067 115.186 67.3219 115.189 67.3364 115.186ZM68.0765 113.925H68.1125C68.2468 113.925 68.2566 113.99 68.2566 114.01C68.2926 114.219 67.7949 114.75 67.415 114.992C67.4442 114.638 67.5826 114.302 67.8112 114.03C67.8831 113.962 67.9779 113.925 68.0765 113.925Z" fill="#442D87"/>
<path d="M65.519 15.6168L66.1444 15.6627C66.1444 15.6627 65.6893 15.9967 65.519 15.6168Z" fill="#263238"/>
<path d="M56.5301 44.2666L56.2026 45.3996C56.1601 45.488 56.2616 45.5764 56.4089 45.5764H69.4224C69.537 45.5764 69.6319 45.5208 69.6385 45.4487L69.7531 44.3157C69.7531 44.2371 69.6614 44.1716 69.537 44.1716H56.7364C56.6968 44.1685 56.657 44.1756 56.6209 44.1922C56.5848 44.2088 56.5535 44.2344 56.5301 44.2666Z" fill="white"/>
<path d="M58.2493 45.6976H57.9218C57.8563 45.6976 57.8039 45.6648 57.8072 45.619L57.9677 44.1487C57.9677 44.1061 58.0332 44.0701 58.1019 44.0701H58.4458C58.5113 44.0701 58.5637 44.1061 58.5604 44.1487L58.3999 45.619C58.377 45.6648 58.3181 45.6976 58.2493 45.6976Z" fill="#442D87"/>
<g opacity="0.3">
<path d="M58.2493 45.6976H57.9218C57.8563 45.6976 57.8039 45.6648 57.8072 45.619L57.9677 44.1487C57.9677 44.1061 58.0332 44.0701 58.1019 44.0701H58.4458C58.5113 44.0701 58.5637 44.1061 58.5604 44.1487L58.3999 45.619C58.377 45.6648 58.3181 45.6976 58.2493 45.6976Z" fill="black"/>
</g>
<path d="M68.4662 45.6976H68.1125C68.0437 45.6976 67.9913 45.6648 67.9979 45.619L68.1584 44.1487C68.1584 44.1061 68.2206 44.0701 68.2893 44.0701H68.6332C68.7019 44.0701 68.7543 44.1061 68.7478 44.1487L68.5873 45.619C68.5939 45.6648 68.5349 45.6976 68.4662 45.6976Z" fill="#442D87"/>
<path opacity="0.3" d="M68.4662 45.6976H68.1125C68.0437 45.6976 67.9913 45.6648 67.9979 45.619L68.1584 44.1487C68.1584 44.1061 68.2206 44.0701 68.2893 44.0701H68.6332C68.7019 44.0701 68.7543 44.1061 68.7478 44.1487L68.5873 45.619C68.5939 45.6648 68.5349 45.6976 68.4662 45.6976Z" fill="black"/>
<path d="M63.3577 45.6976H63.0303C62.9615 45.6976 62.9091 45.6648 62.9157 45.619L63.0761 44.1487C63.0761 44.1061 63.1416 44.0701 63.2104 44.0701H63.5378C63.6066 44.0701 63.659 44.1061 63.6557 44.1487L63.4953 45.619C63.4854 45.6648 63.4265 45.6976 63.3577 45.6976Z" fill="#442D87"/>
<path opacity="0.3" d="M63.3577 45.6976H63.0303C62.9615 45.6976 62.9091 45.6648 62.9157 45.619L63.0761 44.1487C63.0761 44.1061 63.1416 44.0701 63.2104 44.0701H63.5378C63.6066 44.0701 63.659 44.1061 63.6557 44.1487L63.4953 45.619C63.4854 45.6648 63.4265 45.6976 63.3577 45.6976Z" fill="black"/>
<path d="M67.6508 31.1484C67.5034 31.2695 67.3233 31.2892 67.2382 31.1942C67.153 31.0993 67.212 30.9192 67.3593 30.798C67.5067 30.6768 67.6868 30.6539 67.7719 30.7522C67.8571 30.8504 67.785 31.024 67.6508 31.1484Z" fill="#263238"/>
<path d="M66.9893 31.2236C66.7142 31.3147 66.4275 31.3665 66.1379 31.3775C66.1396 31.5358 66.1777 31.6915 66.2492 31.8327L66.9893 31.2236Z" fill="#FF8B7B"/>
<path d="M70.932 35.0714C69.5337 36.0734 68.7707 36.7382 67.4739 36.5482C65.5092 36.2601 64.6086 33.9285 65.6369 32.4779C66.5603 31.168 68.6921 29.7599 70.4211 30.7816C72.1501 31.8033 72.3302 34.0726 70.932 35.0714Z" fill="#FF8B7B"/>
<path d="M63.528 30.9715L64.5104 30.0677L65.4928 31.3383C65.4928 31.3383 64.7429 32.2487 64.0552 31.931L63.528 30.9715Z" fill="#FF8B7B"/>
<path d="M65.4175 29.7566L65.9316 30.7914L65.4862 31.3382L64.4842 30.0644L65.4175 29.7566Z" fill="#FF8B7B"/>
<path d="M66.4457 37.2033L66.2328 37.2524L66.0626 37.2851L65.7351 37.3244C65.517 37.3392 65.2982 37.3392 65.0802 37.3244C64.6091 37.2996 64.1454 37.1967 63.7081 37.0199C63.2262 36.8269 62.7916 36.532 62.4343 36.1554C62.0965 35.7899 61.8339 35.3615 61.6615 34.8946C61.4788 34.4159 61.406 33.9022 61.4486 33.3916C61.4989 32.8808 61.6818 32.392 61.9791 31.9737C62.2316 31.6218 62.5482 31.3207 62.9124 31.0862C63.077 30.9815 63.2488 30.8885 63.4265 30.8079C63.6103 30.726 63.7996 30.6571 63.993 30.6016C64.1416 30.5561 64.3005 30.557 64.4486 30.6043C64.5966 30.6515 64.7267 30.7429 64.8214 30.8661C64.9161 30.9893 64.9709 31.1385 64.9786 31.2937C64.9862 31.4489 64.9462 31.6027 64.864 31.7346L64.6905 32.0162C64.6446 32.0883 64.5399 32.1996 64.4711 32.2913C64.3948 32.3848 64.3248 32.4832 64.2615 32.586C64.1544 32.7491 64.0768 32.9298 64.0323 33.1198C64.0085 33.23 64.0212 33.3449 64.0683 33.4472C64.114 33.5481 64.1723 33.6427 64.2419 33.7289C64.3079 33.8331 64.4006 33.9179 64.5104 33.9745C64.6001 34.0167 64.6947 34.0475 64.792 34.0661C64.9342 34.0958 65.079 34.1111 65.2243 34.112C65.3094 34.112 65.3978 34.112 65.4895 34.112H65.6205H65.6794C65.8838 34.0582 66.0968 34.0456 66.3061 34.075C66.5154 34.1045 66.7167 34.1753 66.8983 34.2833C67.0799 34.3914 67.2382 34.5345 67.3639 34.7044C67.4896 34.8743 67.5802 35.0675 67.6305 35.2728C67.6807 35.478 67.6895 35.6912 67.6565 35.9C67.6234 36.1087 67.5491 36.3088 67.4379 36.4885C67.3267 36.6682 67.1808 36.8239 67.0088 36.9467C66.8368 37.0694 66.642 37.1566 66.4359 37.2033H66.4457Z" fill="#FF8B7B"/>
<path d="M54.0643 35.7951C55.3349 34.0497 57.9939 33.5421 60.9705 34.1905C62.6766 34.5638 69.1178 32.1766 72.0421 32.1406C74.9663 32.1045 75.6966 35.2286 74.9369 36.9019C72.5693 42.1151 65.9775 41.5879 64.3008 42.8486C62.6242 44.1094 58.1019 45.8482 55.5314 43.7819C52.9608 41.7156 51.8441 38.8372 54.0643 35.7951Z" fill="#442D87"/>
<path d="M73.7252 35.9229L72.3892 38.107L72.8542 39.3285C72.8839 39.4087 72.9349 39.4794 73.0017 39.5328C73.0685 39.5863 73.1486 39.6206 73.2333 39.6321C73.3181 39.6435 73.4045 39.6316 73.483 39.5978C73.5616 39.5639 73.6295 39.5093 73.6794 39.4398L74.9696 37.6682C75.0241 37.5946 75.0557 37.5066 75.0603 37.4151C75.065 37.3237 75.0426 37.2329 74.9958 37.1541L73.7252 35.9229Z" fill="#B55B52"/>
<path d="M57.5289 30.7817L57.3422 31.2991C57.2767 31.4825 57.2112 31.6658 57.149 31.8525C57.0246 32.2258 56.9165 32.6057 56.8019 32.9855C56.5747 33.7396 56.3857 34.5047 56.2354 35.2778C56.0815 36.0473 55.9603 36.8201 55.885 37.5897L55.8457 38.1693V38.3133V38.3428C55.8489 38.3189 55.8489 38.2947 55.8457 38.2708C55.8359 38.1912 55.8079 38.115 55.7639 38.0481C55.7016 37.9662 55.718 38.0154 55.79 38.071C55.8919 38.1507 56.0017 38.2198 56.1175 38.2773C56.7829 38.5952 57.4799 38.8421 58.1969 39.0141C58.9665 39.2172 59.7655 39.3809 60.571 39.5381C62.1854 39.8393 63.8457 40.0915 65.483 40.3142L65.4273 41.8893C63.7094 41.9678 61.9883 41.9449 60.273 41.8205C59.4118 41.7583 58.5473 41.6633 57.6533 41.5159C57.2145 41.4439 56.7692 41.3588 56.3205 41.2409C55.8401 41.1239 55.3702 40.9673 54.9157 40.7726C54.6452 40.6569 54.3864 40.5155 54.1429 40.3502C53.7998 40.1227 53.5104 39.8233 53.2948 39.4726C53.1458 39.2234 53.0468 38.9475 53.0033 38.6605C53.0033 38.5851 53.0033 38.5066 52.9804 38.428V38.1332V37.4456C52.9952 36.5411 53.0696 35.6386 53.2031 34.744C53.3419 33.862 53.5255 32.9876 53.7532 32.1243C53.8678 31.692 54.0021 31.2663 54.1429 30.8406C54.2837 30.4149 54.4311 30.0121 54.6341 29.5308L57.5289 30.7817Z" fill="#B65B52"/>
<path d="M55.957 26.2397C54.6898 26.6229 53.1671 30.9879 53.1671 30.9879L56.255 33.1951C56.4811 33.357 56.7421 33.4634 57.017 33.5057C57.2918 33.5481 57.5728 33.5251 57.8371 33.4387C58.1014 33.3523 58.3416 33.2049 58.5384 33.0084C58.7352 32.8119 58.8829 32.5718 58.9697 32.3076C59.3234 31.2303 59.5952 30.0154 59.343 29.2229C58.7896 27.507 57.4012 25.7976 55.957 26.2397Z" fill="#263238"/>
<path d="M65.1653 40.2584L68.5153 39.9604L66.7077 42.5703C66.7077 42.5703 64.72 42.3542 64.2353 41.1524L65.1653 40.2584Z" fill="#B55B52"/>
<path d="M70.7224 41.3849L68.5317 42.9764L66.7077 42.554L68.5251 39.9604L70.7224 41.3849Z" fill="#B55B52"/>
<path d="M104.906 11.6578C105.663 10.6426 103.845 8.21611 101.848 9.64058C99.7881 11.1076 96.4677 10.5968 94.4963 13.0004C92.525 15.4039 95.6195 17.4015 95.3838 21.6127C95.2004 25.0936 90.0592 26.0924 90.7534 30.7817C91.6114 36.581 98.2556 44.7938 104.288 42.0661C110.319 39.3383 117.668 31.3645 114.717 26.1742C111.767 20.9839 107.464 21.7174 109.15 17.6209C110.192 15.0634 109.134 10.0008 104.906 11.6578Z" fill="#263238"/>
<path d="M107.608 103.642L105.188 105.725L101.036 99.7784L103.456 97.6957L107.608 103.642Z" fill="#FF8B7B"/>
<path d="M104.363 105.155L107.408 102.987C107.463 102.949 107.53 102.93 107.597 102.934C107.664 102.937 107.728 102.963 107.778 103.007L110.087 104.998C110.142 105.046 110.186 105.106 110.215 105.173C110.243 105.241 110.256 105.314 110.252 105.387C110.248 105.46 110.227 105.531 110.191 105.595C110.155 105.658 110.105 105.713 110.044 105.754C108.973 106.527 108.407 106.806 107.061 107.755C106.236 108.341 104.157 109.939 103.017 110.748C101.877 111.557 100.902 110.555 101.294 110.126C103.05 108.187 103.813 106.697 104.039 105.63C104.085 105.437 104.2 105.268 104.363 105.155Z" fill="#263238"/>
<path opacity="0.2" d="M101.036 99.7784L103.177 102.843L105.768 101.006L103.459 97.6957L101.036 99.7784Z" fill="black"/>
<path d="M93.8938 46.4344C93.8938 46.4344 89.4206 63.6853 87.1709 75.8178C85.383 85.4682 101.841 101.992 101.841 101.992L105.319 98.9629C105.319 98.9629 97.0178 86.4113 93.4975 77.7531C98.7992 64.6971 106.704 52.5777 104.196 46.7914L93.8938 46.4344Z" fill="#263238"/>
<path d="M105.073 97.7874L100.243 101.439L101.71 102.935L106.275 99.5884L105.073 97.7874Z" fill="#442D87"/>
<path d="M103.354 106.629C103.157 106.791 102.915 106.888 102.66 106.907C102.591 106.904 102.523 106.886 102.461 106.853C102.4 106.82 102.347 106.773 102.306 106.717C102.281 106.687 102.265 106.65 102.259 106.611C102.252 106.572 102.256 106.532 102.27 106.495C102.421 106.105 103.78 105.84 104.052 105.804C104.066 105.8 104.082 105.802 104.095 105.809C104.109 105.815 104.12 105.826 104.127 105.84C104.136 105.853 104.141 105.868 104.141 105.884C104.141 105.9 104.136 105.915 104.127 105.928C103.893 106.187 103.635 106.422 103.354 106.629ZM102.496 106.426C102.453 106.453 102.418 106.491 102.395 106.537C102.388 106.548 102.384 106.561 102.384 106.575C102.384 106.588 102.388 106.601 102.395 106.612C102.423 106.652 102.46 106.684 102.502 106.707C102.545 106.73 102.592 106.744 102.64 106.747C102.909 106.747 103.344 106.475 103.822 105.984C103.36 106.062 102.913 106.211 102.496 106.426Z" fill="#442D87"/>
<path d="M104.104 105.938H104.078C103.639 106.039 102.565 105.964 102.408 105.643C102.372 105.571 102.362 105.46 102.506 105.316C103.063 104.811 104.071 105.755 104.114 105.794C104.123 105.804 104.13 105.816 104.134 105.829C104.137 105.842 104.137 105.856 104.134 105.869C104.136 105.882 104.134 105.896 104.129 105.908C104.124 105.92 104.115 105.931 104.104 105.938ZM102.64 105.424L102.601 105.457C102.542 105.509 102.522 105.555 102.539 105.588C102.631 105.774 103.41 105.882 103.891 105.83C103.629 105.614 103.007 105.165 102.64 105.424Z" fill="#442D87"/>
<path d="M95.0988 29.5667C94.6938 29.5573 94.3 29.7011 93.9965 29.9695C93.6929 30.2379 93.5018 30.6109 93.4615 31.0141C93.4058 31.6036 93.3371 32.1963 93.2585 32.7759C93.1111 33.863 92.931 34.947 92.7149 36.0112C92.4988 37.0755 92.2204 38.1266 91.8995 39.145C91.7391 39.6559 91.5524 40.1504 91.3559 40.6383C91.2577 40.8806 91.1485 41.1197 91.0285 41.3554C90.9793 41.4733 90.9171 41.5847 90.8615 41.7025V41.7255L90.7174 41.7058C90.4783 41.66 89.9282 41.5093 89.4501 41.3784C89.2896 41.3371 89.1197 41.3536 88.9701 41.4248C88.8205 41.496 88.7006 41.6175 88.6314 41.768L88.209 42.6948C88.1392 42.8396 88.1216 43.0042 88.1592 43.1605C88.1968 43.3169 88.2873 43.4554 88.4153 43.5527C88.8915 43.9419 89.4309 44.2465 90.01 44.4532C90.4441 44.5816 90.8993 44.6228 91.3494 44.5744C92.0073 44.4972 92.6091 44.1658 93.026 43.651C93.1228 43.53 93.2104 43.4019 93.288 43.2678L93.4026 43.0648C93.4779 42.924 93.5598 42.7897 93.6285 42.6489C93.7726 42.3738 93.9134 42.0955 94.0411 41.8139C94.3031 41.2539 94.5421 40.6874 94.7517 40.1176C95.1726 38.9879 95.5183 37.8316 95.7865 36.6563C96.0583 35.4938 96.2843 34.328 96.4414 33.159C96.5233 32.5401 96.5953 31.9343 96.6543 31.3187C96.674 31.1001 96.6488 30.8797 96.5802 30.6713C96.5116 30.4628 96.401 30.2705 96.2553 30.1064C96.1096 29.9423 95.9318 29.8097 95.7329 29.7169C95.534 29.6241 95.3182 29.573 95.0988 29.5667Z" fill="#FF8B7B"/>
<path d="M102.824 114.331L99.667 114.229L99.6375 106.933L102.798 107.032L102.824 114.331Z" fill="#FF8B7B"/>
<path d="M99.644 112.992L103.21 112.926C103.271 112.924 103.33 112.945 103.376 112.984C103.422 113.023 103.452 113.079 103.459 113.139L103.845 115.919C103.851 115.991 103.842 116.062 103.819 116.13C103.796 116.198 103.759 116.261 103.711 116.314C103.663 116.367 103.604 116.41 103.539 116.439C103.474 116.469 103.403 116.484 103.331 116.486C102.09 116.486 101.491 116.427 99.9257 116.456C98.9596 116.472 96.8278 116.649 95.4951 116.676C94.1623 116.702 94.1033 115.398 94.66 115.271C97.1488 114.698 98.2621 113.905 99.1136 113.195C99.2625 113.069 99.4494 112.998 99.644 112.992Z" fill="#263238"/>
<path opacity="0.2" d="M102.798 107.035L99.6375 106.937L99.6539 110.696L102.814 110.798L102.798 107.035Z" fill="black"/>
<path d="M96.687 46.5884C96.687 46.5884 97.7513 67.1859 97.4042 79.4723C98.6158 89.6663 98.9203 108.944 98.9203 108.944L103.276 108.718C103.276 108.718 105.44 86.3327 104.363 79.0139C106.747 65.4143 110.414 52.8397 106.704 46.9715L96.687 46.5884Z" fill="#263238"/>
<path d="M98.3833 109.851L103.865 109.776L104.196 107.615L98.0427 107.88L98.3833 109.851Z" fill="#442D87"/>
<path d="M97.9936 113.437L97.951 113.407C97.8988 113.358 97.8602 113.295 97.839 113.227C97.8177 113.158 97.8146 113.085 97.8299 113.014C97.8357 112.969 97.8529 112.926 97.8798 112.888C97.9067 112.851 97.9424 112.821 97.9838 112.801C98.3538 112.631 99.2936 113.227 99.4181 113.296C99.4309 113.303 99.441 113.315 99.4469 113.328C99.4528 113.342 99.4542 113.357 99.4508 113.371C99.448 113.386 99.4413 113.399 99.4315 113.41C99.4217 113.421 99.4092 113.429 99.3951 113.433C98.9989 113.532 98.3112 113.659 97.9936 113.437ZM99.1823 113.329C98.7926 113.103 98.2392 112.847 98.0427 112.936C98.025 112.945 98.0099 112.958 97.999 112.975C97.9881 112.992 97.9817 113.011 97.9805 113.031C97.9683 113.078 97.9688 113.127 97.982 113.174C97.9953 113.22 98.0207 113.262 98.0558 113.296C98.213 113.437 98.6289 113.45 99.1823 113.329Z" fill="#442D87"/>
<path d="M99.2707 113.381C98.9596 113.165 98.4717 112.569 98.5405 112.238C98.5546 112.18 98.5872 112.129 98.6332 112.091C98.6793 112.053 98.7364 112.031 98.7959 112.029C98.8539 112.018 98.9135 112.021 98.9703 112.037C99.027 112.053 99.0794 112.081 99.1234 112.12C99.4508 112.418 99.4508 113.319 99.4508 113.358C99.4511 113.371 99.4478 113.384 99.4415 113.396C99.4352 113.407 99.426 113.417 99.4148 113.424C99.4033 113.43 99.3903 113.433 99.3772 113.433C99.364 113.433 99.351 113.43 99.3395 113.424C99.3152 113.412 99.2921 113.398 99.2707 113.381ZM98.9891 112.215C98.9376 112.18 98.8741 112.166 98.8123 112.176C98.7173 112.176 98.6977 112.232 98.6878 112.265C98.642 112.481 98.9989 112.985 99.3002 113.217C99.2838 112.916 99.2183 112.412 99.012 112.235L98.9891 112.215Z" fill="#442D87"/>
<path d="M107.683 46.9648C108.135 41.0443 108.82 34.4917 109.586 30.6375C109.657 30.273 109.654 29.8979 109.578 29.5344C109.502 29.171 109.354 28.8265 109.142 28.5212C108.931 28.216 108.66 27.9562 108.347 27.7573C108.033 27.5583 107.683 27.4242 107.317 27.3628C106.825 27.281 106.298 27.2024 105.758 27.1369C105.473 27.1041 105.191 27.0714 104.903 27.0452C102.973 26.8291 101.029 26.7503 99.0873 26.8094C98.7599 26.8258 98.4128 26.8487 98.0755 26.8782C97.6792 26.9076 97.283 26.9469 96.8999 26.9895C95.7313 27.1129 94.6414 27.6369 93.8153 28.4726C92.9892 29.3083 92.4777 30.4041 92.3678 31.574C92.1254 34.3149 92.1254 38.8699 92.8328 46.4245C92.8557 48.3041 90.4357 55.1121 89.2601 63.1252C90.9269 63.5803 96.0223 63.6786 98.9629 63.4854C101.904 63.2922 106.802 66.2263 107.683 65.2799C108.564 64.3335 108.892 51.1334 107.683 46.9648Z" fill="#442D87"/>
<path opacity="0.3" d="M108.862 29.9367C108.629 29.8943 108.391 29.8943 108.158 29.9367L108.017 29.9629C107.526 30.0616 107.092 30.344 106.802 30.7523C106.512 31.1607 106.39 31.6643 106.459 32.1602C106.521 32.7005 106.563 33.195 106.599 33.6731C106.691 34.7963 106.737 35.7885 106.727 36.689C106.727 37.6714 106.701 38.6898 106.593 39.705C106.593 39.8523 106.563 40.0029 106.544 40.1569C106.524 40.3108 106.511 40.3861 106.501 40.504C106.475 40.7266 106.432 40.9559 106.4 41.1589C106.383 41.2506 106.367 41.3423 106.347 41.434C106.324 41.5879 106.295 41.7385 106.269 41.8597L106.206 42.1151L106.108 42.3967C105.957 42.7891 105.77 43.1671 105.551 43.5265C105.346 43.8505 105.264 44.2375 105.321 44.6169C105.378 44.9962 105.569 45.3426 105.859 45.5928L106.147 45.8318C106.367 46.0172 106.634 46.1387 106.918 46.1832C107.202 46.2276 107.493 46.1933 107.759 46.084C108.207 40.4057 108.862 34.2952 109.592 30.6244C109.619 30.4949 109.634 30.3635 109.638 30.2314C109.403 30.0808 109.138 29.9804 108.862 29.9367Z" fill="black"/>
<path opacity="0.2" d="M91.6899 54.5096L90.8091 55.2399C90.6617 55.8424 90.5176 56.4712 90.3735 57.1163C91.6081 58.1347 95.8782 59.3659 96.6772 58.6684C95.0137 56.6873 91.6899 54.5096 91.6899 54.5096Z" fill="black"/>
<path d="M99.0873 26.8029C99.0873 26.8029 97.0702 27.3857 97.9347 30.5261C98.042 30.9013 98.2371 31.2456 98.5037 31.5305C98.7704 31.8154 99.1011 32.0327 99.4684 32.1645C99.8357 32.2964 100.229 32.3389 100.616 32.2886C101.003 32.2383 101.373 32.0966 101.694 31.8753C105.037 29.6092 104.906 27.0419 104.906 27.0419L99.0873 26.8029Z" fill="white"/>
<path d="M104.281 23.0273C104.091 24.5926 104.14 26.2299 104.906 27.042C104.906 27.042 104.481 28.8234 101.917 30.5361C100.263 31.6396 97.9674 30.3985 98.1115 28.4174C98.1223 28.0865 98.2185 27.764 98.3906 27.4811C98.5627 27.1983 98.8049 26.9647 99.0939 26.803C101.216 26.3904 101.353 25.0117 100.947 22.6868L102.653 22.117C102.81 21.993 103 21.9183 103.199 21.9024C103.398 21.8865 103.597 21.93 103.772 22.0275C103.946 22.125 104.088 22.2721 104.178 22.4501C104.269 22.6281 104.305 22.829 104.281 23.0273Z" fill="#FF8B7B"/>
<path opacity="0.2" d="M102.647 22.117C102.794 21.9998 102.971 21.9259 103.157 21.9038C103.344 21.8817 103.533 21.9123 103.703 21.9919C103.874 22.0716 104.018 22.1973 104.121 22.3548C104.224 22.5123 104.28 22.6953 104.284 22.8833C103.465 23.9624 102.333 24.7628 101.042 25.1755C101.164 24.3436 101.129 23.4963 100.941 22.677L102.647 22.117Z" fill="black"/>
<path d="M106.046 16.2193C106.154 19.3761 106.265 20.7088 104.864 22.5034C102.752 25.1984 98.9236 24.7203 97.8921 21.6749C96.9654 18.9373 96.9457 14.2316 99.8569 12.627C102.768 11.0225 105.941 13.0593 106.046 16.2193Z" fill="#FF8B7B"/>
<path d="M103.243 12.5157C101.245 13.7764 104.327 17.6307 106.089 18.6753C107.85 19.7199 108.178 14.952 107.398 13.9369C106.619 12.9218 105.162 11.3074 103.243 12.5157Z" fill="#263238"/>
<path d="M104.373 12.2929C104.906 14.0448 99.3395 15.5315 96.9785 15.3023C97.08 12.4239 101.137 9.6208 104.373 12.2929Z" fill="#263238"/>
<path d="M107.035 19.3596C106.786 19.9195 106.331 20.3617 105.764 20.5942C105.014 20.8955 104.576 20.2471 104.73 19.4972C104.867 18.8193 105.424 17.8599 106.203 17.8599C106.983 17.8599 107.333 18.6654 107.035 19.3596Z" fill="#FF8B7B"/>
<path d="M100.885 17.683C100.911 17.9384 100.797 18.1611 100.633 18.1807C100.469 18.2004 100.306 18.0105 100.306 17.755C100.306 17.4996 100.394 17.2769 100.558 17.2573C100.721 17.2377 100.859 17.4407 100.885 17.683Z" fill="#263238"/>
<path d="M98.0526 18.0302C98.0755 18.2856 97.9641 18.5083 97.7971 18.528C97.6301 18.5476 97.4697 18.3577 97.4697 18.1023C97.4697 17.8468 97.5581 17.6242 97.7218 17.6045C97.8856 17.5849 98.0264 17.7781 98.0526 18.0302Z" fill="#263238"/>
<path d="M97.784 17.611L97.1651 17.5029C97.1651 17.5029 97.5188 17.9483 97.784 17.611Z" fill="#263238"/>
<path d="M99.2838 18.4624C99.0407 19.0483 98.7202 19.5989 98.3309 20.0997C98.4569 20.1947 98.6027 20.2602 98.7574 20.2914C98.9121 20.3226 99.0719 20.3186 99.2249 20.2798L99.2838 18.4624Z" fill="#FF5652"/>
<path d="M100.531 21.0297C100.517 21.0263 100.504 21.0184 100.495 21.0072C100.486 20.996 100.48 20.9821 100.479 20.9675C100.477 20.9476 100.483 20.9278 100.495 20.912C100.507 20.8962 100.525 20.8856 100.545 20.8824C100.861 20.8499 101.165 20.7442 101.433 20.5737C101.702 20.4032 101.927 20.1725 102.09 19.9C102.095 19.8911 102.101 19.8833 102.108 19.8769C102.116 19.8704 102.125 19.8656 102.134 19.8625C102.144 19.8595 102.154 19.8583 102.163 19.8591C102.173 19.8599 102.183 19.8627 102.192 19.8672C102.209 19.8769 102.222 19.8929 102.227 19.9119C102.233 19.9309 102.231 19.9513 102.221 19.9687C102.048 20.2644 101.807 20.515 101.519 20.6999C101.23 20.8849 100.902 20.999 100.561 21.033L100.531 21.0297Z" fill="#263238"/>
<path d="M102.365 16.3536C102.341 16.3457 102.319 16.3309 102.303 16.311C102.182 16.1729 102.03 16.0655 101.859 15.9977C101.688 15.93 101.504 15.9038 101.321 15.9214C101.302 15.9251 101.282 15.925 101.263 15.9211C101.244 15.9172 101.226 15.9095 101.211 15.8985C101.195 15.8875 101.181 15.8734 101.171 15.8571C101.16 15.8408 101.154 15.8225 101.15 15.8035C101.144 15.7641 101.154 15.724 101.176 15.6912C101.199 15.6584 101.233 15.6353 101.272 15.6266C101.504 15.596 101.741 15.6236 101.961 15.7071C102.18 15.7905 102.375 15.9272 102.529 16.1047C102.556 16.1334 102.572 16.1715 102.572 16.2112C102.572 16.2508 102.556 16.2889 102.529 16.3176C102.508 16.3384 102.481 16.3529 102.452 16.3592C102.423 16.3656 102.393 16.3637 102.365 16.3536Z" fill="#263238"/>
<path d="M96.6772 16.4551L96.6576 16.4322C96.6372 16.398 96.6306 16.3573 96.6392 16.3184C96.6477 16.2795 96.6706 16.2453 96.7034 16.2226C96.8941 16.084 97.1158 15.994 97.3492 15.9603C97.5825 15.9266 97.8206 15.9504 98.0427 16.0294C98.0608 16.0376 98.0771 16.0492 98.0907 16.0636C98.1043 16.0781 98.1149 16.0951 98.1219 16.1137C98.1289 16.1322 98.1321 16.152 98.1315 16.1718C98.1308 16.1916 98.1263 16.2111 98.118 16.2292C98.1105 16.247 98.0996 16.2632 98.0858 16.2769C98.072 16.2905 98.0557 16.3012 98.0377 16.3085C98.0198 16.3158 98.0006 16.3195 97.9812 16.3194C97.9618 16.3193 97.9427 16.3153 97.9248 16.3078C97.7476 16.248 97.5586 16.2319 97.3738 16.261C97.1891 16.2901 97.0141 16.3634 96.8639 16.4748C96.8353 16.4937 96.8011 16.5021 96.767 16.4985C96.7329 16.4949 96.7012 16.4796 96.6772 16.4551Z" fill="#263238"/>
<path d="M100.62 17.277L100.001 17.1689C100.001 17.1689 100.355 17.611 100.62 17.277Z" fill="#263238"/>
<path d="M92.263 37.845C92.2433 39.7181 88.2712 40.6776 87.4329 47.7377C86.5946 54.7978 95.6195 61.1964 101.514 58.8878C107.408 56.5792 102.496 44.1519 102.496 44.1519C102.496 44.1519 92.2892 35.0124 92.263 37.845Z" fill="#442D87"/>
<path d="M92.3023 32.4582C92.2433 34.8029 91.3494 35.1467 91.1136 37.1344C90.8778 39.1221 93.4058 40.9199 95.0726 40.2715C96.7394 39.6232 95.351 36.1291 95.351 36.1291C95.351 36.1291 92.3219 31.6625 92.3023 32.4582Z" fill="#442D87"/>
<path d="M91.8504 41.0934L90.3801 40.3632L89.6433 43.1335C90.3238 43.0381 90.9734 42.7883 91.5426 42.4033L91.8504 41.0934Z" fill="#FF8B7B"/>
<path d="M88.9884 41.4241L88.4153 43.163L89.6531 43.1335L90.3899 40.3632L88.9884 41.4241Z" fill="#FF8B7B"/>
<path d="M107.097 28.3683C107.295 28.2824 107.509 28.2385 107.725 28.2391C107.941 28.2398 108.155 28.285 108.352 28.372C108.55 28.459 108.727 28.5859 108.874 28.7447C109.02 28.9035 109.132 29.0909 109.203 29.295C109.38 29.8222 109.55 30.3527 109.704 30.8865C110.005 31.954 110.26 33.0379 110.46 34.1382C110.666 35.2462 110.8 36.3662 110.863 37.4914C110.886 37.773 110.883 38.0612 110.896 38.3461C110.909 38.631 110.896 38.9159 110.896 39.204C110.896 39.4922 110.896 39.764 110.87 40.0816L110.824 40.5892L110.739 41.0771C110.469 42.2999 109.996 43.4688 109.34 44.5352C108.729 45.5235 108.035 46.459 107.267 47.3317C106.511 48.1929 105.715 48.9952 104.893 49.7648C104.058 50.5265 103.183 51.2446 102.274 51.9162L101.262 50.7078C101.992 49.9678 102.742 49.1786 103.426 48.3698C104.111 47.5609 104.789 46.7488 105.391 45.9007C105.991 45.0753 106.529 44.2062 106.999 43.3006C107.218 42.876 107.412 42.4386 107.578 41.9908C107.725 41.5698 107.834 41.1371 107.906 40.6973L107.945 40.3895V40.0915C107.945 39.8721 107.945 39.6003 107.926 39.3579C107.906 39.1156 107.926 38.9028 107.89 38.6768C107.854 38.4509 107.854 38.1332 107.814 37.8614C107.706 36.8594 107.513 35.8639 107.313 34.8651C107.113 33.8664 106.845 32.8807 106.547 31.918C106.406 31.4268 106.252 30.9356 106.092 30.4542V30.428C105.959 30.0524 105.974 29.6403 106.134 29.2754C106.294 28.9105 106.587 28.6201 106.953 28.4632L107.097 28.3683Z" fill="#FF8B7B"/>
<path d="M110.853 34.0857C110.657 33.0116 110.401 31.9048 110.087 30.7914C109.936 30.2773 109.651 29.6289 109.432 29.0493C109.312 28.6731 109.067 28.349 108.737 28.1306C108.408 27.9122 108.015 27.8123 107.621 27.8475C107.385 27.86 107.153 27.9143 106.937 28.0079L106.806 28.0669C106.347 28.2649 105.98 28.6305 105.781 29.0893C105.582 29.5481 105.566 30.0654 105.735 30.536C105.908 31.0534 106.062 31.5184 106.19 31.9866C106.518 33.0705 106.763 34.0267 106.946 34.9142C107.136 35.8769 107.333 36.8789 107.441 37.8875C107.464 38.0382 107.474 38.1888 107.484 38.3394C107.493 38.4901 107.503 38.5719 107.516 38.6898C107.539 38.9125 107.546 39.1417 107.549 39.3447V39.6198C107.549 39.7737 107.549 39.9309 107.549 40.0553V40.3173L107.513 40.612C107.444 41.0272 107.34 41.4358 107.202 41.8335C107.044 42.2721 106.857 42.6998 106.642 43.1139L109.661 44.725C110.343 43.6285 110.836 42.4252 111.118 41.1655L111.207 40.6448L111.253 40.1274C111.253 39.9113 111.253 39.7213 111.272 39.5281V39.2432C111.272 38.9158 111.272 38.6145 111.272 38.3525C111.272 38.2576 111.272 38.1626 111.272 38.0644C111.272 37.8712 111.272 37.6747 111.246 37.4946C111.187 36.3511 111.056 35.2125 110.853 34.0857Z" fill="#442D87"/>
<path d="M97.3518 52.3779L99.0349 54.1658L101.088 53.1442L99.3493 50.3967L97.3518 52.3779Z" fill="#FF8B7B"/>
<path d="M102.169 50.0463L99.3526 50.3966L101.091 53.1441C101.091 53.1441 102.624 52.2304 103.04 50.9795L102.169 50.0463Z" fill="#FF8B7B"/>
</svg>
