<svg width="115" height="21" viewBox="0 0 115 21" fill="none" xmlns="http://www.w3.org/2000/svg">
<path d="M12.066 0.855713C11.6213 0.855713 11.1766 1.08588 10.9464 1.55013L8.3989 6.71531L2.69926 7.54236C1.67714 7.69061 1.26752 8.95069 2.00874 9.67241L6.13231 13.6906L5.15701 19.3669C4.98146 20.3851 6.05428 21.1614 6.96716 20.6816L12.066 18.0054V0.855713Z" fill="#FFC403"/>
<path d="M12.001 0.855713C12.4457 0.855713 12.8905 1.08588 13.1206 1.55013L15.6681 6.71531L21.3678 7.54236C22.3899 7.69061 22.7995 8.95069 22.0583 9.67241L17.9347 13.6906L18.91 19.3669C19.0856 20.3851 18.0127 21.1614 17.0999 20.6816L12.001 18.0054V0.855713Z" fill="#FFC403"/>
<path d="M34.9863 0.855713C34.5416 0.855713 34.0968 1.08588 33.8667 1.55013L31.3192 6.71531L25.6195 7.54236C24.5974 7.69061 24.1878 8.95069 24.929 9.67241L29.0526 13.6906L28.0773 19.3669C27.9017 20.3851 28.9746 21.1614 29.8875 20.6816L34.9863 18.0054V0.855713Z" fill="#FFC403"/>
<path d="M34.9213 0.855713C35.366 0.855713 35.8108 1.08588 36.0409 1.55013L38.5884 6.71531L44.288 7.54236C45.3102 7.69061 45.7198 8.95069 44.9786 9.67241L40.855 13.6906L41.8303 19.3669C42.0058 20.3851 40.933 21.1614 40.0201 20.6816L34.9213 18.0054V0.855713Z" fill="#FFC403"/>
<path d="M57.9066 0.855713C57.4619 0.855713 57.0171 1.08588 56.787 1.55013L54.2395 6.71531L48.5398 7.54236C47.5177 7.69061 47.1081 8.95069 47.8493 9.67241L51.9729 13.6906L50.9976 19.3669C50.822 20.3851 51.8949 21.1614 52.8077 20.6816L57.9066 18.0054V0.855713Z" fill="#FFC403"/>
<path d="M57.8416 0.855713C58.2863 0.855713 58.731 1.08588 58.9612 1.55013L61.5087 6.71531L67.2083 7.54236C68.2304 7.69061 68.6401 8.95069 67.8988 9.67241L63.7753 13.6906L64.7506 19.3669C64.9261 20.3851 63.8533 21.1614 62.9404 20.6816L57.8416 18.0054V0.855713Z" fill="#FFC403"/>
<path d="M80.827 0.855713C80.3822 0.855713 79.9375 1.08588 79.7073 1.55013L77.1598 6.71531L71.4602 7.54236C70.4381 7.69061 70.0284 8.95069 70.7697 9.67241L74.8932 13.6906L73.9179 19.3669C73.7424 20.3851 74.8152 21.1614 75.7281 20.6816L80.827 18.0054V0.855713Z" fill="#FFC403"/>
<path d="M80.7619 0.855713C81.2066 0.855713 81.6513 1.08588 81.8815 1.55013L84.429 6.71531L90.1286 7.54236C91.1507 7.69061 91.5604 8.95069 90.8191 9.67241L86.6956 13.6906L87.6709 19.3669C87.8464 20.3851 86.7736 21.1614 85.8607 20.6816L80.7619 18.0054V0.855713Z" fill="#FFC403"/>
<g clip-path="url(#clip0_1031_19596)">
<path d="M103.682 15.887L108.531 18.4384L107.607 13.0391L111.531 9.21597L106.109 8.42793L103.682 3.51243V0.855713C104.127 0.855713 104.572 1.08588 104.802 1.55013L107.349 6.71531L113.049 7.54236C114.071 7.69061 114.481 8.95069 113.739 9.67241L109.616 13.6906L110.591 19.3669C110.767 20.3851 109.694 21.1614 108.781 20.6816L103.682 18.0054V15.887Z" fill="#FFC403"/>
</g>
<path d="M103.747 0.855713C103.303 0.855713 102.858 1.08588 102.628 1.55013L100.08 6.71531L94.3805 7.54236C93.3584 7.69061 92.9487 8.95069 93.69 9.67241L97.8135 13.6906L96.8382 19.3669C96.6627 20.3851 97.7355 21.1614 98.6484 20.6816L103.747 18.0054V0.855713Z" fill="#FFC403"/>
<defs>
<clipPath id="clip0_1031_19596">
<rect width="10.4365" height="19.9741" fill="white" transform="translate(103.715 0.855713)"/>
</clipPath>
</defs>
</svg>
