<svg width="16" height="16" viewBox="0 0 16 16" fill="none" xmlns="http://www.w3.org/2000/svg">
<path d="M15.0828 15.7011L9.17599 9.78694C8.70435 10.1893 8.16197 10.5006 7.54884 10.721C6.93571 10.9414 6.31944 11.0516 5.70002 11.0516C4.18952 11.0516 2.91107 10.528 1.86466 9.48094C0.818255 8.43324 0.295052 7.15352 0.295052 5.64178C0.295052 4.13003 0.817626 2.84968 1.86277 1.80072C2.90855 0.751126 4.18638 0.22633 5.69625 0.22633C7.20674 0.22633 8.48583 0.750182 9.53349 1.79789C10.5812 2.84559 11.105 4.12594 11.105 5.63894C11.105 6.29502 10.989 6.93 10.7569 7.54389C10.5242 8.15778 10.2193 8.68289 9.84194 9.11922L15.7487 15.0324L15.0818 15.7011H15.0828ZM5.70002 10.1062C6.95143 10.1062 8.00821 9.67487 8.87037 8.81227C9.73189 7.94968 10.1627 6.89159 10.1627 5.638C10.1627 4.38503 9.73189 3.32726 8.87037 2.46466C8.00884 1.60207 6.95237 1.17077 5.70096 1.17077C4.44955 1.17077 3.39277 1.60207 2.53061 2.46466C1.66909 3.32726 1.23833 4.38503 1.23833 5.638C1.23833 6.89096 1.66909 7.94874 2.53061 8.81133C3.39214 9.67392 4.44861 10.1062 5.70002 10.1062Z" fill="#C4C4C4"/>
</svg>
