<svg width="1009" height="293" viewBox="0 0 1009 293" fill="none" xmlns="http://www.w3.org/2000/svg">
<path d="M158.5 36.4912H504.5" stroke="#D5D7DD" stroke-width="3" stroke-linecap="square" stroke-dasharray="0 13"/>
<path d="M504.5 36.4912H856.5" stroke="#D5D7DD" stroke-width="3" stroke-linecap="square" stroke-dasharray="0 13"/>
<g clip-path="url(#clip0_19_1984)">
<g clip-path="url(#clip1_19_1984)">
<circle cx="126.5" cy="36.4912" r="36.5" fill="white"/>
<path d="M124.768 49.9912V29.4352H121.204V23.7112H131.176V49.9912H124.768Z" fill="#442D87"/>
</g>
<path opacity="0.7" d="M14.8214 184.991V173.142H16.3684V184.991H14.8214ZM25.622 184.991V179.721C25.622 177.817 24.585 176.848 23.021 176.848C21.44 176.848 20.352 177.834 20.352 179.84V184.991H18.805V175.675H20.352V177.001C20.964 176.032 22.086 175.505 23.344 175.505C25.503 175.505 27.152 176.831 27.152 179.5V184.991H25.622ZM29.156 179.415V178.106H35.939V179.415H29.156ZM40.1893 177.392C40.7503 176.406 41.9743 175.522 43.6743 175.522C46.1733 175.522 48.0943 177.392 48.0943 180.299C48.0943 183.189 46.1733 185.144 43.6743 185.144C41.9743 185.144 40.7673 184.226 40.1893 183.274V189.411H38.6423V175.675H40.1893V177.392ZM46.5133 180.299C46.5133 178.106 45.0683 176.865 43.3513 176.865C41.6683 176.865 40.1893 178.157 40.1893 180.316C40.1893 182.509 41.6683 183.784 43.3513 183.784C45.0683 183.784 46.5133 182.492 46.5133 180.299ZM53.8916 176.831C52.3786 176.831 51.1206 177.834 50.9506 179.653H56.8326C56.8496 177.834 55.4896 176.831 53.8916 176.831ZM58.2436 182.118C57.7676 183.818 56.2716 185.144 53.9596 185.144C51.3076 185.144 49.3526 183.274 49.3526 180.316C49.3526 177.375 51.2396 175.522 53.9596 175.522C56.6626 175.522 58.4306 177.426 58.4306 179.976C58.4306 180.316 58.4136 180.588 58.3796 180.911H50.9336C51.0526 182.798 52.3786 183.835 53.9596 183.835C55.3536 183.835 56.2376 183.121 56.5776 182.118H58.2436ZM61.8196 179.925V184.991H60.2726V175.675H61.8196V177.188C62.3466 176.151 63.3496 175.505 64.8286 175.505V177.103H64.4206C62.9416 177.103 61.8196 177.766 61.8196 179.925ZM73.1124 182.458C73.1124 183.988 71.7694 185.144 69.7124 185.144C67.5364 185.144 66.0064 183.954 65.9044 182.254H67.5024C67.5874 183.155 68.3864 183.835 69.6954 183.835C70.9194 183.835 71.5994 183.223 71.5994 182.458C71.5994 180.384 66.0914 181.591 66.0914 178.123C66.0914 176.695 67.4344 175.522 69.5084 175.522C71.5654 175.522 72.9254 176.627 73.0274 178.446H71.4804C71.4124 177.511 70.6984 176.831 69.4574 176.831C68.3184 176.831 67.6384 177.375 67.6384 178.123C67.6384 180.333 73.0444 179.126 73.1124 182.458ZM83.9362 180.316C83.9362 183.274 81.8112 185.144 79.1592 185.144C76.5242 185.144 74.5182 183.274 74.5182 180.316C74.5182 177.375 76.5922 175.522 79.2272 175.522C81.8792 175.522 83.9362 177.375 83.9362 180.316ZM76.0992 180.316C76.0992 182.679 77.5442 183.784 79.1592 183.784C80.7742 183.784 82.3552 182.679 82.3552 180.316C82.3552 177.97 80.8082 176.865 79.2102 176.865C77.5782 176.865 76.0992 177.97 76.0992 180.316ZM92.5872 184.991V179.721C92.5872 177.817 91.5502 176.848 89.9862 176.848C88.4052 176.848 87.3172 177.834 87.3172 179.84V184.991H85.7702V175.675H87.3172V177.001C87.9292 176.032 89.0512 175.505 90.3092 175.505C92.4682 175.505 94.1172 176.831 94.1172 179.5V184.991H92.5872ZM109.616 180.316C109.616 183.274 107.491 185.144 104.839 185.144C102.204 185.144 100.198 183.274 100.198 180.316C100.198 177.375 102.272 175.522 104.907 175.522C107.559 175.522 109.616 177.375 109.616 180.316ZM101.779 180.316C101.779 182.679 103.224 183.784 104.839 183.784C106.454 183.784 108.035 182.679 108.035 180.316C108.035 177.97 106.488 176.865 104.89 176.865C103.258 176.865 101.779 177.97 101.779 180.316ZM112.998 179.925V184.991H111.451V175.675H112.998V177.188C113.525 176.151 114.528 175.505 116.007 175.505V177.103H115.599C114.12 177.103 112.998 177.766 112.998 179.925ZM130.765 180.316C130.765 183.274 128.64 185.144 125.988 185.144C123.353 185.144 121.347 183.274 121.347 180.316C121.347 177.375 123.421 175.522 126.056 175.522C128.708 175.522 130.765 177.375 130.765 180.316ZM122.928 180.316C122.928 182.679 124.373 183.784 125.988 183.784C127.603 183.784 129.184 182.679 129.184 180.316C129.184 177.97 127.637 176.865 126.039 176.865C124.407 176.865 122.928 177.97 122.928 180.316ZM139.416 184.991V179.721C139.416 177.817 138.379 176.848 136.815 176.848C135.234 176.848 134.146 177.834 134.146 179.84V184.991H132.599V175.675H134.146V177.001C134.758 176.032 135.88 175.505 137.138 175.505C139.297 175.505 140.946 176.831 140.946 179.5V184.991H139.416ZM143.273 184.991V172.411H144.82V184.991H143.273ZM147.256 184.991V175.675H148.803V184.991H147.256ZM148.055 174.162C147.46 174.162 147.001 173.703 147.001 173.108C147.001 172.513 147.46 172.054 148.055 172.054C148.616 172.054 149.075 172.513 149.075 173.108C149.075 173.703 148.616 174.162 148.055 174.162ZM158.057 184.991V179.721C158.057 177.817 157.02 176.848 155.456 176.848C153.875 176.848 152.787 177.834 152.787 179.84V184.991H151.24V175.675H152.787V177.001C153.399 176.032 154.521 175.505 155.779 175.505C157.938 175.505 159.587 176.831 159.587 179.5V184.991H158.057ZM165.875 176.831C164.362 176.831 163.104 177.834 162.934 179.653H168.816C168.833 177.834 167.473 176.831 165.875 176.831ZM170.227 182.118C169.751 183.818 168.255 185.144 165.943 185.144C163.291 185.144 161.336 183.274 161.336 180.316C161.336 177.375 163.223 175.522 165.943 175.522C168.646 175.522 170.414 177.426 170.414 179.976C170.414 180.316 170.397 180.588 170.363 180.911H162.917C163.036 182.798 164.362 183.835 165.943 183.835C167.337 183.835 168.221 183.121 168.561 182.118H170.227ZM170.913 187.422L172.154 182.849H173.854L171.95 187.422H170.913ZM188.02 175.675V184.991H186.473V183.614C185.878 184.583 184.739 185.127 183.498 185.127C181.356 185.127 179.673 183.801 179.673 181.132V175.675H181.203V180.928C181.203 182.815 182.24 183.784 183.804 183.784C185.402 183.784 186.473 182.798 186.473 180.792V175.675H188.02ZM197.13 182.458C197.13 183.988 195.787 185.144 193.73 185.144C191.554 185.144 190.024 183.954 189.922 182.254H191.52C191.605 183.155 192.404 183.835 193.713 183.835C194.937 183.835 195.617 183.223 195.617 182.458C195.617 180.384 190.109 181.591 190.109 178.123C190.109 176.695 191.452 175.522 193.526 175.522C195.583 175.522 196.943 176.627 197.045 178.446H195.498C195.43 177.511 194.716 176.831 193.475 176.831C192.336 176.831 191.656 177.375 191.656 178.123C191.656 180.333 197.062 179.126 197.13 182.458ZM203.075 176.831C201.562 176.831 200.304 177.834 200.134 179.653H206.016C206.033 177.834 204.673 176.831 203.075 176.831ZM207.427 182.118C206.951 183.818 205.455 185.144 203.143 185.144C200.491 185.144 198.536 183.274 198.536 180.316C198.536 177.375 200.423 175.522 203.143 175.522C205.846 175.522 207.614 177.426 207.614 179.976C207.614 180.316 207.597 180.588 207.563 180.911H200.117C200.236 182.798 201.562 183.835 203.143 183.835C204.537 183.835 205.421 183.121 205.761 182.118H207.427ZM214.128 182.441V176.95H212.921V175.675H214.128V173.329H215.675V175.675H218.106V176.95H215.675V182.441C215.675 183.359 216.015 183.682 216.967 183.682H218.106V184.991H216.712C215.063 184.991 214.128 184.311 214.128 182.441ZM219.781 184.991V172.411H221.328V177.018C221.94 176.032 223.096 175.505 224.405 175.505C226.479 175.505 228.128 176.831 228.128 179.5V184.991H226.598V179.721C226.598 177.817 225.561 176.848 223.997 176.848C222.416 176.848 221.328 177.834 221.328 179.84V184.991H219.781ZM234.416 176.831C232.903 176.831 231.645 177.834 231.475 179.653H237.357C237.374 177.834 236.014 176.831 234.416 176.831ZM238.768 182.118C238.292 183.818 236.796 185.144 234.484 185.144C231.832 185.144 229.877 183.274 229.877 180.316C229.877 177.375 231.764 175.522 234.484 175.522C237.187 175.522 238.955 177.426 238.955 179.976C238.955 180.316 238.938 180.588 238.904 180.911H231.458C231.577 182.798 232.903 183.835 234.484 183.835C235.878 183.835 236.762 183.121 237.102 182.118H238.768ZM27.4616 213.991V205.95H26.2546V204.675H27.4616V204.012C27.4616 201.938 28.4816 201.003 30.8616 201.003V202.295C29.4676 202.295 29.0086 202.805 29.0086 204.012V204.675H30.9636V205.95H29.0086V213.991H27.4616ZM32.5673 213.991V204.675H34.1143V213.991H32.5673ZM33.3663 203.162C32.7713 203.162 32.3123 202.703 32.3123 202.108C32.3123 201.513 32.7713 201.054 33.3663 201.054C33.9273 201.054 34.3863 201.513 34.3863 202.108C34.3863 202.703 33.9273 203.162 33.3663 203.162ZM36.5509 213.991V201.411H38.0979V213.991H36.5509ZM40.8745 211.441V205.95H39.6675V204.675H40.8745V202.329H42.4215V204.675H44.8525V205.95H42.4215V211.441C42.4215 212.359 42.7615 212.682 43.7135 212.682H44.8525V213.991H43.4585C41.8095 213.991 40.8745 213.311 40.8745 211.441ZM50.4879 205.831C48.9749 205.831 47.7169 206.834 47.5469 208.653H53.4289C53.4459 206.834 52.0859 205.831 50.4879 205.831ZM54.8399 211.118C54.3639 212.818 52.8679 214.144 50.5559 214.144C47.9039 214.144 45.9489 212.274 45.9489 209.316C45.9489 206.375 47.8359 204.522 50.5559 204.522C53.2589 204.522 55.0269 206.426 55.0269 208.976C55.0269 209.316 55.0099 209.588 54.9759 209.911H47.5299C47.6489 211.798 48.9749 212.835 50.5559 212.835C51.9499 212.835 52.8339 212.121 53.1739 211.118H54.8399ZM58.4159 208.925V213.991H56.8689V204.675H58.4159V206.188C58.9429 205.151 59.9459 204.505 61.4249 204.505V206.103H61.0169C59.5379 206.103 58.4159 206.766 58.4159 208.925ZM69.7087 211.458C69.7087 212.988 68.3657 214.144 66.3087 214.144C64.1327 214.144 62.6027 212.954 62.5007 211.254H64.0987C64.1837 212.155 64.9827 212.835 66.2917 212.835C67.5157 212.835 68.1957 212.223 68.1957 211.458C68.1957 209.384 62.6877 210.591 62.6877 207.123C62.6877 205.695 64.0307 204.522 66.1047 204.522C68.1617 204.522 69.5217 205.627 69.6237 207.446H68.0767C68.0087 206.511 67.2947 205.831 66.0537 205.831C64.9147 205.831 64.2347 206.375 64.2347 207.123C64.2347 209.333 69.6407 208.126 69.7087 211.458ZM76.3647 211.441V205.95H75.1577V204.675H76.3647V202.329H77.9117V204.675H80.3427V205.95H77.9117V211.441C77.9117 212.359 78.2517 212.682 79.2037 212.682H80.3427V213.991H78.9487C77.2997 213.991 76.3647 213.311 76.3647 211.441ZM90.8571 209.316C90.8571 212.274 88.7321 214.144 86.0801 214.144C83.4451 214.144 81.4391 212.274 81.4391 209.316C81.4391 206.375 83.5131 204.522 86.1481 204.522C88.8001 204.522 90.8571 206.375 90.8571 209.316ZM83.0201 209.316C83.0201 211.679 84.4651 212.784 86.0801 212.784C87.6951 212.784 89.2761 211.679 89.2761 209.316C89.2761 206.97 87.7291 205.865 86.1311 205.865C84.4991 205.865 83.0201 206.97 83.0201 209.316ZM97.3124 213.991V205.95H96.1054V204.675H97.3124V204.012C97.3124 201.938 98.3324 201.003 100.712 201.003V202.295C99.3184 202.295 98.8594 202.805 98.8594 204.012V204.675H100.814V205.95H98.8594V213.991H97.3124ZM102.418 213.991V204.675H103.965V213.991H102.418ZM103.217 203.162C102.622 203.162 102.163 202.703 102.163 202.108C102.163 201.513 102.622 201.054 103.217 201.054C103.778 201.054 104.237 201.513 104.237 202.108C104.237 202.703 103.778 203.162 103.217 203.162ZM113.219 213.991V208.721C113.219 206.817 112.182 205.848 110.618 205.848C109.037 205.848 107.949 206.834 107.949 208.84V213.991H106.402V204.675H107.949V206.001C108.561 205.032 109.683 204.505 110.941 204.505C113.1 204.505 114.749 205.831 114.749 208.5V213.991H113.219ZM116.498 209.299C116.498 206.392 118.419 204.522 120.935 204.522C122.397 204.522 123.74 205.27 124.386 206.341V201.411H125.95V213.991H124.386V212.24C123.825 213.277 122.618 214.144 120.918 214.144C118.419 214.144 116.498 212.189 116.498 209.299ZM124.386 209.316C124.386 207.157 122.924 205.865 121.224 205.865C119.524 205.865 118.079 207.106 118.079 209.299C118.079 211.492 119.524 212.784 121.224 212.784C122.924 212.784 124.386 211.509 124.386 209.316ZM134.515 213.991L131.591 204.675H133.172L135.314 212.495L137.626 204.675H139.207L141.468 212.512L143.576 204.675H145.106L142.199 213.991H140.601L138.357 206.596L136.113 213.991H134.515ZM146.442 213.991V201.411H147.989V206.018C148.601 205.032 149.757 204.505 151.066 204.505C153.14 204.505 154.789 205.831 154.789 208.5V213.991H153.259V208.721C153.259 206.817 152.222 205.848 150.658 205.848C149.077 205.848 147.989 206.834 147.989 208.84V213.991H146.442ZM156.538 209.299C156.538 206.392 158.459 204.522 160.958 204.522C162.692 204.522 163.882 205.406 164.426 206.375V204.675H165.99V213.991H164.426V212.257C163.865 213.26 162.658 214.144 160.941 214.144C158.459 214.144 156.538 212.189 156.538 209.299ZM164.426 209.316C164.426 207.157 162.964 205.865 161.264 205.865C159.564 205.865 158.119 207.106 158.119 209.299C158.119 211.492 159.564 212.784 161.264 212.784C162.964 212.784 164.426 211.509 164.426 209.316ZM168.744 211.441V205.95H167.537V204.675H168.744V202.329H170.291V204.675H172.722V205.95H170.291V211.441C170.291 212.359 170.631 212.682 171.583 212.682H172.722V213.991H171.328C169.679 213.991 168.744 213.311 168.744 211.441ZM182.264 212.223L185.154 204.675H186.752L181.142 218.377H179.544L181.38 213.889L177.623 204.675H179.34L182.264 212.223ZM196.948 209.316C196.948 212.274 194.823 214.144 192.171 214.144C189.536 214.144 187.53 212.274 187.53 209.316C187.53 206.375 189.604 204.522 192.239 204.522C194.891 204.522 196.948 206.375 196.948 209.316ZM189.111 209.316C189.111 211.679 190.556 212.784 192.171 212.784C193.786 212.784 195.367 211.679 195.367 209.316C195.367 206.97 193.82 205.865 192.222 205.865C190.59 205.865 189.111 206.97 189.111 209.316ZM207.044 204.675V213.991H205.497V212.614C204.902 213.583 203.763 214.127 202.522 214.127C200.38 214.127 198.697 212.801 198.697 210.132V204.675H200.227V209.928C200.227 211.815 201.264 212.784 202.828 212.784C204.426 212.784 205.497 211.798 205.497 209.792V204.675H207.044ZM208.963 203.842L208.742 200.459H210.238L210.034 203.842H208.963ZM213.509 208.925V213.991H211.962V204.675H213.509V206.188C214.036 205.151 215.039 204.505 216.518 204.505V206.103H216.11C214.631 206.103 213.509 206.766 213.509 208.925ZM222.064 205.831C220.551 205.831 219.293 206.834 219.123 208.653H225.005C225.022 206.834 223.662 205.831 222.064 205.831ZM226.416 211.118C225.94 212.818 224.444 214.144 222.132 214.144C219.48 214.144 217.525 212.274 217.525 209.316C217.525 206.375 219.412 204.522 222.132 204.522C224.835 204.522 226.603 206.426 226.603 208.976C226.603 209.316 226.586 209.588 226.552 209.911H219.106C219.225 211.798 220.551 212.835 222.132 212.835C223.526 212.835 224.41 212.121 224.75 211.118H226.416ZM82.8397 242.991V230.411H84.3867V242.991H82.8397ZM95.6633 238.316C95.6633 241.274 93.5383 243.144 90.8863 243.144C88.2513 243.144 86.2453 241.274 86.2453 238.316C86.2453 235.375 88.3193 233.522 90.9543 233.522C93.6063 233.522 95.6633 235.375 95.6633 238.316ZM87.8263 238.316C87.8263 240.679 89.2713 241.784 90.8863 241.784C92.5013 241.784 94.0823 240.679 94.0823 238.316C94.0823 235.97 92.5353 234.865 90.9373 234.865C89.3053 234.865 87.8263 235.97 87.8263 238.316ZM106.337 238.316C106.337 241.274 104.212 243.144 101.56 243.144C98.9253 243.144 96.9193 241.274 96.9193 238.316C96.9193 235.375 98.9933 233.522 101.628 233.522C104.28 233.522 106.337 235.375 106.337 238.316ZM98.5003 238.316C98.5003 240.679 99.9453 241.784 101.56 241.784C103.175 241.784 104.756 240.679 104.756 238.316C104.756 235.97 103.209 234.865 101.611 234.865C99.9793 234.865 98.5003 235.97 98.5003 238.316ZM108.171 242.991V230.411H109.718V237.806L113.305 233.675H115.464L111.078 238.316L115.481 242.991H113.373L109.718 238.877V242.991H108.171ZM116.72 242.991V233.675H118.267V242.991H116.72ZM117.519 232.162C116.924 232.162 116.465 231.703 116.465 231.108C116.465 230.513 116.924 230.054 117.519 230.054C118.08 230.054 118.539 230.513 118.539 231.108C118.539 231.703 118.08 232.162 117.519 232.162ZM127.521 242.991V237.721C127.521 235.817 126.484 234.848 124.92 234.848C123.339 234.848 122.251 235.834 122.251 237.84V242.991H120.704V233.675H122.251V235.001C122.863 234.032 123.985 233.505 125.243 233.505C127.402 233.505 129.051 234.831 129.051 237.5V242.991H127.521ZM130.8 238.299C130.8 235.392 132.721 233.522 135.22 233.522C136.92 233.522 138.144 234.372 138.688 235.375V233.675H140.252V243.195C140.252 245.762 138.535 247.581 135.798 247.581C133.35 247.581 131.599 246.34 131.293 244.351H132.823C133.163 245.473 134.268 246.238 135.798 246.238C137.447 246.238 138.688 245.184 138.688 243.195V241.24C138.127 242.243 136.92 243.144 135.22 243.144C132.721 243.144 130.8 241.189 130.8 238.299ZM138.688 238.316C138.688 236.157 137.226 234.865 135.526 234.865C133.826 234.865 132.381 236.106 132.381 238.299C132.381 240.492 133.826 241.784 135.526 241.784C137.226 241.784 138.688 240.509 138.688 238.316ZM147.287 242.991V234.95H146.08V233.675H147.287V233.012C147.287 230.938 148.307 230.003 150.687 230.003V231.295C149.293 231.295 148.834 231.805 148.834 233.012V233.675H150.789V234.95H148.834V242.991H147.287ZM161.233 238.316C161.233 241.274 159.108 243.144 156.456 243.144C153.821 243.144 151.815 241.274 151.815 238.316C151.815 235.375 153.889 233.522 156.524 233.522C159.176 233.522 161.233 235.375 161.233 238.316ZM153.396 238.316C153.396 240.679 154.841 241.784 156.456 241.784C158.071 241.784 159.652 240.679 159.652 238.316C159.652 235.97 158.105 234.865 156.507 234.865C154.875 234.865 153.396 235.97 153.396 238.316ZM164.614 237.925V242.991H163.067V233.675H164.614V235.188C165.141 234.151 166.144 233.505 167.623 233.505V235.103H167.215C165.736 235.103 164.614 235.766 164.614 237.925ZM170.722 242.039C170.722 242.634 170.263 243.093 169.702 243.093C169.107 243.093 168.648 242.634 168.648 242.039C168.648 241.444 169.107 240.985 169.702 240.985C170.263 240.985 170.722 241.444 170.722 242.039Z" fill="white"/>
<path d="M101.948 137.749C101.948 140.059 100.1 142.138 96.7615 142.138C93.7165 142.138 91.3645 140.542 91.3225 137.77H94.4725C94.5565 138.946 95.3335 139.723 96.6985 139.723C98.0845 139.723 98.9035 138.988 98.9035 137.938C98.9035 134.767 91.3435 136.678 91.3645 131.365C91.3645 128.719 93.5065 127.123 96.5305 127.123C99.5335 127.123 101.591 128.656 101.78 131.302H98.5465C98.4835 130.336 97.7065 129.58 96.4465 129.559C95.2915 129.517 94.4305 130.084 94.4305 131.281C94.4305 134.221 101.948 132.583 101.948 137.749ZM108.995 132.583C107.588 132.583 106.475 133.486 106.244 135.082H111.767C111.725 133.549 110.507 132.583 108.995 132.583ZM114.518 138.337C113.888 140.479 111.956 142.18 109.079 142.18C105.698 142.18 103.241 139.828 103.241 136.174C103.241 132.499 105.635 130.168 109.079 130.168C112.439 130.168 114.812 132.457 114.812 135.922C114.812 136.3 114.791 136.678 114.728 137.056H106.223C106.37 138.778 107.546 139.744 109.016 139.744C110.276 139.744 110.969 139.114 111.347 138.337H114.518ZM115.702 136.132C115.702 132.499 118.054 130.168 121.015 130.168C122.884 130.168 124.165 131.05 124.858 132.016V130.357H127.819V141.991H124.858V140.29C124.165 141.298 122.842 142.18 120.994 142.18C118.054 142.18 115.702 139.765 115.702 136.132ZM124.858 136.174C124.858 133.969 123.388 132.751 121.771 132.751C120.196 132.751 118.705 133.927 118.705 136.132C118.705 138.337 120.196 139.597 121.771 139.597C123.388 139.597 124.858 138.379 124.858 136.174ZM133.131 136.195V141.991H130.191V130.357H133.131V132.163C133.866 130.966 135.084 130.189 136.701 130.189V133.276H135.924C134.181 133.276 133.131 133.948 133.131 136.195ZM137.425 136.174C137.425 132.52 139.819 130.168 143.179 130.168C146.077 130.168 148.03 131.68 148.66 134.284H145.489C145.153 133.297 144.376 132.667 143.158 132.667C141.52 132.667 140.428 133.906 140.428 136.174C140.428 138.442 141.52 139.66 143.158 139.66C144.376 139.66 145.132 139.114 145.489 138.064H148.66C148.03 140.542 146.077 142.18 143.179 142.18C139.819 142.18 137.425 139.828 137.425 136.174ZM150.314 141.991V126.451H153.254V131.806C154.01 130.819 155.312 130.189 156.866 130.189C159.491 130.189 161.402 131.953 161.402 135.166V141.991H158.462V135.565C158.462 133.696 157.433 132.688 155.879 132.688C154.283 132.688 153.254 133.696 153.254 135.565V141.991H150.314Z" fill="white"/>
</g>
<g clip-path="url(#clip2_19_1984)">
<g clip-path="url(#clip3_19_1984)">
<circle cx="504.5" cy="36.4912" r="36.5" fill="white"/>
<path d="M496.621 49.6312V45.0592C502.201 40.4512 508.141 35.8792 508.141 31.4512C508.141 29.5432 507.277 28.3192 505.405 28.3192C503.569 28.3192 502.489 29.7592 502.489 32.2432H496.549C496.729 25.8712 500.869 23.1352 505.657 23.1352C511.633 23.1352 514.297 26.6272 514.297 31.0552C514.297 36.8152 509.149 41.4232 504.973 44.6272H514.693V49.6312H496.621Z" fill="#442D87"/>
</g>
<path opacity="0.7" d="M383.832 174.882V173.624H391.856V174.882H388.626V185.473H387.079V174.882H383.832ZM402.4 180.798C402.4 183.756 400.275 185.626 397.623 185.626C394.988 185.626 392.982 183.756 392.982 180.798C392.982 177.857 395.056 176.004 397.691 176.004C400.343 176.004 402.4 177.857 402.4 180.798ZM394.563 180.798C394.563 183.161 396.008 184.266 397.623 184.266C399.238 184.266 400.819 183.161 400.819 180.798C400.819 178.452 399.272 177.347 397.674 177.347C396.042 177.347 394.563 178.452 394.563 180.798ZM407.988 180.781C407.988 177.874 409.909 176.004 412.408 176.004C414.108 176.004 415.332 176.854 415.876 177.857V176.157H417.44V185.677C417.44 188.244 415.723 190.063 412.986 190.063C410.538 190.063 408.787 188.822 408.481 186.833H410.011C410.351 187.955 411.456 188.72 412.986 188.72C414.635 188.72 415.876 187.666 415.876 185.677V183.722C415.315 184.725 414.108 185.626 412.408 185.626C409.909 185.626 407.988 183.671 407.988 180.781ZM415.876 180.798C415.876 178.639 414.414 177.347 412.714 177.347C411.014 177.347 409.569 178.588 409.569 180.781C409.569 182.974 411.014 184.266 412.714 184.266C414.414 184.266 415.876 182.991 415.876 180.798ZM423.815 177.313C422.302 177.313 421.044 178.316 420.874 180.135H426.756C426.773 178.316 425.413 177.313 423.815 177.313ZM428.167 182.6C427.691 184.3 426.195 185.626 423.883 185.626C421.231 185.626 419.276 183.756 419.276 180.798C419.276 177.857 421.163 176.004 423.883 176.004C426.586 176.004 428.354 177.908 428.354 180.458C428.354 180.798 428.337 181.07 428.303 181.393H420.857C420.976 183.28 422.302 184.317 423.883 184.317C425.277 184.317 426.161 183.603 426.501 182.6H428.167ZM430.536 182.923V177.432H429.329V176.157H430.536V173.811H432.083V176.157H434.514V177.432H432.083V182.923C432.083 183.841 432.423 184.164 433.375 184.164H434.514V185.473H433.12C431.471 185.473 430.536 184.793 430.536 182.923ZM440.521 185.473V176.157H442.068V185.473H440.521ZM441.32 174.644C440.725 174.644 440.266 174.185 440.266 173.59C440.266 172.995 440.725 172.536 441.32 172.536C441.881 172.536 442.34 172.995 442.34 173.59C442.34 174.185 441.881 174.644 441.32 174.644ZM451.322 185.473V180.203C451.322 178.299 450.285 177.33 448.721 177.33C447.14 177.33 446.052 178.316 446.052 180.322V185.473H444.505V176.157H446.052V177.483C446.664 176.514 447.786 175.987 449.044 175.987C451.203 175.987 452.852 177.313 452.852 179.982V185.473H451.322ZM459.851 182.923V177.432H458.644V176.157H459.851V173.811H461.398V176.157H463.829V177.432H461.398V182.923C461.398 183.841 461.738 184.164 462.69 184.164H463.829V185.473H462.435C460.786 185.473 459.851 184.793 459.851 182.923ZM474.343 180.798C474.343 183.756 472.218 185.626 469.566 185.626C466.931 185.626 464.925 183.756 464.925 180.798C464.925 177.857 466.999 176.004 469.634 176.004C472.286 176.004 474.343 177.857 474.343 180.798ZM466.506 180.798C466.506 183.161 467.951 184.266 469.566 184.266C471.181 184.266 472.762 183.161 472.762 180.798C472.762 178.452 471.215 177.347 469.617 177.347C467.985 177.347 466.506 178.452 466.506 180.798ZM484.439 176.157V185.473H482.892V184.096C482.297 185.065 481.158 185.609 479.917 185.609C477.775 185.609 476.092 184.283 476.092 181.614V176.157H477.622V181.41C477.622 183.297 478.659 184.266 480.223 184.266C481.821 184.266 482.892 183.28 482.892 181.274V176.157H484.439ZM486.273 180.798C486.273 177.874 488.16 176.004 490.812 176.004C493.124 176.004 494.637 177.194 495.113 179.149H493.447C493.124 178.027 492.189 177.313 490.812 177.313C489.112 177.313 487.854 178.52 487.854 180.798C487.854 183.11 489.112 184.317 490.812 184.317C492.189 184.317 493.107 183.654 493.447 182.481H495.113C494.637 184.334 493.124 185.626 490.812 185.626C488.16 185.626 486.273 183.756 486.273 180.798ZM496.977 185.473V172.893H498.524V177.5C499.136 176.514 500.292 175.987 501.601 175.987C503.675 175.987 505.324 177.313 505.324 179.982V185.473H503.794V180.203C503.794 178.299 502.757 177.33 501.193 177.33C499.612 177.33 498.524 178.316 498.524 180.322V185.473H496.977ZM506.308 187.904L507.549 183.331H509.249L507.345 187.904H506.308ZM523.416 176.157V185.473H521.869V184.096C521.274 185.065 520.135 185.609 518.894 185.609C516.752 185.609 515.069 184.283 515.069 181.614V176.157H516.599V181.41C516.599 183.297 517.636 184.266 519.2 184.266C520.798 184.266 521.869 183.28 521.869 181.274V176.157H523.416ZM532.526 182.94C532.526 184.47 531.183 185.626 529.126 185.626C526.95 185.626 525.42 184.436 525.318 182.736H526.916C527.001 183.637 527.8 184.317 529.109 184.317C530.333 184.317 531.013 183.705 531.013 182.94C531.013 180.866 525.505 182.073 525.505 178.605C525.505 177.177 526.848 176.004 528.922 176.004C530.979 176.004 532.339 177.109 532.441 178.928H530.894C530.826 177.993 530.112 177.313 528.871 177.313C527.732 177.313 527.052 177.857 527.052 178.605C527.052 180.815 532.458 179.608 532.526 182.94ZM538.471 177.313C536.958 177.313 535.7 178.316 535.53 180.135H541.412C541.429 178.316 540.069 177.313 538.471 177.313ZM542.823 182.6C542.347 184.3 540.851 185.626 538.539 185.626C535.887 185.626 533.932 183.756 533.932 180.798C533.932 177.857 535.819 176.004 538.539 176.004C541.242 176.004 543.01 177.908 543.01 180.458C543.01 180.798 542.993 181.07 542.959 181.393H535.513C535.632 183.28 536.958 184.317 538.539 184.317C539.933 184.317 540.817 183.603 541.157 182.6H542.823ZM549.524 182.923V177.432H548.317V176.157H549.524V173.811H551.071V176.157H553.502V177.432H551.071V182.923C551.071 183.841 551.411 184.164 552.363 184.164H553.502V185.473H552.108C550.459 185.473 549.524 184.793 549.524 182.923ZM555.176 185.473V172.893H556.723V177.5C557.335 176.514 558.491 175.987 559.8 175.987C561.874 175.987 563.523 177.313 563.523 179.982V185.473H561.993V180.203C561.993 178.299 560.956 177.33 559.392 177.33C557.811 177.33 556.723 178.316 556.723 180.322V185.473H555.176ZM569.811 177.313C568.298 177.313 567.04 178.316 566.87 180.135H572.752C572.769 178.316 571.409 177.313 569.811 177.313ZM574.163 182.6C573.687 184.3 572.191 185.626 569.879 185.626C567.227 185.626 565.272 183.756 565.272 180.798C565.272 177.857 567.159 176.004 569.879 176.004C572.582 176.004 574.35 177.908 574.35 180.458C574.35 180.798 574.333 181.07 574.299 181.393H566.853C566.972 183.28 568.298 184.317 569.879 184.317C571.273 184.317 572.157 183.603 572.497 182.6H574.163ZM587.256 182.141C587.256 180.832 586.27 180.016 584.757 180.016H582.071V184.198H584.808C586.338 184.198 587.256 183.433 587.256 182.141ZM586.95 176.82C586.95 175.647 586.151 174.899 584.638 174.899H582.071V178.741H584.672C586.117 178.741 586.95 178.027 586.95 176.82ZM588.803 182.294C588.803 184.079 587.392 185.473 584.944 185.473H580.524V173.624H584.774C587.273 173.624 588.531 174.984 588.531 176.633C588.531 178.129 587.596 178.996 586.457 179.37C587.749 179.591 588.803 180.832 588.803 182.294ZM602.072 179.54C602.072 183.093 599.471 185.592 596.122 185.592C592.79 185.592 590.172 183.093 590.172 179.54C590.172 175.987 592.79 173.488 596.122 173.488C599.471 173.488 602.072 175.987 602.072 179.54ZM591.753 179.54C591.753 182.43 593.623 184.249 596.122 184.249C598.621 184.249 600.491 182.43 600.491 179.54C600.491 176.633 598.621 174.831 596.122 174.831C593.623 174.831 591.753 176.633 591.753 179.54ZM615.236 179.54C615.236 183.093 612.635 185.592 609.286 185.592C605.954 185.592 603.336 183.093 603.336 179.54C603.336 175.987 605.954 173.488 609.286 173.488C612.635 173.488 615.236 175.987 615.236 179.54ZM604.917 179.54C604.917 182.43 606.787 184.249 609.286 184.249C611.785 184.249 613.655 182.43 613.655 179.54C613.655 176.633 611.785 174.831 609.286 174.831C606.787 174.831 604.917 176.633 604.917 179.54ZM623.505 185.473L618.626 180.067V185.473H617.079V173.624H618.626V179.115L623.522 173.624H625.477L620.105 179.557L625.528 185.473H623.505ZM418.409 202.607H419.956V214.473H418.409L412.187 205.038V214.473H410.64V202.607H412.187L418.409 212.025V202.607ZM433.715 208.54C433.715 212.093 431.114 214.592 427.765 214.592C424.433 214.592 421.815 212.093 421.815 208.54C421.815 204.987 424.433 202.488 427.765 202.488C431.114 202.488 433.715 204.987 433.715 208.54ZM423.396 208.54C423.396 211.43 425.266 213.249 427.765 213.249C430.264 213.249 432.134 211.43 432.134 208.54C432.134 205.633 430.264 203.831 427.765 203.831C425.266 203.831 423.396 205.633 423.396 208.54ZM437.954 214.49L434.639 202.624H436.288L438.872 212.671L441.728 202.624H443.462L446.182 212.637L448.783 202.624H450.449L447.015 214.473H445.281L442.527 204.936L439.671 214.473L437.954 214.49ZM457.821 206.891C458.416 205.854 459.657 205.004 461.306 205.004C463.822 205.004 465.726 206.874 465.726 209.781C465.726 212.671 463.805 214.626 461.306 214.626C459.606 214.626 458.399 213.776 457.821 212.756V214.473H456.274V201.893H457.821V206.891ZM464.145 209.781C464.145 207.588 462.7 206.347 460.983 206.347C459.3 206.347 457.821 207.639 457.821 209.798C457.821 211.991 459.3 213.266 460.983 213.266C462.7 213.266 464.145 211.974 464.145 209.781ZM475.825 205.157V214.473H474.278V213.096C473.683 214.065 472.544 214.609 471.303 214.609C469.161 214.609 467.478 213.283 467.478 210.614V205.157H469.008V210.41C469.008 212.297 470.045 213.266 471.609 213.266C473.207 213.266 474.278 212.28 474.278 210.274V205.157H475.825ZM478.577 211.923V206.432H477.37V205.157H478.577V202.811H480.124V205.157H482.555V206.432H480.124V211.923C480.124 212.841 480.464 213.164 481.416 213.164H482.555V214.473H481.161C479.512 214.473 478.577 213.793 478.577 211.923ZM484.569 211.923V206.432H483.362V205.157H484.569V202.811H486.116V205.157H488.547V206.432H486.116V211.923C486.116 212.841 486.456 213.164 487.408 213.164H488.547V214.473H487.153C485.504 214.473 484.569 213.793 484.569 211.923ZM499.061 209.798C499.061 212.756 496.936 214.626 494.284 214.626C491.649 214.626 489.643 212.756 489.643 209.798C489.643 206.857 491.717 205.004 494.352 205.004C497.004 205.004 499.061 206.857 499.061 209.798ZM491.224 209.798C491.224 212.161 492.669 213.266 494.284 213.266C495.899 213.266 497.48 212.161 497.48 209.798C497.48 207.452 495.933 206.347 494.335 206.347C492.703 206.347 491.224 207.452 491.224 209.798ZM507.712 214.473V209.203C507.712 207.299 506.675 206.33 505.111 206.33C503.53 206.33 502.442 207.316 502.442 209.322V214.473H500.895V205.157H502.442V206.483C503.054 205.514 504.176 204.987 505.434 204.987C507.593 204.987 509.242 206.313 509.242 208.982V214.473H507.712ZM515.324 209.781C515.324 206.874 517.245 205.004 519.744 205.004C521.478 205.004 522.668 205.888 523.212 206.857V205.157H524.776V214.473H523.212V212.739C522.651 213.742 521.444 214.626 519.727 214.626C517.245 214.626 515.324 212.671 515.324 209.781ZM523.212 209.798C523.212 207.639 521.75 206.347 520.05 206.347C518.35 206.347 516.905 207.588 516.905 209.781C516.905 211.974 518.35 213.266 520.05 213.266C521.75 213.266 523.212 211.991 523.212 209.798ZM534.007 214.473V209.203C534.007 207.299 532.97 206.33 531.406 206.33C529.825 206.33 528.737 207.316 528.737 209.322V214.473H527.19V205.157H528.737V206.483C529.349 205.514 530.471 204.987 531.729 204.987C533.888 204.987 535.537 206.313 535.537 208.982V214.473H534.007ZM537.286 209.781C537.286 206.874 539.207 205.004 541.723 205.004C543.185 205.004 544.528 205.752 545.174 206.823V201.893H546.738V214.473H545.174V212.722C544.613 213.759 543.406 214.626 541.706 214.626C539.207 214.626 537.286 212.671 537.286 209.781ZM545.174 209.798C545.174 207.639 543.712 206.347 542.012 206.347C540.312 206.347 538.867 207.588 538.867 209.781C538.867 211.974 540.312 213.266 542.012 213.266C543.712 213.266 545.174 211.991 545.174 209.798ZM566.931 214.473V209.203C566.931 207.299 565.911 206.33 564.381 206.33C562.817 206.33 561.746 207.333 561.746 209.339V214.473H560.216V209.203C560.216 207.299 559.196 206.33 557.666 206.33C556.102 206.33 555.031 207.333 555.031 209.339V214.473H553.484V205.157H555.031V206.5C555.643 205.514 556.748 204.987 557.972 204.987C559.502 204.987 560.777 205.667 561.389 207.061C561.933 205.718 563.259 204.987 564.687 204.987C566.812 204.987 568.461 206.313 568.461 208.982V214.473H566.931ZM570.221 209.781C570.221 206.874 572.142 205.004 574.641 205.004C576.375 205.004 577.565 205.888 578.109 206.857V205.157H579.673V214.473H578.109V212.739C577.548 213.742 576.341 214.626 574.624 214.626C572.142 214.626 570.221 212.671 570.221 209.781ZM578.109 209.798C578.109 207.639 576.647 206.347 574.947 206.347C573.247 206.347 571.802 207.588 571.802 209.781C571.802 211.974 573.247 213.266 574.947 213.266C576.647 213.266 578.109 211.991 578.109 209.798ZM582.087 214.473V201.893H583.634V209.288L587.221 205.157H589.38L584.994 209.798L589.397 214.473H587.289L583.634 210.359V214.473H582.087ZM594.597 206.313C593.084 206.313 591.826 207.316 591.656 209.135H597.538C597.555 207.316 596.195 206.313 594.597 206.313ZM598.949 211.6C598.473 213.3 596.977 214.626 594.665 214.626C592.013 214.626 590.058 212.756 590.058 209.798C590.058 206.857 591.945 205.004 594.665 205.004C597.368 205.004 599.136 206.908 599.136 209.458C599.136 209.798 599.119 210.07 599.085 210.393H591.639C591.758 212.28 593.084 213.317 594.665 213.317C596.059 213.317 596.943 212.603 597.283 211.6H598.949ZM398.352 235.874C398.913 234.888 400.137 234.004 401.837 234.004C404.336 234.004 406.257 235.874 406.257 238.781C406.257 241.671 404.336 243.626 401.837 243.626C400.137 243.626 398.93 242.708 398.352 241.756V247.893H396.805V234.157H398.352V235.874ZM404.676 238.781C404.676 236.588 403.231 235.347 401.514 235.347C399.831 235.347 398.352 236.639 398.352 238.798C398.352 240.991 399.831 242.266 401.514 242.266C403.231 242.266 404.676 240.974 404.676 238.781ZM407.515 238.781C407.515 235.874 409.436 234.004 411.935 234.004C413.669 234.004 414.859 234.888 415.403 235.857V234.157H416.967V243.473H415.403V241.739C414.842 242.742 413.635 243.626 411.918 243.626C409.436 243.626 407.515 241.671 407.515 238.781ZM415.403 238.798C415.403 236.639 413.941 235.347 412.241 235.347C410.541 235.347 409.096 236.588 409.096 238.781C409.096 240.974 410.541 242.266 412.241 242.266C413.941 242.266 415.403 240.991 415.403 238.798ZM422.917 241.705L425.807 234.157H427.405L421.795 247.859H420.197L422.033 243.371L418.276 234.157H419.993L422.917 241.705ZM442.207 243.473V238.203C442.207 236.299 441.187 235.33 439.657 235.33C438.093 235.33 437.022 236.333 437.022 238.339V243.473H435.492V238.203C435.492 236.299 434.472 235.33 432.942 235.33C431.378 235.33 430.307 236.333 430.307 238.339V243.473H428.76V234.157H430.307V235.5C430.919 234.514 432.024 233.987 433.248 233.987C434.778 233.987 436.053 234.667 436.665 236.061C437.209 234.718 438.535 233.987 439.963 233.987C442.088 233.987 443.737 235.313 443.737 237.982V243.473H442.207ZM450.036 235.313C448.523 235.313 447.265 236.316 447.095 238.135H452.977C452.994 236.316 451.634 235.313 450.036 235.313ZM454.388 240.6C453.912 242.3 452.416 243.626 450.104 243.626C447.452 243.626 445.497 241.756 445.497 238.798C445.497 235.857 447.384 234.004 450.104 234.004C452.807 234.004 454.575 235.908 454.575 238.458C454.575 238.798 454.558 239.07 454.524 239.393H447.078C447.197 241.28 448.523 242.317 450.104 242.317C451.498 242.317 452.382 241.603 452.722 240.6H454.388ZM463.234 243.473V238.203C463.234 236.299 462.197 235.33 460.633 235.33C459.052 235.33 457.964 236.316 457.964 238.322V243.473H456.417V234.157H457.964V235.483C458.576 234.514 459.698 233.987 460.956 233.987C463.115 233.987 464.764 235.313 464.764 237.982V243.473H463.234ZM467.431 240.923V235.432H466.224V234.157H467.431V231.811H468.978V234.157H471.409V235.432H468.978V240.923C468.978 241.841 469.318 242.164 470.27 242.164H471.409V243.473H470.015C468.366 243.473 467.431 242.793 467.431 240.923ZM486.256 238.798C486.256 241.756 484.131 243.626 481.479 243.626C478.844 243.626 476.838 241.756 476.838 238.798C476.838 235.857 478.912 234.004 481.547 234.004C484.199 234.004 486.256 235.857 486.256 238.798ZM478.419 238.798C478.419 241.161 479.864 242.266 481.479 242.266C483.094 242.266 484.675 241.161 484.675 238.798C484.675 236.452 483.128 235.347 481.53 235.347C479.898 235.347 478.419 236.452 478.419 238.798ZM494.907 243.473V238.203C494.907 236.299 493.87 235.33 492.306 235.33C490.725 235.33 489.637 236.316 489.637 238.322V243.473H488.09V234.157H489.637V235.483C490.249 234.514 491.371 233.987 492.629 233.987C494.788 233.987 496.437 235.313 496.437 237.982V243.473H494.907ZM503.436 240.923V235.432H502.229V234.157H503.436V231.811H504.983V234.157H507.414V235.432H504.983V240.923C504.983 241.841 505.323 242.164 506.275 242.164H507.414V243.473H506.02C504.371 243.473 503.436 242.793 503.436 240.923ZM509.088 243.473V230.893H510.635V235.5C511.247 234.514 512.403 233.987 513.712 233.987C515.786 233.987 517.435 235.313 517.435 237.982V243.473H515.905V238.203C515.905 236.299 514.868 235.33 513.304 235.33C511.723 235.33 510.635 236.316 510.635 238.322V243.473H509.088ZM523.723 235.313C522.21 235.313 520.952 236.316 520.782 238.135H526.664C526.681 236.316 525.321 235.313 523.723 235.313ZM528.075 240.6C527.599 242.3 526.103 243.626 523.791 243.626C521.139 243.626 519.184 241.756 519.184 238.798C519.184 235.857 521.071 234.004 523.791 234.004C526.494 234.004 528.262 235.908 528.262 238.458C528.262 238.798 528.245 239.07 528.211 239.393H520.765C520.884 241.28 522.21 242.317 523.791 242.317C525.185 242.317 526.069 241.603 526.409 240.6H528.075ZM535.983 235.874C536.544 234.888 537.768 234.004 539.468 234.004C541.967 234.004 543.888 235.874 543.888 238.781C543.888 241.671 541.967 243.626 539.468 243.626C537.768 243.626 536.561 242.708 535.983 241.756V247.893H534.436V234.157H535.983V235.874ZM542.307 238.781C542.307 236.588 540.862 235.347 539.145 235.347C537.462 235.347 535.983 236.639 535.983 238.798C535.983 240.991 537.462 242.266 539.145 242.266C540.862 242.266 542.307 240.974 542.307 238.781ZM547.272 238.407V243.473H545.725V234.157H547.272V235.67C547.799 234.633 548.802 233.987 550.281 233.987V235.585H549.873C548.394 235.585 547.272 236.248 547.272 238.407ZM560.707 238.798C560.707 241.756 558.582 243.626 555.93 243.626C553.295 243.626 551.289 241.756 551.289 238.798C551.289 235.857 553.363 234.004 555.998 234.004C558.65 234.004 560.707 235.857 560.707 238.798ZM552.87 238.798C552.87 241.161 554.315 242.266 555.93 242.266C557.545 242.266 559.126 241.161 559.126 238.798C559.126 236.452 557.579 235.347 555.981 235.347C554.349 235.347 552.87 236.452 552.87 238.798ZM561.436 234.157H563.102L566.009 242.045L568.899 234.157H570.548L566.893 243.473H565.091L561.436 234.157ZM571.87 243.473V234.157H573.417V243.473H571.87ZM572.669 232.644C572.074 232.644 571.615 232.185 571.615 231.59C571.615 230.995 572.074 230.536 572.669 230.536C573.23 230.536 573.689 230.995 573.689 231.59C573.689 232.185 573.23 232.644 572.669 232.644ZM575.275 238.781C575.275 235.874 577.196 234.004 579.712 234.004C581.174 234.004 582.517 234.752 583.163 235.823V230.893H584.727V243.473H583.163V241.722C582.602 242.759 581.395 243.626 579.695 243.626C577.196 243.626 575.275 241.671 575.275 238.781ZM583.163 238.798C583.163 236.639 581.701 235.347 580.001 235.347C578.301 235.347 576.856 236.588 576.856 238.781C576.856 240.974 578.301 242.266 580.001 242.266C581.701 242.266 583.163 240.991 583.163 238.798ZM591.103 235.313C589.59 235.313 588.332 236.316 588.162 238.135H594.044C594.061 236.316 592.701 235.313 591.103 235.313ZM595.455 240.6C594.979 242.3 593.483 243.626 591.171 243.626C588.519 243.626 586.564 241.756 586.564 238.798C586.564 235.857 588.451 234.004 591.171 234.004C593.874 234.004 595.642 235.908 595.642 238.458C595.642 238.798 595.625 239.07 595.591 239.393H588.145C588.264 241.28 589.59 242.317 591.171 242.317C592.565 242.317 593.449 241.603 593.789 240.6H595.455ZM599.031 238.407V243.473H597.484V234.157H599.031V235.67C599.558 234.633 600.561 233.987 602.04 233.987V235.585H601.632C600.153 235.585 599.031 236.248 599.031 238.407ZM603.132 233.324L602.911 229.941H604.407L604.203 233.324H603.132ZM612.83 240.94C612.83 242.47 611.487 243.626 609.43 243.626C607.254 243.626 605.724 242.436 605.622 240.736H607.22C607.305 241.637 608.104 242.317 609.413 242.317C610.637 242.317 611.317 241.705 611.317 240.94C611.317 238.866 605.809 240.073 605.809 236.605C605.809 235.177 607.152 234.004 609.226 234.004C611.283 234.004 612.643 235.109 612.745 236.928H611.198C611.13 235.993 610.416 235.313 609.175 235.313C608.036 235.313 607.356 235.857 607.356 236.605C607.356 238.815 612.762 237.608 612.83 240.94ZM481.352 264.874C481.913 263.888 483.137 263.004 484.837 263.004C487.336 263.004 489.257 264.874 489.257 267.781C489.257 270.671 487.336 272.626 484.837 272.626C483.137 272.626 481.93 271.708 481.352 270.756V276.893H479.805V263.157H481.352V264.874ZM487.676 267.781C487.676 265.588 486.231 264.347 484.514 264.347C482.831 264.347 481.352 265.639 481.352 267.798C481.352 269.991 482.831 271.266 484.514 271.266C486.231 271.266 487.676 269.974 487.676 267.781ZM492.64 267.407V272.473H491.093V263.157H492.64V264.67C493.167 263.633 494.17 262.987 495.649 262.987V264.585H495.241C493.762 264.585 492.64 265.248 492.64 267.407ZM506.075 267.798C506.075 270.756 503.95 272.626 501.298 272.626C498.663 272.626 496.657 270.756 496.657 267.798C496.657 264.857 498.731 263.004 501.366 263.004C504.018 263.004 506.075 264.857 506.075 267.798ZM498.238 267.798C498.238 270.161 499.683 271.266 501.298 271.266C502.913 271.266 504.494 270.161 504.494 267.798C504.494 265.452 502.947 264.347 501.349 264.347C499.717 264.347 498.238 265.452 498.238 267.798ZM508.198 272.473V264.432H506.991V263.157H508.198V262.494C508.198 260.42 509.218 259.485 511.598 259.485V260.777C510.204 260.777 509.745 261.287 509.745 262.494V263.157H511.7V264.432H509.745V272.473H508.198ZM513.304 272.473V263.157H514.851V272.473H513.304ZM514.103 261.644C513.508 261.644 513.049 261.185 513.049 260.59C513.049 259.995 513.508 259.536 514.103 259.536C514.664 259.536 515.123 259.995 515.123 260.59C515.123 261.185 514.664 261.644 514.103 261.644ZM517.287 272.473V259.893H518.834V272.473H517.287ZM525.232 264.313C523.719 264.313 522.461 265.316 522.291 267.135H528.173C528.19 265.316 526.83 264.313 525.232 264.313ZM529.584 269.6C529.108 271.3 527.612 272.626 525.3 272.626C522.648 272.626 520.693 270.756 520.693 267.798C520.693 264.857 522.58 263.004 525.3 263.004C528.003 263.004 529.771 264.908 529.771 267.458C529.771 267.798 529.754 268.07 529.72 268.393H522.274C522.393 270.28 523.719 271.317 525.3 271.317C526.694 271.317 527.578 270.603 527.918 269.6H529.584Z" fill="white"/>
<path d="M488.097 137.665C488.097 136.405 487.194 135.649 485.766 135.649H482.868V139.597H485.829C487.257 139.597 488.097 138.904 488.097 137.665ZM487.74 131.554C487.74 130.378 486.942 129.706 485.556 129.706H482.868V133.381H485.556C486.942 133.381 487.74 132.751 487.74 131.554ZM491.079 138.022C491.079 140.353 489.294 141.991 486.249 141.991H479.928V127.333H485.976C489.042 127.333 490.743 128.929 490.743 131.113C490.743 132.898 489.672 134.011 488.244 134.473C489.903 134.767 491.079 136.3 491.079 138.022ZM504.158 136.174C504.158 139.828 501.47 142.18 498.089 142.18C494.729 142.18 492.188 139.828 492.188 136.174C492.188 132.499 494.813 130.168 498.173 130.168C501.533 130.168 504.158 132.499 504.158 136.174ZM495.17 136.174C495.17 138.484 496.514 139.618 498.089 139.618C499.643 139.618 501.134 138.484 501.134 136.174C501.134 133.843 499.685 132.73 498.131 132.73C496.577 132.73 495.17 133.843 495.17 136.174ZM517.049 136.174C517.049 139.828 514.361 142.18 510.98 142.18C507.62 142.18 505.079 139.828 505.079 136.174C505.079 132.499 507.704 130.168 511.064 130.168C514.424 130.168 517.049 132.499 517.049 136.174ZM508.061 136.174C508.061 138.484 509.405 139.618 510.98 139.618C512.534 139.618 514.025 138.484 514.025 136.174C514.025 133.843 512.576 132.73 511.022 132.73C509.468 132.73 508.061 133.843 508.061 136.174ZM518.706 141.991V126.451H521.646V135.292L525.552 130.357H529.374L524.25 136.195L529.416 141.991H525.594L521.646 137.035V141.991H518.706Z" fill="white"/>
</g>
<g clip-path="url(#clip4_19_1984)">
<g clip-path="url(#clip5_19_1984)">
<circle cx="882.5" cy="36.4912" r="36.5" fill="white"/>
<path d="M873.438 31.1272C873.654 25.9432 877.038 23.0992 882.402 23.0992C887.946 23.0992 890.934 26.2672 890.934 30.2272C890.934 33.6832 888.774 35.5192 886.974 36.1312V36.2752C889.602 37.1392 891.402 39.1552 891.402 42.6112C891.402 47.0392 888.234 50.2072 882.726 50.2072C877.254 50.2072 873.294 47.6152 873.114 41.6752H879.09C879.126 43.7272 880.242 45.0952 882.51 45.0952C884.418 45.0952 885.462 43.8712 885.462 42.1432C885.462 39.8032 884.058 38.8672 880.854 38.8672H879.702V33.8632H880.854C882.942 33.8632 884.958 33.3592 884.958 30.9832C884.958 29.2192 883.914 28.2472 882.258 28.2472C880.278 28.2472 879.558 29.6872 879.45 31.1272H873.438Z" fill="#442D87"/>
</g>
<path opacity="0.7" d="M767.782 174.4V173.142H775.806V174.4H772.576V184.991H771.029V174.4H767.782ZM777.511 184.991V172.411H779.058V177.018C779.67 176.032 780.826 175.505 782.135 175.505C784.209 175.505 785.858 176.831 785.858 179.5V184.991H784.328V179.721C784.328 177.817 783.291 176.848 781.727 176.848C780.146 176.848 779.058 177.834 779.058 179.84V184.991H777.511ZM792.146 176.831C790.633 176.831 789.375 177.834 789.205 179.653H795.087C795.104 177.834 793.744 176.831 792.146 176.831ZM796.498 182.118C796.022 183.818 794.526 185.144 792.214 185.144C789.562 185.144 787.607 183.274 787.607 180.316C787.607 177.375 789.494 175.522 792.214 175.522C794.917 175.522 796.685 177.426 796.685 179.976C796.685 180.316 796.668 180.588 796.634 180.911H789.188C789.307 182.798 790.633 183.835 792.214 183.835C793.608 183.835 794.492 183.121 794.832 182.118H796.498ZM802.281 180.299C802.281 177.392 804.202 175.522 806.701 175.522C808.435 175.522 809.625 176.406 810.169 177.375V175.675H811.733V184.991H810.169V183.257C809.608 184.26 808.401 185.144 806.684 185.144C804.202 185.144 802.281 183.189 802.281 180.299ZM810.169 180.316C810.169 178.157 808.707 176.865 807.007 176.865C805.307 176.865 803.862 178.106 803.862 180.299C803.862 182.492 805.307 183.784 807.007 183.784C808.707 183.784 810.169 182.509 810.169 180.316ZM813.569 180.299C813.569 177.392 815.49 175.522 818.006 175.522C819.468 175.522 820.811 176.27 821.457 177.341V172.411H823.021V184.991H821.457V183.24C820.896 184.277 819.689 185.144 817.989 185.144C815.49 185.144 813.569 183.189 813.569 180.299ZM821.457 180.316C821.457 178.157 819.995 176.865 818.295 176.865C816.595 176.865 815.15 178.106 815.15 180.299C815.15 182.492 816.595 183.784 818.295 183.784C819.995 183.784 821.457 182.509 821.457 180.316ZM838.882 184.991V179.721C838.882 177.817 837.862 176.848 836.332 176.848C834.768 176.848 833.697 177.851 833.697 179.857V184.991H832.167V179.721C832.167 177.817 831.147 176.848 829.617 176.848C828.053 176.848 826.982 177.851 826.982 179.857V184.991H825.435V175.675H826.982V177.018C827.594 176.032 828.699 175.505 829.923 175.505C831.453 175.505 832.728 176.185 833.34 177.579C833.884 176.236 835.21 175.505 836.638 175.505C838.763 175.505 840.412 176.831 840.412 179.5V184.991H838.882ZM842.75 184.991V175.675H844.297V184.991H842.75ZM843.549 174.162C842.954 174.162 842.495 173.703 842.495 173.108C842.495 172.513 842.954 172.054 843.549 172.054C844.11 172.054 844.569 172.513 844.569 173.108C844.569 173.703 844.11 174.162 843.549 174.162ZM853.551 184.991V179.721C853.551 177.817 852.514 176.848 850.95 176.848C849.369 176.848 848.281 177.834 848.281 179.84V184.991H846.734V175.675H848.281V177.001C848.893 176.032 850.015 175.505 851.273 175.505C853.432 175.505 855.081 176.831 855.081 179.5V184.991H853.551ZM863.559 184.991L860.635 175.675H862.216L864.358 183.495L866.67 175.675H868.251L870.512 183.512L872.62 175.675H874.15L871.243 184.991H869.645L867.401 177.596L865.157 184.991H863.559ZM875.485 184.991V175.675H877.032V184.991H875.485ZM876.284 174.162C875.689 174.162 875.23 173.703 875.23 173.108C875.23 172.513 875.689 172.054 876.284 172.054C876.845 172.054 877.304 172.513 877.304 173.108C877.304 173.703 876.845 174.162 876.284 174.162ZM879.469 184.991V172.411H881.016V184.991H879.469ZM883.452 184.991V172.411H884.999V184.991H883.452ZM891.19 180.316C891.19 177.392 893.077 175.522 895.729 175.522C898.041 175.522 899.554 176.712 900.03 178.667H898.364C898.041 177.545 897.106 176.831 895.729 176.831C894.029 176.831 892.771 178.038 892.771 180.316C892.771 182.628 894.029 183.835 895.729 183.835C897.106 183.835 898.024 183.172 898.364 181.999H900.03C899.554 183.852 898.041 185.144 895.729 185.144C893.077 185.144 891.19 183.274 891.19 180.316ZM910.734 180.316C910.734 183.274 908.609 185.144 905.957 185.144C903.322 185.144 901.316 183.274 901.316 180.316C901.316 177.375 903.39 175.522 906.025 175.522C908.677 175.522 910.734 177.375 910.734 180.316ZM902.897 180.316C902.897 182.679 904.342 183.784 905.957 183.784C907.572 183.784 909.153 182.679 909.153 180.316C909.153 177.97 907.606 176.865 906.008 176.865C904.376 176.865 902.897 177.97 902.897 180.316ZM919.385 184.991V179.721C919.385 177.817 918.348 176.848 916.784 176.848C915.203 176.848 914.115 177.834 914.115 179.84V184.991H912.568V175.675H914.115V177.001C914.727 176.032 915.849 175.505 917.107 175.505C919.266 175.505 920.915 176.831 920.915 179.5V184.991H919.385ZM930.059 184.991V179.721C930.059 177.817 929.022 176.848 927.458 176.848C925.877 176.848 924.789 177.834 924.789 179.84V184.991H923.242V175.675H924.789V177.001C925.401 176.032 926.523 175.505 927.781 175.505C929.94 175.505 931.589 176.831 931.589 179.5V184.991H930.059ZM937.878 176.831C936.365 176.831 935.107 177.834 934.937 179.653H940.819C940.836 177.834 939.476 176.831 937.878 176.831ZM942.23 182.118C941.754 183.818 940.258 185.144 937.946 185.144C935.294 185.144 933.339 183.274 933.339 180.316C933.339 177.375 935.226 175.522 937.946 175.522C940.649 175.522 942.417 177.426 942.417 179.976C942.417 180.316 942.4 180.588 942.366 180.911H934.92C935.039 182.798 936.365 183.835 937.946 183.835C939.34 183.835 940.224 183.121 940.564 182.118H942.23ZM943.681 180.316C943.681 177.392 945.568 175.522 948.22 175.522C950.532 175.522 952.045 176.712 952.521 178.667H950.855C950.532 177.545 949.597 176.831 948.22 176.831C946.52 176.831 945.262 178.038 945.262 180.316C945.262 182.628 946.52 183.835 948.22 183.835C949.597 183.835 950.515 183.172 950.855 181.999H952.521C952.045 183.852 950.532 185.144 948.22 185.144C945.568 185.144 943.681 183.274 943.681 180.316ZM954.725 182.441V176.95H953.518V175.675H954.725V173.329H956.272V175.675H958.703V176.95H956.272V182.441C956.272 183.359 956.612 183.682 957.564 183.682H958.703V184.991H957.309C955.66 184.991 954.725 184.311 954.725 182.441ZM966.528 184.991L963.604 175.675H965.185L967.327 183.495L969.639 175.675H971.22L973.481 183.512L975.589 175.675H977.119L974.212 184.991H972.614L970.37 177.596L968.126 184.991H966.528ZM978.455 184.991V175.675H980.002V184.991H978.455ZM979.254 174.162C978.659 174.162 978.2 173.703 978.2 173.108C978.2 172.513 978.659 172.054 979.254 172.054C979.815 172.054 980.274 172.513 980.274 173.108C980.274 173.703 979.815 174.162 979.254 174.162ZM982.778 182.441V176.95H981.571V175.675H982.778V173.329H984.325V175.675H986.756V176.95H984.325V182.441C984.325 183.359 984.665 183.682 985.617 183.682H986.756V184.991H985.362C983.713 184.991 982.778 184.311 982.778 182.441ZM988.431 184.991V172.411H989.978V177.018C990.59 176.032 991.746 175.505 993.055 175.505C995.129 175.505 996.778 176.831 996.778 179.5V184.991H995.248V179.721C995.248 177.817 994.211 176.848 992.647 176.848C991.066 176.848 989.978 177.834 989.978 179.84V184.991H988.431ZM782.35 211.441V205.95H781.143V204.675H782.35V202.329H783.897V204.675H786.328V205.95H783.897V211.441C783.897 212.359 784.237 212.682 785.189 212.682H786.328V213.991H784.934C783.285 213.991 782.35 213.311 782.35 211.441ZM788.002 213.991V201.411H789.549V206.018C790.161 205.032 791.317 204.505 792.626 204.505C794.7 204.505 796.349 205.831 796.349 208.5V213.991H794.819V208.721C794.819 206.817 793.782 205.848 792.218 205.848C790.637 205.848 789.549 206.834 789.549 208.84V213.991H788.002ZM802.637 205.831C801.124 205.831 799.866 206.834 799.696 208.653H805.578C805.595 206.834 804.235 205.831 802.637 205.831ZM806.989 211.118C806.513 212.818 805.017 214.144 802.705 214.144C800.053 214.144 798.098 212.274 798.098 209.316C798.098 206.375 799.985 204.522 802.705 204.522C805.408 204.522 807.176 206.426 807.176 208.976C807.176 209.316 807.159 209.588 807.125 209.911H799.679C799.798 211.798 801.124 212.835 802.705 212.835C804.099 212.835 804.983 212.121 805.323 211.118H806.989ZM814.897 206.392C815.458 205.406 816.682 204.522 818.382 204.522C820.881 204.522 822.802 206.392 822.802 209.299C822.802 212.189 820.881 214.144 818.382 214.144C816.682 214.144 815.475 213.226 814.897 212.274V218.411H813.35V204.675H814.897V206.392ZM821.221 209.299C821.221 207.106 819.776 205.865 818.059 205.865C816.376 205.865 814.897 207.157 814.897 209.316C814.897 211.509 816.376 212.784 818.059 212.784C819.776 212.784 821.221 211.492 821.221 209.299ZM826.186 208.925V213.991H824.639V204.675H826.186V206.188C826.713 205.151 827.716 204.505 829.195 204.505V206.103H828.787C827.308 206.103 826.186 206.766 826.186 208.925ZM839.62 209.316C839.62 212.274 837.495 214.144 834.843 214.144C832.208 214.144 830.202 212.274 830.202 209.316C830.202 206.375 832.276 204.522 834.911 204.522C837.563 204.522 839.62 206.375 839.62 209.316ZM831.783 209.316C831.783 211.679 833.228 212.784 834.843 212.784C836.458 212.784 838.039 211.679 838.039 209.316C838.039 206.97 836.492 205.865 834.894 205.865C833.262 205.865 831.783 206.97 831.783 209.316ZM840.349 204.675H842.015L844.922 212.563L847.812 204.675H849.461L845.806 213.991H844.004L840.349 204.675ZM850.784 213.991V204.675H852.331V213.991H850.784ZM851.583 203.162C850.988 203.162 850.529 202.703 850.529 202.108C850.529 201.513 850.988 201.054 851.583 201.054C852.144 201.054 852.603 201.513 852.603 202.108C852.603 202.703 852.144 203.162 851.583 203.162ZM854.189 209.299C854.189 206.392 856.11 204.522 858.626 204.522C860.088 204.522 861.431 205.27 862.077 206.341V201.411H863.641V213.991H862.077V212.24C861.516 213.277 860.309 214.144 858.609 214.144C856.11 214.144 854.189 212.189 854.189 209.299ZM862.077 209.316C862.077 207.157 860.615 205.865 858.915 205.865C857.215 205.865 855.77 207.106 855.77 209.299C855.77 211.492 857.215 212.784 858.915 212.784C860.615 212.784 862.077 211.509 862.077 209.316ZM870.017 205.831C868.504 205.831 867.246 206.834 867.076 208.653H872.958C872.975 206.834 871.615 205.831 870.017 205.831ZM874.369 211.118C873.893 212.818 872.397 214.144 870.085 214.144C867.433 214.144 865.478 212.274 865.478 209.316C865.478 206.375 867.365 204.522 870.085 204.522C872.788 204.522 874.556 206.426 874.556 208.976C874.556 209.316 874.539 209.588 874.505 209.911H867.059C867.178 211.798 868.504 212.835 870.085 212.835C871.479 212.835 872.363 212.121 872.703 211.118H874.369ZM877.945 208.925V213.991H876.398V204.675H877.945V206.188C878.472 205.151 879.475 204.505 880.954 204.505V206.103H880.546C879.067 206.103 877.945 206.766 877.945 208.925ZM887.212 211.441V205.95H886.005V204.675H887.212V202.329H888.759V204.675H891.19V205.95H888.759V211.441C888.759 212.359 889.099 212.682 890.051 212.682H891.19V213.991H889.796C888.147 213.991 887.212 213.311 887.212 211.441ZM901.704 209.316C901.704 212.274 899.579 214.144 896.927 214.144C894.292 214.144 892.286 212.274 892.286 209.316C892.286 206.375 894.36 204.522 896.995 204.522C899.647 204.522 901.704 206.375 901.704 209.316ZM893.867 209.316C893.867 211.679 895.312 212.784 896.927 212.784C898.542 212.784 900.123 211.679 900.123 209.316C900.123 206.97 898.576 205.865 896.978 205.865C895.346 205.865 893.867 206.97 893.867 209.316ZM907.292 209.299C907.292 206.392 909.213 204.522 911.729 204.522C913.191 204.522 914.534 205.27 915.18 206.341V201.411H916.744V213.991H915.18V212.24C914.619 213.277 913.412 214.144 911.712 214.144C909.213 214.144 907.292 212.189 907.292 209.299ZM915.18 209.316C915.18 207.157 913.718 205.865 912.018 205.865C910.318 205.865 908.873 207.106 908.873 209.299C908.873 211.492 910.318 212.784 912.018 212.784C913.718 212.784 915.18 211.509 915.18 209.316ZM919.159 213.991V204.675H920.706V213.991H919.159ZM919.958 203.162C919.363 203.162 918.904 202.703 918.904 202.108C918.904 201.513 919.363 201.054 919.958 201.054C920.519 201.054 920.978 201.513 920.978 202.108C920.978 202.703 920.519 203.162 919.958 203.162ZM929.84 211.458C929.84 212.988 928.497 214.144 926.44 214.144C924.264 214.144 922.734 212.954 922.632 211.254H924.23C924.315 212.155 925.114 212.835 926.423 212.835C927.647 212.835 928.327 212.223 928.327 211.458C928.327 209.384 922.819 210.591 922.819 207.123C922.819 205.695 924.162 204.522 926.236 204.522C928.293 204.522 929.653 205.627 929.755 207.446H928.208C928.14 206.511 927.426 205.831 926.185 205.831C925.046 205.831 924.366 206.375 924.366 207.123C924.366 209.333 929.772 208.126 929.84 211.458ZM931.246 209.316C931.246 206.392 933.133 204.522 935.785 204.522C938.097 204.522 939.61 205.712 940.086 207.667H938.42C938.097 206.545 937.162 205.831 935.785 205.831C934.085 205.831 932.827 207.038 932.827 209.316C932.827 211.628 934.085 212.835 935.785 212.835C937.162 212.835 938.08 212.172 938.42 210.999H940.086C939.61 212.852 938.097 214.144 935.785 214.144C933.133 214.144 931.246 212.274 931.246 209.316ZM950.212 204.675V213.991H948.665V212.614C948.07 213.583 946.931 214.127 945.69 214.127C943.548 214.127 941.865 212.801 941.865 210.132V204.675H943.395V209.928C943.395 211.815 944.432 212.784 945.996 212.784C947.594 212.784 948.665 211.798 948.665 209.792V204.675H950.212ZM959.322 211.458C959.322 212.988 957.979 214.144 955.922 214.144C953.746 214.144 952.216 212.954 952.114 211.254H953.712C953.797 212.155 954.596 212.835 955.905 212.835C957.129 212.835 957.809 212.223 957.809 211.458C957.809 209.384 952.301 210.591 952.301 207.123C952.301 205.695 953.644 204.522 955.718 204.522C957.775 204.522 959.135 205.627 959.237 207.446H957.69C957.622 206.511 956.908 205.831 955.667 205.831C954.528 205.831 953.848 206.375 953.848 207.123C953.848 209.333 959.254 208.126 959.322 211.458ZM968.004 211.458C968.004 212.988 966.661 214.144 964.604 214.144C962.428 214.144 960.898 212.954 960.796 211.254H962.394C962.479 212.155 963.278 212.835 964.587 212.835C965.811 212.835 966.491 212.223 966.491 211.458C966.491 209.384 960.983 210.591 960.983 207.123C960.983 205.695 962.326 204.522 964.4 204.522C966.457 204.522 967.817 205.627 967.919 207.446H966.372C966.304 206.511 965.59 205.831 964.349 205.831C963.21 205.831 962.53 206.375 962.53 207.123C962.53 209.333 967.936 208.126 968.004 211.458ZM973.742 209.299C973.742 206.392 975.663 204.522 978.162 204.522C979.896 204.522 981.086 205.406 981.63 206.375V204.675H983.194V213.991H981.63V212.257C981.069 213.26 979.862 214.144 978.145 214.144C975.663 214.144 973.742 212.189 973.742 209.299ZM981.63 209.316C981.63 207.157 980.168 205.865 978.468 205.865C976.768 205.865 975.323 207.106 975.323 209.299C975.323 211.492 976.768 212.784 978.468 212.784C980.168 212.784 981.63 211.509 981.63 209.316ZM780.516 240.458C780.516 241.988 779.173 243.144 777.116 243.144C774.94 243.144 773.41 241.954 773.308 240.254H774.906C774.991 241.155 775.79 241.835 777.099 241.835C778.323 241.835 779.003 241.223 779.003 240.458C779.003 238.384 773.495 239.591 773.495 236.123C773.495 234.695 774.838 233.522 776.912 233.522C778.969 233.522 780.329 234.627 780.431 236.446H778.884C778.816 235.511 778.102 234.831 776.861 234.831C775.722 234.831 775.042 235.375 775.042 236.123C775.042 238.333 780.448 237.126 780.516 240.458ZM790.761 233.675V242.991H789.214V241.614C788.619 242.583 787.48 243.127 786.239 243.127C784.097 243.127 782.414 241.801 782.414 239.132V233.675H783.944V238.928C783.944 240.815 784.981 241.784 786.545 241.784C788.143 241.784 789.214 240.798 789.214 238.792V233.675H790.761ZM793.173 242.991V233.675H794.72V242.991H793.173ZM793.972 232.162C793.377 232.162 792.918 231.703 792.918 231.108C792.918 230.513 793.377 230.054 793.972 230.054C794.533 230.054 794.992 230.513 794.992 231.108C794.992 231.703 794.533 232.162 793.972 232.162ZM797.497 240.441V234.95H796.29V233.675H797.497V231.329H799.044V233.675H801.475V234.95H799.044V240.441C799.044 241.359 799.384 241.682 800.336 241.682H801.475V242.991H800.081C798.432 242.991 797.497 242.311 797.497 240.441ZM802.571 238.299C802.571 235.392 804.492 233.522 806.991 233.522C808.725 233.522 809.915 234.406 810.459 235.375V233.675H812.023V242.991H810.459V241.257C809.898 242.26 808.691 243.144 806.974 243.144C804.492 243.144 802.571 241.189 802.571 238.299ZM810.459 238.316C810.459 236.157 808.997 234.865 807.297 234.865C805.597 234.865 804.152 236.106 804.152 238.299C804.152 240.492 805.597 241.784 807.297 241.784C808.997 241.784 810.459 240.509 810.459 238.316ZM815.985 235.409C816.58 234.372 817.821 233.522 819.47 233.522C821.986 233.522 823.89 235.392 823.89 238.299C823.89 241.189 821.969 243.144 819.47 243.144C817.77 243.144 816.563 242.294 815.985 241.274V242.991H814.438V230.411H815.985V235.409ZM822.309 238.299C822.309 236.106 820.864 234.865 819.147 234.865C817.464 234.865 815.985 236.157 815.985 238.316C815.985 240.509 817.464 241.784 819.147 241.784C820.864 241.784 822.309 240.492 822.309 238.299ZM825.726 242.991V230.411H827.273V242.991H825.726ZM833.671 234.831C832.158 234.831 830.9 235.834 830.73 237.653H836.612C836.629 235.834 835.269 234.831 833.671 234.831ZM838.023 240.118C837.547 241.818 836.051 243.144 833.739 243.144C831.087 243.144 829.132 241.274 829.132 238.316C829.132 235.375 831.019 233.522 833.739 233.522C836.442 233.522 838.21 235.426 838.21 237.976C838.21 238.316 838.193 238.588 838.159 238.911H830.713C830.832 240.798 832.158 241.835 833.739 241.835C835.133 241.835 836.017 241.121 836.357 240.118H838.023ZM844.724 240.441V234.95H843.517V233.675H844.724V231.329H846.271V233.675H848.702V234.95H846.271V240.441C846.271 241.359 846.611 241.682 847.563 241.682H848.702V242.991H847.308C845.659 242.991 844.724 242.311 844.724 240.441ZM850.376 242.991V233.675H851.923V242.991H850.376ZM851.175 232.162C850.58 232.162 850.121 231.703 850.121 231.108C850.121 230.513 850.58 230.054 851.175 230.054C851.736 230.054 852.195 230.513 852.195 231.108C852.195 231.703 851.736 232.162 851.175 232.162ZM867.807 242.991V237.721C867.807 235.817 866.787 234.848 865.257 234.848C863.693 234.848 862.622 235.851 862.622 237.857V242.991H861.092V237.721C861.092 235.817 860.072 234.848 858.542 234.848C856.978 234.848 855.907 235.851 855.907 237.857V242.991H854.36V233.675H855.907V235.018C856.519 234.032 857.624 233.505 858.848 233.505C860.378 233.505 861.653 234.185 862.265 235.579C862.809 234.236 864.135 233.505 865.563 233.505C867.688 233.505 869.337 234.831 869.337 237.5V242.991H867.807ZM875.635 234.831C874.122 234.831 872.864 235.834 872.694 237.653H878.576C878.593 235.834 877.233 234.831 875.635 234.831ZM879.987 240.118C879.511 241.818 878.015 243.144 875.703 243.144C873.051 243.144 871.096 241.274 871.096 238.316C871.096 235.375 872.983 233.522 875.703 233.522C878.406 233.522 880.174 235.426 880.174 237.976C880.174 238.316 880.157 238.588 880.123 238.911H872.677C872.796 240.798 874.122 241.835 875.703 241.835C877.097 241.835 877.981 241.121 878.321 240.118H879.987ZM886.638 242.991V234.95H885.431V233.675H886.638V233.012C886.638 230.938 887.658 230.003 890.038 230.003V231.295C888.644 231.295 888.185 231.805 888.185 233.012V233.675H890.14V234.95H888.185V242.991H886.638ZM900.583 238.316C900.583 241.274 898.458 243.144 895.806 243.144C893.171 243.144 891.165 241.274 891.165 238.316C891.165 235.375 893.239 233.522 895.874 233.522C898.526 233.522 900.583 235.375 900.583 238.316ZM892.746 238.316C892.746 240.679 894.191 241.784 895.806 241.784C897.421 241.784 899.002 240.679 899.002 238.316C899.002 235.97 897.455 234.865 895.857 234.865C894.225 234.865 892.746 235.97 892.746 238.316ZM903.964 237.925V242.991H902.417V233.675H903.964V235.188C904.491 234.151 905.494 233.505 906.973 233.505V235.103H906.565C905.086 235.103 903.964 235.766 903.964 237.925ZM912.313 238.299C912.313 235.392 914.234 233.522 916.733 233.522C918.467 233.522 919.657 234.406 920.201 235.375V233.675H921.765V242.991H920.201V241.257C919.64 242.26 918.433 243.144 916.716 243.144C914.234 243.144 912.313 241.189 912.313 238.299ZM920.201 238.316C920.201 236.157 918.739 234.865 917.039 234.865C915.339 234.865 913.894 236.106 913.894 238.299C913.894 240.492 915.339 241.784 917.039 241.784C918.739 241.784 920.201 240.509 920.201 238.316ZM935.21 240.458C935.21 241.988 933.867 243.144 931.81 243.144C929.634 243.144 928.104 241.954 928.002 240.254H929.6C929.685 241.155 930.484 241.835 931.793 241.835C933.017 241.835 933.697 241.223 933.697 240.458C933.697 238.384 928.189 239.591 928.189 236.123C928.189 234.695 929.532 233.522 931.606 233.522C933.663 233.522 935.023 234.627 935.125 236.446H933.578C933.51 235.511 932.796 234.831 931.555 234.831C930.416 234.831 929.736 235.375 929.736 236.123C929.736 238.333 935.142 237.126 935.21 240.458ZM941.155 234.831C939.642 234.831 938.384 235.834 938.214 237.653H944.096C944.113 235.834 942.753 234.831 941.155 234.831ZM945.507 240.118C945.031 241.818 943.535 243.144 941.223 243.144C938.571 243.144 936.616 241.274 936.616 238.316C936.616 235.375 938.503 233.522 941.223 233.522C943.926 233.522 945.694 235.426 945.694 237.976C945.694 238.316 945.677 238.588 945.643 238.911H938.197C938.316 240.798 939.642 241.835 941.223 241.835C942.617 241.835 943.501 241.121 943.841 240.118H945.507ZM954.234 240.458C954.234 241.988 952.891 243.144 950.834 243.144C948.658 243.144 947.128 241.954 947.026 240.254H948.624C948.709 241.155 949.508 241.835 950.817 241.835C952.041 241.835 952.721 241.223 952.721 240.458C952.721 238.384 947.213 239.591 947.213 236.123C947.213 234.695 948.556 233.522 950.63 233.522C952.687 233.522 954.047 234.627 954.149 236.446H952.602C952.534 235.511 951.82 234.831 950.579 234.831C949.44 234.831 948.76 235.375 948.76 236.123C948.76 238.333 954.166 237.126 954.234 240.458ZM962.916 240.458C962.916 241.988 961.573 243.144 959.516 243.144C957.34 243.144 955.81 241.954 955.708 240.254H957.306C957.391 241.155 958.19 241.835 959.499 241.835C960.723 241.835 961.403 241.223 961.403 240.458C961.403 238.384 955.895 239.591 955.895 236.123C955.895 234.695 957.238 233.522 959.312 233.522C961.369 233.522 962.729 234.627 962.831 236.446H961.284C961.216 235.511 960.502 234.831 959.261 234.831C958.122 234.831 957.442 235.375 957.442 236.123C957.442 238.333 962.848 237.126 962.916 240.458ZM964.899 242.991V233.675H966.446V242.991H964.899ZM965.698 232.162C965.103 232.162 964.644 231.703 964.644 231.108C964.644 230.513 965.103 230.054 965.698 230.054C966.259 230.054 966.718 230.513 966.718 231.108C966.718 231.703 966.259 232.162 965.698 232.162ZM977.723 238.316C977.723 241.274 975.598 243.144 972.946 243.144C970.311 243.144 968.305 241.274 968.305 238.316C968.305 235.375 970.379 233.522 973.014 233.522C975.666 233.522 977.723 235.375 977.723 238.316ZM969.886 238.316C969.886 240.679 971.331 241.784 972.946 241.784C974.561 241.784 976.142 240.679 976.142 238.316C976.142 235.97 974.595 234.865 972.997 234.865C971.365 234.865 969.886 235.97 969.886 238.316ZM986.374 242.991V237.721C986.374 235.817 985.337 234.848 983.773 234.848C982.192 234.848 981.104 235.834 981.104 237.84V242.991H979.557V233.675H981.104V235.001C981.716 234.032 982.838 233.505 984.096 233.505C986.255 233.505 987.904 234.831 987.904 237.5V242.991H986.374ZM991.744 242.039C991.744 242.634 991.285 243.093 990.724 243.093C990.129 243.093 989.67 242.634 989.67 242.039C989.67 241.444 990.129 240.985 990.724 240.985C991.285 240.985 991.744 241.444 991.744 242.039Z" fill="white"/>
<path d="M826.028 141.991L825.062 139.198H819.224L818.258 141.991H815.171L820.442 127.312H823.865L829.136 141.991H826.028ZM824.264 136.846L822.143 130.714L820.022 136.846H824.264ZM833.546 132.037C834.239 131.05 835.583 130.168 837.389 130.168C840.371 130.168 842.702 132.499 842.702 136.132C842.702 139.765 840.371 142.18 837.389 142.18C835.562 142.18 834.26 141.277 833.546 140.332V147.535H830.606V130.357H833.546V132.037ZM839.699 136.132C839.699 133.927 838.208 132.751 836.612 132.751C835.037 132.751 833.546 133.969 833.546 136.174C833.546 138.379 835.037 139.597 836.612 139.597C838.208 139.597 839.699 138.337 839.699 136.132ZM847.279 132.037C847.972 131.05 849.316 130.168 851.122 130.168C854.104 130.168 856.435 132.499 856.435 136.132C856.435 139.765 854.104 142.18 851.122 142.18C849.295 142.18 847.993 141.277 847.279 140.332V147.535H844.339V130.357H847.279V132.037ZM853.432 136.132C853.432 133.927 851.941 132.751 850.345 132.751C848.77 132.751 847.279 133.969 847.279 136.174C847.279 138.379 848.77 139.597 850.345 139.597C851.941 139.597 853.432 138.337 853.432 136.132ZM869.306 136.174C869.306 139.828 866.618 142.18 863.237 142.18C859.877 142.18 857.336 139.828 857.336 136.174C857.336 132.499 859.961 130.168 863.321 130.168C866.681 130.168 869.306 132.499 869.306 136.174ZM860.318 136.174C860.318 138.484 861.662 139.618 863.237 139.618C864.791 139.618 866.282 138.484 866.282 136.174C866.282 133.843 864.833 132.73 863.279 132.73C861.725 132.73 860.318 133.843 860.318 136.174ZM870.963 141.991V130.357H873.903V141.991H870.963ZM872.454 128.971C871.404 128.971 870.648 128.215 870.648 127.249C870.648 126.283 871.404 125.527 872.454 125.527C873.483 125.527 874.26 126.283 874.26 127.249C874.26 128.215 873.483 128.971 872.454 128.971ZM884.455 141.991V135.565C884.455 133.696 883.426 132.688 881.872 132.688C880.276 132.688 879.247 133.696 879.247 135.565V141.991H876.307V130.357H879.247V131.806C880.003 130.819 881.263 130.189 882.754 130.189C885.463 130.189 887.395 131.953 887.395 135.166V141.991H884.455ZM890.153 138.379V132.772H888.767V130.357H890.153V127.48H893.114V130.357H895.718V132.772H893.114V138.4C893.114 139.177 893.429 139.513 894.353 139.513H895.718V141.991H893.87C891.644 141.991 890.153 141.046 890.153 138.379ZM913.608 141.991V135.565C913.608 133.717 912.579 132.751 911.025 132.751C909.45 132.751 908.421 133.717 908.421 135.565V141.991H905.481V135.565C905.481 133.717 904.452 132.751 902.898 132.751C901.302 132.751 900.273 133.717 900.273 135.565V141.991H897.333V130.357H900.273V131.764C901.008 130.798 902.247 130.189 903.696 130.189C905.502 130.189 906.993 130.966 907.791 132.415C908.547 131.092 910.08 130.189 911.781 130.189C914.574 130.189 916.548 131.953 916.548 135.166V141.991H913.608ZM923.836 132.583C922.429 132.583 921.316 133.486 921.085 135.082H926.608C926.566 133.549 925.348 132.583 923.836 132.583ZM929.359 138.337C928.729 140.479 926.797 142.18 923.92 142.18C920.539 142.18 918.082 139.828 918.082 136.174C918.082 132.499 920.476 130.168 923.92 130.168C927.28 130.168 929.653 132.457 929.653 135.922C929.653 136.3 929.632 136.678 929.569 137.056H921.064C921.211 138.778 922.387 139.744 923.857 139.744C925.117 139.744 925.81 139.114 926.188 138.337H929.359ZM939.447 141.991V135.565C939.447 133.696 938.418 132.688 936.864 132.688C935.268 132.688 934.239 133.696 934.239 135.565V141.991H931.299V130.357H934.239V131.806C934.995 130.819 936.255 130.189 937.746 130.189C940.455 130.189 942.387 131.953 942.387 135.166V141.991H939.447ZM945.144 138.379V132.772H943.758V130.357H945.144V127.48H948.105V130.357H950.709V132.772H948.105V138.4C948.105 139.177 948.42 139.513 949.344 139.513H950.709V141.991H948.861C946.635 141.991 945.144 141.046 945.144 138.379Z" fill="white"/>
</g>
<defs>
<clipPath id="clip0_19_1984">
<rect width="253" height="252" fill="white" transform="translate(0 -0.00878906)"/>
</clipPath>
<clipPath id="clip1_19_1984">
<rect width="73" height="73" fill="white" transform="translate(90 -0.00878906)"/>
</clipPath>
<clipPath id="clip2_19_1984">
<rect width="253" height="281" fill="white" transform="translate(378 -0.00878906)"/>
</clipPath>
<clipPath id="clip3_19_1984">
<rect width="73" height="73" fill="white" transform="translate(468 -0.00878906)"/>
</clipPath>
<clipPath id="clip4_19_1984">
<rect width="253" height="252" fill="white" transform="translate(756 -0.00878906)"/>
</clipPath>
<clipPath id="clip5_19_1984">
<rect width="73" height="73" fill="white" transform="translate(846 -0.00878906)"/>
</clipPath>
</defs>
</svg>
