<svg width="17" height="17" viewBox="0 0 17 17" fill="none" xmlns="http://www.w3.org/2000/svg">
<path d="M10.0829 12.8327C10.0829 11.3599 8.29203 10.166 6.08289 10.166C3.87375 10.166 2.08289 11.3599 2.08289 12.8327M11.3016 3.61393C11.5493 3.86156 11.7457 4.15553 11.8797 4.47906C12.0137 4.8026 12.0828 5.14957 12.0828 5.49976C12.0828 5.84995 12.0138 6.196 11.8798 6.51953C11.7457 6.84307 11.5493 7.13738 11.3016 7.385M12.7496 2.16602C13.1873 2.60375 13.5345 3.12343 13.7714 3.69536C14.0083 4.2673 14.1308 4.88019 14.1308 5.49925C14.1308 6.11831 14.0086 6.73145 13.7717 7.30339C13.5348 7.87532 13.1873 8.39504 12.7496 8.83278M6.08289 8.16602C4.61013 8.16602 3.41622 6.97211 3.41622 5.49935C3.41622 4.02659 4.61013 2.83268 6.08289 2.83268C7.55565 2.83268 8.74955 4.02659 8.74955 5.49935C8.74955 6.97211 7.55565 8.16602 6.08289 8.16602Z" stroke="#6D8493" stroke-linecap="round" stroke-linejoin="round"/>
</svg>
