<svg width="17" height="17" viewBox="0 0 17 17" fill="none" xmlns="http://www.w3.org/2000/svg">
<g clip-path="url(#clip0_1181_14358)">
<path d="M0.841444 7.92112C0.841069 9.26543 1.19507 10.5781 1.86819 11.735L0.777069 15.688L4.85407 14.6273C5.98172 15.2364 7.24516 15.5556 8.52907 15.5557H8.53244C12.7709 15.5557 16.2211 12.1335 16.2229 7.92714C16.2237 5.88888 15.4244 3.97222 13.9723 2.53024C12.5204 1.08838 10.5895 0.293899 8.53213 0.292969C4.29319 0.292969 0.843257 3.71498 0.841507 7.92112" fill="url(#paint0_linear_1181_14358)"/>
<path d="M0.566875 7.91837C0.566438 9.31105 0.933125 10.6706 1.63025 11.869L0.5 15.9637L4.72319 14.865C5.88681 15.4945 7.19694 15.8264 8.53006 15.8269H8.5335C12.924 15.8269 16.4981 12.2816 16.5 7.92469C16.5007 5.81319 15.6727 3.82764 14.1687 2.334C12.6646 0.84054 10.6646 0.0174698 8.5335 0.0166016C4.14225 0.0166016 0.568625 3.56141 0.566875 7.91837ZM3.08194 11.6626L2.92425 11.4142C2.26137 10.3684 1.9115 9.15986 1.912 7.91887C1.91337 4.29747 4.88363 1.35118 8.536 1.35118C10.3048 1.35192 11.967 2.03607 13.2172 3.27738C14.4674 4.5188 15.1554 6.16904 15.1549 7.9242C15.1533 11.5456 12.183 14.4923 8.5335 14.4923H8.53088C7.34256 14.4916 6.17712 14.175 5.16075 13.5766L4.91888 13.4343L2.41275 14.0862L3.08194 11.6626Z" fill="url(#paint1_linear_1181_14358)"/>
<path d="M6.54238 4.6154C6.39325 4.28653 6.23632 4.27989 6.0945 4.27413C5.97838 4.26917 5.84563 4.26954 5.713 4.26954C5.58025 4.26954 5.36457 4.31909 5.18225 4.51661C4.99975 4.71431 4.4855 5.19208 4.4855 6.1638C4.4855 7.13552 5.19882 8.07468 5.29825 8.20659C5.39782 8.33825 6.67532 10.3962 8.69857 11.1879C10.3801 11.8458 10.7223 11.7149 11.0872 11.6819C11.4522 11.6491 12.2649 11.2043 12.4308 10.7431C12.5967 10.2819 12.5967 9.88665 12.5469 9.80405C12.4972 9.72175 12.3644 9.67233 12.1654 9.5736C11.9663 9.47487 10.9876 8.99698 10.8052 8.93106C10.6227 8.8652 10.49 8.83233 10.3573 9.0301C10.2245 9.22755 9.84332 9.67233 9.72713 9.80405C9.61107 9.93608 9.49488 9.95251 9.29588 9.85372C9.09669 9.75462 8.45563 9.54631 7.69507 8.87351C7.10332 8.34997 6.70382 7.70346 6.58769 7.50569C6.47157 7.30824 6.57525 7.2012 6.67507 7.10278C6.7645 7.01428 6.87419 6.87214 6.97382 6.75686C7.07307 6.64151 7.10619 6.55921 7.17257 6.42749C7.239 6.29565 7.20575 6.1803 7.15607 6.08151C7.10619 5.98272 6.71938 5.00591 6.54238 4.6154Z" fill="white"/>
</g>
<defs>
<linearGradient id="paint0_linear_1181_14358" x1="773.068" y1="1539.8" x2="773.068" y2="0.292969" gradientUnits="userSpaceOnUse">
<stop stop-color="#1FAF38"/>
<stop offset="1" stop-color="#60D669"/>
</linearGradient>
<linearGradient id="paint1_linear_1181_14358" x1="800.5" y1="1594.73" x2="800.5" y2="0.0166016" gradientUnits="userSpaceOnUse">
<stop stop-color="#F9F9F9"/>
<stop offset="1" stop-color="white"/>
</linearGradient>
<clipPath id="clip0_1181_14358">
<rect width="16" height="16" fill="white" transform="translate(0.5 0.0166016)"/>
</clipPath>
</defs>
</svg>
