<svg width="17" height="17" viewBox="0 0 17 17" fill="none" xmlns="http://www.w3.org/2000/svg">
<g clip-path="url(#clip0_1181_14362)">
<rect x="1.5" y="2.0166" width="14" height="12" rx="1.75" fill="white"/>
<path d="M2.78571 0.0166016C1.525 0.0166016 0.5 1.0416 0.5 2.30232V13.7309C0.5 14.9916 1.525 16.0166 2.78571 16.0166H14.2143C15.475 16.0166 16.5 14.9916 16.5 13.7309V2.30232C16.5 1.0416 15.475 0.0166016 14.2143 0.0166016H2.78571ZM13.3964 3.0166L9.68929 7.25232L14.05 13.0166H10.6357L7.96429 9.52017L4.90357 13.0166H3.20714L7.17143 8.48446L2.98929 3.0166H6.48929L8.90714 6.21303L11.7 3.0166H13.3964ZM12.0464 12.0023L5.97857 3.97732H4.96786L11.1036 12.0023H12.0429H12.0464Z" fill="black"/>
</g>
<defs>
<clipPath id="clip0_1181_14362">
<rect width="16" height="16" fill="white" transform="translate(0.5 0.0166016)"/>
</clipPath>
</defs>
</svg>
